<svg width="44" height="44" viewBox="0 0 44 44" fill="none" xmlns="http://www.w3.org/2000/svg">
<path fill-rule="evenodd" clip-rule="evenodd" d="M32.8692 41.1318C39.5171 37.3469 44 30.197 44 22C44 9.84974 34.1503 0 22 0C9.84974 0 0 9.84974 0 22C0 34.1109 9.78594 43.9361 21.8818 43.9997V41.7129L29.7012 33.3789C30.7747 32.2057 31.5661 31.182 32.0752 30.3076C32.5954 29.4333 32.8555 28.6032 32.8555 27.8174C32.8555 26.7438 32.5843 25.9027 32.042 25.2939C31.4997 24.6742 30.7249 24.3643 29.7178 24.3643C28.6331 24.3643 27.7754 24.7406 27.1445 25.4932C26.5247 26.2347 26.2148 27.2142 26.2148 28.4316H21.4004C21.4004 26.9596 21.749 25.6149 22.4463 24.3975C23.1546 23.18 24.1507 22.2282 25.4346 21.542C26.7184 20.8447 28.1738 20.4961 29.8008 20.4961C32.291 20.4961 34.2223 21.0938 35.5947 22.2891C36.9782 23.4844 37.6699 25.1722 37.6699 27.3525C37.6699 28.5479 37.36 29.7653 36.7402 31.0049C36.1204 32.2445 35.0579 33.6888 33.5527 35.3379L28.0576 41.1318H32.8692Z" fill="#66B700"/>
</svg>
