<svg width="36" height="36" viewBox="0 0 36 36" fill="none" xmlns="http://www.w3.org/2000/svg">
<path fill-rule="evenodd" clip-rule="evenodd" d="M18 36C27.9411 36 36 27.9411 36 18C36 8.05887 27.9411 0 18 0C8.05887 0 0 8.05887 0 18C0 27.9411 8.05887 36 18 36ZM13.0703 24H22V21.7148H16.9639L18.6162 19.8076C19.4951 18.9287 20.1309 18.2285 20.5234 17.707C20.9219 17.1797 21.2148 16.6787 21.4023 16.2041C21.5898 15.7236 21.6836 15.2314 21.6836 14.7275C21.6836 13.5322 21.3086 12.6152 20.5586 11.9766C19.8145 11.3379 18.751 11.0186 17.3682 11.0186C16.5068 11.0186 15.7275 11.2061 15.0303 11.5811C14.333 11.9561 13.7881 12.4775 13.3955 13.1455C13.0029 13.8076 12.8066 14.5312 12.8066 15.3164H15.7773C15.7773 14.7422 15.918 14.2646 16.1992 13.8838C16.4805 13.4971 16.8467 13.3037 17.2979 13.3037C17.7549 13.3037 18.1035 13.4473 18.3438 13.7344C18.584 14.0215 18.7041 14.4404 18.7041 14.9912C18.7041 15.6709 18.1973 16.5879 17.1836 17.7422L13.0703 22.0664V24Z" fill="#645E9D"/>
</svg>
