<svg width="44" height="44" viewBox="0 0 44 44" fill="none" xmlns="http://www.w3.org/2000/svg">
<path fill-rule="evenodd" clip-rule="evenodd" d="M37.9976 37.102C41.7187 33.1617 44 27.8471 44 21.9997C44 9.84943 34.1503 -0.000305176 22 -0.000305176C9.84974 -0.000305176 0 9.84943 0 21.9997C0 34.15 9.84974 43.9997 22 43.9997C22.7486 43.9997 23.4885 43.9623 24.2179 43.8893C24.0017 43.7446 23.793 43.589 23.5918 43.4225C22.0645 42.1498 21.3008 40.4675 21.3008 38.3757H26.0986C26.0986 39.2832 26.4362 40.0248 27.1113 40.6003C27.7975 41.1758 28.6387 41.4636 29.6348 41.4636C30.7747 41.4636 31.6657 41.1647 32.3076 40.5671C32.9606 39.9584 33.2871 39.1559 33.2871 38.1599C33.2871 35.7471 31.959 34.5407 29.3027 34.5407H26.7627V30.7888H29.3193C30.5368 30.7888 31.4388 30.4844 32.0254 29.8757C32.612 29.2669 32.9053 28.459 32.9053 27.4518C32.9053 26.4779 32.612 25.7197 32.0254 25.1774C31.4499 24.6351 30.653 24.364 29.6348 24.364C28.7161 24.364 27.9469 24.6185 27.3271 25.1276C26.7074 25.6257 26.3975 26.2787 26.3975 27.0866H21.5996C21.5996 25.8249 21.9372 24.696 22.6123 23.6999C23.2985 22.6927 24.2503 21.9069 25.4678 21.3425C26.6963 20.778 28.0465 20.4958 29.5186 20.4958C32.0752 20.4958 34.0784 21.11 35.5283 22.3386C36.9782 23.556 37.7031 25.2383 37.7031 27.3854C37.7031 28.4922 37.3656 29.5104 36.6904 30.4401C36.0153 31.3698 35.1299 32.0837 34.0342 32.5817C35.3955 33.0687 36.4082 33.7992 37.0723 34.7731C37.5491 35.4611 37.8576 36.2373 37.9976 37.102Z" fill="#66B700"/>
</svg>
