<svg width="36" height="36" viewBox="0 0 36 36" fill="none" xmlns="http://www.w3.org/2000/svg">
<path fill-rule="evenodd" clip-rule="evenodd" d="M18 36C27.9411 36 36 27.9411 36 18C36 8.05887 27.9411 0 18 0C8.05887 0 0 8.05887 0 18C0 27.9411 8.05887 36 18 36ZM17.1748 16.3623H15.7773V18.5684H17.2188C17.7871 18.5684 18.2324 18.7031 18.5547 18.9727C18.877 19.2422 19.0381 19.6992 19.0381 20.3438C19.0381 20.7949 18.8828 21.167 18.5723 21.46C18.2617 21.7471 17.8457 21.8906 17.3242 21.8906C16.8613 21.8906 16.4717 21.7471 16.1553 21.46C15.8389 21.1729 15.6807 20.833 15.6807 20.4404H12.7012C12.7012 21.1611 12.8857 21.8057 13.2549 22.374C13.624 22.9365 14.166 23.3789 14.8809 23.7012C15.6016 24.0176 16.3809 24.1758 17.2188 24.1758C18.6484 24.1758 19.8027 23.833 20.6816 23.1475C21.5605 22.4619 22 21.5479 22 20.4053C22 19.667 21.8066 19.0488 21.4199 18.5508C21.0332 18.0469 20.5 17.6719 19.8203 17.4258C20.4648 17.1211 20.9541 16.7256 21.2881 16.2393C21.6279 15.7471 21.7979 15.2256 21.7979 14.6748C21.7979 13.5381 21.3906 12.6445 20.5762 11.9941C19.7617 11.3438 18.6426 11.0186 17.2188 11.0186C16.4219 11.0186 15.6895 11.168 15.0215 11.4668C14.3594 11.7598 13.8408 12.1699 13.4658 12.6973C13.0908 13.2246 12.9033 13.8252 12.9033 14.499H15.8652C15.8652 14.1592 16.0088 13.875 16.2959 13.6465C16.5889 13.418 16.9316 13.3037 17.3242 13.3037C17.8047 13.3037 18.1768 13.4385 18.4404 13.708C18.7041 13.9717 18.8359 14.3145 18.8359 14.7363C18.8359 15.8203 18.2822 16.3623 17.1748 16.3623Z" fill="#645E9D"/>
</svg>
