<svg width="320" height="126" viewBox="0 0 320 126" fill="none" xmlns="http://www.w3.org/2000/svg">
<g opacity="0.2">
<path d="M319.352 94.2519C317.534 94.5884 315.459 94.721 313.647 94.4475C306.004 93.2983 303.641 86.7968 302.861 83.8786C302.659 83.1115 302.458 82.2115 301.69 81.8654C299.961 81.0762 298.537 84.0523 296.616 83.8543C294.576 83.6478 291.528 80.7591 289.977 80.8222C289.307 80.8477 288.832 81.423 288.284 81.7771C286.802 82.7259 284.777 82.38 283.056 81.8562C282.159 81.5863 281.247 81.2565 280.582 80.6417C279.917 80.0269 280.495 77.5645 280.587 77.1512C280.856 75.9176 278.936 75.3573 278.05 74.4048C277.006 73.2696 277.043 71.3663 277.696 70.4114C278.651 69.025 280.1 67.6485 281.344 67.0448C279.36 67.3559 277.067 66.8427 276.004 65.9315C274.942 65.0203 273.724 64.0048 272.298 64.2455C270.976 64.471 268.639 66.6764 267.353 67.5893C265.115 69.182 262.636 70.848 259.804 70.7852C256.98 70.7222 254.208 67.8557 255.596 65.5932C250.655 65.8271 246.084 61.4306 246.582 56.9114C243.306 58.353 239.788 59.8318 236.187 59.3806C235.083 59.2435 234.014 58.9243 232.969 58.5561C230.546 57.7084 225.907 56.0857 224.711 54.1216C223.891 52.7746 224.391 51.5644 222.499 51.0275C218.182 49.8 213.908 52.5326 209.435 53.1635C203.907 53.9397 192.2 48.2586 191.461 48.3827C190.787 48.4989 190.228 48.9136 189.633 49.2268C187.433 50.3835 184.428 50.0419 182.599 48.4343C182.098 47.9899 181.659 47.4531 181.044 47.1509C180.269 46.7748 179.343 46.8258 178.463 46.8936C175.759 47.0928 173.054 47.292 170.343 47.4914C169.335 48.6438 168.105 48.8666 167.252 48.9517C161.796 49.5145 155.162 44.0124 149.081 46.8095C148.011 47.2995 147.089 48.081 145.934 48.3561C143.394 48.9611 140.578 46.9654 138.204 48.0065C137.356 50.4465 135.224 52.483 132.608 53.362C133.245 54.1466 134.772 57.3934 129.763 60.7693C127.786 62.0947 124.043 62.3361 122.915 60.8471C121.946 59.5768 120.607 58.0577 118.99 58.5092C117.373 58.9607 116.378 60.5233 116.151 62.0577C116.059 62.6702 116.055 63.3346 115.65 63.8355C115.27 64.3054 114.625 64.5053 114.019 64.6859L107.157 66.7266C106.427 66.9471 105.671 67.1622 104.911 67.0695C102.976 66.8297 101.974 64.7754 100.218 63.993C99.137 63.5171 97.8818 63.5656 96.6883 63.4855C93.4966 63.27 90.4024 62.0071 88.0861 59.9788C87.1583 59.1664 86.5541 57.9883 86.9919 56.8826C88.5494 52.9787 86.2952 49.4209 84.2225 49.2153C79.8722 48.7798 76.7937 54.8775 72.6889 53.4929C69.5155 52.4255 67.7885 49.0939 64.6457 47.9532C59.5652 46.1077 54.0725 50.808 48.6882 49.9376C46.631 49.6047 44.8444 48.485 42.888 47.8111C38.1835 46.1963 32.6169 47.2091 28.2338 44.9569C27.6716 44.6653 27.0997 44.2773 26.956 43.7017C26.8202 43.1682 27.092 42.6229 27.061 42.0743C26.9654 40.35 24.4529 39.976 22.6721 39.4419C19.815 38.5887 13.3411 35.9806 9.24411 33.2189C6.66753 31.482 4.41425 29.3674 1.99612 27.4448" stroke="#8D8D8D" stroke-width="1.5" stroke-miterlimit="10" stroke-linecap="round" stroke-linejoin="round"/>
<path d="M221.72 50.7727C222.853 50.5889 223.866 49.9797 224.678 49.2314C225.489 48.4831 226.125 47.5889 226.754 46.7009" stroke="#8D8D8D" stroke-width="1.5" stroke-miterlimit="10" stroke-linecap="round" stroke-linejoin="round"/>
<path d="M289.978 80.823C292.168 79.7813 296.07 75.5498 297.617 72.3407" stroke="#8D8D8D" stroke-width="1.5" stroke-miterlimit="10" stroke-linecap="round" stroke-linejoin="round"/>
<path d="M282.165 81.5495C285.111 81.0897 288.238 77.3094 289.474 75.4439" stroke="#8D8D8D" stroke-width="1.5" stroke-miterlimit="10" stroke-linecap="round" stroke-linejoin="round"/>
<path d="M293.331 82.3687C294.32 82.4366 296 81.6814 297.188 80.7955C299.224 79.2691 300.746 77.6912 302.58 74.8059" stroke="#8D8D8D" stroke-width="1.5" stroke-miterlimit="10" stroke-linecap="round" stroke-linejoin="round"/>
<path d="M113.816 37.5971C116.776 36.1525 119.035 32.9651 119.881 30.042C121.123 25.7669 120.269 21.1359 118.159 19.6028" stroke="#8D8D8D" stroke-width="1.5" stroke-miterlimit="10" stroke-linecap="round" stroke-linejoin="round"/>
<path d="M106.238 38.6558C108.421 37.572 110.783 36.169 112.173 34.7881C114.34 32.642 115.168 31.2049 116.09 28.4064C116.486 27.2114 116.536 25.5071 116.366 24.9383" stroke="#8D8D8D" stroke-width="1.5" stroke-miterlimit="10" stroke-linecap="round" stroke-linejoin="round"/>
<path d="M99.9119 39.9512C101.922 39.2528 103.932 37.7332 105.821 35.9272C107.57 34.2582 108.298 32.9871 109.298 31.1646C109.807 30.2259 110.144 28.4348 110.09 27.3917" stroke="#8D8D8D" stroke-width="1.5" stroke-miterlimit="10" stroke-linecap="round" stroke-linejoin="round"/>
<path d="M96.145 39.2698C98.606 38.0632 100.548 36.4852 101.834 34.739C103.119 32.9928 103.872 30.8574 103.607 28.7637" stroke="#8D8D8D" stroke-width="1.5" stroke-miterlimit="10" stroke-linecap="round" stroke-linejoin="round"/>
<path d="M91.3942 38.2453C94.079 37.0383 97.4505 33.4804 97.3771 31.2241" stroke="#8D8D8D" stroke-width="1.5" stroke-miterlimit="10" stroke-linecap="round" stroke-linejoin="round"/>
<path d="M86.4415 37.7256C88.3898 36.9262 90.673 34.6918 91.459 32.3497" stroke="#8D8D8D" stroke-width="1.5" stroke-miterlimit="10" stroke-linecap="round" stroke-linejoin="round"/>
<path d="M79.9554 33.3431C81.3831 32.5226 83.0293 30.7293 83.7349 28.9513" stroke="#8D8D8D" stroke-width="1.5" stroke-miterlimit="10" stroke-linecap="round" stroke-linejoin="round"/>
<path d="M74.2653 49.3414C75.6044 49.0429 76.8084 48.229 77.8999 47.195C79.7827 45.4073 80.5898 43.518 81.3611 41.1345C81.8215 39.7142 81.9597 38.0978 81.8525 36.6215" stroke="#8D8D8D" stroke-width="1.5" stroke-miterlimit="10" stroke-linecap="round" stroke-linejoin="round"/>
<path d="M70.4642 48.7992C72.1096 47.8035 72.8121 46.7445 73.5284 45.5039C74.2448 44.2633 74.6942 42.9097 75.0977 41.5575" stroke="#8D8D8D" stroke-width="1.5" stroke-miterlimit="10" stroke-linecap="round" stroke-linejoin="round"/>
<path d="M63.7097 47.6857C65.5737 47.7463 67.4027 46.1233 68.422 44.892C69.5683 43.5182 70.1707 41.8099 70.5498 40.1142" stroke="#8D8D8D" stroke-width="1.5" stroke-miterlimit="10" stroke-linecap="round" stroke-linejoin="round"/>
<path d="M58.5513 48.0763C59.1565 48.0708 61.6395 46.7307 62.8272 44.4076C63.7181 42.6668 64.6028 40.5337 64.7444 38.2108" stroke="#8D8D8D" stroke-width="1.5" stroke-miterlimit="10" stroke-linecap="round" stroke-linejoin="round"/>
<path d="M26.7978 41.2418C30.6076 40.4369 34.2835 38.1443 36.18 35.7645" stroke="#8D8D8D" stroke-width="1.5" stroke-miterlimit="10" stroke-linecap="round" stroke-linejoin="round"/>
<path d="M23.6413 39.7099C26.3042 38.8416 29.0555 37.2522 31.2251 35.583" stroke="#8D8D8D" stroke-width="1.5" stroke-miterlimit="10" stroke-linecap="round" stroke-linejoin="round"/>
<path d="M18.6168 37.977C19.2699 38.0306 20.2806 37.953 21.1457 37.6441C22.9214 37.0129 24.3336 36.1265 25.8452 35.0622" stroke="#8D8D8D" stroke-width="1.5" stroke-miterlimit="10" stroke-linecap="round" stroke-linejoin="round"/>
<path d="M14.7857 36.2898C17.0936 36.241 19.8012 34.9245 21.6073 33.6101" stroke="#8D8D8D" stroke-width="1.5" stroke-miterlimit="10" stroke-linecap="round" stroke-linejoin="round"/>
<path d="M11.2783 34.4701C13.1471 34.271 16.4001 33.1382 17.7835 31.9751" stroke="#8D8D8D" stroke-width="1.5" stroke-miterlimit="10" stroke-linecap="round" stroke-linejoin="round"/>
<path d="M9.86358 31.8596C11.6807 31.4808 13.3909 30.6462 14.7478 29.4716" stroke="#8D8D8D" stroke-width="1.5" stroke-miterlimit="10" stroke-linecap="round" stroke-linejoin="round"/>
<path d="M8.34429 29.6517C9.4219 29.397 10.4484 28.9866 11.3847 28.4339" stroke="#8D8D8D" stroke-width="1.5" stroke-miterlimit="10" stroke-linecap="round" stroke-linejoin="round"/>
<path d="M6.33642 27.1428C7.07344 26.9464 7.77427 26.6484 8.40624 26.2559" stroke="#8D8D8D" stroke-width="1.5" stroke-miterlimit="10" stroke-linecap="round" stroke-linejoin="round"/>
<path d="M5.54788 24.7578C6.1496 24.6498 6.72714 24.4037 7.20929 24.0577" stroke="#8D8D8D" stroke-width="1.5" stroke-miterlimit="10" stroke-linecap="round" stroke-linejoin="round"/>
<path d="M4.40591 22.4114C4.8831 22.3191 5.32274 22.083 5.64074 21.7478" stroke="#8D8D8D" stroke-width="1.5" stroke-miterlimit="10" stroke-linecap="round" stroke-linejoin="round"/>
<path d="M105.353 67.0934C106.211 66.7546 106.972 66.2917 107.829 65.1255C108.907 63.6571 109.53 62.389 110.218 60.4669" stroke="#8D8D8D" stroke-width="1.5" stroke-miterlimit="10" stroke-linecap="round" stroke-linejoin="round"/>
<path d="M101.456 64.786C102.404 64.8008 104.022 63.7877 105.333 61.5999C107.056 58.7239 107.692 57.0569 108.728 53.9169" stroke="#8D8D8D" stroke-width="1.5" stroke-miterlimit="10" stroke-linecap="round" stroke-linejoin="round"/>
<path d="M98.8781 63.6403C99.3407 63.5001 100.604 62.5033 101.461 61.3312C102.632 59.7151 103.383 57.9059 103.947 56.0357" stroke="#8D8D8D" stroke-width="1.5" stroke-miterlimit="10" stroke-linecap="round" stroke-linejoin="round"/>
<path d="M93.7113 62.9792C94.5531 62.5623 96.1289 61.6531 97.1063 60.5499C98.0076 59.5334 98.7142 58.6011 99.3356 56.8681" stroke="#8D8D8D" stroke-width="1.5" stroke-miterlimit="10" stroke-linecap="round" stroke-linejoin="round"/>
<path d="M88.5199 60.3348C89.6231 60.6712 91.5209 60.1512 93.1527 58.5338C94.8291 56.8729 95.5122 54.8121 95.9531 52.5891" stroke="#8D8D8D" stroke-width="1.5" stroke-miterlimit="10" stroke-linecap="round" stroke-linejoin="round"/>
<path d="M86.9049 58.0691C87.3075 58.1058 88.4285 57.5659 89.2702 56.7382C90.348 55.6802 91.2146 54.1995 91.629 52.9796" stroke="#8D8D8D" stroke-width="1.5" stroke-miterlimit="10" stroke-linecap="round" stroke-linejoin="round"/>
<path d="M247.763 61.2618C245.597 64.2715 241.075 64.8072 237.157 64.7275C235.445 64.6926 233.627 64.6246 232.152 65.4161C230.678 66.2076 229.869 68.248 231.051 69.3792C228.147 69.717 224.741 70.3894 223.577 72.8567C223.282 73.4873 222.429 75.5953 219.834 76.9266C217.66 78.0404 214.843 78.436 212.625 77.4013C210.407 76.3606 209.517 73.0832 211.574 71.7917C210.931 69.8236 207.644 69.9069 205.635 69.639C204.181 69.4457 202.613 70.6022 201.149 70.699C199.468 70.8021 190.049 66.2685 187.768 71.5822C192.716 73.6126 191.582 77.9873 189.735 78.8681C189.979 79.489 190.25 82.3495 190.828 83.3473C191.407 84.345 192.043 85.6973 191.14 86.4723C190.782 86.7785 190.272 86.8839 189.838 87.1018C187.968 88.0558 188.129 90.8047 186.377 91.9364C184.598 93.081 182.249 91.8629 180.207 91.1854C178.61 90.652 176.789 90.4874 175.223 91.1125C173.664 91.7374 173.839 92.6442 172.798 94.8422C171.758 97.0402 161.199 96.9116 160.397 93.7041C160.019 92.1873 160.279 91.0868 160.913 90.5491L152.596 87.1127C151.456 88.8608 149.437 90.1029 147.272 90.5279C146.351 90.7117 142.994 90.8694 142.844 91.7312C142.705 92.5202 145.228 92.6222 146.318 93.7621C147.496 94.984 147.096 97.0246 145.898 98.2368C144.7 99.4431 142.882 99.9789 141.11 100.127C139.246 100.284 136.76 100.501 136.446 102.194C136.329 102.832 136.607 103.506 136.377 104.117C135.656 106.01 132.292 104.35 130.376 105.305C129.683 105.651 129.251 106.322 128.606 106.739C126.782 107.897 124.397 106.596 122.457 105.613C120.517 104.631 117.351 104.403 116.77 106.364C118.506 106.332 119.288 108.948 117.788 109.74C117.315 109.989 116.745 110.048 116.259 110.274C115.02 110.841 114.6 112.29 114.622 113.558C114.643 114.825 114.955 116.121 114.62 117.35C114.068 119.383 111.815 120.723 109.555 121.036C107.295 121.349 105.009 120.847 102.795 120.344C102.099 120.189 101.342 119.994 100.93 119.456C100.291 118.617 100.813 117.473 100.812 116.446C100.806 114.212 97.5053 112.677 95.5345 113.99C93.7537 116.693 89.9371 118.102 86.6141 117.287C83.2976 116.471 80.7599 113.501 80.6967 110.345C81.5855 108.942 82.4676 107.54 83.3563 106.137C83.5565 105.817 83.768 105.443 83.6447 105.09C83.4917 104.636 82.8942 104.472 82.3845 104.378C81.2962 105.309 80.3035 106.346 79.2152 107.278C77.9732 108.34 76.712 109.415 75.1812 110.094C72.8138 111.147 67.2456 110.288 67.2934 110.141C66.5888 111.539 66.1022 112.561 64.3403 113.621C63.2303 114.287 61.8873 114.265 60.8222 114.091C59.7572 113.917 58.4017 113.509 56.958 114.034C56.8279 114.08 56.5378 114.668 56.5357 114.807C56.5213 115.78 55.8678 116.729 54.9142 117.149C53.9608 117.575 52.7462 117.453 51.911 116.861C49.3696 118.632 46.7213 120.357 44.1798 122.128C43.1634 122.84 42.1142 123.559 40.8876 123.878C38.3104 124.55 35.6515 123.317 33.3161 122.117C30.8737 120.865 28.1214 119.188 27.9854 116.625C27.9074 115.239 28.5567 113.553 27.4279 112.632C26.8602 112.171 26.0423 112.11 25.2909 112.072C23.7091 111.991 21.8033 112.064 21.0019 113.319C20.6387 113.885 20.5772 114.624 20.0726 115.091C19.6317 115.497 18.9 115.657 18.6738 116.189C18.466 116.678 18.8058 117.211 18.8296 117.742C18.8746 118.719 17.8063 119.457 16.7672 119.674C15.7278 119.885 14.6317 119.766 13.5929 119.995C11.724 120.394 10.362 121.81 8.89851 122.939C7.42845 124.069 5.37537 124.672 3.64669 123.919" stroke="#8D8D8D" stroke-width="1.5" stroke-miterlimit="10" stroke-linecap="round" stroke-linejoin="round"/>
<path d="M72.4333 105.119C75.3709 102.987 76.6185 99.8767 77.7526 96.9151" stroke="#8D8D8D" stroke-width="1.5" stroke-miterlimit="10" stroke-linecap="round" stroke-linejoin="round"/>
<path d="M66.5658 105.97C70.8353 101.698 73.7034 96.6209 74.8411 91.3403" stroke="#8D8D8D" stroke-width="1.5" stroke-miterlimit="10" stroke-linecap="round" stroke-linejoin="round"/>
<path d="M65.6842 101.913C67.4294 99.7373 68.7338 97.3565 69.5483 94.8872" stroke="#8D8D8D" stroke-width="1.5" stroke-miterlimit="10" stroke-linecap="round" stroke-linejoin="round"/>
<path d="M60.6709 102.953C62.1568 101.099 63.4758 99.1705 64.6086 97.1811" stroke="#8D8D8D" stroke-width="1.5" stroke-miterlimit="10" stroke-linecap="round" stroke-linejoin="round"/>
<path d="M56.6871 103.076C58.3803 101.119 59.7991 99.0247 60.9059 96.8429" stroke="#8D8D8D" stroke-width="1.5" stroke-miterlimit="10" stroke-linecap="round" stroke-linejoin="round"/>
<path d="M50.1768 106.012C53.7882 101.94 57.4925 97.6897 58.5128 92.8473" stroke="#8D8D8D" stroke-width="1.5" stroke-miterlimit="10" stroke-linecap="round" stroke-linejoin="round"/>
<path d="M47.8591 103.133C49.9413 101.002 51.6412 98.6457 52.8764 96.1642" stroke="#8D8D8D" stroke-width="1.5" stroke-miterlimit="10" stroke-linecap="round" stroke-linejoin="round"/>
<path d="M45.3267 101.533C47.2743 99.7134 48.7386 97.5997 49.6066 95.3583" stroke="#8D8D8D" stroke-width="1.5" stroke-miterlimit="10" stroke-linecap="round" stroke-linejoin="round"/>
<path d="M43.0272 99.4307C44.083 98.1016 44.8452 96.648 45.2831 95.1375" stroke="#8D8D8D" stroke-width="1.5" stroke-miterlimit="10" stroke-linecap="round" stroke-linejoin="round"/>
<path d="M40.4418 98.026C41.4321 96.9102 42.1145 95.6341 42.4335 94.3142" stroke="#8D8D8D" stroke-width="1.5" stroke-miterlimit="10" stroke-linecap="round" stroke-linejoin="round"/>
<path d="M38.5894 95.6951C39.3095 94.3636 39.8435 92.977 40.166 91.5604" stroke="#8D8D8D" stroke-width="1.5" stroke-miterlimit="10" stroke-linecap="round" stroke-linejoin="round"/>
<path d="M35.1382 113.387C37.8824 109.962 39.4563 105.756 39.5881 101.513" stroke="#8D8D8D" stroke-width="1.5" stroke-miterlimit="10" stroke-linecap="round" stroke-linejoin="round"/>
<path d="M33.8045 109.625C35.0089 107.41 35.7391 104.98 35.9418 102.51" stroke="#8D8D8D" stroke-width="1.5" stroke-miterlimit="10" stroke-linecap="round" stroke-linejoin="round"/>
<path d="M30.8129 106.669C32.0962 104.452 32.9052 102.013 33.1859 99.5171" stroke="#8D8D8D" stroke-width="1.5" stroke-miterlimit="10" stroke-linecap="round" stroke-linejoin="round"/>
<path d="M27.6664 104.405C28.9195 103.07 29.5988 101.293 29.5217 99.5315" stroke="#8D8D8D" stroke-width="1.5" stroke-miterlimit="10" stroke-linecap="round" stroke-linejoin="round"/>
<path d="M25.1471 103.199C25.8671 102.067 26.3528 100.815 26.5808 99.5278" stroke="#8D8D8D" stroke-width="1.5" stroke-miterlimit="10" stroke-linecap="round" stroke-linejoin="round"/>
<path d="M22.5317 102.507C23.1317 101.53 23.6755 100.04 23.7181 98.9217" stroke="#8D8D8D" stroke-width="1.5" stroke-miterlimit="10" stroke-linecap="round" stroke-linejoin="round"/>
<path d="M19.9389 101.888C20.3446 101.007 20.5318 99.8842 20.677 98.8834" stroke="#8D8D8D" stroke-width="1.5" stroke-miterlimit="10" stroke-linecap="round" stroke-linejoin="round"/>
<path d="M16.9244 101.445C17.3749 100.731 17.5711 99.8865 17.4853 99.068" stroke="#8D8D8D" stroke-width="1.5" stroke-miterlimit="10" stroke-linecap="round" stroke-linejoin="round"/>
<path d="M160.928 90.5475C164.577 89.0588 168.71 84.8267 170.398 81.5048" stroke="#8D8D8D" stroke-width="1.5" stroke-miterlimit="10" stroke-linecap="round" stroke-linejoin="round"/>
<path d="M159.386 87.2768C163.487 85.1169 166.556 81.3624 167.669 77.1454" stroke="#8D8D8D" stroke-width="1.5" stroke-miterlimit="10" stroke-linecap="round" stroke-linejoin="round"/>
<path d="M155.604 86.3309C157.003 86.0307 158.144 85.122 159.126 84.1576C162.315 81.0398 164.441 77.0288 165.139 72.8057" stroke="#8D8D8D" stroke-width="1.5" stroke-miterlimit="10" stroke-linecap="round" stroke-linejoin="round"/>
<path d="M154.663 84.0814C157.207 82.196 159.075 79.5573 159.929 76.6642" stroke="#8D8D8D" stroke-width="1.5" stroke-miterlimit="10" stroke-linecap="round" stroke-linejoin="round"/>
<path d="M153.418 81.4182C154.77 80.0865 155.75 78.4334 156.238 76.6677" stroke="#8D8D8D" stroke-width="1.5" stroke-miterlimit="10" stroke-linecap="round" stroke-linejoin="round"/>
<path d="M151.853 79.628C152.428 78.8809 152.828 78.0302 153.022 77.1312" stroke="#8D8D8D" stroke-width="1.5" stroke-miterlimit="10" stroke-linecap="round" stroke-linejoin="round"/>
<path d="M149.426 78.8346C149.828 78.4607 150.472 77.2106 150.443 76.3301" stroke="#8D8D8D" stroke-width="1.5" stroke-miterlimit="10" stroke-linecap="round" stroke-linejoin="round"/>
<path d="M146.502 78.55C147.121 77.9764 147.795 76.6281 147.754 75.3851" stroke="#8D8D8D" stroke-width="1.5" stroke-miterlimit="10" stroke-linecap="round" stroke-linejoin="round"/>
<path d="M141.239 81.0221C142.667 79.8032 143.641 78.1868 144.244 76.4845C144.846 74.7823 145.097 72.9936 145.223 71.2085" stroke="#8D8D8D" stroke-width="1.5" stroke-miterlimit="10" stroke-linecap="round" stroke-linejoin="round"/>
<path d="M140.067 78.1627C141.072 76.7082 141.656 75.0183 141.751 73.3002" stroke="#8D8D8D" stroke-width="1.5" stroke-miterlimit="10" stroke-linecap="round" stroke-linejoin="round"/>
<path d="M137.538 77.1079C138.237 76.1213 138.573 74.9278 138.489 73.7525" stroke="#8D8D8D" stroke-width="1.5" stroke-miterlimit="10" stroke-linecap="round" stroke-linejoin="round"/>
<path d="M134.194 76.4256C134.641 75.809 134.854 75.0543 134.79 74.3197" stroke="#8D8D8D" stroke-width="1.5" stroke-miterlimit="10" stroke-linecap="round" stroke-linejoin="round"/>
<path d="M41.1544 30.4827C45.5174 32.7294 50.3548 31.5566 52.6207 30.6213C58.0484 28.3806 61.5157 24.9347 64.829 20.3942C67.3298 16.9703 69.4049 13.2024 70.1744 9.14627" stroke="#8D8D8D" stroke-width="1.5" stroke-miterlimit="10" stroke-linecap="round" stroke-linejoin="round"/>
<path d="M61.211 29.8999C67.0944 25.4842 71.2511 19.162 72.7594 12.3308" stroke="#8D8D8D" stroke-width="1.5" stroke-miterlimit="10" stroke-linecap="round" stroke-linejoin="round"/>
<path d="M68.0746 27.7344C72.2245 24.2385 74.2166 19.1324 75.7593 14.1662" stroke="#8D8D8D" stroke-width="1.5" stroke-miterlimit="10" stroke-linecap="round" stroke-linejoin="round"/>
<path d="M73.9724 25.775C75.844 23.4382 77.1441 20.7254 77.7491 17.8817" stroke="#8D8D8D" stroke-width="1.5" stroke-miterlimit="10" stroke-linecap="round" stroke-linejoin="round"/>
<path d="M79.4454 23.7074C80.2403 22.0476 80.762 20.2809 80.9732 18.481" stroke="#8D8D8D" stroke-width="1.5" stroke-miterlimit="10" stroke-linecap="round" stroke-linejoin="round"/>
<path d="M83.0264 23.1641C83.8723 21.8531 84.0797 19.5278 83.6174 18.0615" stroke="#8D8D8D" stroke-width="1.5" stroke-miterlimit="10" stroke-linecap="round" stroke-linejoin="round"/>
<path d="M51.9294 23.1104C55.6977 20.8273 57.4384 18.1077 59.1008 15.6078C60.6066 13.354 61.9377 10.3807 62.2532 8.75317" stroke="#8D8D8D" stroke-width="1.5" stroke-miterlimit="10" stroke-linecap="round" stroke-linejoin="round"/>
<path d="M51.7888 18.7969C54.0427 17.089 56.3092 13.7443 57.5128 11.3" stroke="#8D8D8D" stroke-width="1.5" stroke-miterlimit="10" stroke-linecap="round" stroke-linejoin="round"/>
<path d="M48.3351 18.4204C51.2513 16.0351 53.0207 13.1879 54.011 11.0638" stroke="#8D8D8D" stroke-width="1.5" stroke-miterlimit="10" stroke-linecap="round" stroke-linejoin="round"/>
<path d="M46.3245 16.5055C47.6055 15.4234 48.7646 13.4269 49.1959 11.9166" stroke="#8D8D8D" stroke-width="1.5" stroke-miterlimit="10" stroke-linecap="round" stroke-linejoin="round"/>
<path d="M42.7052 16.0848C44.2251 14.863 45.0245 13.1366 45.2249 11.8141" stroke="#8D8D8D" stroke-width="1.5" stroke-miterlimit="10" stroke-linecap="round" stroke-linejoin="round"/>
<path d="M38.9754 15.9212C39.759 15.53 41.2253 13.0656 41.4682 11.4278" stroke="#8D8D8D" stroke-width="1.5" stroke-miterlimit="10" stroke-linecap="round" stroke-linejoin="round"/>
<path d="M43.3516 27.6364C45.5473 28.3879 48.0781 28.3145 50.7147 27.447C52.4527 26.8713 54.7371 25.4947 56.1354 24.3853C60.8436 20.6558 65.3863 13.8575 66.5661 8.25566" stroke="#8D8D8D" stroke-width="1.5" stroke-miterlimit="10" stroke-linecap="round" stroke-linejoin="round"/>
</g>
</svg>
