<svg width="24" height="24" viewBox="0 0 24 24" fill="none" xmlns="http://www.w3.org/2000/svg">
<path fill-rule="evenodd" clip-rule="evenodd" d="M11.4978 14.6146C11.6924 14.8127 12.0105 14.8154 12.2082 14.6208C12.2194 14.6098 12.2299 14.5984 12.2398 14.5867L15.7781 11.111C15.9736 10.919 15.9761 10.6049 15.7837 10.4095C15.5914 10.2141 15.277 10.2114 15.0815 10.4034L11.8693 13.5587L8.71697 10.3495C8.52237 10.1514 8.20431 10.1486 8.00657 10.3433C7.80882 10.538 7.80628 10.8564 8.00088 11.0545L11.4978 14.6146Z" fill="#1B8508"/>
<path d="M0.499999 12C0.5 5.64873 5.64873 0.5 12 0.500001C18.3513 0.500001 23.5 5.64873 23.5 12C23.5 18.3513 18.3513 23.5 12 23.5C5.64872 23.5 0.499999 18.3513 0.499999 12Z" stroke="#1B8508" stroke-opacity="0.4"/>
</svg>
