<svg width="49" height="54" viewBox="0 0 49 54" fill="none" xmlns="http://www.w3.org/2000/svg">
<path d="M23.91 34.7268C31.8112 34.7268 38.2144 28.3571 38.2144 20.4974C38.2144 18.6444 37.8495 16.8799 37.2003 15.259C32.6471 19.7714 26.7743 28.5809 21.0076 34.4313C21.9454 34.6255 22.9128 34.7268 23.91 34.7268Z" fill="#66B700"/>
<path d="M32.1551 8.8852C29.9825 7.35716 27.3643 6.42429 24.5297 6.30188C19.896 8.77545 14.3711 13.3089 9.99196 17.2388C9.74584 18.2898 9.60156 19.3747 9.60156 20.5017C9.60156 22.4729 10.0047 24.3513 10.7345 26.0567C17.4688 19.687 28.7689 13.2878 32.1551 8.8852Z" fill="#66B700"/>
<path d="M17.8888 27.6777C23.3416 32.6712 29.8127 19.1383 36.2202 13.2837C35.52 12.1018 34.6501 11.0296 33.6487 10.101C28.9937 16.3313 12.5379 22.7727 17.8888 27.6777Z" fill="#66B700"/>
<path d="M10.3992 15.8584C13.709 12.5786 17.6511 9.03286 21.4447 6.49597C16.2762 7.39085 12.0711 11.0337 10.3992 15.8584Z" fill="#66B700"/>
<path d="M2.37085 24.5032C2.37085 24.5032 5.6043 21.177 9.99619 17.2345C10.1065 16.7659 10.2423 16.3058 10.3951 15.8584C5.76555 20.4467 2.37085 24.5032 2.37085 24.5032Z" fill="#1B8508"/>
<path d="M24.534 6.30183C28.0051 4.44876 30.9754 3.75228 32.5794 5.34786C33.5172 6.28072 33.2414 7.48374 32.1593 8.88515C32.6855 9.2566 33.182 9.66183 33.653 10.0966C35.1042 8.1549 35.4097 6.23007 33.5512 4.38122C30.8396 1.68393 26.2653 3.27107 21.4448 6.496C22.2468 6.3567 23.07 6.26806 23.9102 6.26806C24.1181 6.26806 24.3261 6.29339 24.534 6.30183Z" fill="#1B8508"/>
<path d="M10.7344 26.0524C6.12613 30.4086 3.66497 34.7521 7.3567 38.4244C11.2309 42.2783 16.0811 39.4375 21.0076 34.4313C16.3654 33.4815 12.5464 30.2946 10.7344 26.0524Z" fill="#1B8508"/>
<path d="M44.0749 11.823C41.5203 9.74204 38.8767 10.8522 36.2204 13.2793C36.5938 13.9125 36.9248 14.571 37.2006 15.259C39.6108 12.8699 41.6519 11.688 43.1074 12.7897C48.3904 16.7871 34.7649 31.6918 34.7649 31.6918C34.7649 31.6918 50.1726 16.7871 44.0749 11.823Z" fill="#1B8508"/>
<path d="M23.9103 6.26807C23.0658 6.26807 22.2469 6.35671 21.4449 6.49601C17.6555 9.03289 13.7134 12.5828 10.3994 15.8584C10.2424 16.3101 10.1108 16.766 10.0005 17.2345C14.3754 13.3089 19.9045 8.77118 24.5383 6.29761C24.3261 6.29339 24.1182 6.26807 23.9103 6.26807Z" fill="white"/>
<path d="M17.8889 27.6776C12.538 22.7726 28.9938 16.3354 33.6488 10.1009C33.1778 9.66609 32.6813 9.25664 32.1551 8.8894C28.7689 13.292 17.4646 19.6912 10.7346 26.0567C12.5465 30.2989 16.3656 33.4858 21.0078 34.4356C26.7746 28.5809 32.6474 19.7714 37.2005 15.2633C36.9247 14.5752 36.598 13.9167 36.2203 13.2836C29.8128 19.134 23.3417 32.6711 17.8889 27.6776Z" fill="white"/>
<path d="M39.3858 37.424C41.3614 37.424 42.9629 35.8309 42.9629 33.8656C42.9629 31.9004 41.3614 30.3073 39.3858 30.3073C37.4101 30.3073 35.8086 31.9004 35.8086 33.8656C35.8086 35.8309 37.4101 37.424 39.3858 37.424Z" fill="#66B700"/>
<path d="M11.074 9.26083C13.0496 9.26083 14.6511 7.66769 14.6511 5.70244C14.6511 3.73719 13.0496 2.14404 11.074 2.14404C9.09837 2.14404 7.49683 3.73719 7.49683 5.70244C7.49683 7.66769 9.09837 9.26083 11.074 9.26083Z" fill="#66B700"/>
<path d="M5.64119 52.5312L5.27972 51.275H3.56159L3.17665 52.5312H1.58057L3.56159 46.157H5.64119L7.64568 52.5312H5.64119ZM3.89489 49.8834H4.93703L4.41596 48.0342L3.89489 49.8834Z" fill="#1B8508"/>
<path d="M15.2036 46.157V52.5312H13.3775V47.9735L12.1898 52.5312H10.9411L9.7112 47.9735V52.5312H8.23717V46.157H10.805L11.7345 49.5425L12.6217 46.157H15.2036Z" fill="#1B8508"/>
<path d="M18.2878 46.157V52.5312H16.3209V46.157H18.2878Z" fill="#1B8508"/>
<path d="M25.1134 52.5312H22.9305L21.9963 50.0936H21.3767V52.5312H19.4097V46.157H22.7568C23.4954 46.157 24.0681 46.3298 24.475 46.6753C24.8849 47.0178 25.0899 47.4707 25.0899 48.0342C25.0899 48.4016 25.0148 48.7269 24.8646 49.0102C24.7144 49.2904 24.4108 49.5379 23.9539 49.7527L25.1134 52.5312ZM21.3767 48.73H22.217C22.4642 48.73 22.6629 48.6786 22.8132 48.5759C22.9634 48.4732 23.0385 48.3222 23.0385 48.1229C23.0385 47.7151 22.7866 47.5112 22.2827 47.5112H21.3767V48.73Z" fill="#1B8508"/>
<path d="M29.5731 50.0982L31.371 50.2056C31.2865 50.987 30.9954 51.5863 30.4978 52.0034C30.0034 52.4206 29.3947 52.6292 28.6717 52.6292C27.8017 52.6292 27.0991 52.3428 26.564 51.7699C26.0288 51.1971 25.7612 50.4064 25.7612 49.3977C25.7612 48.3984 26.0147 47.5921 26.5217 46.9788C27.0287 46.3655 27.736 46.0588 28.6436 46.0588C29.4917 46.0588 30.1426 46.2923 30.5964 46.7593C31.0533 47.2263 31.3115 47.8458 31.371 48.6179L29.5355 48.7159C29.5355 48.2894 29.4526 47.9812 29.2867 47.7913C29.124 47.6014 28.9315 47.5065 28.7093 47.5065C28.0896 47.5065 27.7798 48.126 27.7798 49.365C27.7798 50.0592 27.8596 50.5309 28.0192 50.7799C28.182 51.029 28.4088 51.1535 28.6999 51.1535C29.2194 51.1535 29.5105 50.8017 29.5731 50.0982Z" fill="#66B700"/>
<path d="M36.915 51.0088V52.5311H32.0939V46.1569H36.915V47.6279H34.0233V48.5525H36.3611V49.9674H34.0233V51.0088H36.915Z" fill="#66B700"/>
<path d="M42.1915 50.9667V52.5311H37.699V46.1569H39.6659V50.9667H42.1915Z" fill="#66B700"/>
<path d="M47.3741 50.9667V52.5311H42.8816V46.1569H44.8485V50.9667H47.3741Z" fill="#66B700"/>
</svg>
