<svg width="120" height="54" viewBox="0 0 120 54" fill="none" xmlns="http://www.w3.org/2000/svg">
<path d="M29.072 43.73C39.0694 43.73 47.1714 35.709 47.1714 25.8116C47.1714 23.4781 46.7097 21.2562 45.8882 19.2151C40.1271 24.8973 32.6962 35.9907 25.3995 43.358C26.5861 43.6025 27.8102 43.73 29.072 43.73Z" fill="#66B700"/>
<path d="M39.5044 11.1887C36.7554 9.26454 33.4426 8.08982 29.856 7.93567C23.9929 11.0505 17.0022 16.7594 11.4613 21.7081C11.1498 23.0316 10.9673 24.3977 10.9673 25.8169C10.9673 28.2992 11.4774 30.6646 12.4009 32.8121C20.9217 24.791 35.2198 16.7328 39.5044 11.1887Z" fill="#66B700"/>
<path d="M21.4533 34.8532C28.3527 41.1414 36.5407 24.1 44.6481 16.7275C43.7622 15.2391 42.6615 13.889 41.3944 12.7196C35.5044 20.5652 14.6828 28.6766 21.4533 34.8532Z" fill="#66B700"/>
<path d="M11.9766 19.9698C16.1645 15.8396 21.1525 11.3747 25.9525 8.18005C19.4129 9.30693 14.092 13.8942 11.9766 19.9698Z" fill="#66B700"/>
<path d="M1.81818 30.8559C1.81818 30.8559 5.90948 26.6673 11.4666 21.7027C11.6062 21.1127 11.778 20.5333 11.9713 19.9698C6.11351 25.7478 1.81818 30.8559 1.81818 30.8559Z" fill="#1B8508"/>
<path d="M29.8613 7.93566C34.2532 5.60217 38.0116 4.72511 40.0412 6.73436C41.2278 7.90908 40.8788 9.42399 39.5096 11.1887C40.1754 11.6565 40.8036 12.1668 41.3996 12.7143C43.2358 10.2692 43.6224 7.8453 41.2707 5.51712C37.8398 2.12053 32.0519 4.11915 25.9525 8.18017C26.9673 8.00476 28.0089 7.89313 29.072 7.89313C29.3351 7.89313 29.5982 7.92503 29.8613 7.93566Z" fill="#1B8508"/>
<path d="M12.4006 32.8066C6.56972 38.2922 3.4556 43.7618 8.12677 48.3863C13.0288 53.2393 19.1658 49.662 25.3994 43.3579C19.5255 42.1619 14.6933 38.1487 12.4006 32.8066Z" fill="#1B8508"/>
<path d="M54.5865 14.8883C51.3542 12.2678 48.0093 13.6657 44.6482 16.7221C45.1206 17.5194 45.5394 18.3487 45.8884 19.2151C48.9381 16.2065 51.5207 14.7182 53.3623 16.1055C60.0469 21.1393 42.8065 39.9082 42.8065 39.9082C42.8065 39.9082 62.302 21.1393 54.5865 14.8883Z" fill="#1B8508"/>
<path d="M29.0721 7.89319C28.0036 7.89319 26.9674 8.00481 25.9526 8.18022C21.158 11.3748 16.17 15.8451 11.9767 19.9699C11.778 20.5387 11.6116 21.1128 11.472 21.7028C17.0076 16.7594 24.0036 11.0453 29.8667 7.9304C29.5983 7.92508 29.3352 7.89319 29.0721 7.89319Z" fill="white"/>
<path d="M21.4532 34.8533C14.6827 28.6767 35.5043 20.5706 41.3943 12.7196C40.7983 12.1721 40.1701 11.6565 39.5043 11.1941C35.2198 16.7381 20.9163 24.7964 12.4008 32.8121C14.6935 38.1542 19.5257 42.1674 25.3996 43.3633C32.6963 35.9908 40.1272 24.8974 45.8883 19.2205C45.5393 18.354 45.1259 17.5248 44.648 16.7275C36.5406 24.0947 28.3526 41.1415 21.4532 34.8533Z" fill="white"/>
<path d="M48.6533 47.1267C51.1531 47.1267 53.1795 45.1205 53.1795 42.6457C53.1795 40.171 51.1531 38.1648 48.6533 38.1648C46.1536 38.1648 44.1271 40.171 44.1271 42.6457C44.1271 45.1205 46.1536 47.1267 48.6533 47.1267Z" fill="#66B700"/>
<path d="M12.8304 11.6618C15.3302 11.6618 17.3566 9.65565 17.3566 7.18089C17.3566 4.70614 15.3302 2.69995 12.8304 2.69995C10.3306 2.69995 8.3042 4.70614 8.3042 7.18089C8.3042 9.65565 10.3306 11.6618 12.8304 11.6618Z" fill="#66B700"/>
<path d="M63.5588 35.1714L63.1014 33.5896H60.9274L60.4404 35.1714H58.4208L60.9274 27.1447H63.5588L66.0951 35.1714H63.5588ZM61.3492 31.8372H62.6678L62.0085 29.5086L61.3492 31.8372Z" fill="#1B8508"/>
<path d="M75.6581 27.1447V35.1714H73.3476V29.4321L71.8448 35.1714H70.2648L68.7086 29.4321V35.1714H66.8435V27.1447H70.0925L71.2686 31.4079L72.3913 27.1447H75.6581Z" fill="#1B8508"/>
<path d="M79.5606 27.1447V35.1714H77.0718V27.1447H79.5606Z" fill="#1B8508"/>
<path d="M88.1971 35.1714H85.4351L84.253 32.1018H83.469V35.1714H80.9802V27.1447H85.2153C86.1498 27.1447 86.8745 27.3622 87.3893 27.7974C87.908 28.2286 88.1674 28.799 88.1674 29.5086C88.1674 29.9712 88.0723 30.3808 87.8823 30.7376C87.6922 31.0904 87.3081 31.4021 86.7299 31.6726L88.1971 35.1714ZM83.469 30.3848H84.5322C84.845 30.3848 85.0965 30.3201 85.2866 30.1907C85.4766 30.0613 85.5717 29.8712 85.5717 29.6203C85.5717 29.1067 85.2529 28.85 84.6154 28.85H83.469V30.3848Z" fill="#1B8508"/>
<path d="M93.8398 32.1077L96.1148 32.2429C96.0079 33.2269 95.6396 33.9816 95.01 34.5069C94.3843 35.0322 93.6141 35.2948 92.6994 35.2948C91.5986 35.2948 90.7096 34.9342 90.0324 34.2129C89.3553 33.4915 89.0167 32.4958 89.0167 31.2256C89.0167 29.9672 89.3375 28.9519 89.979 28.1796C90.6205 27.4073 91.5154 27.0211 92.6638 27.0211C93.7369 27.0211 94.5605 27.3151 95.1347 27.9032C95.7129 28.4912 96.0395 29.2714 96.1148 30.2436L93.7923 30.3671C93.7923 29.83 93.6874 29.4419 93.4775 29.2027C93.2716 28.9636 93.0281 28.844 92.7469 28.844C91.9629 28.844 91.5708 29.6242 91.5708 31.1844C91.5708 32.0587 91.6718 32.6526 91.8738 32.9662C92.0797 33.2798 92.3668 33.4366 92.735 33.4366C93.3924 33.4366 93.7606 32.9937 93.8398 32.1077Z" fill="#66B700"/>
<path d="M103.13 33.2543V35.1714H97.0295V27.1446H103.13V28.9969H99.4708V30.1613H102.429V31.943H99.4708V33.2543H103.13Z" fill="#66B700"/>
<path d="M109.806 33.2014V35.1714H104.122V27.1446H106.61V33.2014H109.806Z" fill="#66B700"/>
<path d="M116.364 33.2014V35.1714H110.679V27.1446H113.168V33.2014H116.364Z" fill="#66B700"/>
</svg>
