<svg width="127" height="58" viewBox="0 0 127 58" fill="none" xmlns="http://www.w3.org/2000/svg">
<path d="M45.1944 5.71212C42.8475 3.36519 38.5075 4.38964 33.4225 7.11531C37.57 7.29537 41.4008 8.66752 44.5797 10.9151C46.163 8.84757 46.5666 7.08427 45.1944 5.71212Z" fill="#5C5C5C"/>
<path d="M32.5159 48.9251C44.0767 48.9251 53.4458 39.556 53.4458 27.9952C53.4458 25.2695 52.9119 22.6742 51.9619 20.29C45.2999 26.9273 36.7069 39.8851 28.2691 48.4905C29.6413 48.7761 31.0569 48.9251 32.5159 48.9251Z" fill="#5C5C5C"/>
<path d="M44.5798 10.915C41.4009 8.66744 37.57 7.29529 33.4226 7.11523C26.6425 10.7536 18.5587 17.4219 12.1512 23.2023C11.7911 24.7483 11.58 26.3439 11.58 28.0017C11.58 30.9012 12.1698 33.6641 13.2377 36.1725C23.0911 26.8034 39.6252 17.3908 44.5798 10.915Z" fill="#5C5C5C"/>
<path d="M23.7058 38.5566C31.6841 45.9017 41.1526 25.9962 50.5279 17.3846C49.5034 15.6461 48.2306 14.0691 46.7653 12.7031C39.9543 21.8673 15.8765 31.342 23.7058 38.5566Z" fill="#5C5C5C"/>
<path d="M12.7471 21.1715C17.5899 16.3473 23.3579 11.1319 28.9086 7.40039C21.3463 8.71666 15.1933 14.0749 12.7471 21.1715Z" fill="#5C5C5C"/>
<path d="M1 33.8885C1 33.8885 5.73112 28.996 12.1572 23.1969C12.3187 22.5077 12.5174 21.831 12.7409 21.1729C5.96705 27.9218 1 33.8885 1 33.8885Z" fill="#5C5C5C"/>
<path d="M33.4286 7.11536C38.5075 4.38969 42.8536 3.36524 45.2006 5.71217C46.5727 7.08432 46.1691 8.85383 44.5859 10.9152C45.3558 11.4615 46.0822 12.0576 46.7714 12.6971C48.8948 9.84103 49.3418 7.00981 46.6224 4.29035C42.6549 0.322918 35.9618 2.65743 28.9086 7.40097C30.0821 7.19607 31.2866 7.06569 32.5159 7.06569C32.8202 7.06569 33.1244 7.10294 33.4286 7.11536Z" fill="#5C5C5C"/>
<path d="M13.2377 36.167C6.49492 42.5745 2.89379 48.9634 8.29546 54.365C13.9641 60.0337 21.0608 55.8551 28.2692 48.4915C21.4768 47.0945 15.8889 42.4069 13.2377 36.167Z" fill="#5C5C5C"/>
<path d="M62.0203 15.2367C58.2826 12.1758 54.4145 13.8087 50.5278 17.3788C51.0741 18.3101 51.5584 19.2787 51.962 20.2907C55.4886 16.7765 58.475 15.038 60.6047 16.6585C68.3346 22.5383 48.3981 44.4616 48.3981 44.4616C48.3981 44.4616 70.9423 22.5383 62.0203 15.2367Z" fill="#5C5C5C"/>
<path d="M55.1597 52.8929C58.0504 52.8929 60.3937 50.5495 60.3937 47.6588C60.3937 44.7682 58.0504 42.4248 55.1597 42.4248C52.269 42.4248 49.9257 44.7682 49.9257 47.6588C49.9257 50.5495 52.269 52.8929 55.1597 52.8929Z" fill="#5C5C5C"/>
<path d="M13.7345 11.4681C16.6251 11.4681 18.9685 9.12471 18.9685 6.23403C18.9685 3.34336 16.6251 1 13.7345 1C10.8438 1 8.50043 3.34336 8.50043 6.23403C8.50043 9.12471 10.8438 11.4681 13.7345 11.4681Z" fill="#5C5C5C"/>
<path d="M71.7285 37.2902L71.2585 35.6484H69.0246L68.5242 37.2902H66.449L69.0246 28.959H71.7285L74.3347 37.2902H71.7285ZM69.458 33.8295H70.813L70.1355 31.4126L69.458 33.8295Z" fill="#5C5C5C"/>
<path d="M84.1612 28.959V37.2902H81.787V31.3332L80.2428 37.2902H78.6193L77.0202 31.3332V37.2902H75.1037V28.959H78.4423L79.6508 33.384L80.8043 28.959H84.1612Z" fill="#5C5C5C"/>
<path d="M88.1712 28.959V37.2902H85.6139V28.959H88.1712Z" fill="#5C5C5C"/>
<path d="M97.0456 37.2902H94.2075L92.9929 34.1042H92.1873V37.2902H89.6299V28.959H93.9817C94.942 28.959 95.6866 29.1848 96.2156 29.6365C96.7486 30.0841 97.0151 30.6761 97.0151 31.4126C97.0151 31.8927 96.9175 32.3179 96.7222 32.6882C96.5268 33.0544 96.1322 33.3779 95.5381 33.6587L97.0456 37.2902ZM92.1873 32.322H93.2798C93.6013 32.322 93.8596 32.2549 94.0549 32.1206C94.2503 31.9863 94.3479 31.789 94.3479 31.5285C94.3479 30.9955 94.0204 30.729 93.3653 30.729H92.1873V32.322Z" fill="#5C5C5C"/>
<path d="M102.793 34.1213L105.13 34.2617C105.021 35.283 104.642 36.0663 103.995 36.6115C103.352 37.1568 102.561 37.4294 101.621 37.4294C100.49 37.4294 99.5763 37.055 98.8805 36.3063C98.1847 35.5576 97.8368 34.5241 97.8368 33.2058C97.8368 31.8996 98.1664 30.8458 98.8256 30.0442C99.4847 29.2426 100.404 28.8418 101.584 28.8418C102.687 28.8418 103.533 29.147 104.123 29.7573C104.717 30.3677 105.053 31.1774 105.13 32.1865L102.744 32.3147C102.744 31.7572 102.636 31.3544 102.42 31.1062C102.209 30.858 101.959 30.7339 101.67 30.7339C100.864 30.7339 100.461 31.5436 100.461 33.1631C100.461 34.0704 100.565 34.6869 100.773 35.0124C100.984 35.3379 101.279 35.5007 101.658 35.5007C102.333 35.5007 102.711 35.0409 102.793 34.1213Z" fill="#5C5C5C"/>
<path d="M112.339 35.3115V37.3012H106.07V28.97H112.339V30.8926H108.579V32.101H111.618V33.9504H108.579V35.3115H112.339Z" fill="#5C5C5C"/>
<path d="M119.199 35.2565V37.3012H113.358V28.97H115.915V35.2565H119.199Z" fill="#5C5C5C"/>
<path d="M125.937 35.2565V37.3012H120.096V28.97H122.653V35.2565H125.937Z" fill="#5C5C5C"/>
</svg>
