<svg width="24" height="24" viewBox="0 0 24 24" fill="none" xmlns="http://www.w3.org/2000/svg">
<path d="M8.10004 12.0001C9.59121 12.0001 10.8 10.7913 10.8 9.30011C10.8 7.80893 9.59121 6.6001 8.10004 6.6001C6.60886 6.6001 5.40002 7.80893 5.40002 9.30011C5.40002 10.7913 6.60886 12.0001 8.10004 12.0001Z" fill="#645E9D"/>
<path d="M11.175 13.5C10.119 12.9638 8.95353 12.75 8.10002 12.75C6.42827 12.75 3 13.7753 3 15.825V16.9C3 17.1762 3.22386 17.4 3.5 17.4H8.62503V16.7974C8.62503 16.0849 8.92503 15.3705 9.45003 14.775C9.86891 14.2995 10.4554 13.8581 11.175 13.5Z" fill="#645E9D"/>
<path d="M15.1501 13.2002C13.1974 13.2002 9.30005 14.4062 9.30005 16.8002V18.1002C9.30005 18.3764 9.52391 18.6002 9.80005 18.6002H20.5001C20.7762 18.6002 21.0001 18.3764 21.0001 18.1002V16.8002C21.0001 14.4062 17.1027 13.2002 15.1501 13.2002Z" fill="#645E9D"/>
<path d="M15.1501 11.9999C16.9727 11.9999 18.4501 10.5225 18.4501 8.69992C18.4501 6.87737 16.9727 5.3999 15.1501 5.3999C13.3276 5.3999 11.8501 6.87737 11.8501 8.69992C11.8501 10.5225 13.3276 11.9999 15.1501 11.9999Z" fill="#645E9D"/>
</svg>
