<svg width="24" height="24" viewBox="0 0 24 24" fill="none" xmlns="http://www.w3.org/2000/svg">
<path d="M8.09991 12.0001C9.59109 12.0001 10.7999 10.7913 10.7999 9.30011C10.7999 7.80893 9.59109 6.6001 8.09991 6.6001C6.60874 6.6001 5.3999 7.80893 5.3999 9.30011C5.3999 10.7913 6.60874 12.0001 8.09991 12.0001Z" fill="#5C5C5C"/>
<path d="M11.175 13.5C10.119 12.9638 8.95347 12.75 8.09996 12.75C6.4282 12.75 2.99994 13.7753 2.99994 15.825V16.9C2.99994 17.1762 3.2238 17.4 3.49994 17.4H8.62496V16.7974C8.62496 16.0849 8.92497 15.3705 9.44997 14.775C9.86885 14.2995 10.4553 13.8581 11.175 13.5Z" fill="#5C5C5C"/>
<path d="M15.15 13.2002C13.1974 13.2002 9.29999 14.4062 9.29999 16.8002V18.1002C9.29999 18.3764 9.52385 18.6002 9.79999 18.6002H20.5C20.7762 18.6002 21 18.3764 21 18.1002V16.8002C21 14.4062 17.1026 13.2002 15.15 13.2002Z" fill="#5C5C5C"/>
<path d="M15.1501 11.9999C16.9726 11.9999 18.4501 10.5225 18.4501 8.69992C18.4501 6.87737 16.9726 5.3999 15.1501 5.3999C13.3275 5.3999 11.85 6.87737 11.85 8.69992C11.85 10.5225 13.3275 11.9999 15.1501 11.9999Z" fill="#5C5C5C"/>
</svg>
