<svg width="200" height="200" viewBox="0 0 200 200" fill="none" xmlns="http://www.w3.org/2000/svg">
<path d="M200 0H0V200H200V0Z" fill="white"/>
<path d="M19 12H12V19H19V12Z" fill="black"/>
<path d="M26 12H19V19H26V12Z" fill="black"/>
<path d="M33 12H26V19H33V12Z" fill="black"/>
<path d="M40 12H33V19H40V12Z" fill="black"/>
<path d="M47 12H40V19H47V12Z" fill="black"/>
<path d="M54 12H47V19H54V12Z" fill="black"/>
<path d="M61 12H54V19H61V12Z" fill="black"/>
<path d="M75 12H68V19H75V12Z" fill="black"/>
<path d="M82 12H75V19H82V12Z" fill="black"/>
<path d="M89 12H82V19H89V12Z" fill="black"/>
<path d="M96 12H89V19H96V12Z" fill="black"/>
<path d="M117 12H110V19H117V12Z" fill="black"/>
<path d="M131 12H124V19H131V12Z" fill="black"/>
<path d="M145 12H138V19H145V12Z" fill="black"/>
<path d="M152 12H145V19H152V12Z" fill="black"/>
<path d="M159 12H152V19H159V12Z" fill="black"/>
<path d="M166 12H159V19H166V12Z" fill="black"/>
<path d="M173 12H166V19H173V12Z" fill="black"/>
<path d="M180 12H173V19H180V12Z" fill="black"/>
<path d="M187 12H180V19H187V12Z" fill="black"/>
<path d="M19 19H12V26H19V19Z" fill="black"/>
<path d="M61 19H54V26H61V19Z" fill="black"/>
<path d="M96 19H89V26H96V19Z" fill="black"/>
<path d="M103 19H96V26H103V19Z" fill="black"/>
<path d="M131 19H124V26H131V19Z" fill="black"/>
<path d="M145 19H138V26H145V19Z" fill="black"/>
<path d="M187 19H180V26H187V19Z" fill="black"/>
<path d="M19 26H12V33H19V26Z" fill="black"/>
<path d="M33 26H26V33H33V26Z" fill="black"/>
<path d="M40 26H33V33H40V26Z" fill="black"/>
<path d="M47 26H40V33H47V26Z" fill="black"/>
<path d="M61 26H54V33H61V26Z" fill="black"/>
<path d="M82 26H75V33H82V26Z" fill="black"/>
<path d="M96 26H89V33H96V26Z" fill="black"/>
<path d="M110 26H103V33H110V26Z" fill="black"/>
<path d="M117 26H110V33H117V26Z" fill="black"/>
<path d="M145 26H138V33H145V26Z" fill="black"/>
<path d="M159 26H152V33H159V26Z" fill="black"/>
<path d="M166 26H159V33H166V26Z" fill="black"/>
<path d="M173 26H166V33H173V26Z" fill="black"/>
<path d="M187 26H180V33H187V26Z" fill="black"/>
<path d="M19 33H12V40H19V33Z" fill="black"/>
<path d="M33 33H26V40H33V33Z" fill="black"/>
<path d="M40 33H33V40H40V33Z" fill="black"/>
<path d="M47 33H40V40H47V33Z" fill="black"/>
<path d="M61 33H54V40H61V33Z" fill="black"/>
<path d="M89 33H82V40H89V33Z" fill="black"/>
<path d="M96 33H89V40H96V33Z" fill="black"/>
<path d="M110 33H103V40H110V33Z" fill="black"/>
<path d="M124 33H117V40H124V33Z" fill="black"/>
<path d="M131 33H124V40H131V33Z" fill="black"/>
<path d="M145 33H138V40H145V33Z" fill="black"/>
<path d="M159 33H152V40H159V33Z" fill="black"/>
<path d="M166 33H159V40H166V33Z" fill="black"/>
<path d="M173 33H166V40H173V33Z" fill="black"/>
<path d="M187 33H180V40H187V33Z" fill="black"/>
<path d="M19 40H12V47H19V40Z" fill="black"/>
<path d="M33 40H26V47H33V40Z" fill="black"/>
<path d="M40 40H33V47H40V40Z" fill="black"/>
<path d="M47 40H40V47H47V40Z" fill="black"/>
<path d="M61 40H54V47H61V40Z" fill="black"/>
<path d="M89 40H82V47H89V40Z" fill="black"/>
<path d="M96 40H89V47H96V40Z" fill="black"/>
<path d="M103 40H96V47H103V40Z" fill="black"/>
<path d="M110 40H103V47H110V40Z" fill="black"/>
<path d="M131 40H124V47H131V40Z" fill="black"/>
<path d="M145 40H138V47H145V40Z" fill="black"/>
<path d="M159 40H152V47H159V40Z" fill="black"/>
<path d="M166 40H159V47H166V40Z" fill="black"/>
<path d="M173 40H166V47H173V40Z" fill="black"/>
<path d="M187 40H180V47H187V40Z" fill="black"/>
<path d="M19 47H12V54H19V47Z" fill="black"/>
<path d="M61 47H54V54H61V47Z" fill="black"/>
<path d="M82 47H75V54H82V47Z" fill="black"/>
<path d="M96 47H89V54H96V47Z" fill="black"/>
<path d="M131 47H124V54H131V47Z" fill="black"/>
<path d="M145 47H138V54H145V47Z" fill="black"/>
<path d="M187 47H180V54H187V47Z" fill="black"/>
<path d="M19 54H12V61H19V54Z" fill="black"/>
<path d="M26 54H19V61H26V54Z" fill="black"/>
<path d="M33 54H26V61H33V54Z" fill="black"/>
<path d="M40 54H33V61H40V54Z" fill="black"/>
<path d="M47 54H40V61H47V54Z" fill="black"/>
<path d="M54 54H47V61H54V54Z" fill="black"/>
<path d="M61 54H54V61H61V54Z" fill="black"/>
<path d="M75 54H68V61H75V54Z" fill="black"/>
<path d="M89 54H82V61H89V54Z" fill="black"/>
<path d="M103 54H96V61H103V54Z" fill="black"/>
<path d="M117 54H110V61H117V54Z" fill="black"/>
<path d="M131 54H124V61H131V54Z" fill="black"/>
<path d="M145 54H138V61H145V54Z" fill="black"/>
<path d="M152 54H145V61H152V54Z" fill="black"/>
<path d="M159 54H152V61H159V54Z" fill="black"/>
<path d="M166 54H159V61H166V54Z" fill="black"/>
<path d="M173 54H166V61H173V54Z" fill="black"/>
<path d="M180 54H173V61H180V54Z" fill="black"/>
<path d="M187 54H180V61H187V54Z" fill="black"/>
<path d="M75 61H68V68H75V61Z" fill="black"/>
<path d="M82 61H75V68H82V61Z" fill="black"/>
<path d="M103 61H96V68H103V61Z" fill="black"/>
<path d="M110 61H103V68H110V61Z" fill="black"/>
<path d="M131 61H124V68H131V61Z" fill="black"/>
<path d="M19 68H12V75H19V68Z" fill="black"/>
<path d="M26 68H19V75H26V68Z" fill="black"/>
<path d="M40 68H33V75H40V68Z" fill="black"/>
<path d="M47 68H40V75H47V68Z" fill="black"/>
<path d="M61 68H54V75H61V68Z" fill="black"/>
<path d="M82 68H75V75H82V68Z" fill="black"/>
<path d="M103 68H96V75H103V68Z" fill="black"/>
<path d="M117 68H110V75H117V68Z" fill="black"/>
<path d="M124 68H117V75H124V68Z" fill="black"/>
<path d="M145 68H138V75H145V68Z" fill="black"/>
<path d="M187 68H180V75H187V68Z" fill="black"/>
<path d="M19 75H12V82H19V75Z" fill="black"/>
<path d="M33 75H26V82H33V75Z" fill="black"/>
<path d="M40 75H33V82H40V75Z" fill="black"/>
<path d="M47 75H40V82H47V75Z" fill="black"/>
<path d="M89 75H82V82H89V75Z" fill="black"/>
<path d="M124 75H117V82H124V75Z" fill="black"/>
<path d="M152 75H145V82H152V75Z" fill="black"/>
<path d="M159 75H152V82H159V75Z" fill="black"/>
<path d="M166 75H159V82H166V75Z" fill="black"/>
<path d="M173 75H166V82H173V75Z" fill="black"/>
<path d="M180 75H173V82H180V75Z" fill="black"/>
<path d="M19 82H12V89H19V82Z" fill="black"/>
<path d="M40 82H33V89H40V82Z" fill="black"/>
<path d="M47 82H40V89H47V82Z" fill="black"/>
<path d="M54 82H47V89H54V82Z" fill="black"/>
<path d="M61 82H54V89H61V82Z" fill="black"/>
<path d="M68 82H61V89H68V82Z" fill="black"/>
<path d="M75 82H68V89H75V82Z" fill="black"/>
<path d="M82 82H75V89H82V82Z" fill="black"/>
<path d="M103 82H96V89H103V82Z" fill="black"/>
<path d="M110 82H103V89H110V82Z" fill="black"/>
<path d="M117 82H110V89H117V82Z" fill="black"/>
<path d="M124 82H117V89H124V82Z" fill="black"/>
<path d="M145 82H138V89H145V82Z" fill="black"/>
<path d="M166 82H159V89H166V82Z" fill="black"/>
<path d="M187 82H180V89H187V82Z" fill="black"/>
<path d="M26 89H19V96H26V89Z" fill="black"/>
<path d="M54 89H47V96H54V89Z" fill="black"/>
<path d="M75 89H68V96H75V89Z" fill="black"/>
<path d="M117 89H110V96H117V89Z" fill="black"/>
<path d="M124 89H117V96H124V89Z" fill="black"/>
<path d="M145 89H138V96H145V89Z" fill="black"/>
<path d="M152 89H145V96H152V89Z" fill="black"/>
<path d="M159 89H152V96H159V89Z" fill="black"/>
<path d="M166 89H159V96H166V89Z" fill="black"/>
<path d="M173 89H166V96H173V89Z" fill="black"/>
<path d="M180 89H173V96H180V89Z" fill="black"/>
<path d="M187 89H180V96H187V89Z" fill="black"/>
<path d="M19 96H12V103H19V96Z" fill="black"/>
<path d="M40 96H33V103H40V96Z" fill="black"/>
<path d="M61 96H54V103H61V96Z" fill="black"/>
<path d="M68 96H61V103H68V96Z" fill="black"/>
<path d="M82 96H75V103H82V96Z" fill="black"/>
<path d="M89 96H82V103H89V96Z" fill="black"/>
<path d="M131 96H124V103H131V96Z" fill="black"/>
<path d="M145 96H138V103H145V96Z" fill="black"/>
<path d="M152 96H145V103H152V96Z" fill="black"/>
<path d="M187 96H180V103H187V96Z" fill="black"/>
<path d="M19 103H12V110H19V103Z" fill="black"/>
<path d="M40 103H33V110H40V103Z" fill="black"/>
<path d="M68 103H61V110H68V103Z" fill="black"/>
<path d="M89 103H82V110H89V103Z" fill="black"/>
<path d="M103 103H96V110H103V103Z" fill="black"/>
<path d="M117 103H110V110H117V103Z" fill="black"/>
<path d="M124 103H117V110H124V103Z" fill="black"/>
<path d="M159 103H152V110H159V103Z" fill="black"/>
<path d="M180 103H173V110H180V103Z" fill="black"/>
<path d="M19 110H12V117H19V110Z" fill="black"/>
<path d="M26 110H19V117H26V110Z" fill="black"/>
<path d="M33 110H26V117H33V110Z" fill="black"/>
<path d="M40 110H33V117H40V110Z" fill="black"/>
<path d="M47 110H40V117H47V110Z" fill="black"/>
<path d="M54 110H47V117H54V110Z" fill="black"/>
<path d="M61 110H54V117H61V110Z" fill="black"/>
<path d="M68 110H61V117H68V110Z" fill="black"/>
<path d="M89 110H82V117H89V110Z" fill="black"/>
<path d="M124 110H117V117H124V110Z" fill="black"/>
<path d="M138 110H131V117H138V110Z" fill="black"/>
<path d="M159 110H152V117H159V110Z" fill="black"/>
<path d="M166 110H159V117H166V110Z" fill="black"/>
<path d="M173 110H166V117H173V110Z" fill="black"/>
<path d="M180 110H173V117H180V110Z" fill="black"/>
<path d="M187 110H180V117H187V110Z" fill="black"/>
<path d="M19 117H12V124H19V117Z" fill="black"/>
<path d="M40 117H33V124H40V117Z" fill="black"/>
<path d="M47 117H40V124H47V117Z" fill="black"/>
<path d="M68 117H61V124H68V117Z" fill="black"/>
<path d="M103 117H96V124H103V117Z" fill="black"/>
<path d="M124 117H117V124H124V117Z" fill="black"/>
<path d="M131 117H124V124H131V117Z" fill="black"/>
<path d="M145 117H138V124H145V117Z" fill="black"/>
<path d="M152 117H145V124H152V117Z" fill="black"/>
<path d="M173 117H166V124H173V117Z" fill="black"/>
<path d="M187 117H180V124H187V117Z" fill="black"/>
<path d="M19 124H12V131H19V124Z" fill="black"/>
<path d="M33 124H26V131H33V124Z" fill="black"/>
<path d="M40 124H33V131H40V124Z" fill="black"/>
<path d="M47 124H40V131H47V124Z" fill="black"/>
<path d="M54 124H47V131H54V124Z" fill="black"/>
<path d="M61 124H54V131H61V124Z" fill="black"/>
<path d="M75 124H68V131H75V124Z" fill="black"/>
<path d="M96 124H89V131H96V124Z" fill="black"/>
<path d="M103 124H96V131H103V124Z" fill="black"/>
<path d="M110 124H103V131H110V124Z" fill="black"/>
<path d="M131 124H124V131H131V124Z" fill="black"/>
<path d="M138 124H131V131H138V124Z" fill="black"/>
<path d="M145 124H138V131H145V124Z" fill="black"/>
<path d="M152 124H145V131H152V124Z" fill="black"/>
<path d="M159 124H152V131H159V124Z" fill="black"/>
<path d="M173 124H166V131H173V124Z" fill="black"/>
<path d="M180 124H173V131H180V124Z" fill="black"/>
<path d="M75 131H68V138H75V131Z" fill="black"/>
<path d="M89 131H82V138H89V131Z" fill="black"/>
<path d="M96 131H89V138H96V131Z" fill="black"/>
<path d="M131 131H124V138H131V131Z" fill="black"/>
<path d="M159 131H152V138H159V131Z" fill="black"/>
<path d="M180 131H173V138H180V131Z" fill="black"/>
<path d="M19 138H12V145H19V138Z" fill="black"/>
<path d="M26 138H19V145H26V138Z" fill="black"/>
<path d="M33 138H26V145H33V138Z" fill="black"/>
<path d="M40 138H33V145H40V138Z" fill="black"/>
<path d="M47 138H40V145H47V138Z" fill="black"/>
<path d="M54 138H47V145H54V138Z" fill="black"/>
<path d="M61 138H54V145H61V138Z" fill="black"/>
<path d="M103 138H96V145H103V138Z" fill="black"/>
<path d="M131 138H124V145H131V138Z" fill="black"/>
<path d="M145 138H138V145H145V138Z" fill="black"/>
<path d="M159 138H152V145H159V138Z" fill="black"/>
<path d="M166 138H159V145H166V138Z" fill="black"/>
<path d="M187 138H180V145H187V138Z" fill="black"/>
<path d="M19 145H12V152H19V145Z" fill="black"/>
<path d="M61 145H54V152H61V145Z" fill="black"/>
<path d="M96 145H89V152H96V145Z" fill="black"/>
<path d="M110 145H103V152H110V145Z" fill="black"/>
<path d="M124 145H117V152H124V145Z" fill="black"/>
<path d="M131 145H124V152H131V145Z" fill="black"/>
<path d="M159 145H152V152H159V145Z" fill="black"/>
<path d="M187 145H180V152H187V145Z" fill="black"/>
<path d="M19 152H12V159H19V152Z" fill="black"/>
<path d="M33 152H26V159H33V152Z" fill="black"/>
<path d="M40 152H33V159H40V152Z" fill="black"/>
<path d="M47 152H40V159H47V152Z" fill="black"/>
<path d="M61 152H54V159H61V152Z" fill="black"/>
<path d="M75 152H68V159H75V152Z" fill="black"/>
<path d="M96 152H89V159H96V152Z" fill="black"/>
<path d="M103 152H96V159H103V152Z" fill="black"/>
<path d="M117 152H110V159H117V152Z" fill="black"/>
<path d="M124 152H117V159H124V152Z" fill="black"/>
<path d="M131 152H124V159H131V152Z" fill="black"/>
<path d="M138 152H131V159H138V152Z" fill="black"/>
<path d="M145 152H138V159H145V152Z" fill="black"/>
<path d="M152 152H145V159H152V152Z" fill="black"/>
<path d="M159 152H152V159H159V152Z" fill="black"/>
<path d="M166 152H159V159H166V152Z" fill="black"/>
<path d="M19 159H12V166H19V159Z" fill="black"/>
<path d="M33 159H26V166H33V159Z" fill="black"/>
<path d="M40 159H33V166H40V159Z" fill="black"/>
<path d="M47 159H40V166H47V159Z" fill="black"/>
<path d="M61 159H54V166H61V159Z" fill="black"/>
<path d="M75 159H68V166H75V159Z" fill="black"/>
<path d="M103 159H96V166H103V159Z" fill="black"/>
<path d="M117 159H110V166H117V159Z" fill="black"/>
<path d="M138 159H131V166H138V159Z" fill="black"/>
<path d="M145 159H138V166H145V159Z" fill="black"/>
<path d="M166 159H159V166H166V159Z" fill="black"/>
<path d="M180 159H173V166H180V159Z" fill="black"/>
<path d="M187 159H180V166H187V159Z" fill="black"/>
<path d="M19 166H12V173H19V166Z" fill="black"/>
<path d="M33 166H26V173H33V166Z" fill="black"/>
<path d="M40 166H33V173H40V166Z" fill="black"/>
<path d="M47 166H40V173H47V166Z" fill="black"/>
<path d="M61 166H54V173H61V166Z" fill="black"/>
<path d="M82 166H75V173H82V166Z" fill="black"/>
<path d="M89 166H82V173H89V166Z" fill="black"/>
<path d="M96 166H89V173H96V166Z" fill="black"/>
<path d="M103 166H96V173H103V166Z" fill="black"/>
<path d="M110 166H103V173H110V166Z" fill="black"/>
<path d="M131 166H124V173H131V166Z" fill="black"/>
<path d="M138 166H131V173H138V166Z" fill="black"/>
<path d="M152 166H145V173H152V166Z" fill="black"/>
<path d="M159 166H152V173H159V166Z" fill="black"/>
<path d="M173 166H166V173H173V166Z" fill="black"/>
<path d="M180 166H173V173H180V166Z" fill="black"/>
<path d="M187 166H180V173H187V166Z" fill="black"/>
<path d="M19 173H12V180H19V173Z" fill="black"/>
<path d="M61 173H54V180H61V173Z" fill="black"/>
<path d="M75 173H68V180H75V173Z" fill="black"/>
<path d="M82 173H75V180H82V173Z" fill="black"/>
<path d="M89 173H82V180H89V173Z" fill="black"/>
<path d="M103 173H96V180H103V173Z" fill="black"/>
<path d="M138 173H131V180H138V173Z" fill="black"/>
<path d="M152 173H145V180H152V173Z" fill="black"/>
<path d="M159 173H152V180H159V173Z" fill="black"/>
<path d="M173 173H166V180H173V173Z" fill="black"/>
<path d="M180 173H173V180H180V173Z" fill="black"/>
<path d="M187 173H180V180H187V173Z" fill="black"/>
<path d="M19 180H12V187H19V180Z" fill="black"/>
<path d="M26 180H19V187H26V180Z" fill="black"/>
<path d="M33 180H26V187H33V180Z" fill="black"/>
<path d="M40 180H33V187H40V180Z" fill="black"/>
<path d="M47 180H40V187H47V180Z" fill="black"/>
<path d="M54 180H47V187H54V180Z" fill="black"/>
<path d="M61 180H54V187H61V180Z" fill="black"/>
<path d="M75 180H68V187H75V180Z" fill="black"/>
<path d="M89 180H82V187H89V180Z" fill="black"/>
<path d="M131 180H124V187H131V180Z" fill="black"/>
<path d="M145 180H138V187H145V180Z" fill="black"/>
<path d="M166 180H159V187H166V180Z" fill="black"/>
<path d="M187 180H180V187H187V180Z" fill="black"/>
</svg>
