<svg width="36" height="36" viewBox="0 0 36 36" fill="none" xmlns="http://www.w3.org/2000/svg">
<path fill-rule="evenodd" clip-rule="evenodd" d="M18 36C27.9411 36 36 27.9411 36 18C36 8.05887 27.9411 0 18 0C8.05887 0 0 8.05887 0 18C0 27.9411 8.05887 36 18 36ZM11.5113 24.6667H23.9558C24.0787 24.6667 24.178 24.5673 24.178 24.4445V21.1111C24.178 20.9882 24.0785 20.8889 23.9558 20.8889H22.4002C22.2775 20.8889 22.178 20.9882 22.178 21.1111V22.6667H15.9802L19.6833 18.1407C19.7502 18.0587 19.7502 17.9412 19.6833 17.8594L15.9802 13.3333H22.1779V14.8889C22.1779 15.0118 22.2775 15.1111 22.4002 15.1111H23.9558C24.0784 15.1111 24.178 15.0118 24.178 14.8889V11.5556C24.178 11.4327 24.0784 11.3333 23.9558 11.3333H11.5113C11.4244 11.3333 11.3453 11.384 11.3091 11.4629C11.2728 11.5418 11.2862 11.6347 11.3428 11.7007L16.7733 18L11.3431 24.2993C11.2862 24.3654 11.2731 24.4582 11.3093 24.5371C11.3455 24.616 11.4244 24.6667 11.5113 24.6667Z" fill="#645E9D"/>
</svg>
