<svg width="120" height="120" viewBox="0 0 120 120" fill="none" xmlns="http://www.w3.org/2000/svg">
<circle cx="60" cy="60" r="38.5" stroke="#F1F1F1" stroke-width="13"/>
<circle cx="60" cy="60" r="43.5" stroke="#5C5C5C" stroke-width="3"/>
<path d="M69 17L55.5 24.7942L55.5 9.20577L69 17Z" fill="#5C5C5C"/>
<path d="M51 103L64.5 95.2058L64.5 110.794L51 103Z" fill="#5C5C5C"/>
<path fill-rule="evenodd" clip-rule="evenodd" d="M62.8166 52.1697V55.6443V55.6466C69.2002 55.9431 74 57.2195 74 58.746C74 60.2725 69.2002 61.5489 62.8166 61.8454V72.9643H57.1272V61.857C50.7344 61.5582 45.9231 60.2818 45.9231 58.753C45.9231 57.2241 50.7321 55.9478 57.1272 55.6513V52.1766H49.2586V46.8928H70.6852V52.1697H62.8166ZM62.5984 60.9153C62.7086 60.9104 62.78 60.9073 62.8168 60.9073V60.9026C68.4556 60.6501 72.6646 59.6564 72.6646 58.475C72.6646 57.2936 68.4556 56.2999 62.8168 56.0474V59.9181C62.6535 59.932 61.7708 60.0062 60.0169 60.0062C58.5549 60.0062 57.4975 59.9436 57.1274 59.9181V56.0474C51.477 56.2999 47.2588 57.2913 47.2588 58.4773C47.2588 59.6633 51.477 60.6548 57.1274 60.9073C58.0823 60.9501 59.038 60.9702 59.9939 60.9675C61.4111 60.9675 62.2261 60.9316 62.5984 60.9153Z" fill="#66B700"/>
</svg>
