<svg width="120" height="120" viewBox="0 0 120 120" fill="none" xmlns="http://www.w3.org/2000/svg">
<path d="M33.4248 66.1555C32.7713 65.0537 31.3197 64.6704 30.1798 65.3099L18.1878 72.0422C17.0523 72.6814 16.6628 74.0938 17.3183 75.1996L29.5747 95.8449C30.2308 96.9489 31.6822 97.328 32.8198 96.6905L44.8117 89.9565C45.9489 89.3188 46.337 87.9064 45.6813 86.8006L33.4248 66.1555Z" fill="#F1F1F1" stroke="#5C5C5C" stroke-width="3"/>
<path d="M100.338 61.7455C99.2068 60.1759 97.0179 59.8213 95.4487 60.9515C90.6877 64.3788 81.5456 70.9602 80.8193 71.4846C80.4844 71.7692 80.1329 72.0272 79.7665 72.2552C78.3288 73.1591 76.6613 73.6418 74.9205 73.6418H62.9515C61.5721 73.6418 60.4527 72.5249 60.4527 71.145C60.4527 69.7635 61.5738 68.6482 62.9515 68.6482H75.7518C77.6325 68.6482 79.1384 67.0836 79.0601 65.201C78.9868 63.415 77.4609 62.0301 75.6718 62.0301H65.9283C65.2686 61.3327 64.5457 60.6935 63.771 60.1226C61.1074 58.1602 57.8157 57 54.2524 57C47.9172 57 41.6137 60.9882 39 66.3113L49.2216 84H68.3954C72.1602 84 75.8684 83.0379 79.1318 81.162C80.2629 80.5129 81.4739 79.7322 82.7866 78.7901C88.2872 74.8419 99.5333 66.6392 99.5416 66.6342C101.114 65.5056 101.471 63.3151 100.338 61.7455V61.7455Z" stroke="#5C5C5C" stroke-width="3"/>
<path d="M101.5 27V42C101.5 43.3807 100.381 44.5 99 44.5H71C69.6193 44.5 68.5 43.3807 68.5 42V30.6569C68.5 29.9938 68.7634 29.3579 69.2322 28.8891L72.8891 25.2322C73.3579 24.7634 73.9938 24.5 74.6569 24.5H99C100.381 24.5 101.5 25.6193 101.5 27Z" stroke="#5C5C5C" stroke-width="3"/>
<rect x="83" y="29" width="14" height="11" rx="2" fill="#66B700"/>
</svg>
