<svg width="120" height="120" viewBox="0 0 120 120" fill="none" xmlns="http://www.w3.org/2000/svg">
<path d="M82.7709 39.1138C82.2579 39.075 81.745 39.0568 81.3581 39.0609C81.2025 39.0477 64.915 37.84 58.3937 59.4773C52.6936 78.3912 39.489 77.5518 38.7907 77.4989C38.5301 77.4989 38.2679 77.4931 38.0056 77.4807C28.695 77.0644 21.4002 69.3724 21.4002 59.9687C21.4002 50.3023 29.2014 42.4376 38.7907 42.4376C44.735 42.4376 50.2073 45.4509 53.4294 50.4989L56.2517 48.6683C52.4102 42.6483 45.8823 39.054 38.7908 39.054C27.3513 39.0544 18.0439 48.4366 18.0439 59.9689C18.0439 71.1873 26.7466 80.3646 37.8551 80.861C38.1648 80.8751 38.4747 80.8801 38.6417 80.8758C38.6581 80.8775 38.8548 80.8923 39.1989 80.8923C42.1277 80.8923 55.7698 79.8217 61.6061 60.4603C67.3062 41.5448 80.5142 42.3898 81.2091 42.4378C81.6501 42.4378 82.0893 42.4551 82.5219 42.4873C91.5375 43.1646 98.5996 50.8427 98.5996 59.9687C98.5996 69.6351 90.7984 77.4989 81.2091 77.4989C75.2648 77.4989 69.7942 74.4856 66.5721 69.4377L63.7498 71.2682C67.5913 77.2883 74.1175 80.8825 81.2091 80.8825C92.6486 80.8825 101.956 71.5003 101.956 59.9689C101.956 49.0817 93.5287 39.921 82.7709 39.1138Z" fill="#5C5C5C"/>
<path fill-rule="evenodd" clip-rule="evenodd" d="M54.5244 58.2923C55.0388 56.5856 55.6124 54.9997 56.2353 53.5264L52.2169 56.1328L50.0287 52.7046C47.5493 48.8203 43.3568 46.5141 38.7907 46.5141C31.435 46.5141 25.4442 52.5534 25.4442 59.9687C25.4442 67.1942 31.0387 73.0887 38.1848 73.4083L38.1946 73.4087C38.3908 73.418 38.5899 73.4225 38.7907 73.4225H38.9425L39.0938 73.4339C39.095 73.434 39.1027 73.4346 39.1171 73.4354C39.1237 73.4358 39.132 73.4362 39.142 73.4367C39.1559 73.4373 39.1732 73.438 39.1937 73.4387C39.264 73.441 39.3737 73.4428 39.5182 73.4399C39.8079 73.434 40.2345 73.409 40.7634 73.3313C41.8226 73.1757 43.2694 72.8122 44.8521 71.9833C47.8963 70.389 51.9596 66.8027 54.5244 58.2923ZM59.8801 46.8193L59.6528 46.463C55.0682 39.2785 47.26 34.9776 38.7909 34.9776C25.1179 34.978 14 46.1853 14 59.9689C14 73.3643 24.4012 84.3386 37.6728 84.9333C37.9546 84.9462 38.2733 84.9545 38.543 84.9537C38.7271 84.9629 38.9506 84.9687 39.1989 84.9687C41.1058 84.9687 46.0371 84.627 51.3716 81.4451C54.4108 79.6323 57.4631 76.9665 60.1215 73.1174L60.3487 73.4735C64.9331 80.6577 72.7395 84.959 81.2092 84.959C94.8821 84.959 106 73.7517 106 59.9689C106 46.9527 95.9453 36.016 83.0737 35.0488M63.7645 66.4112L67.7847 63.8038L69.9729 67.2319C72.4525 71.1166 76.6435 73.4225 81.2092 73.4225C88.565 73.4225 94.5557 67.3837 94.5557 59.9687C94.5557 52.9726 89.1225 47.0719 82.2232 46.5526C81.8843 46.5275 81.5448 46.5142 81.2092 46.5142H81.0709L80.9331 46.5047C80.9263 46.5043 80.7699 46.4922 80.4857 46.4982C80.1949 46.5043 79.7676 46.5295 79.2384 46.6073C78.1786 46.7632 76.7314 47.1267 75.1484 47.9554C72.1039 49.5493 68.0401 53.1345 65.4755 61.6451C64.9613 63.3509 64.3877 64.9372 63.7645 66.4112ZM66.5723 69.438C66.5724 69.4382 66.5722 69.4379 66.5723 69.438L63.7498 71.2682C63.7509 71.2698 63.7519 71.2714 63.7529 71.273C64.4958 72.4365 65.3389 73.5092 66.267 74.4829C70.1391 78.5451 75.4903 80.8825 81.2092 80.8825C92.6487 80.8825 101.956 71.5003 101.956 59.9689C101.956 59.9689 101.956 59.9688 101.956 59.9689C101.956 49.0819 93.5288 39.9212 82.7713 39.1139C82.7715 39.1139 82.7712 39.1139 82.7713 39.1139C82.7705 39.1138 82.7693 39.1137 82.7685 39.1136C82.291 39.0776 81.8139 39.0594 81.4384 39.0604C81.4111 39.0605 81.3843 39.0606 81.3581 39.0609C81.3501 39.0602 81.2993 39.0564 81.2092 39.0526C79.5502 38.9839 64.5795 38.9548 58.394 59.4764C53.1578 76.851 41.5886 77.5576 39.1989 77.5164C39.1185 77.515 39.0485 77.5128 38.9895 77.5103C38.8931 77.5063 38.8259 77.5016 38.7907 77.4989C38.7127 77.4989 38.6345 77.4984 38.5562 77.4973C38.3734 77.4948 38.1899 77.4894 38.0064 77.4807C38.0067 77.4808 38.0062 77.4807 38.0064 77.4807C38.0058 77.4807 38.0044 77.4807 38.0038 77.4806C28.6941 77.0634 21.4003 69.3718 21.4002 59.9689C21.4002 59.9689 21.4002 59.9688 21.4002 59.9689C21.4002 50.3025 29.2014 42.4376 38.7907 42.4376C44.7347 42.4377 50.2071 45.4508 53.4292 50.4985C53.4291 50.4984 53.4293 50.4986 53.4292 50.4985L56.2505 48.6692L56.2517 48.6684C56.2509 48.6671 56.2501 48.6658 56.2493 48.6645C55.5063 47.5007 54.6629 46.4276 53.7344 45.4537C49.862 41.3915 44.5096 39.054 38.7909 39.054C38.7909 39.054 38.7908 39.054 38.7909 39.054C27.3515 39.0545 18.044 48.4365 18.044 59.9687C18.044 59.9686 18.044 59.9688 18.044 59.9687C18.044 71.1849 26.7433 80.3611 37.8487 80.8607C37.8509 80.8608 37.853 80.8609 37.8551 80.861C37.8557 80.861 37.8563 80.8611 37.8569 80.8611C38.1104 80.8726 38.3638 80.878 38.5387 80.8772C38.5771 80.877 38.6117 80.8766 38.6417 80.8758C38.6497 80.8766 38.7006 80.8806 38.7907 80.8844C38.8852 80.8884 39.0227 80.8923 39.1989 80.8923C42.1276 80.8923 55.7695 79.8217 61.6059 60.461C67.0887 42.2667 79.5182 42.3541 81.0762 42.43C81.138 42.433 81.1827 42.436 81.2092 42.4378C81.2707 42.4378 81.3321 42.4381 81.3936 42.4388C81.7717 42.4429 82.1482 42.4596 82.5197 42.4871C82.5204 42.4872 82.5212 42.4872 82.5219 42.4873C91.5375 43.1646 98.5996 50.8427 98.5996 59.9687C98.5996 59.9686 98.5996 59.9688 98.5996 59.9687C98.5995 69.635 90.7984 77.4989 81.2092 77.4989C75.2663 77.4989 69.7969 74.4871 66.5744 69.4414C66.5737 69.4402 66.573 69.4391 66.5723 69.438ZM83.0711 35.0486C82.5259 35.0074 81.9581 34.9838 81.4664 34.9839ZM81.4664 34.9839C80.3299 34.927 75.7778 34.8987 70.4969 37.483C66.8868 39.2497 63.0997 42.16 59.8801 46.8193" fill="#F1F1F1"/>
<path d="M84.7692 35.3061C83.7582 35.0004 81.7363 34.98 80.7253 34.98L62.5275 44.1724L59.4945 47.7393C72.6374 39.5864 85.6354 35.568 84.7692 35.3061Z" fill="#F1F1F1"/>
<path d="M67.2842 107.971L60.3136 101L53.343 107.971" stroke="#66B700" stroke-width="3"/>
<path d="M53.3433 11.9706L60.3138 18.9411L67.2844 11.9706" stroke="#66B700" stroke-width="3"/>
</svg>
