<svg width="210" height="119" viewBox="0 0 210 119" fill="none" xmlns="http://www.w3.org/2000/svg">
<mask id="mask0" mask-type="alpha" maskUnits="userSpaceOnUse" x="0" y="0" width="210" height="119">
<path d="M0 0H193C202.389 0 210 7.61116 210 17V119H0V0Z" fill="#C4C4C4"/>
</mask>
<g mask="url(#mask0)">
<g filter="url(#filter0_d)">
<path d="M89.5 12L90.3277 17.3331C90.5949 19.0545 91.9455 20.4051 93.6669 20.6723L99 21.5L93.6669 22.3277C91.9455 22.5949 90.5949 23.9455 90.3277 25.6669L89.5 31L88.6723 25.6669C88.4051 23.9455 87.0545 22.5949 85.3331 22.3277L80 21.5L85.3331 20.6723C87.0545 20.4051 88.4051 19.0545 88.6723 17.3331L89.5 12Z" fill="#66B700"/>
</g>
<g filter="url(#filter1_d)">
<path d="M87.4198 15.6632L89.5 2.26019L91.5802 15.6632C91.8807 17.5999 93.4002 19.1193 95.3368 19.4198L108.74 21.5L95.3368 23.5802C93.4001 23.8807 91.8807 25.4002 91.5802 27.3368L89.5 40.7398L87.4198 27.3368C87.1193 25.4001 85.5999 23.8807 83.6632 23.5802L70.2602 21.5L83.6632 19.4198C85.5999 19.1193 87.1193 17.5999 87.4198 15.6632Z" stroke="white"/>
</g>
<g filter="url(#filter2_d)">
<path d="M93.5001 24C86.0001 41.5 78.5001 67.5 93.5001 84C119.5 108.5 189.5 79.1667 219.5 61L218.5 -11L179 -14.5L115 -8C110.333 -3.16667 99.5001 10 93.5001 24Z" fill="white"/>
</g>
<g filter="url(#filter3_d)">
<path d="M104 22C94.9317 38.7412 84.6602 64 99.6601 80.5C125.66 105 194.66 58.6667 224.66 40.5V-14.5L185.16 -18L133.5 -6.5C125 -2.5 110.5 10 104 22Z" fill="white"/>
</g>
<g filter="url(#filter4_d)">
<path d="M193.5 19L194.999 28.6613C195.267 30.3828 196.617 31.7334 198.339 32.0005L208 33.5L198.339 34.9995C196.617 35.2666 195.267 36.6172 194.999 38.3387L193.5 48L192.001 38.3387C191.733 36.6172 190.383 35.2666 188.661 34.9995L179 33.5L188.661 32.0005C190.383 31.7334 191.733 30.3828 192.001 28.6613L193.5 19Z" fill="#66B700"/>
</g>
<g filter="url(#filter5_d)">
<path d="M189.942 26.1854L193.5 3.26018L197.058 26.1854C197.359 28.122 198.878 29.6414 200.815 29.942L223.74 33.5L200.815 37.058C198.878 37.3586 197.359 38.878 197.058 40.8146L193.5 63.7398L189.942 40.8146C189.641 38.878 188.122 37.3586 186.185 37.058L163.26 33.5L186.185 29.942C188.122 29.6414 189.641 28.122 189.942 26.1854Z" stroke="white"/>
</g>
<path d="M117.679 58.5965L113.43 62.8458C112.957 63.3193 112.957 64.0964 113.43 64.5699C113.673 64.8005 113.976 64.922 114.292 64.922C114.608 64.922 114.911 64.8005 115.154 64.5699L119.403 60.3205C119.877 59.847 119.877 59.07 119.403 58.5965C118.93 58.123 118.153 58.123 117.679 58.5965Z" fill="#645E9D"/>
<path d="M105.793 39.4257C106.109 39.4257 106.413 39.3043 106.655 39.0736L111.512 34.2172C111.985 33.7437 111.985 32.9788 111.512 32.5053C111.038 32.0318 110.273 32.0318 109.8 32.5053L104.944 37.3617C104.47 37.8352 104.47 38.6001 104.944 39.0736C105.174 39.3043 105.478 39.4257 105.793 39.4257Z" fill="#66B700"/>
<path d="M142.569 67.7023L136.498 73.7728C131.508 78.7628 124.636 81.0089 118.031 80.5111C121.832 79.9891 125.486 78.2772 128.4 75.3512C128.497 75.254 128.594 75.1569 128.667 75.0598C128.691 75.0476 128.703 75.0234 128.728 75.0112C135.563 67.8116 149.95 42.3153 150.557 41.2348C150.776 40.8462 150.764 40.3606 150.521 39.9842C150.278 39.6079 149.853 39.4015 149.404 39.4257C149.404 39.4257 148.238 39.5229 146.272 39.7171C148.785 33.6709 150.533 29.203 150.63 28.9359C150.788 28.4866 150.679 27.9889 150.351 27.6489C150.011 27.309 149.501 27.2118 149.064 27.3697C148.991 27.4061 140.395 30.7327 130.33 35.0792C130.173 33.8651 130.063 33.161 130.063 33.161C130.003 32.7724 129.748 32.4325 129.396 32.2625C129.031 32.0925 128.619 32.1047 128.266 32.2989C127.526 32.7117 109.933 42.5824 103.062 49.2114C102.916 49.3329 102.77 49.4664 102.624 49.6121C99.7592 52.4774 98.0594 56.0711 97.4888 59.7985C97.0396 53.2423 99.2857 46.4554 104.227 41.5019C104.701 41.0284 104.701 40.2635 104.227 39.79C103.754 39.3165 102.989 39.3165 102.515 39.79C92.6324 49.6485 92.4746 66.1604 102.151 75.8489C106.922 80.6204 113.369 83 119.853 83C126.506 83 133.208 80.4868 138.21 75.4969L144.28 69.4263C144.754 68.9528 144.754 68.1879 144.28 67.7144C143.819 67.2288 143.042 67.2288 142.569 67.7023ZM124.357 52.4288C124.6 52.6595 124.903 52.7809 125.219 52.7809C125.535 52.7809 125.838 52.6595 126.081 52.4288L130.937 47.5724C131.01 47.4996 131.071 47.4267 131.12 47.3417L131.29 47.5238V52.6959L127.647 56.5811V58.8515L124.005 62.4938V66.1361L120.363 69.7784H115.506L113.078 72.2066H108.222L107.869 71.8545L110.905 68.8193C111.378 68.3458 111.378 67.5687 110.905 67.0952C110.431 66.6217 109.654 66.6217 109.181 67.0952L106.158 70.1184L105.793 69.742V66.1361C106.109 66.1361 106.412 66.0147 106.655 65.784L113.333 59.1064C113.806 58.6329 113.806 57.8559 113.333 57.3824C112.859 56.9089 112.082 56.9089 111.609 57.3824L105.793 63.198V58.6693L109.436 54.9785V51.2876L111.864 49.1386H118.238L122.791 44.2822H128.254L129.517 45.6298C129.408 45.6905 129.298 45.7634 129.213 45.8484L124.357 50.7048C123.883 51.1783 123.883 51.9553 124.357 52.4288Z" fill="#645E9D"/>
<path d="M147.425 62.8458L146.211 64.06C145.737 64.5335 145.737 65.2983 146.211 65.7718C146.454 66.0147 146.757 66.1239 147.073 66.1239C147.389 66.1239 147.692 66.0025 147.935 65.7718L149.149 64.5577C149.622 64.0842 149.622 63.3194 149.149 62.8458C148.675 62.3723 147.898 62.3723 147.425 62.8458Z" fill="#66B700"/>
<path d="M113.078 32.141C113.394 32.141 113.697 32.0196 113.94 31.7889L115.154 30.5748C115.628 30.1013 115.628 29.3364 115.154 28.8629C114.681 28.3894 113.916 28.3894 113.442 28.8629L112.228 30.077C111.755 30.5505 111.755 31.3154 112.228 31.7889C112.459 32.0196 112.762 32.141 113.078 32.141Z" fill="#645E9D"/>
<path d="M117.012 32.9302C117.254 33.2095 117.594 33.3552 117.934 33.3552C118.214 33.3552 118.505 33.258 118.736 33.0638L127.841 25.1721C128.351 24.735 128.4 23.9701 127.963 23.4602C127.526 22.9503 126.761 22.9017 126.251 23.3388L117.145 31.2305C116.635 31.6676 116.574 32.4324 117.012 32.9302Z" fill="#66B700"/>
<path d="M142.569 57.9894C142.095 58.4629 142.095 59.2277 142.569 59.7012C142.811 59.9441 143.115 60.0533 143.431 60.0533C143.746 60.0533 144.05 59.9319 144.293 59.7012L157.041 46.9531C157.514 46.4796 157.514 45.7147 157.041 45.2412C156.567 44.7677 155.802 44.7677 155.329 45.2412L142.569 57.9894Z" fill="#66B700"/>
<path d="M102.151 32.1411C102.821 32.1411 103.365 31.5975 103.365 30.927C103.365 30.2565 102.821 29.7129 102.151 29.7129C101.48 29.7129 100.937 30.2565 100.937 30.927C100.937 31.5975 101.48 32.1411 102.151 32.1411Z" fill="#645E9D"/>
<path d="M154.358 39.4257C155.028 39.4257 155.572 38.8821 155.572 38.2115C155.572 37.541 155.028 36.9974 154.358 36.9974C153.687 36.9974 153.144 37.541 153.144 38.2115C153.144 38.8821 153.687 39.4257 154.358 39.4257Z" fill="#645E9D"/>
<path d="M116.72 22.4282C117.391 22.4282 117.934 21.8846 117.934 21.2141C117.934 20.5436 117.391 20 116.72 20C116.05 20 115.506 20.5436 115.506 21.2141C115.506 21.8846 116.05 22.4282 116.72 22.4282Z" fill="#645E9D"/>
<path d="M148.287 75.8489C148.958 75.8489 149.501 75.3053 149.501 74.6348C149.501 73.9642 148.958 73.4207 148.287 73.4207C147.617 73.4207 147.073 73.9642 147.073 74.6348C147.073 75.3053 147.617 75.8489 148.287 75.8489Z" fill="#645E9D"/>
<path d="M136.146 27.2847C136.817 27.2847 137.36 26.7411 137.36 26.0706C137.36 25.4 136.817 24.8564 136.146 24.8564C135.475 24.8564 134.932 25.4 134.932 26.0706C134.932 26.7411 135.475 27.2847 136.146 27.2847Z" fill="#645E9D"/>
<path d="M156.786 58.8514C157.456 58.8514 158 58.3079 158 57.6373C158 56.9668 157.456 56.4232 156.786 56.4232C156.115 56.4232 155.572 56.9668 155.572 57.6373C155.572 58.3079 156.115 58.8514 156.786 58.8514Z" fill="#645E9D"/>
</g>
<defs>
<filter id="filter0_d" x="72" y="4" width="35" height="35" filterUnits="userSpaceOnUse" color-interpolation-filters="sRGB">
<feFlood flood-opacity="0" result="BackgroundImageFix"/>
<feColorMatrix in="SourceAlpha" type="matrix" values="0 0 0 0 0 0 0 0 0 0 0 0 0 0 0 0 0 0 127 0"/>
<feOffset/>
<feGaussianBlur stdDeviation="4"/>
<feColorMatrix type="matrix" values="0 0 0 0 0 0 0 0 0 0 0 0 0 0 0 0 0 0 0.06 0"/>
<feBlend mode="normal" in2="BackgroundImageFix" result="effect1_dropShadow"/>
<feBlend mode="normal" in="SourceGraphic" in2="effect1_dropShadow" result="shape"/>
</filter>
<filter id="filter1_d" x="64" y="-4" width="51" height="51" filterUnits="userSpaceOnUse" color-interpolation-filters="sRGB">
<feFlood flood-opacity="0" result="BackgroundImageFix"/>
<feColorMatrix in="SourceAlpha" type="matrix" values="0 0 0 0 0 0 0 0 0 0 0 0 0 0 0 0 0 0 127 0"/>
<feOffset/>
<feGaussianBlur stdDeviation="1.5"/>
<feColorMatrix type="matrix" values="0 0 0 0 0 0 0 0 0 0 0 0 0 0 0 0 0 0 0.06 0"/>
<feBlend mode="normal" in2="BackgroundImageFix" result="effect1_dropShadow"/>
<feBlend mode="normal" in="SourceGraphic" in2="effect1_dropShadow" result="shape"/>
</filter>
<filter id="filter2_d" x="72.8398" y="-26.5" width="158.66" height="131.852" filterUnits="userSpaceOnUse" color-interpolation-filters="sRGB">
<feFlood flood-opacity="0" result="BackgroundImageFix"/>
<feColorMatrix in="SourceAlpha" type="matrix" values="0 0 0 0 0 0 0 0 0 0 0 0 0 0 0 0 0 0 127 0"/>
<feOffset/>
<feGaussianBlur stdDeviation="6"/>
<feColorMatrix type="matrix" values="0 0 0 0 0 0 0 0 0 0 0 0 0 0 0 0 0 0 0.06 0"/>
<feBlend mode="normal" in2="BackgroundImageFix" result="effect1_dropShadow"/>
<feBlend mode="normal" in="SourceGraphic" in2="effect1_dropShadow" result="shape"/>
</filter>
<filter id="filter3_d" x="80.0479" y="-30" width="156.612" height="129.492" filterUnits="userSpaceOnUse" color-interpolation-filters="sRGB">
<feFlood flood-opacity="0" result="BackgroundImageFix"/>
<feColorMatrix in="SourceAlpha" type="matrix" values="0 0 0 0 0 0 0 0 0 0 0 0 0 0 0 0 0 0 127 0"/>
<feOffset/>
<feGaussianBlur stdDeviation="6"/>
<feColorMatrix type="matrix" values="0 0 0 0 0 0 0 0 0 0 0 0 0 0 0 0 0 0 0.06 0"/>
<feBlend mode="normal" in2="BackgroundImageFix" result="effect1_dropShadow"/>
<feBlend mode="normal" in="SourceGraphic" in2="effect1_dropShadow" result="shape"/>
</filter>
<filter id="filter4_d" x="167" y="7" width="53" height="53" filterUnits="userSpaceOnUse" color-interpolation-filters="sRGB">
<feFlood flood-opacity="0" result="BackgroundImageFix"/>
<feColorMatrix in="SourceAlpha" type="matrix" values="0 0 0 0 0 0 0 0 0 0 0 0 0 0 0 0 0 0 127 0"/>
<feOffset/>
<feGaussianBlur stdDeviation="6"/>
<feColorMatrix type="matrix" values="0 0 0 0 0 0 0 0 0 0 0 0 0 0 0 0 0 0 0.06 0"/>
<feBlend mode="normal" in2="BackgroundImageFix" result="effect1_dropShadow"/>
<feBlend mode="normal" in="SourceGraphic" in2="effect1_dropShadow" result="shape"/>
</filter>
<filter id="filter5_d" x="157" y="-3" width="73" height="73" filterUnits="userSpaceOnUse" color-interpolation-filters="sRGB">
<feFlood flood-opacity="0" result="BackgroundImageFix"/>
<feColorMatrix in="SourceAlpha" type="matrix" values="0 0 0 0 0 0 0 0 0 0 0 0 0 0 0 0 0 0 127 0"/>
<feOffset/>
<feGaussianBlur stdDeviation="1.5"/>
<feColorMatrix type="matrix" values="0 0 0 0 0 0 0 0 0 0 0 0 0 0 0 0 0 0 0.06 0"/>
<feBlend mode="normal" in2="BackgroundImageFix" result="effect1_dropShadow"/>
<feBlend mode="normal" in="SourceGraphic" in2="effect1_dropShadow" result="shape"/>
</filter>
</defs>
</svg>
