<svg width="210" height="119" viewBox="0 0 210 119" fill="none" xmlns="http://www.w3.org/2000/svg">
<mask id="mask0" mask-type="alpha" maskUnits="userSpaceOnUse" x="0" y="0" width="210" height="119">
<path d="M0 0H193C202.389 0 210 7.61116 210 17V119H0V0Z" fill="#C4C4C4"/>
</mask>
<g mask="url(#mask0)">
<g filter="url(#filter0_d)">
<path d="M189.094 126.11C181.204 120.219 189.603 103.317 178.15 91.5366C166.696 79.7561 149.134 85.9024 136.917 76.1707C124.7 66.439 135.135 57.4756 119.355 43.3902C103.574 29.3049 87.3866 34.939 75.8312 26.7439C64.8358 18.9073 76.1875 -0.556096 44.6266 -13.8732L21.0068 -1.93902C49.5135 -1.32439 49.1062 32.8902 62.8505 43.1341C76.5948 53.3781 88.2519 44.9268 105.05 54.1463C121.849 63.3659 112.737 80.7805 128.009 91.0244C143.28 101.268 155.752 92.561 165.678 100.5C175.604 108.439 169.496 122.012 181.458 132L189.094 126.11Z" fill="white"/>
</g>
<g filter="url(#filter1_d)">
<path d="M81.9397 -26.2683C100.52 -14.7439 88.5574 -10.4927 102.2 -0.248795C115.842 9.99511 138.749 8.30486 148.167 19.5732C156.973 30.1244 149.439 40.7268 160.638 53.8902C167.307 61.7268 189.909 59.1658 201.362 74.7366C212.816 90.3073 204.416 107.927 210.525 119.195L202.126 126.878C192.963 114.585 205.18 101.268 192.199 85.1341C179.219 69 157.024 74.6341 148.116 65.9268C139.208 57.2195 147.2 45.5415 135.237 32.7366C124.547 21.3146 96.3967 22.339 86.5212 14.1951C77.3074 6.61462 88.4046 -1.93904 66.9229 -14.7439L81.9397 -26.2683Z" fill="white"/>
</g>
<g filter="url(#filter2_d)">
<path d="M220.655 117.402C213.783 103.573 222.437 89.4878 213.019 70.0244C203.602 50.561 181.713 53.8902 171.787 42.6219C161.86 31.3537 169.241 24.2854 160.333 10.7634C152.443 -1.17073 127.754 0.621952 116.046 -11.4146C104.338 -23.4512 109.937 -27.8049 102.149 -36H226V117.402H220.655Z" fill="white"/>
</g>
<g filter="url(#filter3_d)">
<path d="M83.0178 44.8437L88.5 9.52038L93.9822 44.8437C94.3162 46.9956 96.0044 48.6838 98.1563 49.0178L133.48 54.5L98.1563 59.9822C96.0044 60.3162 94.3162 62.0044 93.9822 64.1563L88.5 99.4796L83.0178 64.1563C82.6838 62.0044 80.9956 60.3162 78.8437 59.9822L43.5204 54.5L78.8437 49.0178C80.9956 48.6838 82.6838 46.9956 83.0178 44.8437Z" stroke="white" stroke-width="2"/>
</g>
<g filter="url(#filter4_d)">
<path d="M113.597 75L114.097 75.4922L113.597 76.0828L117.799 80.4631L118.35 79.9217L119 80.5123C101.539 97.1969 92.642 114.669 106 119C87.3388 119 75.0295 119 26 119C57.7191 119 87.5 102 113.597 75Z" fill="white"/>
</g>
<g filter="url(#filter5_d)">
<path fill-rule="evenodd" clip-rule="evenodd" d="M120.882 86.5171L119.609 83.4952C119.507 83.2391 119.558 82.983 119.762 82.9318L122.358 80.422L122.002 80.0122C121.696 79.7049 121.187 79.7561 120.984 80.1147C120.948 80.2225 120.887 80.3051 120.819 80.3978C120.79 80.4373 120.759 80.4786 120.729 80.5244C120.525 80.8318 120.016 80.883 119.762 80.5757L119.507 80.3196L118.438 79.1927C118.319 79.3127 118.217 79.4328 118.133 79.5322C118.073 79.6025 118.022 79.6625 117.98 79.7049C117.573 79.3464 117.217 78.9366 117.217 78.9366L116.605 78.2934L113.462 81.2706C113.145 81.571 112.644 81.5575 112.344 81.2404C112.043 80.9233 112.057 80.4227 112.374 80.1223L115.514 77.1475L114.926 76.5293C114.926 76.5293 114.519 76.1708 114.162 75.761C114.221 75.7215 114.28 75.6743 114.345 75.6224C114.448 75.54 114.566 75.4456 114.722 75.3513L113.653 74.2244L113.399 73.9683C113.093 73.7122 113.144 73.2001 113.501 72.9952C113.562 72.9331 113.643 72.8899 113.73 72.8427C113.787 72.8119 113.848 72.7795 113.908 72.7391C114.264 72.5342 114.366 72.022 114.061 71.7147L113.704 71.3562L111.108 73.8659C110.904 74.0196 110.65 74.0708 110.395 73.9683L107.443 72.5854C106.985 72.3805 106.934 71.8171 107.29 71.5098L117.013 63.6732C117.064 63.622 117.115 63.5708 117.166 63.5708L124.903 60.4464C124.929 60.4208 124.967 60.3952 125.005 60.3696C125.043 60.344 125.081 60.3184 125.107 60.2927L141.142 44.9269C141.182 44.8469 141.221 44.8294 141.285 44.8011C141.303 44.7932 141.323 44.7845 141.345 44.7732L142.516 44.3123C142.618 44.3123 142.669 44.261 142.72 44.2098L148.065 39.6001C148.167 39.4976 148.269 39.4464 148.37 39.4464L149.287 39.2415C149.354 39.2415 149.422 39.196 149.49 39.1505C149.524 39.1277 149.558 39.1049 149.592 39.0879L154.275 34.7854C154.301 34.7598 154.339 34.747 154.377 34.7342C154.415 34.7214 154.453 34.7086 154.479 34.683L164.456 30.4318C164.558 30.3805 164.609 30.3293 164.66 30.2781L171.023 24.1318C171.048 24.1062 171.087 24.0934 171.125 24.0806C171.163 24.0677 171.201 24.0549 171.227 24.0293L172.296 23.5684L171.786 24.5927C171.736 24.6952 171.685 24.7464 171.634 24.7976L165.322 30.8927C165.296 30.9184 165.271 30.9568 165.245 30.9952C165.22 31.0336 165.194 31.072 165.169 31.0976L160.537 40.983C160.537 41.0342 160.486 41.0854 160.435 41.1367L155.955 45.644L155.802 45.9513L155.548 46.8732C155.522 46.9245 155.497 46.9629 155.472 47.0013C155.446 47.0397 155.421 47.0781 155.395 47.1293L150.559 52.3025C150.534 52.3281 150.521 52.3665 150.508 52.4049C150.496 52.4433 150.483 52.4818 150.457 52.5074L149.948 53.6342C149.923 53.6598 149.897 53.6982 149.872 53.7366C149.847 53.7751 149.821 53.8135 149.796 53.8391L133.862 69.2561C133.837 69.2818 133.812 69.3202 133.786 69.3586C133.761 69.397 133.735 69.4354 133.71 69.461L130.248 77.0927C130.223 77.1183 130.21 77.144 130.197 77.1696C130.185 77.1952 130.172 77.2208 130.146 77.2464L121.951 86.6708C121.645 87.0805 121.085 86.9781 120.882 86.5171Z" fill="#645E9D"/>
</g>
<g filter="url(#filter6_d)">
<circle cx="123" cy="71" r="3" fill="white"/>
</g>
<g filter="url(#filter7_d)">
<path d="M162.5 80L163.999 89.6613C164.267 91.3828 165.617 92.7334 167.339 93.0005L177 94.5L167.339 95.9995C165.617 96.2666 164.267 97.6172 163.999 99.3387L162.5 109L161.001 99.3387C160.733 97.6172 159.383 96.2666 157.661 95.9995L148 94.5L157.661 93.0005C159.383 92.7334 160.733 91.3828 161.001 89.6613L162.5 80Z" fill="#66B700"/>
</g>
<circle cx="172" cy="24" r="12.5" stroke="#66B700"/>
<circle cx="172" cy="24" r="18.5" stroke="#66B700"/>
<circle opacity="0.7" cx="172" cy="24" r="24.5" stroke="#66B700"/>
<circle opacity="0.5" cx="172" cy="24" r="30.5" stroke="#66B700"/>
<circle opacity="0.3" cx="172" cy="24" r="36.5" stroke="#66B700"/>
<circle opacity="0.2" cx="172" cy="24" r="42.5" stroke="#66B700"/>
<circle opacity="0.1" cx="172" cy="24" r="48.5" stroke="#66B700"/>
<circle cx="172" cy="24" r="6.5" stroke="#66B700"/>
<g filter="url(#filter8_d)">
<path d="M158.942 87.1854L162.5 64.2602L166.058 87.1854C166.359 89.122 167.878 90.6414 169.815 90.942L192.74 94.5L169.815 98.058C167.878 98.3586 166.359 99.878 166.058 101.815L162.5 124.74L158.942 101.815C158.641 99.878 157.122 98.3586 155.185 98.058L132.26 94.5L155.185 90.942C157.122 90.6414 158.641 89.122 158.942 87.1854Z" stroke="white"/>
</g>
<circle cx="172" cy="24" r="2" fill="#66B700"/>
<g filter="url(#filter9_d)">
<path d="M138.5 3L139.328 8.33308C139.595 10.0545 140.945 11.4051 142.667 11.6723L148 12.5L142.667 13.3277C140.945 13.5949 139.595 14.9455 139.328 16.6669L138.5 22L137.672 16.6669C137.405 14.9455 136.055 13.5949 134.333 13.3277L129 12.5L134.333 11.6723C136.055 11.4051 137.405 10.0545 137.672 8.33308L138.5 3Z" fill="#66B700"/>
</g>
<g filter="url(#filter10_d)">
<path d="M136.42 6.66321L138.5 -6.73981L140.58 6.66322C140.881 8.59986 142.4 10.1193 144.337 10.4198L157.74 12.5L144.337 14.5802C142.4 14.8807 140.881 16.4002 140.58 18.3368L138.5 31.7398L136.42 18.3368C136.119 16.4001 134.6 14.8807 132.663 14.5802L119.26 12.5L132.663 10.4198C134.6 10.1193 136.119 8.59985 136.42 6.66321Z" stroke="white"/>
</g>
<g filter="url(#filter11_d)">
<path d="M88.5 33L90.9399 48.7209C91.2071 50.4423 92.5577 51.7929 94.2791 52.0601L110 54.5L94.2791 56.9399C92.5577 57.2071 91.2071 58.5577 90.9399 60.2791L88.5 76L86.0601 60.2791C85.7929 58.5577 84.4423 57.2071 82.7209 56.9399L67 54.5L82.7209 52.0601C84.4423 51.7929 85.7929 50.4423 86.0601 48.7209L88.5 33Z" fill="#645E9D"/>
</g>
</g>
<defs>
<filter id="filter0_d" x="9.00684" y="-25.8732" width="192.087" height="169.873" filterUnits="userSpaceOnUse" color-interpolation-filters="sRGB">
<feFlood flood-opacity="0" result="BackgroundImageFix"/>
<feColorMatrix in="SourceAlpha" type="matrix" values="0 0 0 0 0 0 0 0 0 0 0 0 0 0 0 0 0 0 127 0"/>
<feOffset/>
<feGaussianBlur stdDeviation="6"/>
<feColorMatrix type="matrix" values="0 0 0 0 0 0 0 0 0 0 0 0 0 0 0 0 0 0 0.06 0"/>
<feBlend mode="normal" in2="BackgroundImageFix" result="effect1_dropShadow"/>
<feBlend mode="normal" in="SourceGraphic" in2="effect1_dropShadow" result="shape"/>
</filter>
<filter id="filter1_d" x="54.9229" y="-38.2683" width="167.602" height="177.146" filterUnits="userSpaceOnUse" color-interpolation-filters="sRGB">
<feFlood flood-opacity="0" result="BackgroundImageFix"/>
<feColorMatrix in="SourceAlpha" type="matrix" values="0 0 0 0 0 0 0 0 0 0 0 0 0 0 0 0 0 0 127 0"/>
<feOffset/>
<feGaussianBlur stdDeviation="6"/>
<feColorMatrix type="matrix" values="0 0 0 0 0 0 0 0 0 0 0 0 0 0 0 0 0 0 0.06 0"/>
<feBlend mode="normal" in2="BackgroundImageFix" result="effect1_dropShadow"/>
<feBlend mode="normal" in="SourceGraphic" in2="effect1_dropShadow" result="shape"/>
</filter>
<filter id="filter2_d" x="90.1489" y="-48" width="147.851" height="177.402" filterUnits="userSpaceOnUse" color-interpolation-filters="sRGB">
<feFlood flood-opacity="0" result="BackgroundImageFix"/>
<feColorMatrix in="SourceAlpha" type="matrix" values="0 0 0 0 0 0 0 0 0 0 0 0 0 0 0 0 0 0 127 0"/>
<feOffset/>
<feGaussianBlur stdDeviation="6"/>
<feColorMatrix type="matrix" values="0 0 0 0 0 0 0 0 0 0 0 0 0 0 0 0 0 0 0.06 0"/>
<feBlend mode="normal" in2="BackgroundImageFix" result="effect1_dropShadow"/>
<feBlend mode="normal" in="SourceGraphic" in2="effect1_dropShadow" result="shape"/>
</filter>
<filter id="filter3_d" x="34" y="0" width="109" height="109" filterUnits="userSpaceOnUse" color-interpolation-filters="sRGB">
<feFlood flood-opacity="0" result="BackgroundImageFix"/>
<feColorMatrix in="SourceAlpha" type="matrix" values="0 0 0 0 0 0 0 0 0 0 0 0 0 0 0 0 0 0 127 0"/>
<feOffset/>
<feGaussianBlur stdDeviation="1.5"/>
<feColorMatrix type="matrix" values="0 0 0 0 0 0 0 0 0 0 0 0 0 0 0 0 0 0 0.06 0"/>
<feBlend mode="normal" in2="BackgroundImageFix" result="effect1_dropShadow"/>
<feBlend mode="normal" in="SourceGraphic" in2="effect1_dropShadow" result="shape"/>
</filter>
<filter id="filter4_d" x="14" y="63" width="117" height="68" filterUnits="userSpaceOnUse" color-interpolation-filters="sRGB">
<feFlood flood-opacity="0" result="BackgroundImageFix"/>
<feColorMatrix in="SourceAlpha" type="matrix" values="0 0 0 0 0 0 0 0 0 0 0 0 0 0 0 0 0 0 127 0"/>
<feOffset/>
<feGaussianBlur stdDeviation="6"/>
<feColorMatrix type="matrix" values="0 0 0 0 0 0 0 0 0 0 0 0 0 0 0 0 0 0 0.06 0"/>
<feBlend mode="normal" in2="BackgroundImageFix" result="effect1_dropShadow"/>
<feBlend mode="normal" in="SourceGraphic" in2="effect1_dropShadow" result="shape"/>
</filter>
<filter id="filter5_d" x="95.0564" y="11.5684" width="89.2392" height="87.3591" filterUnits="userSpaceOnUse" color-interpolation-filters="sRGB">
<feFlood flood-opacity="0" result="BackgroundImageFix"/>
<feColorMatrix in="SourceAlpha" type="matrix" values="0 0 0 0 0 0 0 0 0 0 0 0 0 0 0 0 0 0 127 0"/>
<feOffset/>
<feGaussianBlur stdDeviation="6"/>
<feColorMatrix type="matrix" values="0 0 0 0 0 0 0 0 0 0 0 0 0 0 0 0 0 0 0.06 0"/>
<feBlend mode="normal" in2="BackgroundImageFix" result="effect1_dropShadow"/>
<feBlend mode="normal" in="SourceGraphic" in2="effect1_dropShadow" result="shape"/>
</filter>
<filter id="filter6_d" x="116" y="64" width="14" height="14" filterUnits="userSpaceOnUse" color-interpolation-filters="sRGB">
<feFlood flood-opacity="0" result="BackgroundImageFix"/>
<feColorMatrix in="SourceAlpha" type="matrix" values="0 0 0 0 0 0 0 0 0 0 0 0 0 0 0 0 0 0 127 0"/>
<feOffset/>
<feGaussianBlur stdDeviation="2"/>
<feColorMatrix type="matrix" values="0 0 0 0 0 0 0 0 0 0 0 0 0 0 0 0 0 0 0.06 0"/>
<feBlend mode="normal" in2="BackgroundImageFix" result="effect1_dropShadow"/>
<feBlend mode="normal" in="SourceGraphic" in2="effect1_dropShadow" result="shape"/>
</filter>
<filter id="filter7_d" x="136" y="68" width="53" height="53" filterUnits="userSpaceOnUse" color-interpolation-filters="sRGB">
<feFlood flood-opacity="0" result="BackgroundImageFix"/>
<feColorMatrix in="SourceAlpha" type="matrix" values="0 0 0 0 0 0 0 0 0 0 0 0 0 0 0 0 0 0 127 0"/>
<feOffset/>
<feGaussianBlur stdDeviation="6"/>
<feColorMatrix type="matrix" values="0 0 0 0 0 0 0 0 0 0 0 0 0 0 0 0 0 0 0.06 0"/>
<feBlend mode="normal" in2="BackgroundImageFix" result="effect1_dropShadow"/>
<feBlend mode="normal" in="SourceGraphic" in2="effect1_dropShadow" result="shape"/>
</filter>
<filter id="filter8_d" x="126" y="58" width="73" height="73" filterUnits="userSpaceOnUse" color-interpolation-filters="sRGB">
<feFlood flood-opacity="0" result="BackgroundImageFix"/>
<feColorMatrix in="SourceAlpha" type="matrix" values="0 0 0 0 0 0 0 0 0 0 0 0 0 0 0 0 0 0 127 0"/>
<feOffset/>
<feGaussianBlur stdDeviation="1.5"/>
<feColorMatrix type="matrix" values="0 0 0 0 0 0 0 0 0 0 0 0 0 0 0 0 0 0 0.06 0"/>
<feBlend mode="normal" in2="BackgroundImageFix" result="effect1_dropShadow"/>
<feBlend mode="normal" in="SourceGraphic" in2="effect1_dropShadow" result="shape"/>
</filter>
<filter id="filter9_d" x="121" y="-5" width="35" height="35" filterUnits="userSpaceOnUse" color-interpolation-filters="sRGB">
<feFlood flood-opacity="0" result="BackgroundImageFix"/>
<feColorMatrix in="SourceAlpha" type="matrix" values="0 0 0 0 0 0 0 0 0 0 0 0 0 0 0 0 0 0 127 0"/>
<feOffset/>
<feGaussianBlur stdDeviation="4"/>
<feColorMatrix type="matrix" values="0 0 0 0 0 0 0 0 0 0 0 0 0 0 0 0 0 0 0.06 0"/>
<feBlend mode="normal" in2="BackgroundImageFix" result="effect1_dropShadow"/>
<feBlend mode="normal" in="SourceGraphic" in2="effect1_dropShadow" result="shape"/>
</filter>
<filter id="filter10_d" x="113" y="-13" width="51" height="51" filterUnits="userSpaceOnUse" color-interpolation-filters="sRGB">
<feFlood flood-opacity="0" result="BackgroundImageFix"/>
<feColorMatrix in="SourceAlpha" type="matrix" values="0 0 0 0 0 0 0 0 0 0 0 0 0 0 0 0 0 0 127 0"/>
<feOffset/>
<feGaussianBlur stdDeviation="1.5"/>
<feColorMatrix type="matrix" values="0 0 0 0 0 0 0 0 0 0 0 0 0 0 0 0 0 0 0.06 0"/>
<feBlend mode="normal" in2="BackgroundImageFix" result="effect1_dropShadow"/>
<feBlend mode="normal" in="SourceGraphic" in2="effect1_dropShadow" result="shape"/>
</filter>
<filter id="filter11_d" x="55" y="21" width="67" height="67" filterUnits="userSpaceOnUse" color-interpolation-filters="sRGB">
<feFlood flood-opacity="0" result="BackgroundImageFix"/>
<feColorMatrix in="SourceAlpha" type="matrix" values="0 0 0 0 0 0 0 0 0 0 0 0 0 0 0 0 0 0 127 0"/>
<feOffset/>
<feGaussianBlur stdDeviation="6"/>
<feColorMatrix type="matrix" values="0 0 0 0 0 0 0 0 0 0 0 0 0 0 0 0 0 0 0.06 0"/>
<feBlend mode="normal" in2="BackgroundImageFix" result="effect1_dropShadow"/>
<feBlend mode="normal" in="SourceGraphic" in2="effect1_dropShadow" result="shape"/>
</filter>
</defs>
</svg>
