<svg width="210" height="119" viewBox="0 0 210 119" fill="none" xmlns="http://www.w3.org/2000/svg">
<mask id="mask0" mask-type="alpha" maskUnits="userSpaceOnUse" x="0" y="0" width="210" height="119">
<path d="M0 0H193C202.389 0 210 7.61116 210 17V119H0V0Z" fill="#C4C4C4"/>
</mask>
<g mask="url(#mask0)">
<circle cx="170" cy="49" r="5.5" stroke="#645E9D"/>
<circle opacity="0.7" cx="170" cy="49" r="9.5" stroke="#645E9D"/>
<circle opacity="0.6" cx="170" cy="49" r="13.5" stroke="#645E9D"/>
<circle opacity="0.4" cx="170" cy="49" r="17.5" stroke="#645E9D"/>
<circle opacity="0.2" cx="170" cy="49" r="21.5" stroke="#645E9D"/>
<circle cx="170" cy="49" r="2" fill="#645E9D"/>
<g opacity="0.3">
<path d="M141.841 81.0966C132.591 76.1261 126.235 67.5676 119.633 59.6478C116.244 55.5552 112.688 51.6118 108.639 48.1649C104.453 44.5982 99.7829 41.9429 95.2159 38.8953C92.4263 37.0382 89.9735 34.8826 88.2652 32.0066C86.557 29.1306 85.5743 25.8518 84.6176 22.6702C84.4492 22.8195 84.3425 23.0043 84.1741 23.1536C87.7283 24.7537 91.331 26.3408 94.8721 27.8922C97.9593 29.3049 101.06 30.7661 103.121 33.5996C105.082 36.2517 106.223 39.54 107.591 42.5072C108.985 45.5716 110.38 48.636 111.579 51.7525C111.745 52.1769 112.237 51.6804 112.084 51.3046C110.81 48.1039 109.403 44.991 107.996 41.878C106.628 38.9108 105.499 35.6711 103.538 33.019C101.578 30.3669 98.6718 28.8535 95.7078 27.512C91.9688 25.8052 88.1943 24.16 84.4683 22.5018C84.1732 22.3725 83.9597 22.7423 84.0248 22.9853C85.6292 28.3895 87.499 33.6183 91.8822 37.3403C96.0674 40.907 101.233 43.2732 105.684 46.6646C114.55 53.5088 120.709 62.6931 128.219 70.8905C132.123 75.1576 136.448 79.0514 141.559 81.797C141.916 81.9619 142.149 81.2745 141.841 81.0966Z" fill="#66B700"/>
<path d="M85.6896 24.727C88.1901 26.0885 89.6354 28.5662 91.3557 30.7097C93.1767 33.0346 95.6096 34.7268 97.9226 36.5553C102.672 40.2833 106.781 45.1205 110.148 50.1045C110.411 50.5029 110.89 49.9578 110.653 49.6566C107.299 44.7213 103.265 39.9682 98.6126 36.2141C96.1632 34.2659 93.6072 32.5026 91.6368 30.0093C89.9521 27.8042 88.4713 25.3881 85.9838 24.0752C85.6141 23.8617 85.3815 24.5491 85.6896 24.727Z" fill="#66B700"/>
<path d="M130.563 71.6689C128.961 67.8269 126.801 64.2384 124.92 60.5232C123.608 57.9578 122.525 55.2787 121.589 52.5606C119.65 46.8813 118.181 40.8158 118.226 34.7614C118.209 31.5884 118.704 28.3824 120.133 25.5512C119.988 25.5903 119.793 25.6424 119.647 25.6814C121.14 27.365 121.652 29.4679 122.26 31.5447C122.839 33.3168 123.587 34.9397 124.444 36.5852C126.514 40.6146 128.301 44.5633 129.243 49.0511C130.116 53.0884 130.627 57.3271 130.551 61.5147C130.5 65.0183 130.07 68.4674 130.019 71.971C129.991 72.4475 130.635 72.3268 130.615 71.8633C130.711 68.1392 131.112 64.3856 131.159 60.6745C131.2 56.5486 130.641 52.3229 129.719 48.2986C128.718 43.9827 126.993 40.0695 124.949 36.1373C123.952 34.1647 123.113 32.2016 122.479 30.0276C121.948 28.2424 121.321 26.4832 120.052 25.0522C119.902 24.8838 119.673 24.9975 119.566 25.1824C116.992 30.3518 117.304 36.571 118.251 42.0473C119.227 47.8282 120.958 53.511 123.379 58.8526C125.419 63.3585 128.115 67.5849 130.071 72.1654C130.224 72.5412 130.716 72.0447 130.563 71.6689Z" fill="#66B700"/>
<path d="M119.534 25.4515C120.19 32.5682 120.731 40.0285 123.309 46.7344C124.74 50.5183 125.866 54.3317 126.81 58.2457C127.794 62.3056 128.729 66.3785 130.088 70.2857C130.267 70.7586 130.798 70.408 130.694 70.0192C128.066 62.5452 127.042 54.6414 124.22 47.2195C121.577 40.2705 120.913 32.7391 120.178 25.3309C120.061 24.8934 119.465 25.0011 119.534 25.4515Z" fill="#66B700"/>
<path d="M119.63 60.2215C116.419 60.8736 113.169 61.3799 109.925 61.5199C106.84 61.6694 103.831 61.3295 100.846 60.8793C95.3642 60.0561 89.3991 58.7895 84.9579 55.2394C84.9128 55.4598 84.819 55.6933 84.7739 55.9137C87.8453 54.9345 91.1164 55.6728 94.3155 55.7532C97.5761 55.8693 100.736 55.8039 103.942 56.2992C109.119 57.1519 114.993 58.0783 119.495 60.8829C119.865 61.0964 120.097 60.409 119.776 60.1825C115.213 57.3423 109.277 56.3803 104.051 55.5406C100.735 55.0228 97.5266 55.1012 94.2173 54.9982C91.0539 54.8561 87.7958 54.1664 84.7114 55.0971C84.4684 55.1622 84.2679 55.5805 84.5274 55.7714C88.9687 59.3216 94.8366 60.6142 100.331 61.486C103.317 61.9362 106.276 62.2891 109.278 62.2142C112.755 62.1679 116.213 61.6582 119.667 60.941C120.02 60.8985 120.019 60.1174 119.63 60.2215Z" fill="#66B700"/>
<path d="M85.7791 56.1653C91.148 57.5396 96.7068 57.8732 102.162 58.5992C107.997 59.3798 113.761 60.2836 119.57 60.967C119.949 61.0216 120.107 60.2501 119.692 60.2571C113.883 59.5737 108.071 58.6828 102.285 57.8892C96.8291 57.1633 91.2703 56.8296 85.9014 55.4553C85.5091 55.3521 85.3868 56.062 85.7791 56.1653Z" fill="#66B700"/>
<path d="M131.21 73.1104C127.693 72.2297 124.053 72.0591 120.439 71.9856C116.873 71.8991 113.256 71.6183 109.668 71.642C105.922 71.6562 102.344 72.3022 98.7087 73.1201C95.718 73.8173 92.5424 74.4077 90.1238 76.4622C89.9069 76.6245 89.9138 77.0393 90.1959 77.12C91.963 77.6884 93.8298 77.6569 95.6741 77.7358C97.5669 77.8016 99.3079 78.2727 101.088 78.8896C104.428 80.0783 107.977 80.6899 111.494 80.7894C118.625 80.9623 125.505 77.8686 131.234 73.7812C131.535 73.5443 131.317 72.9255 130.919 73.1885C125.057 77.3635 118.005 80.3991 110.664 80.0222C107.121 79.8255 103.775 79.0031 100.4 77.876C98.7915 77.3172 97.2128 77.063 95.5273 76.9937C93.7447 76.9505 91.9751 76.9559 90.2696 76.4231C90.2731 76.6305 90.3382 76.8735 90.3417 77.081C92.8931 74.9388 96.4123 74.4646 99.5358 73.6798C102.999 72.8038 106.483 72.3913 110.022 72.3805C113.562 72.3698 117.082 72.6768 120.585 72.7277C124.041 72.7916 127.535 73.0013 130.942 73.8594C131.432 73.9366 131.602 73.2136 131.21 73.1104Z" fill="#66B700"/>
<path d="M90.6464 77.0515C91.3034 76.1983 92.9983 76.1087 94.0094 75.9941C95.4709 75.8109 96.9585 75.7248 98.4104 75.7004C102.131 75.589 105.829 75.5878 109.54 75.6352C116.742 75.6849 124.294 76.2658 131.185 73.7943C131.512 73.6545 131.427 72.9481 131.003 73.1139C123.529 75.7416 115.263 74.831 107.562 74.863C104.023 74.8737 100.471 74.8358 96.9706 74.9923C95.5316 75.0653 94.0441 75.1514 92.6572 75.4188C91.818 75.5916 90.7843 75.8165 90.1986 76.5464C89.9851 76.9161 90.3844 77.4342 90.6464 77.0515Z" fill="#66B700"/>
</g>
<g filter="url(#filter0_d)">
<path d="M88.1121 79.8738C87.912 81.7255 87.4189 83.4616 86.9221 85.264C86.3483 87.2618 85.8614 89.4971 86.7189 91.4727C86.7171 91.5059 86.7485 91.5408 86.7467 91.574C89.0069 94.0579 91.3003 96.5436 93.6304 98.9647C93.8152 98.0102 94.0331 97.0574 94.3836 96.1119C93.257 95.4189 93.4338 93.9983 94.0201 92.999C94.4961 92.1932 95.4543 91.081 96.4788 91.203C96.512 91.2048 96.5783 91.2084 96.6097 91.2434C96.6115 91.2102 96.6115 91.2102 96.6133 91.177C97.7366 88.2445 98.2703 85.1469 98.6712 82.0421C99.056 79.2358 99.5493 76.2691 98.3978 73.5792L98.3996 73.546C97.2677 72.9525 96.0622 72.4881 94.8719 72.3571C95.1037 76.0616 96.5401 79.6317 96.4698 83.3863C96.4445 85.0813 95.9989 86.5538 95.2198 88.0416C94.6981 89.0777 93.9907 90.4696 92.8085 90.8047C91.4568 91.1971 90.5615 89.918 90.256 88.8039C89.8358 87.3509 89.8557 85.7555 90.0674 84.3035C90.5688 80.5722 92.2345 76.8375 90.5713 73.1553C89.531 70.8705 87.4041 70.2232 85.1436 70.2005C88.0152 72.4514 88.4665 76.4006 88.1121 79.8738Z" fill="#1B8508"/>
<path d="M71.8437 76.2652C74.8998 78.7922 77.7131 81.5056 80.3793 84.4771C82.1672 86.4698 83.9551 88.4625 85.7762 90.4569C85.1787 87.3646 86.8838 84.1309 87.3457 81.1293C87.9448 77.4365 87.7705 72.6709 84.372 70.3249C84.3075 70.2881 84.2779 70.22 84.2797 70.1868C82.946 70.2477 81.6015 70.5074 80.3932 70.7081C80.861 71.8975 81.8056 72.88 82.6193 73.8221C83.494 74.8673 84.435 75.916 84.9655 77.1754C85.7953 79.0497 85.363 82.1195 83.1257 82.8963C81.1941 83.5567 79.4411 81.5327 78.4849 80.1505C76.8216 77.6989 76.8982 74.4435 74.5465 72.4203C71.8148 70.0439 68.2196 70.714 64.8836 70.8992C65.9842 71.4577 66.9691 72.3093 67.8913 73.091C69.1622 74.1909 70.5379 75.1967 71.8437 76.2652Z" fill="#1B8508"/>
<path d="M99.3193 81.7447C98.9112 84.9821 98.3686 88.2455 97.1735 91.2739C97.1367 91.3385 97.1 91.403 97.0318 91.4326C97.6682 91.9659 97.5981 93.2593 97.3283 93.9432C96.9463 94.8538 96.04 96.2349 94.9421 96.2419C94.6229 97.2225 94.4032 98.2084 94.1835 99.1943C94.1799 99.2606 94.11 99.3233 94.0732 99.3879C94.1673 99.4927 94.2614 99.5976 94.3555 99.7025C96.5306 101.916 98.9155 103.941 101.124 106.156C101.659 106.717 102.194 107.278 102.696 107.837C102.701 106.507 103.464 105.318 104.386 104.27C104.987 103.604 105.618 103.007 106.218 102.374C107.171 101.361 107.996 100.242 108.628 99.012C109.777 96.8458 110.575 94.3945 111.071 91.9933C111.479 89.9865 111.522 87.96 111.13 85.9764C110.893 84.8327 110.549 83.8163 110.006 82.7891C109.734 82.2755 109.463 81.7618 109.259 81.2187C109.072 82.8383 109.214 84.509 108.894 86.1214C108.448 88.2259 107.319 90.0273 106.19 91.8288C105.426 93.0513 104.91 94.5866 103.922 95.6307C103.216 96.3907 102.207 96.6021 101.31 95.9549C100.222 95.1642 100.275 93.5706 100.439 92.3821C100.865 89.445 102.342 86.7311 103.163 83.8487C103.574 82.4075 103.856 80.8927 103.671 79.386C103.511 78.0469 102.802 77.0107 101.822 76.0597C101.096 75.3551 100.17 74.6397 99.2054 74.0221C100.034 76.5282 99.6252 79.1669 99.3193 81.7447Z" fill="#1B8508"/>
<path d="M66.537 80.9003C67.7748 80.7678 68.9741 80.7329 70.15 81.1292C72.5663 81.9586 75.472 83.5794 78.1 82.9567C75.803 80.5373 73.3313 78.2748 70.7179 76.1709C69.5707 75.244 68.3886 74.3485 67.2763 73.3902C66.2582 72.5368 65.1774 71.6135 63.9074 71.1124C64.8268 72.5591 64.798 74.3203 64.5737 76.0045C64.3387 77.8876 64.1037 79.7707 63.9349 81.6574C64.6951 81.1331 65.6676 80.9862 66.537 80.9003Z" fill="#1B8508"/>
<path d="M103.149 109.292C103.116 109.29 103.116 109.29 103.081 109.321C101.644 109.443 100.89 110.467 100.068 111.52C99.1727 112.702 98.408 113.924 97.6101 115.145C96.1579 117.395 94.6429 119.574 92.3661 121.081C90.4354 122.34 88.1578 123.248 85.8793 123.557C83.5014 123.86 81.0949 123.464 78.7205 123.701C81.6486 125.523 85.0302 126.338 88.5008 126.127C91.8368 125.941 95.6435 125.05 98.347 123.034C99.9076 121.855 101.158 120.26 102.116 118.549C102.593 117.71 103.008 116.801 103.355 115.922C103.545 115.5 103.702 115.043 103.86 114.586C103.978 114.259 104.036 113.797 104.249 113.542C104.534 113.192 105.009 113.018 105.432 113.207C106.018 113.439 106.299 114.385 106.604 114.9C107.538 116.681 108.405 118.49 109.203 120.33C110.031 122.237 110.793 124.141 111.553 126.078C112.17 127.575 112.917 129.145 113.326 130.797C113.532 130.675 113.74 130.52 113.913 130.397C112.063 124.642 109.809 118.966 106.527 113.865C105.517 112.247 104.369 110.722 103.149 109.292Z" fill="#1B8508"/>
<path d="M111.04 83.3448C111.484 84.3666 111.723 85.4772 111.896 86.5841C112.474 90.64 111.235 95.0963 109.409 98.7225C108.402 100.73 106.988 102.283 105.437 103.896C104.203 105.192 102.886 106.784 103.448 108.677C108.669 114.847 111.925 122.274 114.434 129.993C114.677 129.807 114.92 129.621 115.163 129.434C114.26 127.057 113.36 124.647 112.321 122.329C111.164 119.738 109.767 117.301 108.267 114.892C107.442 113.55 106.351 112.194 105.765 110.732C105.471 110.017 105.405 108.783 106.47 108.774C107.002 108.77 107.524 108.964 108.056 108.96C108.589 108.956 109.088 108.949 109.624 108.879C110.628 108.767 111.639 108.522 112.594 108.075C114.369 107.24 115.714 105.749 116.605 104.035C117.608 102.093 118.226 99.8985 118.11 97.7303C117.99 95.6616 117.298 93.6951 116.433 91.8522C114.582 87.9602 112.432 84.0521 109.793 80.5832C110.105 81.5646 110.624 82.4243 111.04 83.3448Z" fill="#1B8508"/>
<path d="M91.1703 115.528C90.2586 117.009 88.9911 118.304 87.6035 119.359C85.3473 121.1 82.6646 122.119 79.9854 123.071C81.9842 123.013 84 123.255 85.9764 122.996C88.6232 122.641 91.2817 121.454 93.304 119.735C95.5342 117.86 96.8771 115.172 98.5042 112.766C99.5907 111.128 100.726 109.194 102.743 108.804C101.771 107.721 100.765 106.635 99.723 105.614C98.7748 104.698 97.6554 103.872 96.7054 102.989C95.4729 104.253 93.2795 104.833 92.0515 105.398C92.3866 106.58 90.7042 107.554 89.7559 107.868C89.1024 108.265 87.8816 108.698 87.0705 108.321C84.2765 110.166 81.3347 111.669 78.0066 112.321C74.9824 112.889 71.961 112.791 68.9064 112.693C69.5096 113.224 70.1844 113.66 70.9624 114.035C72.6841 114.793 74.6371 114.965 76.4719 114.865C79.8429 114.649 83.4175 113.745 86.5771 112.519C87.6966 112.114 91.2749 109.913 92.0769 111.686C92.6146 112.812 91.7548 114.562 91.1703 115.528Z" fill="#1B8508"/>
<path d="M77.7332 111.84C81.0245 111.254 83.9645 109.783 86.7235 107.97C86.6294 107.865 86.5703 107.729 86.5111 107.593C86.0004 105.969 87.8048 105.202 88.9906 104.8C89.6682 104.571 91.5245 104.073 92.1501 104.805C93.6138 104.186 95.3303 103.813 96.4266 102.608C96.4266 102.608 96.4597 102.61 96.4615 102.577C95.1647 101.343 93.8679 100.108 92.6078 98.8096C91.9473 98.1086 91.285 97.4408 90.6245 96.7398C90.5564 96.7694 90.4901 96.7658 90.4255 96.729C89.4836 96.3121 88.2681 96.6454 87.3216 96.9268C86.2075 97.2323 85.1803 97.7753 84.1584 98.2189C81.7741 99.2539 79.3639 100.154 76.7834 100.514C74.236 100.875 71.6753 100.869 69.1307 100.565C67.9073 100.432 66.682 100.332 65.5008 100.036C64.5166 99.7827 63.5325 99.5299 62.534 99.5423C62.6711 100.082 62.8064 100.655 62.9435 101.194C63.0268 101.498 63.0904 102.167 63.2454 102.375C63.4963 102.654 64.2797 102.93 64.6687 103.117C65.1553 103.343 65.677 103.537 66.2022 103.666C67.1863 103.919 68.2108 104.041 69.2424 104.03C71.4052 104.014 73.4936 103.528 75.5543 102.942C77.615 102.355 79.6461 101.7 81.7031 101.179C82.681 100.933 85.3216 100.078 85.6701 101.627C85.9667 102.907 84.5244 104.359 83.5913 105.007C82.4869 105.745 81.1944 106.274 79.9996 106.841C75.9346 108.816 71.6035 110.178 67.0332 110.429C67.3971 111.081 67.8308 111.67 68.3345 112.196C68.3677 112.198 68.4026 112.166 68.4358 112.168C71.5585 112.238 74.6758 112.406 77.7332 111.84Z" fill="#1B8508"/>
<path d="M69.1263 100.032C72.0338 100.389 75.0275 100.385 77.8841 99.8415C80.6743 99.2942 83.2002 98.1005 85.7889 96.9768C86.9801 96.4759 88.6115 95.8326 89.9971 96.0406C88.4234 94.3922 86.8846 92.7123 85.3458 91.0325C83.0543 88.5136 80.8326 85.9321 78.541 83.4132L78.506 83.4446C76.2078 84.1184 73.7377 83.0533 71.5831 82.3046C70.2781 81.8348 69.1739 81.3427 67.7407 81.3981C66.641 81.4383 64.946 81.413 64.1016 82.2653C64.0649 82.3299 63.9986 82.3263 63.9304 82.3558C63.925 82.4553 63.9197 82.5548 63.9125 82.6875C63.7276 84.8726 63.67 87.1645 64.6916 89.1822C65.7723 91.3361 67.7745 92.4424 70.0852 92.7671C72.2632 93.0846 74.4717 92.8383 76.6381 92.7561C77.97 92.7284 80.4546 92.2976 81.3481 93.6099C82.3948 95.1633 80.4828 96.6895 79.3471 97.393C77.6611 98.4325 75.6793 98.7908 73.7209 98.718C71.4971 98.6308 69.5101 97.858 67.3725 97.4096C65.4983 97.0088 63.4422 96.8974 61.7313 95.94C61.9463 96.8829 62.1927 97.8608 62.4077 98.8038C62.4373 98.8719 62.4319 98.9714 62.4614 99.0395C63.5299 98.9643 64.5471 99.219 65.5976 99.4754C66.7475 99.7373 67.9046 99.8665 69.1263 100.032ZM71.3565 88.9444C70.2971 88.8538 69.6402 88.0865 69.2576 87.1678C69.228 87.0996 69.2334 87.0001 69.2701 86.9356C69.1717 85.0677 71.4502 84.7587 72.8744 84.8691C73.967 84.9615 75.0326 85.5514 74.57 86.7237C74.5664 86.7901 74.5628 86.8564 74.5261 86.9209C73.8349 88.0143 72.7458 89.0862 71.3565 88.9444Z" fill="#1B8508"/>
</g>
<g filter="url(#filter1_d)">
<rect x="153.394" y="22.9277" width="2.80543" height="31.9819" fill="white"/>
</g>
<g filter="url(#filter2_d)">
<rect x="184.253" y="22.9277" width="2.80543" height="31.9819" fill="white"/>
</g>
<g filter="url(#filter3_d)">
<path fill-rule="evenodd" clip-rule="evenodd" d="M176.082 50.0001H192C198.627 50.0001 204 55.3727 204 62.0001V130C204 136.628 198.627 142 192 142H148C141.373 142 136 136.628 136 130V62.0001C136 55.3727 141.373 50.0001 148 50.0001H164.37C164.676 49.5754 165.174 49.2988 165.738 49.2988H174.715C175.278 49.2988 175.777 49.5754 176.082 50.0001Z" fill="white"/>
</g>
<g filter="url(#filter4_d)">
<rect x="142" y="57" width="56" height="79" rx="7" fill="white"/>
</g>
<g filter="url(#filter5_d)">
<path fill-rule="evenodd" clip-rule="evenodd" d="M155.833 19C154.176 19 152.833 20.3431 152.833 22V22.9276H187.62V22C187.62 20.3431 186.277 19 184.62 19H155.833ZM152.833 22.9276H156.76V25.8552C156.76 26.4075 156.312 26.8552 155.76 26.8552H153.833C153.28 26.8552 152.833 26.4075 152.833 25.8552V22.9276ZM183.692 25.8552V22.9276H187.62V25.8552C187.62 26.4075 187.172 26.8552 186.62 26.8552H184.692C184.14 26.8552 183.692 26.4075 183.692 25.8552Z" fill="#66B700"/>
</g>
<g filter="url(#filter6_d)">
<rect x="196" y="83" width="9" height="52" rx="4.5" transform="rotate(90 196 83)" fill="white"/>
</g>
<g filter="url(#filter7_d)">
<rect x="196" y="71" width="9" height="52" rx="4.5" transform="rotate(90 196 71)" fill="white"/>
</g>
<g filter="url(#filter8_d)">
<rect x="196" y="59" width="9" height="52" rx="4.5" transform="rotate(90 196 59)" fill="white"/>
</g>
<g opacity="0.4" filter="url(#filter9_d)">
<rect x="194" y="61" width="5" height="18" rx="2.5" transform="rotate(90 194 61)" fill="#66B700"/>
</g>
<g opacity="0.4" filter="url(#filter10_d)">
<rect x="194" y="73" width="5" height="18" rx="2.5" transform="rotate(90 194 73)" fill="#66B700"/>
</g>
<g opacity="0.4" filter="url(#filter11_d)">
<rect x="194" y="85" width="5" height="18" rx="2.5" transform="rotate(90 194 85)" fill="#66B700"/>
</g>
<g filter="url(#filter12_d)">
<rect x="196" y="95" width="9" height="52" rx="4.5" transform="rotate(90 196 95)" fill="white"/>
</g>
<g opacity="0.4" filter="url(#filter13_d)">
<rect x="194" y="97" width="5" height="18" rx="2.5" transform="rotate(90 194 97)" fill="#66B700"/>
</g>
<g filter="url(#filter14_d)">
<rect x="196" y="107" width="9" height="52" rx="4.5" transform="rotate(90 196 107)" fill="white"/>
</g>
<g opacity="0.4" filter="url(#filter15_d)">
<rect x="194" y="109" width="5" height="18" rx="2.5" transform="rotate(90 194 109)" fill="#66B700"/>
</g>
<g filter="url(#filter16_d)">
<path d="M123.5 76.5C123.5 69.3203 129.32 63.5 136.5 63.5C143.68 63.5 149.5 69.3203 149.5 76.5V94.5H123.5V76.5Z" stroke="#645E9D" stroke-width="3"/>
</g>
<g filter="url(#filter17_d)">
<path fill-rule="evenodd" clip-rule="evenodd" d="M109.179 87.1904C108.427 87.1904 107.817 87.8001 107.817 88.5521H165.687C165.687 87.8001 165.077 87.1904 164.325 87.1904H109.179ZM106.481 88.5521C104.092 88.5521 102.037 90.2414 101.575 92.5848L95.1922 124.956C93.9736 131.136 98.7039 136.89 105.003 136.89H169.181C175.481 136.89 180.211 131.136 178.992 124.956L172.609 92.5848C172.147 90.2414 170.092 88.5521 167.704 88.5521H106.481Z" fill="white"/>
</g>
<g filter="url(#filter18_d)">
<path d="M105.473 108.572C105.648 107.623 106.475 106.934 107.44 106.934H166.426C167.381 106.934 168.203 107.61 168.388 108.547L171.762 125.644C172.494 129.352 169.656 132.806 165.876 132.806H108.215C104.466 132.806 101.635 129.406 102.314 125.719L105.473 108.572Z" fill="white"/>
</g>
<g filter="url(#filter19_d)">
<path d="M173.106 123.312C173.273 123.234 173.483 123.182 173.65 123.104C174.265 122.879 174.853 122.697 175.476 122.358C176.293 121.896 177.303 121.313 178.244 120.747C179.913 119.667 181.374 118.341 182.544 117.197C183.837 115.949 185.21 114.57 186.313 112.848C186.807 112.131 187.239 111.318 187.689 110.575C188.272 109.613 188.863 108.537 189.533 107.628L189.56 107.585C192.793 107.869 195.674 108.538 198.396 109.47C202.562 110.977 208.698 114.664 212 117.5C212.203 117.264 212.297 117.236 212.5 117C211.469 116.137 208.081 113.602 206.928 112.844C206.94 111.836 206.769 110.836 206.598 109.836C206.401 108.582 206.214 107.214 206.369 105.873C206.458 105.33 206.548 104.787 206.568 104.261C206.884 102.063 207.209 99.7502 207.323 97.4894C207.457 94.7027 207.362 92.1956 207.021 89.8979C206.646 87.1617 205.71 84.5636 204.947 82.3693C204.401 80.9034 204.013 79.4731 203.791 77.9647C203.577 76.6404 203.31 75.4035 202.552 74.2873C202.491 74.1906 202.36 74.1112 202.176 74.1192C201.992 74.1272 201.895 74.1882 201.816 74.3193C198.977 78.5149 199.172 84.3092 199.559 88.3075C199.795 90.7801 200.214 93.2447 200.844 95.6576C201.448 98.1142 202.376 100.528 203.287 102.872L203.686 103.89C204.293 105.453 204.918 107.086 205.217 108.761C205.277 109.156 205.337 109.55 205.353 109.919C205.421 110.497 205.506 111.146 205.661 111.778C200.803 108.06 197.537 102.796 194.28 97.717C193.688 96.8206 193.122 95.8805 192.529 94.9841C191.083 92.7345 189.724 90.8358 188.39 89.1914C187.811 86.9891 187.119 84.7775 186.488 82.6627L186.436 82.4521C186.315 81.9608 186.124 81.4867 186.004 80.9954C185.502 79.258 185.001 77.5205 184.122 75.913C182.904 73.6818 180.815 72.2973 178.935 71.159C177.318 70.1796 175.656 69.1737 174.039 68.1942L171.678 66.7648C171.547 66.6854 171.363 66.6934 171.24 66.7981C171.213 66.8418 171.143 66.859 171.117 66.9028C171.064 66.9902 171.011 67.0776 171.045 67.218C171.696 71.0771 172.427 74.5071 174.747 77.2862C176.23 79.0802 178.082 80.5602 179.89 82.0137C181.052 82.9562 182.302 83.9517 183.411 84.9816C186.091 87.5606 188.638 90.6561 191.173 94.4615C191.295 94.6548 191.417 94.8481 191.521 94.9713C190.254 94.2036 188.924 93.6373 187.611 93.1411C185.633 92.3618 183.646 91.6964 181.694 91.1714C180.346 90.8329 178.944 90.5818 177.604 90.4273C176.719 90.3098 175.791 90.1658 174.932 90.0046C174.617 89.9332 174.302 89.8618 173.987 89.7904C172.34 89.4507 170.606 89.058 168.861 89.3752C168.72 89.4097 168.597 89.5144 168.491 89.6893C168.456 89.8469 168.49 89.9873 168.578 90.0402C171.519 93.076 175.764 94.4517 179.485 95.5098C183.609 96.6922 187.911 97.0865 192.575 96.6847C192.88 97.1679 193.185 97.6512 193.533 98.161C194.735 100.024 195.954 101.957 197.227 103.803C199.118 106.501 200.871 108.638 202.748 110.373C198.471 108.26 193.76 106.962 188.994 106.644L188.836 106.609C186.216 106.397 183.552 106.456 180.957 106.498C179.809 106.52 178.617 106.515 177.468 106.536C174.182 102.097 170.434 99.1105 166.373 97.7267C164.185 96.9992 161.933 96.7709 159.662 97.0685C159.083 97.1363 158.408 97.265 157.873 97.3593C156.013 97.6673 154.057 98.0362 152.148 97.5377C151.947 97.4755 151.657 97.6584 151.595 97.8597C151.516 97.9909 151.567 98.2015 151.742 98.3073C155.326 100.776 158.997 103.298 163.1 105.006C166.294 106.342 169.972 107.076 174.363 107.225C176.51 107.33 178.736 107.304 180.892 107.295C182.567 107.293 184.337 107.23 186.029 107.299C186.327 107.3 186.598 107.345 186.852 107.319C184.534 108.485 182.57 110.641 181.003 112.441C178.159 115.558 175.201 118.964 172.696 122.706C172.617 122.837 172.625 123.021 172.703 123.188C172.781 123.355 172.939 123.39 173.106 123.312Z" fill="#1B8508"/>
</g>
</g>
<defs>
<filter id="filter0_d" x="55.7312" y="64.1868" width="68.3931" height="72.6103" filterUnits="userSpaceOnUse" color-interpolation-filters="sRGB">
<feFlood flood-opacity="0" result="BackgroundImageFix"/>
<feColorMatrix in="SourceAlpha" type="matrix" values="0 0 0 0 0 0 0 0 0 0 0 0 0 0 0 0 0 0 127 0"/>
<feOffset/>
<feGaussianBlur stdDeviation="3"/>
<feColorMatrix type="matrix" values="0 0 0 0 0 0 0 0 0 0 0 0 0 0 0 0 0 0 0.16 0"/>
<feBlend mode="normal" in2="BackgroundImageFix" result="effect1_dropShadow"/>
<feBlend mode="normal" in="SourceGraphic" in2="effect1_dropShadow" result="shape"/>
</filter>
<filter id="filter1_d" x="141.394" y="10.9277" width="26.8054" height="55.9819" filterUnits="userSpaceOnUse" color-interpolation-filters="sRGB">
<feFlood flood-opacity="0" result="BackgroundImageFix"/>
<feColorMatrix in="SourceAlpha" type="matrix" values="0 0 0 0 0 0 0 0 0 0 0 0 0 0 0 0 0 0 127 0"/>
<feOffset/>
<feGaussianBlur stdDeviation="6"/>
<feColorMatrix type="matrix" values="0 0 0 0 0 0 0 0 0 0 0 0 0 0 0 0 0 0 0.06 0"/>
<feBlend mode="normal" in2="BackgroundImageFix" result="effect1_dropShadow"/>
<feBlend mode="normal" in="SourceGraphic" in2="effect1_dropShadow" result="shape"/>
</filter>
<filter id="filter2_d" x="172.253" y="10.9277" width="26.8054" height="55.9819" filterUnits="userSpaceOnUse" color-interpolation-filters="sRGB">
<feFlood flood-opacity="0" result="BackgroundImageFix"/>
<feColorMatrix in="SourceAlpha" type="matrix" values="0 0 0 0 0 0 0 0 0 0 0 0 0 0 0 0 0 0 127 0"/>
<feOffset/>
<feGaussianBlur stdDeviation="6"/>
<feColorMatrix type="matrix" values="0 0 0 0 0 0 0 0 0 0 0 0 0 0 0 0 0 0 0.06 0"/>
<feBlend mode="normal" in2="BackgroundImageFix" result="effect1_dropShadow"/>
<feBlend mode="normal" in="SourceGraphic" in2="effect1_dropShadow" result="shape"/>
</filter>
<filter id="filter3_d" x="124" y="37.2988" width="92" height="116.701" filterUnits="userSpaceOnUse" color-interpolation-filters="sRGB">
<feFlood flood-opacity="0" result="BackgroundImageFix"/>
<feColorMatrix in="SourceAlpha" type="matrix" values="0 0 0 0 0 0 0 0 0 0 0 0 0 0 0 0 0 0 127 0"/>
<feOffset/>
<feGaussianBlur stdDeviation="6"/>
<feColorMatrix type="matrix" values="0 0 0 0 0 0 0 0 0 0 0 0 0 0 0 0 0 0 0.06 0"/>
<feBlend mode="normal" in2="BackgroundImageFix" result="effect1_dropShadow"/>
<feBlend mode="normal" in="SourceGraphic" in2="effect1_dropShadow" result="shape"/>
</filter>
<filter id="filter4_d" x="130" y="45" width="80" height="103" filterUnits="userSpaceOnUse" color-interpolation-filters="sRGB">
<feFlood flood-opacity="0" result="BackgroundImageFix"/>
<feColorMatrix in="SourceAlpha" type="matrix" values="0 0 0 0 0 0 0 0 0 0 0 0 0 0 0 0 0 0 127 0"/>
<feOffset/>
<feGaussianBlur stdDeviation="6"/>
<feColorMatrix type="matrix" values="0 0 0 0 0 0 0 0 0 0 0 0 0 0 0 0 0 0 0.06 0"/>
<feBlend mode="normal" in2="BackgroundImageFix" result="effect1_dropShadow"/>
<feBlend mode="normal" in="SourceGraphic" in2="effect1_dropShadow" result="shape"/>
</filter>
<filter id="filter5_d" x="140.833" y="7" width="58.7873" height="31.8552" filterUnits="userSpaceOnUse" color-interpolation-filters="sRGB">
<feFlood flood-opacity="0" result="BackgroundImageFix"/>
<feColorMatrix in="SourceAlpha" type="matrix" values="0 0 0 0 0 0 0 0 0 0 0 0 0 0 0 0 0 0 127 0"/>
<feOffset/>
<feGaussianBlur stdDeviation="6"/>
<feColorMatrix type="matrix" values="0 0 0 0 0 0 0 0 0 0 0 0 0 0 0 0 0 0 0.06 0"/>
<feBlend mode="normal" in2="BackgroundImageFix" result="effect1_dropShadow"/>
<feBlend mode="normal" in="SourceGraphic" in2="effect1_dropShadow" result="shape"/>
</filter>
<filter id="filter6_d" x="132" y="71" width="76" height="33" filterUnits="userSpaceOnUse" color-interpolation-filters="sRGB">
<feFlood flood-opacity="0" result="BackgroundImageFix"/>
<feColorMatrix in="SourceAlpha" type="matrix" values="0 0 0 0 0 0 0 0 0 0 0 0 0 0 0 0 0 0 127 0"/>
<feOffset/>
<feGaussianBlur stdDeviation="6"/>
<feColorMatrix type="matrix" values="0 0 0 0 0 0 0 0 0 0 0 0 0 0 0 0 0 0 0.06 0"/>
<feBlend mode="normal" in2="BackgroundImageFix" result="effect1_dropShadow"/>
<feBlend mode="normal" in="SourceGraphic" in2="effect1_dropShadow" result="shape"/>
</filter>
<filter id="filter7_d" x="132" y="59" width="76" height="33" filterUnits="userSpaceOnUse" color-interpolation-filters="sRGB">
<feFlood flood-opacity="0" result="BackgroundImageFix"/>
<feColorMatrix in="SourceAlpha" type="matrix" values="0 0 0 0 0 0 0 0 0 0 0 0 0 0 0 0 0 0 127 0"/>
<feOffset/>
<feGaussianBlur stdDeviation="6"/>
<feColorMatrix type="matrix" values="0 0 0 0 0 0 0 0 0 0 0 0 0 0 0 0 0 0 0.06 0"/>
<feBlend mode="normal" in2="BackgroundImageFix" result="effect1_dropShadow"/>
<feBlend mode="normal" in="SourceGraphic" in2="effect1_dropShadow" result="shape"/>
</filter>
<filter id="filter8_d" x="132" y="47" width="76" height="33" filterUnits="userSpaceOnUse" color-interpolation-filters="sRGB">
<feFlood flood-opacity="0" result="BackgroundImageFix"/>
<feColorMatrix in="SourceAlpha" type="matrix" values="0 0 0 0 0 0 0 0 0 0 0 0 0 0 0 0 0 0 127 0"/>
<feOffset/>
<feGaussianBlur stdDeviation="6"/>
<feColorMatrix type="matrix" values="0 0 0 0 0 0 0 0 0 0 0 0 0 0 0 0 0 0 0.06 0"/>
<feBlend mode="normal" in2="BackgroundImageFix" result="effect1_dropShadow"/>
<feBlend mode="normal" in="SourceGraphic" in2="effect1_dropShadow" result="shape"/>
</filter>
<filter id="filter9_d" x="164" y="49" width="42" height="29" filterUnits="userSpaceOnUse" color-interpolation-filters="sRGB">
<feFlood flood-opacity="0" result="BackgroundImageFix"/>
<feColorMatrix in="SourceAlpha" type="matrix" values="0 0 0 0 0 0 0 0 0 0 0 0 0 0 0 0 0 0 127 0"/>
<feOffset/>
<feGaussianBlur stdDeviation="6"/>
<feColorMatrix type="matrix" values="0 0 0 0 0 0 0 0 0 0 0 0 0 0 0 0 0 0 0.06 0"/>
<feBlend mode="normal" in2="BackgroundImageFix" result="effect1_dropShadow"/>
<feBlend mode="normal" in="SourceGraphic" in2="effect1_dropShadow" result="shape"/>
</filter>
<filter id="filter10_d" x="164" y="61" width="42" height="29" filterUnits="userSpaceOnUse" color-interpolation-filters="sRGB">
<feFlood flood-opacity="0" result="BackgroundImageFix"/>
<feColorMatrix in="SourceAlpha" type="matrix" values="0 0 0 0 0 0 0 0 0 0 0 0 0 0 0 0 0 0 127 0"/>
<feOffset/>
<feGaussianBlur stdDeviation="6"/>
<feColorMatrix type="matrix" values="0 0 0 0 0 0 0 0 0 0 0 0 0 0 0 0 0 0 0.06 0"/>
<feBlend mode="normal" in2="BackgroundImageFix" result="effect1_dropShadow"/>
<feBlend mode="normal" in="SourceGraphic" in2="effect1_dropShadow" result="shape"/>
</filter>
<filter id="filter11_d" x="164" y="73" width="42" height="29" filterUnits="userSpaceOnUse" color-interpolation-filters="sRGB">
<feFlood flood-opacity="0" result="BackgroundImageFix"/>
<feColorMatrix in="SourceAlpha" type="matrix" values="0 0 0 0 0 0 0 0 0 0 0 0 0 0 0 0 0 0 127 0"/>
<feOffset/>
<feGaussianBlur stdDeviation="6"/>
<feColorMatrix type="matrix" values="0 0 0 0 0 0 0 0 0 0 0 0 0 0 0 0 0 0 0.06 0"/>
<feBlend mode="normal" in2="BackgroundImageFix" result="effect1_dropShadow"/>
<feBlend mode="normal" in="SourceGraphic" in2="effect1_dropShadow" result="shape"/>
</filter>
<filter id="filter12_d" x="132" y="83" width="76" height="33" filterUnits="userSpaceOnUse" color-interpolation-filters="sRGB">
<feFlood flood-opacity="0" result="BackgroundImageFix"/>
<feColorMatrix in="SourceAlpha" type="matrix" values="0 0 0 0 0 0 0 0 0 0 0 0 0 0 0 0 0 0 127 0"/>
<feOffset/>
<feGaussianBlur stdDeviation="6"/>
<feColorMatrix type="matrix" values="0 0 0 0 0 0 0 0 0 0 0 0 0 0 0 0 0 0 0.06 0"/>
<feBlend mode="normal" in2="BackgroundImageFix" result="effect1_dropShadow"/>
<feBlend mode="normal" in="SourceGraphic" in2="effect1_dropShadow" result="shape"/>
</filter>
<filter id="filter13_d" x="164" y="85" width="42" height="29" filterUnits="userSpaceOnUse" color-interpolation-filters="sRGB">
<feFlood flood-opacity="0" result="BackgroundImageFix"/>
<feColorMatrix in="SourceAlpha" type="matrix" values="0 0 0 0 0 0 0 0 0 0 0 0 0 0 0 0 0 0 127 0"/>
<feOffset/>
<feGaussianBlur stdDeviation="6"/>
<feColorMatrix type="matrix" values="0 0 0 0 0 0 0 0 0 0 0 0 0 0 0 0 0 0 0.06 0"/>
<feBlend mode="normal" in2="BackgroundImageFix" result="effect1_dropShadow"/>
<feBlend mode="normal" in="SourceGraphic" in2="effect1_dropShadow" result="shape"/>
</filter>
<filter id="filter14_d" x="132" y="95" width="76" height="33" filterUnits="userSpaceOnUse" color-interpolation-filters="sRGB">
<feFlood flood-opacity="0" result="BackgroundImageFix"/>
<feColorMatrix in="SourceAlpha" type="matrix" values="0 0 0 0 0 0 0 0 0 0 0 0 0 0 0 0 0 0 127 0"/>
<feOffset/>
<feGaussianBlur stdDeviation="6"/>
<feColorMatrix type="matrix" values="0 0 0 0 0 0 0 0 0 0 0 0 0 0 0 0 0 0 0.06 0"/>
<feBlend mode="normal" in2="BackgroundImageFix" result="effect1_dropShadow"/>
<feBlend mode="normal" in="SourceGraphic" in2="effect1_dropShadow" result="shape"/>
</filter>
<filter id="filter15_d" x="164" y="97" width="42" height="29" filterUnits="userSpaceOnUse" color-interpolation-filters="sRGB">
<feFlood flood-opacity="0" result="BackgroundImageFix"/>
<feColorMatrix in="SourceAlpha" type="matrix" values="0 0 0 0 0 0 0 0 0 0 0 0 0 0 0 0 0 0 127 0"/>
<feOffset/>
<feGaussianBlur stdDeviation="6"/>
<feColorMatrix type="matrix" values="0 0 0 0 0 0 0 0 0 0 0 0 0 0 0 0 0 0 0.06 0"/>
<feBlend mode="normal" in2="BackgroundImageFix" result="effect1_dropShadow"/>
<feBlend mode="normal" in="SourceGraphic" in2="effect1_dropShadow" result="shape"/>
</filter>
<filter id="filter16_d" x="110" y="50" width="53" height="58" filterUnits="userSpaceOnUse" color-interpolation-filters="sRGB">
<feFlood flood-opacity="0" result="BackgroundImageFix"/>
<feColorMatrix in="SourceAlpha" type="matrix" values="0 0 0 0 0 0 0 0 0 0 0 0 0 0 0 0 0 0 127 0"/>
<feOffset/>
<feGaussianBlur stdDeviation="6"/>
<feColorMatrix type="matrix" values="0 0 0 0 0 0 0 0 0 0 0 0 0 0 0 0 0 0 0.06 0"/>
<feBlend mode="normal" in2="BackgroundImageFix" result="effect1_dropShadow"/>
<feBlend mode="normal" in="SourceGraphic" in2="effect1_dropShadow" result="shape"/>
</filter>
<filter id="filter17_d" x="83" y="75.1904" width="108.185" height="73.7" filterUnits="userSpaceOnUse" color-interpolation-filters="sRGB">
<feFlood flood-opacity="0" result="BackgroundImageFix"/>
<feColorMatrix in="SourceAlpha" type="matrix" values="0 0 0 0 0 0 0 0 0 0 0 0 0 0 0 0 0 0 127 0"/>
<feOffset/>
<feGaussianBlur stdDeviation="6"/>
<feColorMatrix type="matrix" values="0 0 0 0 0 0 0 0 0 0 0 0 0 0 0 0 0 0 0.06 0"/>
<feBlend mode="normal" in2="BackgroundImageFix" result="effect1_dropShadow"/>
<feBlend mode="normal" in="SourceGraphic" in2="effect1_dropShadow" result="shape"/>
</filter>
<filter id="filter18_d" x="90.2131" y="94.9343" width="93.6647" height="49.8712" filterUnits="userSpaceOnUse" color-interpolation-filters="sRGB">
<feFlood flood-opacity="0" result="BackgroundImageFix"/>
<feColorMatrix in="SourceAlpha" type="matrix" values="0 0 0 0 0 0 0 0 0 0 0 0 0 0 0 0 0 0 127 0"/>
<feOffset/>
<feGaussianBlur stdDeviation="6"/>
<feColorMatrix type="matrix" values="0 0 0 0 0 0 0 0 0 0 0 0 0 0 0 0 0 0 0.06 0"/>
<feBlend mode="normal" in2="BackgroundImageFix" result="effect1_dropShadow"/>
<feBlend mode="normal" in="SourceGraphic" in2="effect1_dropShadow" result="shape"/>
</filter>
<filter id="filter19_d" x="139.559" y="54.7114" width="84.9413" height="80.6401" filterUnits="userSpaceOnUse" color-interpolation-filters="sRGB">
<feFlood flood-opacity="0" result="BackgroundImageFix"/>
<feColorMatrix in="SourceAlpha" type="matrix" values="0 0 0 0 0 0 0 0 0 0 0 0 0 0 0 0 0 0 127 0"/>
<feOffset/>
<feGaussianBlur stdDeviation="6"/>
<feColorMatrix type="matrix" values="0 0 0 0 0 0 0 0 0 0 0 0 0 0 0 0 0 0 0.15 0"/>
<feBlend mode="normal" in2="BackgroundImageFix" result="effect1_dropShadow"/>
<feBlend mode="normal" in="SourceGraphic" in2="effect1_dropShadow" result="shape"/>
</filter>
</defs>
</svg>
