<svg width="210" height="119" viewBox="0 0 210 119" fill="none" xmlns="http://www.w3.org/2000/svg">
<mask id="mask0" mask-type="alpha" maskUnits="userSpaceOnUse" x="0" y="0" width="210" height="119">
<path d="M0 0H193C202.389 0 210 7.61116 210 17V119H0V0Z" fill="#C4C4C4"/>
</mask>
<g mask="url(#mask0)">
<g filter="url(#filter0_d)">
<path d="M159 121C192.689 121 220 93.6894 220 60C220 26.3106 192.689 -1 159 -1C125.311 -1 98 26.3106 98 60C98 93.6894 125.311 121 159 121Z" fill="white"/>
</g>
<path d="M174.5 59.5C174.5 65.0229 170.023 69.5 164.5 69.5C158.977 69.5 154.5 65.0229 154.5 59.5C154.5 53.9772 158.977 49.5 164.5 49.5C170.023 49.5 174.5 53.9772 174.5 59.5Z" stroke="#66B700" stroke-miterlimit="10"/>
<path opacity="0.9" d="M182.5 59.5C182.5 69.4411 174.441 77.5 164.5 77.5C154.559 77.5 146.5 69.4411 146.5 59.5C146.5 49.5589 154.559 41.5 164.5 41.5C174.441 41.5 182.5 49.5589 182.5 59.5Z" stroke="#66B700" stroke-miterlimit="10"/>
<path opacity="0.7" d="M190.5 59.5C190.5 73.8594 178.859 85.5 164.5 85.5C150.141 85.5 138.5 73.8594 138.5 59.5C138.5 45.1406 150.141 33.5 164.5 33.5C178.859 33.5 190.5 45.1406 190.5 59.5Z" stroke="#66B700" stroke-miterlimit="10"/>
<path opacity="0.6" d="M198.5 59.5C198.5 78.2777 183.278 93.5 164.5 93.5C145.722 93.5 130.5 78.2777 130.5 59.5C130.5 40.7223 145.722 25.5 164.5 25.5C183.278 25.5 198.5 40.7223 198.5 59.5Z" stroke="#66B700" stroke-miterlimit="10"/>
<path opacity="0.5" d="M206.5 59.5C206.5 82.696 187.696 101.5 164.5 101.5C141.304 101.5 122.5 82.696 122.5 59.5C122.5 36.304 141.304 17.5 164.5 17.5C187.696 17.5 206.5 36.304 206.5 59.5Z" stroke="#66B700" stroke-miterlimit="10"/>
<path opacity="0.2" d="M214.5 59.5C214.5 87.1142 192.114 109.5 164.5 109.5C136.886 109.5 114.5 87.1142 114.5 59.5C114.5 31.8858 136.886 9.5 164.5 9.5C192.114 9.5 214.5 31.8858 214.5 59.5Z" stroke="#66B700" stroke-miterlimit="10"/>
<g filter="url(#filter1_d)">
<path d="M123.427 29.3404C123.216 30.2658 122.917 31.3379 122.619 32.16C121.89 34.0242 121.282 35.1096 120.289 36.6637C116.129 42.6145 110.121 47.3948 104.719 48.281C99.3183 49.1672 95.3217 45.3395 97.2214 38.5692C97.8342 36.4839 98.9914 34.3276 100.721 32.4682C103.159 29.9356 105.647 29.3886 107.823 29.6047C108.572 29.6083 109.223 28.9496 109.771 28.1287C110.542 26.6912 110.564 25.2501 110.304 24.1901C109.041 20.8165 105.056 20.6065 101.15 22.4997C95.5786 25.238 90.2703 31.3452 87.4175 37.5375C87.6122 36.8031 87.6879 36.3476 87.9414 35.5988C88.553 33.7635 89.3402 32.1349 90.7029 30.0531C94.8634 24.1023 100.723 19.483 106.125 18.5968C111.526 17.7106 115.522 21.5383 113.623 28.3087C113.01 30.394 111.853 32.5503 110.123 34.4097C107.685 36.9423 105.197 37.4893 103.022 37.2731C102.272 37.2696 101.621 37.9283 101.073 38.7492C100.302 40.1867 100.28 41.6278 100.54 42.6878C101.804 46.0614 105.788 46.2714 109.694 44.3782C115.339 41.6843 120.588 35.5916 123.427 29.3404Z" fill="#66B700" fill-opacity="0.4"/>
<path d="M109.904 49.5703C109.063 50.2134 108.177 50.9298 107.455 51.294C105.818 52.2568 104.846 52.6198 103.477 52.8928C98.1635 53.8823 93.762 51.7145 92.6835 46.5477C91.6051 41.3808 94.7606 33.3665 100.663 29.1738C102.522 27.8444 104.349 27.1472 106.083 27.3466C108.405 27.6517 109.012 29.8751 108.912 32.5217C108.981 33.3161 109.569 33.4218 110.276 33.2487C111.587 32.7402 112.828 31.4373 113.688 30.1031C116.503 25.543 116.496 20.9253 114.684 18.3727C112.04 14.7131 106.526 14.6282 101.057 17.2788C101.692 16.8112 102.105 16.4602 102.754 16.0515C104.377 15.0298 105.762 14.3158 107.661 13.913C112.916 12.9379 117.141 15.149 118.205 20.2569C119.269 25.3649 116.142 33.497 110.24 37.6897C108.381 39.0191 106.554 39.7163 104.82 39.5169C102.498 39.2118 101.89 36.9884 101.991 34.3418C101.921 33.5474 101.334 33.4417 100.627 33.6148C99.3158 34.1233 98.0743 35.4262 97.2151 36.7604C94.3994 41.3205 94.407 45.9382 96.2184 48.4908C98.9217 52.1359 104.45 52.2797 109.904 49.5703Z" fill="#66B700"/>
<path d="M116.551 12.4845C117.271 12.6202 118.005 12.8149 118.504 13.0672C119.648 13.6609 120.116 14.2954 120.729 15.2689C122.767 19.5138 122.251 26.0701 118.559 32.4055C114.868 38.7409 108.048 44.0321 103.408 42.6719C101.984 42.2093 100.974 41.1457 100.703 39.2768C100.377 36.6724 101.92 33.7973 103.948 31.1158C104.54 30.2215 104.499 29.5449 104.178 28.9993C103.491 28.2313 102.166 28.4309 100.973 28.9106C96.6548 30.9048 93.2058 35.6826 91.729 40.102C89.5961 46.4301 90.8934 51.9803 94.337 54.5701C93.8081 54.4499 93.4704 54.3454 92.986 54.1519C91.7973 53.6316 90.9475 52.9658 90.1013 51.55C88.0626 47.3051 88.6222 40.9255 92.3139 34.5901C95.9467 28.2691 102.825 22.9635 107.48 24.3826C108.904 24.8452 109.914 25.9088 110.184 27.7777C110.51 30.3821 108.967 33.2572 106.94 35.9387C106.347 36.833 106.388 37.5096 106.709 38.0553C107.397 38.8232 108.721 38.6236 109.915 38.144C114.115 36.1786 117.564 31.4008 119.026 26.9225C121.218 20.58 119.921 15.0298 116.551 12.4845Z" fill="#645E9D"/>
</g>
<g filter="url(#filter2_d)">
<rect width="5" height="69" rx="2.5" transform="matrix(-1 0 0 1 167 57)" fill="white"/>
</g>
<g filter="url(#filter3_d)">
<path d="M168.2 11.171C167.564 11.5509 166.869 11.9264 166.242 12.1852C164.864 12.7548 163.935 12.9919 162.578 13.259C157.17 14.0857 151.386 13.3657 148.099 10.8801C144.813 8.39455 144.807 4.26041 149.426 1.7356C150.878 0.988984 152.615 0.50603 154.563 0.463811C157.237 0.473795 158.804 1.4984 159.862 2.85106C160.259 3.24437 160.989 3.23609 161.668 3.10252C162.847 2.76184 163.69 2.0322 164.045 1.32824C165.195 -1.14216 163.287 -3.34627 160.151 -4.54445C155.767 -6.13638 149.667 -5.84569 144.802 -4.12882C145.308 -4.3964 145.628 -4.61656 146.129 -4.82366C147.451 -5.45802 148.756 -5.85047 150.605 -6.20377C156.014 -7.03047 161.551 -6.26739 164.902 -3.83792C168.189 -1.35233 168.195 2.78181 163.576 5.30662C162.124 6.05323 160.387 6.53619 158.439 6.57841C155.765 6.56842 154.197 5.54382 153.14 4.19116C152.742 3.79785 152.012 3.80613 151.334 3.9397C150.155 4.28038 149.312 5.01002 148.957 5.71398C147.807 8.18438 149.715 10.3885 152.851 11.5867C157.23 13.2391 163.335 12.8879 168.2 11.171Z" fill="#66B700" fill-opacity="0.4"/>
<path d="M150.098 14.3675C149.316 14.2504 148.474 14.129 147.878 13.9646C146.508 13.5622 145.804 13.2076 144.932 12.6585C141.637 10.2939 140.494 6.74666 142.734 3.50354C144.973 0.26043 150.992 -2.28528 156.331 -1.29334C158.011 -0.990102 159.363 -0.345759 160.14 0.682766C161.193 2.0959 160.294 3.61173 158.803 4.90263C158.405 5.36034 158.621 5.7406 159.087 6.0173C160.029 6.44977 161.368 6.42452 162.599 6.20915C166.552 5.33851 169.033 2.96382 169.505 0.626998C170.172 -2.72922 167.349 -5.72865 163.025 -7.31622C163.626 -7.21224 163.988 -7.18614 164.585 -7.02169C166.019 -6.67537 167.085 -6.29469 168.303 -5.47762C171.598 -3.11298 172.685 0.369403 170.385 3.60817C168.146 6.85128 162.127 9.39699 156.788 8.40505C155.108 8.10181 153.756 7.45747 152.979 6.42894C151.925 5.01581 152.825 3.49998 154.316 2.20908C154.713 1.75137 154.498 1.37111 154.031 1.0944C153.09 0.661941 151.751 0.687188 150.519 0.902563C146.566 1.77319 144.085 4.14789 143.613 6.48471C142.951 9.78046 145.77 12.8404 150.098 14.3675Z" fill="#66B700"/>
<path d="M173.723 -1.37963C173.995 -0.934541 174.323 -0.424628 174.417 -0.0530697C174.655 0.875827 174.611 1.48059 174.369 2.31421C173.157 5.63127 169.285 8.75693 163.958 10.1366C158.631 11.5163 152.139 10.5022 150.49 7.22256C149.955 6.21143 150.038 5.06238 150.907 3.96989C152.113 2.41533 154.532 1.73833 157.042 1.49335C157.841 1.36848 158.174 0.966896 158.33 0.491786C158.386 -0.294406 157.579 -0.899596 156.698 -1.32771C153.446 -2.59507 149.082 -1.93632 145.816 -0.469203C141.222 1.69275 138.957 5.29872 139.336 8.487C139.12 8.10674 139.012 7.91661 138.857 7.5407C138.498 6.6031 138.434 5.80821 138.763 4.61608C139.974 1.29902 143.777 -1.71004 149.104 -3.08972C154.431 -4.46941 160.924 -3.45529 162.572 -0.175663C163.107 0.83546 163.025 1.98451 162.156 3.07701C160.95 4.63156 158.53 5.30857 156.02 5.55354C155.221 5.67841 154.888 6.08 154.733 6.55511C154.676 7.3413 155.484 7.94649 156.365 8.3746C159.617 9.64197 163.98 8.98322 167.247 7.5161C171.84 5.35414 174.162 1.813 173.723 -1.37963Z" fill="#645E9D"/>
</g>
<g filter="url(#filter4_d)">
<path d="M228.674 116.147C227.757 117.043 226.733 118.002 225.797 118.621C223.667 120.153 222.186 120.947 219.988 121.87C211.103 125.404 201.021 126.396 194.452 123.535C187.85 120.621 186.247 113.561 193.156 107.508C195.375 105.635 198.092 104.12 201.386 103.348C205.89 102.301 209.033 103.49 211.296 105.266C212.111 105.798 213.32 105.524 214.456 105.004C216.367 103.96 217.463 102.383 217.82 101.022C218.856 96.3828 214.645 93.3681 208.937 92.5974C200.787 91.5956 190.608 94.5171 183.032 99.3038C183.797 98.6407 184.186 98.1972 185.036 97.5564C187.081 96.0014 189.059 94.7017 192.125 93.4147C201.01 89.8807 210.707 88.9697 217.308 91.8843C223.91 94.7989 225.513 101.858 218.604 107.912C216.385 109.785 213.668 111.3 210.374 112.072C205.87 113.118 202.726 111.929 200.464 110.154C199.649 109.621 198.44 109.895 197.304 110.415C195.393 111.46 194.297 113.037 193.939 114.398C192.904 119.037 197.114 122.052 202.823 122.822C210.896 123.941 221.129 120.988 228.674 116.147Z" fill="#66B700" fill-opacity="0.4"/>
<path d="M199.277 128.712C197.921 128.856 196.394 128.956 195.328 128.858C192.866 128.712 191.536 128.408 189.794 127.769C183.202 124.993 179.916 119.493 182.477 113.026C185.038 106.56 194.225 99.9676 203.703 99.5448C206.649 99.4085 209.277 99.9619 210.989 101.411C213.291 103.38 212.34 106.313 210.407 109.171C209.853 110.071 210.476 110.644 211.389 110.974C213.167 111.304 215.477 110.819 217.428 109.967C223.864 106.927 227.049 101.897 226.916 97.7248C226.643 91.8331 220.664 87.7629 212.685 86.8057C213.741 86.7647 214.404 86.6658 215.407 86.6561C217.945 86.6858 219.969 86.9441 222.338 87.7931C228.93 90.569 232.014 95.9708 229.422 102.384C226.829 108.797 217.674 115.443 208.196 115.865C205.25 116.002 202.621 115.448 200.91 113.999C198.608 112.031 199.559 109.097 201.491 106.24C202.046 105.339 201.423 104.767 200.51 104.436C198.732 104.106 196.422 104.591 194.471 105.443C188.035 108.483 184.85 113.513 184.983 117.685C185.318 123.685 191.298 127.755 199.277 128.712Z" fill="#66B700"/>
<path d="M233.216 92.6031C233.87 93.2295 234.587 93.9633 234.91 94.6391C235.703 96.1205 235.829 97.1994 235.759 98.6814C235.015 104.807 229.719 111.647 221.112 116.027C212.506 120.407 201.188 121.256 197.052 116.397C195.78 114.835 195.461 112.933 196.458 110.693C197.955 107.585 201.724 105.528 205.837 104.061C207.113 103.532 207.56 102.694 207.591 101.884C207.339 100.59 205.781 99.7717 204.088 99.464C198.07 98.6577 190.859 101.358 185.982 105.216C179.091 110.683 176.566 117.705 178.414 122.964C177.961 122.436 177.634 122.123 177.236 121.563C176.335 120.145 175.828 118.784 175.938 116.631C176.682 110.505 181.911 103.92 190.518 99.5403C199.124 95.1603 210.442 94.3109 214.578 99.1703C215.85 100.732 216.169 102.635 215.173 104.874C213.675 107.982 209.906 110.04 205.793 111.506C204.517 112.036 204.07 112.873 204.039 113.683C204.291 114.977 205.85 115.795 207.542 116.103C213.56 116.909 220.771 114.209 225.648 110.351C232.539 104.884 235.096 97.9162 233.216 92.6031Z" fill="#645E9D"/>
</g>
<g filter="url(#filter5_d)">
<path d="M140.881 44.2284C140.856 44.7702 140.825 45.4474 140.72 45.9583C140.504 47.1156 140.227 47.8358 139.826 48.8761C137.99 52.8094 134.954 56.2806 131.919 57.3631C128.828 58.4702 126.089 56.6348 126.497 52.4732C126.639 51.1497 127.107 49.8139 127.926 48.5213C129.066 46.7548 130.476 46.1951 131.812 46.0662C132.249 46.0048 132.569 45.5309 132.785 44.9707C133.099 44.0351 132.976 43.1608 132.675 42.6313C131.592 40.7902 129.271 41.0911 127.109 42.648C124.104 44.8448 121.634 48.9933 120.667 52.9392C120.716 52.4529 120.728 52.182 120.802 51.7511C120.963 50.6184 121.228 49.5719 121.862 48.1623C123.698 44.229 126.617 40.9425 129.708 39.8354C132.799 38.7282 135.538 40.5637 135.13 44.7252C134.988 46.0488 134.52 47.3846 133.701 48.6771C132.561 50.4436 131.151 51.0034 129.815 51.1322C129.378 51.1936 129.058 51.6676 128.842 52.2277C128.528 53.1634 128.651 54.0376 128.952 54.5672C130.035 56.4082 132.356 56.1073 134.518 54.5505C137.387 52.3475 139.857 48.1989 140.881 44.2284Z" fill="#66B700" fill-opacity="0.4"/>
<path d="M135.034 57.5058C134.634 57.9489 134.147 58.4966 133.808 58.7797C132.934 59.4997 132.404 59.8012 131.629 60.1457C128.618 61.2836 125.805 60.4763 124.636 57.5455C123.467 54.6147 124.485 49.5853 127.478 46.4651C128.444 45.505 129.423 44.8712 130.458 44.81C131.818 44.7365 132.44 45.9865 132.667 47.5441C132.808 48.012 133.135 47.9998 133.523 47.8276C134.194 47.3968 134.804 46.529 135.198 45.6241C136.393 42.6387 135.865 39.9544 134.541 38.6181C132.646 36.7398 129.364 37.2681 126.415 39.4404C126.729 39.1019 126.957 38.868 127.271 38.5295C128.121 37.7541 128.878 37.2187 129.931 36.7512C132.942 35.6133 135.699 36.4453 136.813 39.4006C137.982 42.3314 136.964 47.3608 133.971 50.4811C133.004 51.4411 132.025 52.0749 130.991 52.1361C129.63 52.2096 129.009 50.9597 128.782 49.402C128.64 48.9341 128.314 48.9463 127.926 49.1186C127.255 49.5493 126.645 50.4171 126.251 51.322C125.056 54.3074 125.584 56.9917 126.907 58.3281C128.858 60.1817 132.084 59.678 135.034 57.5058Z" fill="#66B700"/>
<path d="M135.004 35.0291C135.41 35.0477 135.872 35.0417 136.192 35.1649C136.912 35.4422 137.306 35.7316 137.719 36.212C139.38 38.4596 139.742 42.412 138.251 46.524C136.76 50.6359 133.274 54.4393 130.411 54.1183C129.494 53.9949 128.811 53.5021 128.454 52.4C128.005 50.9409 128.554 49.0387 129.503 47.2907C129.774 46.7059 129.657 46.2934 129.398 46.0101C128.9 45.6344 128.155 45.8989 127.484 46.3296C125.211 47.9357 123.684 51.0687 123.338 53.8759C122.776 57.8404 124.074 60.9128 126.383 62.0771C126.032 62.0339 125.841 62.0523 125.545 61.9845C124.794 61.7872 124.21 61.5162 123.619 60.7834C121.957 58.5358 121.645 54.6941 123.136 50.5822C124.627 46.4703 128.113 42.6668 130.975 42.9879C131.893 43.1113 132.576 43.604 132.932 44.7061C133.381 46.1653 132.833 48.0674 131.884 49.8155C131.613 50.4003 131.73 50.8128 131.988 51.0961C132.487 51.4717 133.232 51.2073 133.903 50.7765C136.175 49.1705 137.703 46.0374 138.049 43.2303C138.635 39.3212 137.312 36.1934 135.004 35.0291Z" fill="#645E9D"/>
</g>
<g filter="url(#filter6_d)">
<path d="M148.612 100.204C148.014 100.118 147.417 100.033 146.905 99.9476C145.795 99.6916 145.027 99.3502 144.088 98.8381C140.248 96.7898 137.09 93.6319 136.151 90.4741C135.298 87.4016 137.261 84.7558 141.357 85.4386C142.637 85.6947 143.918 86.2067 145.198 87.0602C146.819 88.3404 147.331 89.706 147.417 91.0715C147.502 91.4983 147.929 91.8397 148.441 92.0957C149.38 92.4371 150.233 92.3517 150.831 92.0957C152.708 91.1569 152.538 88.7672 151.172 86.6335C149.209 83.561 145.198 80.8299 141.357 79.635C141.784 79.7204 142.04 79.7204 142.552 79.8057C143.662 80.0617 144.686 80.4031 146.051 81.0859C149.892 83.1342 152.964 86.2067 153.818 89.3646C154.671 92.4371 152.708 95.0828 148.612 94.4001C147.331 94.144 146.051 93.6319 144.771 92.7785C143.149 91.4983 142.637 90.1327 142.552 88.7672C142.467 88.3404 142.04 87.999 141.528 87.743C140.589 87.4016 139.736 87.4869 139.138 87.743C137.261 88.6818 137.431 91.0715 138.797 93.2052C140.76 96.3631 144.686 99.0088 148.612 100.204Z" fill="#66B700" fill-opacity="0.4"/>
<path d="M135.724 93.7173C135.298 93.2906 134.785 92.7785 134.529 92.4371C133.847 91.5836 133.591 90.9862 133.335 90.2181C132.396 87.1456 133.335 84.4145 136.322 83.4756C139.309 82.5368 144.259 83.817 147.075 86.8895C147.929 87.9137 148.526 88.9379 148.526 89.962C148.526 91.3276 147.246 91.8397 145.71 92.0104C145.283 92.0957 145.198 92.4371 145.368 92.8638C145.795 93.5466 146.649 94.2294 147.417 94.6561C150.319 96.0217 152.964 95.6803 154.415 94.4001C156.378 92.6078 156.037 89.3646 154.074 86.2921C154.415 86.6335 154.586 86.8895 154.927 87.2309C155.61 88.0844 156.122 88.9379 156.549 89.962C157.488 93.0345 156.549 95.6803 153.562 96.6191C150.575 97.5579 145.625 96.2777 142.808 93.2052C141.955 92.1811 141.357 91.1569 141.357 90.1327C141.357 88.7672 142.637 88.2551 144.174 88.0844C144.6 87.9991 144.686 87.6577 144.515 87.2309C144.088 86.5482 143.235 85.8654 142.467 85.4386C139.565 84.0731 136.919 84.4145 135.468 85.6947C133.505 87.4016 133.761 90.6448 135.724 93.7173Z" fill="#66B700"/>
<path d="M158 94.9975C158 95.4242 157.915 95.8509 157.829 96.1923C157.573 96.8751 157.232 97.2165 156.634 97.6432C154.33 99.1795 150.404 99.2648 146.393 97.5579C142.381 95.8509 138.797 92.181 139.309 89.3646C139.48 88.5111 140.077 87.8283 141.101 87.4869C142.552 87.1455 144.43 87.8283 146.137 88.8525C146.649 89.1085 147.075 89.0232 147.417 88.8525C147.758 88.4257 147.588 87.6576 147.246 86.9748C145.795 84.6705 142.808 82.9635 140.077 82.3661C136.236 81.598 133.079 82.7075 131.798 84.8412C131.884 84.4998 131.884 84.3291 131.969 83.9877C132.225 83.2196 132.566 82.7075 133.249 82.1101C135.554 80.5738 139.394 80.4884 143.32 82.1954C147.332 83.9023 150.916 87.5723 150.404 90.3887C150.233 91.2422 149.636 91.925 148.612 92.2664C147.161 92.6077 145.283 91.925 143.576 90.9008C143.064 90.6448 142.637 90.7301 142.296 90.9008C141.955 91.3275 142.125 92.0957 142.467 92.7784C143.918 95.0828 146.905 96.7898 149.636 97.3872C153.562 98.326 156.72 97.2165 158 94.9975Z" fill="#645E9D"/>
</g>
<g filter="url(#filter7_d)">
<path d="M137.247 127.011C136.702 127.436 136.035 127.86 135.55 128.103C134.337 128.649 133.549 128.83 132.397 129.012C127.789 129.316 123.12 127.315 120.573 123.313C118.027 119.311 118.512 113.551 122.635 110.883C123.908 110.034 125.424 109.671 127.061 109.974C129.244 110.398 130.517 112.157 131.245 114.097C131.548 114.703 132.093 114.824 132.7 114.764C133.731 114.461 134.458 113.612 134.883 112.702C136.095 109.489 134.701 106.033 132.215 103.971C128.698 101 123.605 100.454 119.421 102.031C119.846 101.728 120.149 101.546 120.634 101.243C121.786 100.636 122.938 100.212 124.514 100.03C129.122 99.7268 133.67 101.728 136.156 105.729C138.642 109.731 138.217 115.491 134.094 118.159C132.821 119.008 131.305 119.372 129.668 119.069C127.485 118.644 126.212 116.886 125.484 114.946C125.181 114.339 124.636 114.218 124.029 114.279C122.999 114.582 122.271 115.431 121.847 116.34C120.634 119.554 122.028 123.01 124.514 125.071C127.97 128.042 133.064 128.588 137.247 127.011Z" fill="#66B700" fill-opacity="0.4"/>
<path d="M121.907 128.467C121.24 128.224 120.573 127.86 120.088 127.557C118.997 126.769 118.451 126.163 117.724 125.253C115.177 121.373 114.631 116.34 116.814 112.156C118.997 108.033 124.272 105.548 128.637 107.791C129.971 108.519 131.063 109.61 131.608 111.186C132.336 113.309 131.426 115.249 130.093 116.825C129.729 117.371 129.911 117.977 130.214 118.462C130.941 119.19 132.093 119.432 133.124 119.311C136.52 118.765 138.824 115.855 139.43 112.702C140.279 108.155 138.217 103.486 134.761 100.576C135.246 100.818 135.549 100.939 136.035 101.243C137.187 101.97 138.035 102.698 139.006 104.032C141.552 107.912 142.037 112.823 139.854 116.946C137.672 121.069 132.397 123.555 128.031 121.312C126.697 120.584 125.606 119.493 125.06 117.917C124.332 115.794 125.242 113.854 126.576 112.278C126.94 111.732 126.758 111.126 126.455 110.641C125.727 109.913 124.575 109.671 123.544 109.792C120.149 110.338 117.845 113.248 117.238 116.401C116.45 120.888 118.451 125.556 121.907 128.467Z" fill="#66B700"/>
<path d="M143.129 110.519C143.31 111.186 143.492 111.914 143.553 112.52C143.674 113.854 143.553 114.703 143.25 115.794C141.916 120.221 138.399 123.919 133.791 124.889C129.183 125.859 123.908 123.434 122.877 118.644C122.574 117.128 122.695 115.613 123.544 114.218C124.696 112.278 126.758 111.732 128.88 111.732C129.547 111.671 129.911 111.186 130.032 110.58C130.153 109.549 129.547 108.519 128.819 107.791C126.212 105.548 122.514 105.669 119.724 107.245C115.723 109.489 113.419 114.097 113.419 118.584C113.297 118.038 113.176 117.735 113.115 117.189C112.934 115.855 112.934 114.703 113.358 113.127C114.692 108.7 118.148 105.184 122.756 104.214C127.364 103.244 132.639 105.669 133.67 110.459C133.973 111.975 133.852 113.49 133.003 114.885C131.851 116.825 129.789 117.371 127.667 117.371C127 117.432 126.637 117.917 126.515 118.523C126.394 119.554 127 120.584 127.728 121.312C130.335 123.555 134.034 123.434 136.823 121.858C140.885 119.554 143.129 115.006 143.129 110.519Z" fill="#645E9D"/>
</g>
<g filter="url(#filter8_d)">
<path d="M199.194 83.0419C198.684 83.467 198.003 83.8922 197.578 84.1473C196.388 84.7425 195.623 84.9125 194.517 84.9976C190.096 85.2526 185.589 83.297 183.123 79.4707C180.742 75.6444 181.168 70.1175 185.079 67.4816C186.354 66.7163 187.8 66.2912 189.33 66.6313C191.456 67.0564 192.647 68.757 193.327 70.6277C193.582 71.2229 194.177 71.3079 194.772 71.3079C195.793 71.0528 196.473 70.2025 196.898 69.2672C198.088 66.2061 196.728 62.89 194.347 60.8493C190.946 57.9583 186.099 57.4481 182.018 58.9787C182.443 58.7236 182.698 58.4685 183.123 58.2134C184.229 57.6182 185.334 57.1931 186.865 57.023C191.286 56.7679 195.623 58.6385 198.088 62.4649C200.469 66.2912 200.044 71.8181 196.133 74.454C194.857 75.2192 193.412 75.6444 191.881 75.3043C189.756 74.8791 188.565 73.1785 187.885 71.3079C187.63 70.7127 187.035 70.6277 186.439 70.6277C185.419 70.8827 184.739 71.733 184.314 72.6683C183.123 75.7294 184.484 79.0455 186.865 81.0862C190.181 83.9772 195.112 84.5724 199.194 83.0419Z" fill="#66B700" fill-opacity="0.4"/>
<path d="M184.399 84.4025C183.803 84.1474 183.123 83.8073 182.613 83.4671C181.593 82.7019 180.997 82.1067 180.402 81.2564C177.936 77.5151 177.426 72.6684 179.552 68.6721C181.678 64.6757 186.694 62.2949 190.946 64.4206C192.221 65.1009 193.327 66.2062 193.837 67.6517C194.517 69.6924 193.667 71.5631 192.391 73.0936C192.051 73.6038 192.221 74.199 192.561 74.6241C193.242 75.3894 194.347 75.5594 195.367 75.4744C198.599 74.9642 200.809 72.1583 201.404 69.0972C202.255 64.7607 200.214 60.2542 196.898 57.4482C197.408 57.7033 197.663 57.7884 198.088 58.0434C199.194 58.7237 200.044 59.4889 200.979 60.6794C203.445 64.4206 203.87 69.0972 201.745 73.0936C199.619 77.09 194.602 79.4708 190.351 77.345C189.075 76.6648 187.97 75.5594 187.46 74.1139C186.779 72.0732 187.63 70.2026 188.905 68.6721C189.245 68.1619 189.075 67.5667 188.735 67.1416C188.055 66.3763 186.95 66.2062 185.929 66.2913C182.698 66.8014 180.487 69.6074 179.892 72.6684C179.127 77.175 181.083 81.6815 184.399 84.4025Z" fill="#66B700"/>
<path d="M204.806 67.1415C204.976 67.8217 205.146 68.5019 205.231 69.0971C205.316 70.3726 205.231 71.1378 204.976 72.2432C203.7 76.4947 200.299 80.0659 195.878 81.0012C191.456 81.9365 186.354 79.6407 185.334 74.9641C184.994 73.5186 185.164 72.0731 186.014 70.7127C187.12 68.842 189.16 68.3319 191.116 68.3319C191.796 68.2468 192.051 67.8217 192.221 67.2265C192.306 66.2061 191.796 65.2708 191.116 64.5906C188.65 62.3798 185.079 62.5499 182.358 64.0804C178.532 66.2061 176.321 70.6276 176.321 74.9641C176.236 74.454 176.066 74.1138 176.066 73.6037C175.896 72.3282 175.896 71.2229 176.236 69.6923C177.511 65.4409 180.827 62.0397 185.249 61.1044C189.67 60.1691 194.772 62.4649 195.793 67.1415C196.133 68.587 195.963 70.0324 195.112 71.3929C194.007 73.2636 191.966 73.7737 190.011 73.7737C189.33 73.8588 189.075 74.2839 188.905 74.8791C188.82 75.8995 189.33 76.8348 190.011 77.515C192.476 79.7258 196.048 79.5557 198.769 78.0252C202.595 75.8995 204.806 71.4779 204.806 67.1415Z" fill="#645E9D"/>
</g>
<g filter="url(#filter9_d)">
<path d="M108.06 83.9208C108.005 84.2426 107.891 84.5771 107.81 84.7803C107.603 85.2588 107.344 85.5001 107.027 85.7541C105.624 86.736 103.6 86.549 101.738 85.0873C99.8747 83.6257 98.4444 80.7074 98.9999 78.6665C99.1822 78.0694 99.5677 77.5529 100.161 77.4261C100.991 77.2485 101.867 77.8671 102.604 78.7016C102.845 78.96 103.082 78.9093 103.235 78.7527C103.48 78.4521 103.485 77.8931 103.371 77.3595C102.872 75.6061 101.508 74.1616 100.145 73.5852C98.2312 72.7545 96.4439 73.3848 95.5372 74.9429C95.6177 74.7397 95.6389 74.5491 95.7195 74.3459C95.9144 73.8081 96.1475 73.4483 96.6304 73.0969C98.0324 72.115 99.9973 72.3147 101.86 73.7763C103.723 75.238 105.153 78.1562 104.598 80.1972C104.415 80.7942 104.03 81.3107 103.437 81.4376C102.607 81.6151 101.73 80.9966 100.994 80.1621C100.753 79.9036 100.515 79.9544 100.363 80.111C100.117 80.4116 100.113 80.9706 100.227 81.5042C100.726 83.2576 102.089 84.7021 103.453 85.2785C105.354 86.0499 107.141 85.4196 108.06 83.9208Z" fill="#66B700"/>
<path d="M104.844 81.2626C105.212 80.9138 105.443 80.4691 105.57 79.9821C105.528 80.5388 105.388 81.0289 105.172 81.4085C104.812 82.0447 104.25 82.3734 103.489 82.2527C102.975 82.1639 102.436 81.8712 101.931 81.316L101.929 81.3147C101.236 80.5592 101.014 79.5767 101.045 78.6628L101.046 78.6509L101.046 78.639C101.042 78.3523 100.928 78.1141 100.803 77.935C100.679 77.7573 100.526 77.6115 100.4 77.502L100.356 77.4636L100.304 77.4365C99.6829 77.1097 99.0557 77.2527 98.6076 77.6109L98.591 77.6242L98.5756 77.6388C98.2081 77.9876 97.9772 78.4323 97.8504 78.9193C97.8923 78.3626 98.0323 77.8725 98.2476 77.4929C98.6084 76.8567 99.1703 76.528 99.9314 76.6487C100.445 76.7375 100.984 77.0302 101.489 77.5854L101.491 77.5867C102.184 78.3422 102.406 79.3247 102.375 80.2386L102.374 80.2505L102.374 80.2624C102.378 80.5491 102.492 80.7873 102.617 80.9664C102.741 81.1441 102.894 81.2899 103.02 81.3994L103.064 81.4378L103.116 81.4649C103.737 81.7917 104.364 81.6487 104.812 81.2905L104.829 81.2772L104.844 81.2626Z" fill="#66B700" stroke="#66B700"/>
<path d="M105.442 74.8701C105.684 75.1285 105.95 75.5055 106.132 75.7766C106.509 76.378 106.729 76.827 106.915 77.4072C107.672 79.7874 107.574 82.2266 106.354 83.4797C105.147 84.792 102.801 84.5498 101.167 82.4192C100.646 81.7245 100.303 80.9918 100.185 80.149C100.063 78.9971 100.554 78.3959 101.215 78.0066C101.427 77.8373 101.363 77.5408 101.241 77.257C101.008 76.7488 100.551 76.3505 100.132 76.1302C98.6962 75.5072 97.5399 76.1886 97.0694 77.4673C96.4039 79.2838 96.9027 81.9053 98.1088 84.0654C97.9395 83.8536 97.7829 83.7011 97.6602 83.4173C97.2242 82.8286 96.9068 82.2144 96.6106 81.4097C95.8535 79.0295 95.9771 76.7089 97.1844 75.3965C98.3918 74.0842 100.738 74.3264 102.372 76.4571C102.892 77.1517 103.235 77.8845 103.353 78.7272C103.476 79.8791 102.984 80.4803 102.324 80.8697C102.112 81.039 102.175 81.3354 102.298 81.6192C102.531 82.1275 102.988 82.5257 103.407 82.746C104.842 83.3691 105.999 82.6877 106.469 81.4089C107.147 79.6517 106.649 77.0302 105.442 74.8701Z" fill="#645E9D"/>
</g>
<g filter="url(#filter10_d)">
<path d="M202.115 52.3806C200.947 52.2008 199.689 51.9312 198.701 51.6616C196.454 50.9427 195.106 50.2239 193.309 49.1455C186.21 44.3828 180.728 37.1938 180.009 30.3642C179.29 23.5347 184.323 18.0531 192.41 19.7605C194.926 20.2996 197.532 21.5577 199.689 23.6246C202.655 26.5002 203.194 29.6453 202.744 32.4311C202.744 33.3297 203.463 34.1385 204.452 34.7675C206.159 35.5763 207.956 35.4864 209.304 34.9472C213.528 32.9703 214.067 27.8481 211.91 22.9955C208.945 16.0761 201.756 9.96546 194.297 7C195.196 7.17972 195.735 7.26959 196.634 7.53918C198.88 8.16821 200.767 8.97697 203.284 10.5046C210.383 15.2673 215.595 22.1868 216.404 29.0163C217.122 35.8459 212.09 41.3275 204.003 39.6201C201.486 39.0809 198.88 37.8228 196.724 35.756C193.758 32.8804 193.219 29.7352 193.668 26.9495C193.668 26.0508 192.949 25.2421 191.961 24.613C190.254 23.8043 188.456 23.8941 187.108 24.4333C182.885 26.4103 182.346 31.5325 184.502 36.385C187.468 43.3044 194.657 49.4151 202.115 52.3806Z" fill="#66B700" fill-opacity="0.4"/>
<path d="M178.122 37.1938C177.403 36.2053 176.594 35.1269 176.145 34.2283C175.067 32.2514 174.707 30.9933 174.438 29.2859C173.629 22.5462 176.505 16.6153 182.975 14.7282C189.445 12.8411 199.06 15.9862 203.913 22.9955C205.35 25.2421 206.159 27.5785 205.8 29.7352C205.261 32.7007 202.475 33.779 199.24 33.9587C198.251 34.1385 198.072 34.8574 198.251 35.756C198.79 37.3735 200.318 38.8113 201.936 39.7998C207.417 42.945 212.989 42.4058 216.314 39.7998C220.986 36.0256 221.436 28.9264 218.47 22.1868C219.01 22.9955 219.369 23.4448 219.818 24.2536C220.986 26.2306 221.705 27.938 222.155 30.3642C222.963 37.1039 220.088 42.7653 213.618 44.6524C207.148 46.5395 197.532 43.3943 192.68 36.385C191.242 34.1385 190.433 31.802 190.793 29.6453C191.332 26.6799 194.118 25.6015 197.353 25.4218C198.341 25.2421 198.521 24.5232 198.341 23.6246C197.802 22.007 196.274 20.5692 194.657 19.5807C189.175 16.4356 183.604 16.9747 180.279 19.5807C175.606 23.355 175.157 30.4541 178.122 37.1938Z" fill="#66B700"/>
<path d="M223.323 41.6869C223.143 42.5855 222.874 43.574 222.514 44.203C221.705 45.7307 220.897 46.4496 219.639 47.2584C214.337 50.4036 206.249 50.4036 198.701 46.3597C191.152 42.3159 185.042 34.1385 187.108 28.0278C187.737 26.1407 189.175 24.7029 191.512 24.1637C194.747 23.4448 198.161 25.1522 201.307 27.3988C202.295 28.0278 203.194 27.9379 203.913 27.4886C204.901 26.5001 204.811 24.8826 204.182 23.355C202.026 18.2328 196.364 14.2788 190.972 12.841C183.244 10.7742 176.415 13.0208 173 17.6936C173.18 16.9747 173.27 16.5254 173.539 15.8964C174.258 14.2788 175.157 13.1106 176.954 11.9424C182.256 8.79723 190.074 8.88709 197.712 12.9309C205.35 16.9747 211.371 25.1522 209.304 31.2629C208.675 33.15 207.238 34.5878 204.901 35.1269C201.666 35.8458 198.251 34.1385 195.106 31.8919C194.118 31.2629 193.219 31.3527 192.5 31.802C191.512 32.7905 191.602 34.408 192.231 35.9357C194.387 41.0579 200.049 45.0118 205.44 46.4496C213.079 48.6063 219.908 46.3597 223.323 41.6869Z" fill="#645E9D"/>
</g>
<g filter="url(#filter11_d)">
<path d="M164.5 62C165.881 62 167 60.8807 167 59.5C167 58.1193 165.881 57 164.5 57C163.119 57 162 58.1193 162 59.5C162 60.8807 163.119 62 164.5 62Z" fill="#66B700"/>
</g>
<ellipse cx="105.462" cy="33.4825" rx="1.19333" ry="1.5911" transform="rotate(28.0665 105.462 33.4825)" fill="white"/>
<ellipse cx="204.122" cy="29.5972" rx="1.4756" ry="2.25445" transform="rotate(120.795 204.122 29.5972)" fill="white"/>
<ellipse cx="205.049" cy="108.038" rx="1.34137" ry="2.80496" transform="rotate(61.2065 205.049 108.038)" fill="white"/>
<ellipse cx="157.489" cy="3.29622" rx="1.32209" ry="0.770841" transform="rotate(-15.0557 157.489 3.29622)" fill="white"/>
<circle cx="128.5" cy="114.5" r="1.5" fill="white"/>
<ellipse rx="1.40237" ry="1.38736" transform="matrix(0.952541 -0.30441 -0.30441 -0.952541 191.536 70.7897)" fill="white"/>
<ellipse rx="1.06908" ry="0.833321" transform="matrix(0.386194 -0.922418 -0.922418 -0.386194 130.596 48.6168)" fill="white"/>
<ellipse rx="1.06908" ry="0.747477" transform="matrix(0.912045 0.410091 0.410091 -0.912045 145.352 90.1202)" fill="white"/>
<ellipse rx="0.822069" ry="0.650239" transform="matrix(0.49926 -0.866452 -0.866452 -0.49926 101.786 79.404)" fill="white"/>
</g>
<defs>
<filter id="filter0_d" x="86" y="-13" width="146" height="146" filterUnits="userSpaceOnUse" color-interpolation-filters="sRGB">
<feFlood flood-opacity="0" result="BackgroundImageFix"/>
<feColorMatrix in="SourceAlpha" type="matrix" values="0 0 0 0 0 0 0 0 0 0 0 0 0 0 0 0 0 0 127 0"/>
<feOffset/>
<feGaussianBlur stdDeviation="6"/>
<feColorMatrix type="matrix" values="0 0 0 0 0 0 0 0 0 0 0 0 0 0 0 0 0 0 0.06 0"/>
<feBlend mode="normal" in2="BackgroundImageFix" result="effect1_dropShadow"/>
<feBlend mode="normal" in="SourceGraphic" in2="effect1_dropShadow" result="shape"/>
</filter>
<filter id="filter1_d" x="75.4175" y="0.484375" width="60.009" height="66.0856" filterUnits="userSpaceOnUse" color-interpolation-filters="sRGB">
<feFlood flood-opacity="0" result="BackgroundImageFix"/>
<feColorMatrix in="SourceAlpha" type="matrix" values="0 0 0 0 0 0 0 0 0 0 0 0 0 0 0 0 0 0 127 0"/>
<feOffset/>
<feGaussianBlur stdDeviation="6"/>
<feColorMatrix type="matrix" values="0 0 0 0 0 0 0 0 0 0 0 0 0 0 0 0 0 0 0.06 0"/>
<feBlend mode="normal" in2="BackgroundImageFix" result="effect1_dropShadow"/>
<feBlend mode="normal" in="SourceGraphic" in2="effect1_dropShadow" result="shape"/>
</filter>
<filter id="filter2_d" x="150" y="45" width="29" height="93" filterUnits="userSpaceOnUse" color-interpolation-filters="sRGB">
<feFlood flood-opacity="0" result="BackgroundImageFix"/>
<feColorMatrix in="SourceAlpha" type="matrix" values="0 0 0 0 0 0 0 0 0 0 0 0 0 0 0 0 0 0 127 0"/>
<feOffset/>
<feGaussianBlur stdDeviation="6"/>
<feColorMatrix type="matrix" values="0 0 0 0 0 0 0 0 0 0 0 0 0 0 0 0 0 0 0.06 0"/>
<feBlend mode="normal" in2="BackgroundImageFix" result="effect1_dropShadow"/>
<feBlend mode="normal" in="SourceGraphic" in2="effect1_dropShadow" result="shape"/>
</filter>
<filter id="filter3_d" x="126.549" y="-19.3162" width="60.0257" height="45.6837" filterUnits="userSpaceOnUse" color-interpolation-filters="sRGB">
<feFlood flood-opacity="0" result="BackgroundImageFix"/>
<feColorMatrix in="SourceAlpha" type="matrix" values="0 0 0 0 0 0 0 0 0 0 0 0 0 0 0 0 0 0 127 0"/>
<feOffset/>
<feGaussianBlur stdDeviation="6"/>
<feColorMatrix type="matrix" values="0 0 0 0 0 0 0 0 0 0 0 0 0 0 0 0 0 0 0.06 0"/>
<feBlend mode="normal" in2="BackgroundImageFix" result="effect1_dropShadow"/>
<feBlend mode="normal" in="SourceGraphic" in2="effect1_dropShadow" result="shape"/>
</filter>
<filter id="filter4_d" x="163.923" y="74.6562" width="83.8524" height="66.2409" filterUnits="userSpaceOnUse" color-interpolation-filters="sRGB">
<feFlood flood-opacity="0" result="BackgroundImageFix"/>
<feColorMatrix in="SourceAlpha" type="matrix" values="0 0 0 0 0 0 0 0 0 0 0 0 0 0 0 0 0 0 127 0"/>
<feOffset/>
<feGaussianBlur stdDeviation="6"/>
<feColorMatrix type="matrix" values="0 0 0 0 0 0 0 0 0 0 0 0 0 0 0 0 0 0 0.06 0"/>
<feBlend mode="normal" in2="BackgroundImageFix" result="effect1_dropShadow"/>
<feBlend mode="normal" in="SourceGraphic" in2="effect1_dropShadow" result="shape"/>
</filter>
<filter id="filter5_d" x="108.667" y="23.0291" width="44.214" height="51.048" filterUnits="userSpaceOnUse" color-interpolation-filters="sRGB">
<feFlood flood-opacity="0" result="BackgroundImageFix"/>
<feColorMatrix in="SourceAlpha" type="matrix" values="0 0 0 0 0 0 0 0 0 0 0 0 0 0 0 0 0 0 127 0"/>
<feOffset/>
<feGaussianBlur stdDeviation="6"/>
<feColorMatrix type="matrix" values="0 0 0 0 0 0 0 0 0 0 0 0 0 0 0 0 0 0 0.06 0"/>
<feBlend mode="normal" in2="BackgroundImageFix" result="effect1_dropShadow"/>
<feBlend mode="normal" in="SourceGraphic" in2="effect1_dropShadow" result="shape"/>
</filter>
<filter id="filter6_d" x="119.798" y="67.635" width="50.2016" height="44.5687" filterUnits="userSpaceOnUse" color-interpolation-filters="sRGB">
<feFlood flood-opacity="0" result="BackgroundImageFix"/>
<feColorMatrix in="SourceAlpha" type="matrix" values="0 0 0 0 0 0 0 0 0 0 0 0 0 0 0 0 0 0 127 0"/>
<feOffset/>
<feGaussianBlur stdDeviation="6"/>
<feColorMatrix type="matrix" values="0 0 0 0 0 0 0 0 0 0 0 0 0 0 0 0 0 0 0.06 0"/>
<feBlend mode="normal" in2="BackgroundImageFix" result="effect1_dropShadow"/>
<feBlend mode="normal" in="SourceGraphic" in2="effect1_dropShadow" result="shape"/>
</filter>
<filter id="filter7_d" x="101" y="88" width="54.5995" height="53.0424" filterUnits="userSpaceOnUse" color-interpolation-filters="sRGB">
<feFlood flood-opacity="0" result="BackgroundImageFix"/>
<feColorMatrix in="SourceAlpha" type="matrix" values="0 0 0 0 0 0 0 0 0 0 0 0 0 0 0 0 0 0 127 0"/>
<feOffset/>
<feGaussianBlur stdDeviation="6"/>
<feColorMatrix type="matrix" values="0 0 0 0 0 0 0 0 0 0 0 0 0 0 0 0 0 0 0.06 0"/>
<feBlend mode="normal" in2="BackgroundImageFix" result="effect1_dropShadow"/>
<feBlend mode="normal" in="SourceGraphic" in2="effect1_dropShadow" result="shape"/>
</filter>
<filter id="filter8_d" x="163.954" y="45" width="53.3086" height="52.0197" filterUnits="userSpaceOnUse" color-interpolation-filters="sRGB">
<feFlood flood-opacity="0" result="BackgroundImageFix"/>
<feColorMatrix in="SourceAlpha" type="matrix" values="0 0 0 0 0 0 0 0 0 0 0 0 0 0 0 0 0 0 127 0"/>
<feOffset/>
<feGaussianBlur stdDeviation="6"/>
<feColorMatrix type="matrix" values="0 0 0 0 0 0 0 0 0 0 0 0 0 0 0 0 0 0 0.06 0"/>
<feBlend mode="normal" in2="BackgroundImageFix" result="effect1_dropShadow"/>
<feBlend mode="normal" in="SourceGraphic" in2="effect1_dropShadow" result="shape"/>
</filter>
<filter id="filter9_d" x="83.5371" y="59.5183" width="36.5233" height="39.852" filterUnits="userSpaceOnUse" color-interpolation-filters="sRGB">
<feFlood flood-opacity="0" result="BackgroundImageFix"/>
<feColorMatrix in="SourceAlpha" type="matrix" values="0 0 0 0 0 0 0 0 0 0 0 0 0 0 0 0 0 0 127 0"/>
<feOffset/>
<feGaussianBlur stdDeviation="6"/>
<feColorMatrix type="matrix" values="0 0 0 0 0 0 0 0 0 0 0 0 0 0 0 0 0 0 0.06 0"/>
<feBlend mode="normal" in2="BackgroundImageFix" result="effect1_dropShadow"/>
<feBlend mode="normal" in="SourceGraphic" in2="effect1_dropShadow" result="shape"/>
</filter>
<filter id="filter10_d" x="161" y="-5" width="74.323" height="69.3806" filterUnits="userSpaceOnUse" color-interpolation-filters="sRGB">
<feFlood flood-opacity="0" result="BackgroundImageFix"/>
<feColorMatrix in="SourceAlpha" type="matrix" values="0 0 0 0 0 0 0 0 0 0 0 0 0 0 0 0 0 0 127 0"/>
<feOffset/>
<feGaussianBlur stdDeviation="6"/>
<feColorMatrix type="matrix" values="0 0 0 0 0 0 0 0 0 0 0 0 0 0 0 0 0 0 0.06 0"/>
<feBlend mode="normal" in2="BackgroundImageFix" result="effect1_dropShadow"/>
<feBlend mode="normal" in="SourceGraphic" in2="effect1_dropShadow" result="shape"/>
</filter>
<filter id="filter11_d" x="158" y="53" width="13" height="13" filterUnits="userSpaceOnUse" color-interpolation-filters="sRGB">
<feFlood flood-opacity="0" result="BackgroundImageFix"/>
<feColorMatrix in="SourceAlpha" type="matrix" values="0 0 0 0 0 0 0 0 0 0 0 0 0 0 0 0 0 0 127 0"/>
<feOffset/>
<feGaussianBlur stdDeviation="2"/>
<feColorMatrix type="matrix" values="0 0 0 0 0 0 0 0 0 0 0 0 0 0 0 0 0 0 0.06 0"/>
<feBlend mode="normal" in2="BackgroundImageFix" result="effect1_dropShadow"/>
<feBlend mode="normal" in="SourceGraphic" in2="effect1_dropShadow" result="shape"/>
</filter>
</defs>
</svg>
