<svg width="73" height="57" viewBox="0 0 73 57" fill="none" xmlns="http://www.w3.org/2000/svg">
<path d="M1.38306 44.0807L1.47155 44.5656L1.56358 44.5482C2.1925 46.9466 3.64133 49.1507 5.74242 50.9056C7.84352 52.6605 10.511 53.8943 13.4362 54.4645C16.3615 55.0346 19.4249 54.9177 22.272 54.1273C25.1192 53.3369 27.6337 51.9052 29.5246 49.998C31.4156 48.0908 32.6056 45.786 32.9571 43.3502C33.3086 40.9145 32.8072 38.4473 31.5109 36.2343C30.2146 34.0212 28.1763 32.1527 25.6319 30.8449C23.0876 29.5371 20.1411 28.8435 17.1335 28.8443C16.3442 28.8443 15.5868 28.9424 14.8329 29.0319C15.0771 28.3623 15.3284 27.6811 15.7319 27.0693C16.1354 26.1803 16.7654 25.4097 17.3919 24.6333C17.9157 23.7934 18.8395 23.2248 19.5191 22.5061C20.2305 21.8077 21.2003 21.343 21.9684 20.7629C22.7223 20.1568 23.7098 19.8537 24.4955 19.4265C25.3167 19.0427 26.0316 18.6184 26.7962 18.4164L28.7039 17.7756L30.3816 17.207L28.6685 11.6106L26.5555 12.0263C25.8794 12.1648 25.0548 12.3264 24.1168 12.5198C23.1576 12.6641 22.1347 13.0595 20.995 13.4203C19.873 13.833 18.567 14.1072 17.3565 14.7682C16.1389 15.3974 14.7338 15.9227 13.495 16.7654C12.2951 17.6342 10.8475 18.3875 9.77859 19.49C8.61058 20.5233 7.45673 21.6085 6.56125 22.8438C5.52419 24.0214 4.81985 25.3144 4.07657 26.593C3.40408 27.8716 2.86255 29.1791 2.42012 30.449C1.58128 32.9947 1.20609 35.4133 1.06097 37.4828C0.940636 39.5551 1.01142 41.2781 1.16008 42.525C1.20982 43.0457 1.2842 43.5646 1.38306 44.0807ZM40.3168 44.0807L40.4052 44.5656L40.4973 44.5482C41.1262 46.9466 42.575 49.1507 44.6761 50.9056C46.7772 52.6605 49.4447 53.8943 52.3699 54.4645C55.2952 55.0346 58.3586 54.9177 61.2057 54.1273C64.0529 53.3369 66.5674 51.9052 68.4583 49.998C70.3493 48.0908 71.5393 45.786 71.8908 43.3502C72.2423 40.9145 71.7409 38.4473 70.4446 36.2343C69.1483 34.0212 67.11 32.1527 64.5656 30.8449C62.0213 29.5371 59.0748 28.8435 56.0672 28.8443C55.2779 28.8443 54.5205 28.9424 53.7666 29.0319C54.0108 28.3623 54.2621 27.6811 54.6656 27.0693C55.0691 26.1803 55.6991 25.4097 56.3256 24.6333C56.8494 23.7934 57.7732 23.2248 58.4528 22.5061C59.1642 21.8077 60.134 21.343 60.9021 20.7629C61.656 20.1568 62.6435 19.8537 63.4292 19.4265C64.2504 19.0427 64.9653 18.6184 65.7298 18.4164L67.6376 17.7756C68.703 17.4206 69.3117 17.2128 69.3117 17.2128L67.5987 11.6164L65.4856 12.032C64.8096 12.1706 63.9849 12.3322 63.047 12.5256C62.0878 12.6699 61.0649 13.0653 59.9252 13.4261C58.8032 13.8388 57.4971 14.113 56.2867 14.7739C55.0691 15.4031 53.6639 15.9284 52.4251 16.7712C51.2253 17.64 49.7776 18.3933 48.7087 19.4958C47.5407 20.5291 46.3869 21.6143 45.4914 22.8496C44.4544 24.0272 43.75 25.3202 43.0067 26.5988C42.3342 27.8774 41.7927 29.1849 41.3503 30.4548C40.5114 33.0005 40.1363 35.4191 39.9911 37.4885C39.8708 39.5608 39.9416 41.2839 40.0902 42.5308C40.1431 43.0494 40.2186 43.5664 40.3168 44.0807Z" fill="#E7E3F8"/>
</svg>
