<svg width="120" height="120" viewBox="0 0 120 120" fill="none" xmlns="http://www.w3.org/2000/svg">
<path d="M60.5 110V60H110.5C110.5 68.8 107.833 76 106.5 78.5C105 75.6667 99.7 70 90.5 70C79 70 70.5 79.5 70.5 90C70.5 100.5 76 104 78.5 106.5C70.9 110.1 63.3333 110.333 60.5 110Z" fill="#66B700"/>
<path d="M20.5 49.5V10H27.5V16.5H34V23H40.5V30H47.5V37H53.5V49.5H20.5Z" fill="#DCDCDC"/>
<path d="M112 60C112 31.3279 88.8964 8 60.5 8C51.5971 8 42.9235 10.3283 35.2334 14.7097H28.9355V8H18.9677V29.2814C12.4555 38.2388 9 48.8401 9 60C9 88.6738 32.1036 112 60.5 112C66.8279 112 73.0045 110.851 78.8606 108.593C82.2031 110.739 86.157 112 90.4032 112C95.0313 112 99.524 110.499 103.223 107.744C103.958 107.197 104.031 106.145 103.436 105.448C102.832 104.742 101.772 104.671 101.019 105.214C97.9346 107.437 94.2244 108.645 90.4032 108.645C80.3275 108.645 72.129 100.367 72.129 90.1935C72.129 80.02 80.3275 71.7419 90.4032 71.7419C100.479 71.7419 108.677 80.02 108.677 90.1935C108.677 93.8886 107.626 97.3911 105.621 100.417C105.115 101.18 105.221 102.217 105.931 102.794C106.651 103.379 107.716 103.267 108.235 102.499C110.673 98.8915 112 94.5833 112 90.1935C112 85.9027 110.749 81.9104 108.623 78.5338C110.857 72.6192 112 66.3893 112 60ZM35.5806 24.7742H38.9032V28.129V48.2581H35.5806V24.7742ZM28.9355 18.0645H32.2581V21.4194V48.2581H28.9355V18.0645ZM22.2903 11.3548H25.6129V14.7097V48.2581H22.2903V11.3548ZM58.8387 108.603C33.5937 107.733 13.2263 87.1675 12.3641 61.6774H58.8387V108.603ZM58.8387 58.3226H12.389C12.6598 50.1569 14.9059 42.3535 18.9677 35.3973V51.6129H25.6129H28.9355H32.2581H35.5806H38.9032H42.2258H45.5484H48.871H55.5161V34.8387H48.871V28.129H42.2258V21.4194H35.5806V18.3866C42.6096 14.0857 50.597 11.6987 58.8387 11.4135V58.3226ZM42.2258 48.2581V31.4839H45.5484V34.8387V48.2581H42.2258ZM48.871 48.2581V38.1935H52.1935V48.2581H48.871ZM108.636 58.3226H94.4136L106.631 45.9868C107.804 49.9137 108.491 54.0485 108.636 58.3226ZM100.265 32.5742L82.8729 50.1348C82.2287 50.7853 82.2287 51.8333 82.8729 52.4838C83.526 53.1432 84.5916 53.1432 85.2446 52.4838L102.084 35.4812C103.373 37.7021 104.491 40.0337 105.425 42.4609L89.7154 58.3226H79.462L80.4468 57.3282C81.091 56.6777 81.091 55.6297 80.4468 54.9792C79.7937 54.3198 78.7281 54.3198 78.0751 54.9792L74.7638 58.3226H64.5104L95.6978 26.8324C97.3557 28.6272 98.8858 30.5428 100.265 32.5742ZM62.1613 11.3968C66.3943 11.5427 70.4893 12.2372 74.3784 13.4214L62.1613 25.7572V11.3968ZM62.1613 45.5977L81.1878 26.3865C81.832 25.736 81.832 24.688 81.1878 24.0375C80.5347 23.3781 79.4691 23.3781 78.816 24.0375L62.1613 40.8539V30.5009L77.8705 14.6392C80.2743 15.5803 82.5835 16.7092 84.7831 18.0125L83.2699 19.5404C82.6257 20.1908 82.6257 21.2388 83.2699 21.8893C83.923 22.5487 84.9886 22.5487 85.6417 21.8893L87.6621 19.8493C89.6739 21.2415 91.5711 22.7848 93.3487 24.4605L62.1613 55.9507V45.5977ZM90.4032 68.3871C78.4951 68.3871 68.8064 78.1698 68.8064 90.1935C68.8064 96.5023 71.4894 102.175 75.744 106.161C71.3665 107.635 66.8129 108.449 62.1613 108.607V61.6774H108.639C108.483 66.3725 107.671 70.967 106.212 75.387C102.265 71.0928 96.648 68.3871 90.4032 68.3871Z" fill="#5C5C5C"/>
<path d="M48.1902 70.064L30.6039 87.821C29.9551 88.476 29.9551 89.5381 30.6039 90.1932C31.2527 90.8482 32.3045 90.8482 32.9533 90.1932L50.5396 72.4362C51.1883 71.7811 51.1883 70.719 50.5396 70.064C49.8908 69.4089 48.8389 69.4089 48.1902 70.064Z" fill="#5C5C5C"/>
<path d="M47.2097 81.8064C44.4619 81.8064 42.2258 84.0642 42.2258 86.8387C42.2258 89.6131 44.4619 91.8709 47.2097 91.8709C49.9575 91.8709 52.1936 89.6131 52.1936 86.8387C52.1936 84.0642 49.9575 81.8064 47.2097 81.8064ZM47.2097 88.5161C46.2943 88.5161 45.5484 87.7646 45.5484 86.8387C45.5484 85.9127 46.2943 85.1612 47.2097 85.1612C48.1251 85.1612 48.871 85.9127 48.871 86.8387C48.871 87.7646 48.1251 88.5161 47.2097 88.5161Z" fill="#5C5C5C"/>
<path d="M33.9194 68.3872C31.1716 68.3872 28.9355 70.645 28.9355 73.4195C28.9355 76.1939 31.1716 78.4517 33.9194 78.4517C36.6672 78.4517 38.9033 76.1939 38.9033 73.4195C38.9033 70.645 36.6672 68.3872 33.9194 68.3872ZM33.9194 75.0969C33.004 75.0969 32.2581 74.3454 32.2581 73.4195C32.2581 72.4935 33.004 71.742 33.9194 71.742C34.8348 71.742 35.5807 72.4935 35.5807 73.4195C35.5807 74.3454 34.8348 75.0969 33.9194 75.0969Z" fill="#5C5C5C"/>
<path d="M90.4032 88.516C88.5708 88.516 87.0806 87.0114 87.0806 85.1612C87.0806 83.311 88.5708 81.8064 90.4032 81.8064C91.6641 81.8064 92.7629 82.5188 93.3257 83.566C93.7601 84.3742 94.4696 85.1612 95.3871 85.1612C96.3046 85.1612 97.0697 84.406 96.8451 83.5164C96.2494 81.1559 94.4014 79.3029 92.0645 78.6897V76.758C92.0645 75.8405 91.3207 75.0967 90.4032 75.0967C89.4857 75.0967 88.7419 75.8405 88.7419 76.758V78.6897C85.8845 79.4395 83.7581 82.0429 83.7581 85.1612C83.7581 88.8616 86.7384 91.8709 90.4032 91.8709C92.2356 91.8709 93.7258 93.3755 93.7258 95.2257C93.7258 97.0759 92.2356 98.5806 90.4032 98.5806C89.1423 98.5806 88.0435 97.8681 87.4807 96.8209C87.0464 96.0128 86.3369 95.2257 85.4193 95.2257C84.5018 95.2257 83.7368 95.9809 83.9613 96.8705C84.557 99.231 86.405 101.084 88.7419 101.697V103.629C88.7419 104.546 89.4857 105.29 90.4032 105.29C91.3207 105.29 92.0645 104.546 92.0645 103.629V101.697C94.9219 100.947 97.0484 98.3441 97.0484 95.2257C97.0484 91.5253 94.068 88.516 90.4032 88.516Z" fill="#5C5C5C"/>
<path d="M102.032 90.1935C102.032 91.111 102.776 91.8709 103.694 91.8709C104.611 91.8709 105.355 91.111 105.355 90.1935C105.355 89.276 104.611 88.5161 103.694 88.5161C102.776 88.5161 102.032 89.276 102.032 90.1935Z" fill="#5C5C5C"/>
<path d="M75.4517 90.1935C75.4517 91.111 76.1954 91.8709 77.113 91.8709C78.0305 91.8709 78.7742 91.111 78.7742 90.1935C78.7742 89.276 78.0305 88.5161 77.113 88.5161C76.1954 88.5161 75.4517 89.276 75.4517 90.1935Z" fill="#5C5C5C"/>
</svg>
