<svg width="120" height="120" viewBox="0 0 120 120" fill="none" xmlns="http://www.w3.org/2000/svg">
<path fill-rule="evenodd" clip-rule="evenodd" d="M8 24.5V66.5L9.5 69H14.5L17 67V51H23L33 68.5H40.5L42.5 67.5V66.5L34 50C36.6667 48.8333 42 44.8 42 38C42 29.5 35.5 24 29.5 24H10.5L8 24.5ZM16.5 31.5V43.5H27C29 43.1667 33 41.4 33 37C33 32.6 29 31.1667 27 31H16.5V31.5Z" fill="#A2D906"/>
<path d="M16.7998 45.6438H26.6999C31.1732 45.6438 34.8004 42.0175 34.8004 37.5433C34.8004 33.0699 31.1732 29.4436 26.6999 29.4436H16.7998C15.8061 29.4436 15.0002 30.2495 15.0002 31.244V43.8434C15.0002 44.8379 15.8061 45.6438 16.7998 45.6438ZM18.6002 33.0435H26.6999C29.185 33.0435 31.1996 35.0582 31.1996 37.5433C31.1996 40.0292 29.185 42.0438 26.6999 42.0438H18.6002V33.0435Z" fill="#5C5C5C"/>
<path d="M9.59995 70.8434H15.0003C16.9869 70.8418 18.5977 69.2309 18.6002 67.2435V52.8437H22.2405L30.9063 68.9508C31.5333 70.1175 32.7512 70.8442 34.0761 70.8434H40.7874C42.0538 70.8434 43.228 70.1777 43.8773 69.0892C44.5274 68.0015 44.5571 66.6527 43.9564 65.537L36.0479 50.8456C37.241 50.1633 38.3385 49.327 39.3125 48.3563C42.4452 45.2236 44.0685 40.8878 43.7628 36.468C43.041 28.3313 36.1665 22.1292 27.9993 22.2437H9.59995C7.61252 22.2462 6.00247 23.8563 6 25.8437V67.2435C6.00247 69.2309 7.61252 70.8418 9.59995 70.8434ZM9.59995 25.8437H27.9993C34.2755 25.725 39.5827 30.4654 40.1702 36.716C40.4059 40.0976 39.1642 43.415 36.7672 45.8111C35.6581 46.9168 34.3423 47.7927 32.8945 48.3893C32.4224 48.5821 32.0541 48.9669 31.8819 49.4473C31.7097 49.9276 31.7492 50.4591 31.9915 50.9082L40.7956 67.2435H34.0761L24.902 50.1913C24.588 49.6071 23.9791 49.2437 23.3158 49.2437H16.7998C15.8061 49.2437 15.0003 50.0496 15.0003 51.0433V67.2435H9.59995V25.8437Z" fill="#5C5C5C"/>
<path d="M42.0003 76.2439C40.0129 76.2464 38.402 77.8564 38.4004 79.8438V96.044C38.4004 97.0377 39.2062 97.8436 40.2 97.8436H52.8002C53.7939 97.8436 54.5997 97.0377 54.5997 96.044V79.8438C54.5981 77.8564 52.9872 76.2464 50.9998 76.2439H42.0003ZM42.0003 94.2436V79.8438H50.9998V94.2436H42.0003Z" fill="#5C5C5C"/>
<path d="M61.8004 58.2441C59.8129 58.2458 58.2021 59.8567 58.1996 61.8441V96.044C58.1996 97.0377 59.0063 97.8435 60 97.8435H72.6002C73.5939 97.8435 74.3998 97.0377 74.3998 96.044V61.8441C74.3973 59.8567 72.7872 58.2458 70.7998 58.2441H61.8004ZM61.8004 94.2436V61.8441H70.7998V94.2436H61.8004Z" fill="#5C5C5C"/>
<path d="M79.8001 97.8436H92.4004C93.3941 97.8436 94.1999 97.0378 94.1999 96.044V43.8436C94.1974 41.8562 92.5874 40.2461 90.6 40.2437H81.5997C79.6131 40.2461 78.0022 41.8562 77.9998 43.8436V96.044C77.9998 97.0378 78.8056 97.8436 79.8001 97.8436ZM81.5997 43.8436H90.6V94.2437H81.5997V43.8436Z" fill="#5C5C5C"/>
<path d="M99.6002 97.8436H112.2C113.194 97.8436 114 97.0377 114 96.044V25.8438C113.998 23.8564 112.387 22.2464 110.4 22.2439H101.4C99.4123 22.2464 97.8023 23.8564 97.7998 25.8438V96.044C97.7998 97.0377 98.6057 97.8436 99.6002 97.8436ZM101.4 25.8438H110.4V94.2436H101.4V25.8438Z" fill="#5C5C5C"/>
</svg>
