<svg width="120" height="120" viewBox="0 0 120 120" fill="none" xmlns="http://www.w3.org/2000/svg">
<circle cx="32" cy="102" r="4" fill="#66B700"/>
<path d="M106.729 63.4221C101.812 58.4815 96.128 63.1057 96.128 63.1057V37.0968C96.128 36.2233 95.4268 35.5147 94.5615 35.5147C93.6953 35.5147 92.9941 36.2233 92.9941 37.0968V65.3312C92.9941 65.3312 85.5204 71.2779 82.3081 72.7314V25.9013C82.3081 23.7244 84.0624 21.9537 86.2192 21.9537H89.0829C91.2397 21.9537 92.9941 23.7244 92.9941 25.9013V30.6203C92.9941 31.4945 93.6953 32.2023 94.5615 32.2023C95.4268 32.2023 96.128 31.4945 96.128 30.6203V25.9013C96.128 21.98 92.968 18.7904 89.0829 18.7904H86.2192C82.3342 18.7904 79.1733 21.98 79.1733 25.9013V73.9855C78.2385 74.25 77.2793 74.4296 76.3046 74.5244V41.1722C76.3046 37.2311 73.1282 34.025 69.2244 34.025H66.43C62.5263 34.025 59.3498 37.2311 59.3498 41.1722V57.2908L56.4804 58.8284V53.4643C56.4804 49.9162 53.6207 47.0298 50.1063 47.0298H45.9005C42.3853 47.0298 39.5264 49.9162 39.5264 53.4643V67.9119L34.4087 70.6533L20.0377 74.7988C17.5372 75.5197 15.449 77.1726 14.1592 79.4518C12.8685 81.7317 12.5183 84.3866 13.173 86.9269L14.7804 93.1694C14.9975 94.0148 15.8531 94.5215 16.6915 94.3024C17.529 94.0824 18.0319 93.2188 17.814 92.3726L16.2066 86.131C15.2743 82.5104 17.3356 78.8684 20.8998 77.8409L34.0389 74.0506L43.9143 100.654C44.5755 102.435 44.471 107.517 39.2472 109.39L29.318 111.667C25.8575 112.46 22.4476 110.366 21.5545 106.899L19.5389 99.0699C19.3209 98.2245 18.4654 97.7169 17.6278 97.9361C16.7894 98.1561 16.2874 99.0196 16.5045 99.8659L18.5209 107.695C19.654 112.094 23.5251 115 27.8347 115C31.0013 115 39.9419 112.475 39.9419 112.475C42.6628 111.852 44.9829 110.072 46.3062 107.594C47.3985 105.549 47.7226 103.196 47.254 100.954L81.606 92.4649C84.4469 91.762 87.1441 90.4 89.4038 88.5254L106.121 74.6612C111.217 70.0988 108.228 64.9275 106.729 63.4221ZM66.43 37.189H69.2244C71.4 37.189 73.1698 38.9763 73.1698 41.1722V74.6035L63.2798 74.5994C62.3712 74.5911 62.9997 73.9855 63.0495 73.9443L65.8978 71.6157C68.555 69.4429 70.2906 66.4222 71.0555 62.636C71.5412 60.2341 70.6334 57.8297 68.6881 56.3614C66.8709 54.9903 64.5337 54.7266 62.4846 55.633V41.1722C62.4846 38.9763 64.2545 37.189 66.43 37.189ZM42.6612 53.4643C42.6612 51.6614 44.1143 50.1939 45.9005 50.1939H50.1063C51.8925 50.1939 53.3464 51.6614 53.3464 53.4643V60.5077L42.6604 66.2327V53.4643H42.6612ZM104.132 72.2172L87.4135 86.0815C85.5147 87.657 83.2485 88.8015 80.8607 89.3914L46.2556 97.9435L36.9492 72.8756L63.5214 58.6389C64.6014 58.0596 65.8317 58.156 66.8105 58.8951C67.7893 59.6342 68.2285 60.7961 67.9844 62.004C67.368 65.0519 66.0023 67.4588 63.9247 69.157L61.0764 71.4864C59.909 72.4405 59.4788 73.9805 59.9801 75.4102C60.4813 76.8389 61.776 77.7634 63.2781 77.7634L74.698 77.7684H74.7062C78.7716 77.7684 82.6787 76.5209 86.0045 74.1602L98.7673 65.1013C100.554 63.8324 102.96 64.0565 104.487 65.6336C105.366 66.54 107.087 69.2336 104.132 72.2172Z" fill="#5C5C5C"/>
<path d="M14 52L20 45L40.5 24.5H43.5L50 28L62.5 15H61.5H59L56 14.5L55.5 13L55 11L56.5 9.5L58 8.5H72.5L74 10V23.5V26.5L73 28H70.5L69 27L68 25L67.5 20L51.5 35H49.5L43 32L18.5 56.5L15 56L14 52Z" fill="#A2D906"/>
<path d="M37.9116 101.667C37.9116 98.2302 35.1418 95.4336 31.7368 95.4336C28.3318 95.4336 25.5619 98.2302 25.5619 101.667C25.5619 105.103 28.3318 107.9 31.7368 107.9C35.1418 107.9 37.9116 105.103 37.9116 101.667ZM28.6967 101.667C28.6967 99.9745 30.06 98.5977 31.7368 98.5977C33.4127 98.5977 34.7768 99.9745 34.7768 101.667C34.7768 103.359 33.4135 104.736 31.7368 104.736C30.06 104.736 28.6967 103.359 28.6967 101.667Z" fill="#5C5C5C"/>
<path d="M20.4654 56.672L43.2497 33.4975L48.3748 36.173C50.2108 37.1313 52.4451 36.8033 53.9341 35.3564L66.3361 23.3066C66.3361 23.3066 65.9949 29.4955 71.1583 29.4955C73.8163 29.4955 75.9797 27.3119 75.9797 24.6282V11.8664C75.9797 11.8516 75.9789 11.8359 75.9789 11.8203C75.9617 8.49058 73.5494 7 71.1583 7H58.6249C55.966 7 53.8035 9.18355 53.8035 11.8664C53.8035 17.2157 59.1971 16.7328 59.1971 16.7328L49.7356 25.9252L44.5363 23.211C42.6563 22.2288 40.3909 22.5889 38.8986 24.105L13.6211 49.8156C11.7484 51.7207 11.7599 54.8081 13.6473 56.6983C14.5567 57.6088 17.6621 59.5015 20.4654 56.672ZM15.8457 52.0445L41.1232 26.3339C41.4497 26.0026 41.9738 25.4225 43.0963 26.0216L49.2932 29.2565C49.8899 29.568 50.6165 29.4617 51.1006 28.9912L64.172 16.2912C64.6324 15.8438 64.7777 15.1582 64.5385 14.56C64.2993 13.961 63.7246 13.5696 63.0846 13.5696H58.6249C57.6951 13.5696 56.9383 12.8058 56.9383 11.8664C56.9383 10.9279 57.6951 10.1641 58.6249 10.1641H71.1583C71.6195 10.1641 72.8441 10.1641 72.8441 11.8565C72.8441 11.8705 72.8449 11.8846 72.8449 11.8994V24.6282C72.8449 25.5667 72.0881 26.3306 71.1583 26.3306C70.2277 26.3306 69.4709 25.5667 69.4709 24.6282V19.5879C69.4709 18.9535 69.0954 18.38 68.5174 18.132C67.9394 17.8831 67.27 18.0084 66.817 18.4484L51.7602 33.0773C51.2394 33.5832 50.4573 33.6986 49.8156 33.3632L43.6685 30.1538C43.0604 29.8366 42.3183 29.9544 41.8358 30.4447L18.2409 54.4431C17.2123 55.4813 16.173 54.771 15.8547 54.4522C15.1951 53.7905 15.191 52.7103 15.8457 52.0445Z" fill="#5C5C5C"/>
</svg>
