<svg width="537" height="138" viewBox="0 0 537 138" fill="none" xmlns="http://www.w3.org/2000/svg">
<g clip-path="url(#clip0)">
<g opacity="0.2">
<path d="M6.28321 0C7.50349 1.31548 7.38382 3.46251 6.55436 4.51899C5.34206 6.05258 3.53157 7.55892 2.00024 8.19962C4.41686 7.91335 7.17648 8.56768 8.42866 9.63097C9.68084 10.6943 11.1164 11.8802 12.8551 11.6553C14.4662 11.444 17.3853 9.03116 18.9804 8.04285C21.7559 6.31841 24.8266 4.51899 28.2561 4.68258C31.6777 4.84616 34.9237 8.17236 33.1532 10.6806C39.1508 10.5784 44.5184 15.6904 43.7368 20.7751C47.7645 19.2551 52.0873 17.7011 56.434 18.3281C57.7659 18.519 59.05 18.9143 60.3022 19.3642C63.2054 20.4002 68.7644 22.3837 70.1362 24.6398C71.0773 26.187 70.4233 27.5365 72.6964 28.2045C77.8805 29.7313 83.1684 26.7868 88.6158 26.221C95.3472 25.5258 109.313 32.3213 110.214 32.2055C111.035 32.0964 111.729 31.6466 112.463 31.3126C115.175 30.0789 118.804 30.5628 120.957 32.4372C121.547 32.9552 122.058 33.5755 122.791 33.9367C123.717 34.3866 124.841 34.3593 125.91 34.3116C129.196 34.1753 132.482 34.039 135.776 33.9027C137.044 32.6349 138.543 32.4236 139.58 32.3554C146.216 31.8988 154.04 38.3262 161.521 35.3681C162.837 34.8501 163.986 33.9981 165.397 33.7254C168.5 33.1256 171.834 35.4703 174.753 34.373C175.877 31.6466 178.541 29.4177 181.747 28.5112C181.006 27.6047 179.283 23.89 185.488 20.2434C187.936 18.8121 192.483 18.6621 193.791 20.3798C194.915 21.8452 196.478 23.6037 198.456 23.147C200.434 22.6904 201.702 20.9591 202.037 19.2347C202.173 18.5463 202.205 17.7965 202.715 17.2444C203.194 16.7264 203.983 16.5219 204.725 16.3379L213.124 14.259C214.017 14.0341 214.942 13.816 215.859 13.9455C218.196 14.2795 219.329 16.631 221.426 17.5716C222.718 18.1441 224.242 18.1305 225.685 18.26C229.545 18.6076 233.246 20.1344 235.974 22.4995C237.066 23.447 237.752 24.7965 237.178 26.0302C235.136 30.3856 237.728 34.4752 240.233 34.7751C245.489 35.409 249.461 28.6271 254.381 30.3243C258.186 31.6329 260.148 35.4499 263.912 36.8403C269.998 39.0896 276.841 33.964 283.333 35.1227C285.814 35.5658 287.935 36.888 290.28 37.7128C295.919 39.6894 302.706 38.7284 307.93 41.4139C308.6 41.7615 309.278 42.2181 309.429 42.8725C309.573 43.4791 309.222 44.0857 309.238 44.706C309.286 46.6553 312.317 47.1597 314.454 47.8209C317.884 48.8774 325.628 52.0331 330.485 55.2844C333.54 57.3292 336.188 59.7897 339.043 62.039" stroke="white" stroke-width="2.44694" stroke-miterlimit="10" stroke-linecap="round" stroke-linejoin="round"/>
<path d="M94.1684 26.759C90.5953 26.5068 86.4879 29.1513 84.7891 31.2029" stroke="white" stroke-width="2.44694" stroke-miterlimit="10" stroke-linecap="round" stroke-linejoin="round"/>
<path d="M99.2006 28.1767C97.773 28.1426 94.9576 29.0356 93.4661 30.058C89.239 32.9481 87.3408 36.1312 85.6101 39.144" stroke="white" stroke-width="2.44694" stroke-miterlimit="10" stroke-linecap="round" stroke-linejoin="round"/>
<path d="M102.773 29.4312C98.4586 30.992 94.5426 34.1956 92.8916 36.9221" stroke="white" stroke-width="2.44694" stroke-miterlimit="10" stroke-linecap="round" stroke-linejoin="round"/>
<path d="M107.359 31.2034C103.611 32.9483 100.126 35.661 97.1187 39.4439C95.5236 41.4477 93.3941 45.1215 92.8916 47.2277" stroke="white" stroke-width="2.44694" stroke-miterlimit="10" stroke-linecap="round" stroke-linejoin="round"/>
<path d="M118.382 31.0325C112.48 31.864 106.762 38.2575 103.858 43.7104" stroke="white" stroke-width="2.44694" stroke-miterlimit="10" stroke-linecap="round" stroke-linejoin="round"/>
<path d="M121.732 33.1797C120.647 33.0979 118.382 34.3178 117.249 35.122C114.211 37.2755 112.52 39.7629 111.34 41.896" stroke="white" stroke-width="2.44694" stroke-miterlimit="10" stroke-linecap="round" stroke-linejoin="round"/>
<path d="M126.732 34.2773C123.191 35.1634 119.65 40.3094 118.126 43.4175" stroke="white" stroke-width="2.44694" stroke-miterlimit="10" stroke-linecap="round" stroke-linejoin="round"/>
<path d="M133.296 34.0049C131.119 34.7819 125.767 38.844 124.986 43.1515" stroke="white" stroke-width="2.44694" stroke-miterlimit="10" stroke-linecap="round" stroke-linejoin="round"/>
<path d="M153.651 35.7358C152.598 36.1516 151.027 37.501 150.301 38.4552C148.969 40.1931 148.179 41.5698 147.214 43.6621" stroke="white" stroke-width="2.44694" stroke-miterlimit="10" stroke-linecap="round" stroke-linejoin="round"/>
<path d="M159.129 36.0081C158.348 36.3966 157.43 37.1531 156.856 37.7529C155.468 39.2046 153.65 41.6992 153.124 43.8939" stroke="white" stroke-width="2.44694" stroke-miterlimit="10" stroke-linecap="round" stroke-linejoin="round"/>
<path d="M148.713 34.3115C145.81 35.77 143.713 39.1981 142.915 40.9905" stroke="white" stroke-width="2.44694" stroke-miterlimit="10" stroke-linecap="round" stroke-linejoin="round"/>
<path d="M256.895 35.6951C254.861 36.7651 253.968 37.9375 253.051 39.3143C252.134 40.691 251.536 42.2041 250.993 43.7173" stroke="white" stroke-width="2.44694" stroke-miterlimit="10" stroke-linecap="round" stroke-linejoin="round"/>
<path d="M265.038 37.1739C262.781 37.0445 260.5 38.8164 259.216 40.1726C257.772 41.6856 256.975 43.5938 256.448 45.4953" stroke="white" stroke-width="2.44694" stroke-miterlimit="10" stroke-linecap="round" stroke-linejoin="round"/>
<path d="M271.307 36.9017C270.573 36.8881 267.51 38.3194 265.979 40.9027C264.83 42.8385 263.674 45.2173 263.411 47.8346" stroke="white" stroke-width="2.44694" stroke-miterlimit="10" stroke-linecap="round" stroke-linejoin="round"/>
<path d="M333.773 62.2358C332.872 62.4335 332.01 62.7471 331.229 63.1697" stroke="white" stroke-width="2.44694" stroke-miterlimit="10" stroke-linecap="round" stroke-linejoin="round"/>
<path d="M334.633 64.9553C333.899 65.0576 333.189 65.3167 332.591 65.6918" stroke="white" stroke-width="2.44694" stroke-miterlimit="10" stroke-linecap="round" stroke-linejoin="round"/>
<path d="M335.927 67.6416C335.344 67.7303 334.802 67.9827 334.402 68.3511" stroke="white" stroke-width="2.44694" stroke-miterlimit="10" stroke-linecap="round" stroke-linejoin="round"/>
<path d="M215.326 13.9045C214.273 14.2589 213.332 14.7564 212.247 16.0445C210.883 17.6666 210.078 19.0773 209.168 21.2241" stroke="white" stroke-width="2.44694" stroke-miterlimit="10" stroke-linecap="round" stroke-linejoin="round"/>
<path d="M219.96 16.6372C218.811 16.5895 216.809 17.6801 215.134 20.1066C212.933 23.2965 212.096 25.1572 210.716 28.6675" stroke="white" stroke-width="2.44694" stroke-miterlimit="10" stroke-linecap="round" stroke-linejoin="round"/>
<path d="M223.038 18.0142C222.471 18.1573 220.9 19.2411 219.815 20.5362C218.332 22.3221 217.351 24.3397 216.593 26.4323" stroke="white" stroke-width="2.44694" stroke-miterlimit="10" stroke-linecap="round" stroke-linejoin="round"/>
<path d="M229.276 18.9282C228.239 19.3712 226.293 20.3458 225.065 21.5589C223.932 22.6766 223.039 23.7057 222.217 25.6412" stroke="white" stroke-width="2.44694" stroke-miterlimit="10" stroke-linecap="round" stroke-linejoin="round"/>
<path d="M235.464 22.0834C234.14 21.6677 231.819 22.1925 229.777 23.9645C227.68 25.7843 226.771 28.088 226.148 30.5826" stroke="white" stroke-width="2.44694" stroke-miterlimit="10" stroke-linecap="round" stroke-linejoin="round"/>
<path d="M237.331 24.6938C236.844 24.6392 235.464 25.2117 234.412 26.1181C233.064 27.2766 231.955 28.919 231.405 30.282" stroke="white" stroke-width="2.44694" stroke-miterlimit="10" stroke-linecap="round" stroke-linejoin="round"/>
</g>
<g opacity="0.2">
<path d="M336.65 65.0187C338.868 64.6984 341.388 64.6166 343.573 64.9846C352.793 66.5318 355.401 73.9476 356.231 77.267C356.446 78.1394 356.653 79.1618 357.571 79.5776C359.636 80.525 361.479 77.2124 363.8 77.4987C366.264 77.7986 369.845 81.1589 371.727 81.1384C372.541 81.1316 373.139 80.4977 373.817 80.116C375.651 79.0936 378.092 79.5503 380.158 80.1978C381.234 80.5318 382.327 80.9339 383.108 81.6496C383.89 82.3653 383.093 85.1258 382.965 85.5892C382.59 86.9729 384.895 87.6681 385.932 88.7723C387.152 90.0878 387.033 92.2348 386.203 93.2913C384.991 94.8248 383.18 96.3312 381.649 96.9719C384.066 96.6856 386.825 97.3399 388.077 98.4032C389.33 99.4665 390.765 100.652 392.504 100.428C394.115 100.216 397.034 97.8034 398.629 96.8151C401.405 95.0907 404.475 93.2913 407.905 93.4548C411.326 93.6184 414.572 96.9446 412.802 99.4529C418.8 99.3506 424.167 104.463 423.385 109.547C427.413 108.027 431.736 106.473 436.083 107.1C437.415 107.291 438.699 107.687 439.951 108.136C442.854 109.172 448.413 111.156 449.785 113.412C450.726 114.959 450.072 116.309 452.345 116.977C457.529 118.503 462.817 115.559 468.264 114.993C474.996 114.298 488.961 121.094 489.862 120.978C490.684 120.869 491.378 120.419 492.112 120.085C494.823 118.851 498.452 119.335 500.606 121.209C501.196 121.727 501.706 122.348 502.44 122.709C503.365 123.159 504.49 123.131 505.559 123.084C508.845 122.947 512.13 122.811 515.424 122.675C516.693 121.407 518.089 121.128 519.229 121.128C520.369 121.128 527.006 122.363 537 125.36" stroke="white" stroke-width="2.44694" stroke-miterlimit="10" stroke-linecap="round" stroke-linejoin="round"/>
<path d="M473.815 115.531C470.242 115.279 466.135 117.924 464.436 119.975" stroke="white" stroke-width="2.44694" stroke-miterlimit="10" stroke-linecap="round" stroke-linejoin="round"/>
<path d="M478.847 116.949C477.419 116.915 474.604 117.808 473.112 118.83C468.885 121.72 466.987 124.903 465.256 127.915" stroke="white" stroke-width="2.44694" stroke-miterlimit="10" stroke-linecap="round" stroke-linejoin="round"/>
<path d="M482.42 118.203C478.106 119.764 474.19 122.967 472.539 125.694" stroke="white" stroke-width="2.44694" stroke-miterlimit="10" stroke-linecap="round" stroke-linejoin="round"/>
<path d="M487.006 119.975C483.258 121.72 479.772 124.433 476.766 128.216C475.171 130.22 473.041 133.894 472.539 136" stroke="white" stroke-width="2.44694" stroke-miterlimit="10" stroke-linecap="round" stroke-linejoin="round"/>
<path d="M498.029 119.805C492.127 120.636 486.409 127.03 483.505 132.482" stroke="white" stroke-width="2.44694" stroke-miterlimit="10" stroke-linecap="round" stroke-linejoin="round"/>
<path d="M501.379 121.952C500.294 121.87 498.029 123.09 496.897 123.895C493.858 126.048 492.167 128.536 490.987 130.67" stroke="white" stroke-width="2.44694" stroke-miterlimit="10" stroke-linecap="round" stroke-linejoin="round"/>
<path d="M506.379 123.049C502.838 123.935 499.297 129.081 497.773 132.189" stroke="white" stroke-width="2.44694" stroke-miterlimit="10" stroke-linecap="round" stroke-linejoin="round"/>
<path d="M512.944 122.777C510.766 123.554 505.414 127.616 504.633 131.923" stroke="white" stroke-width="2.44694" stroke-miterlimit="10" stroke-linecap="round" stroke-linejoin="round"/>
<path d="M533.298 124.508C532.245 124.924 530.674 126.273 529.948 127.227C528.616 128.965 527.826 130.342 526.861 132.435" stroke="white" stroke-width="2.44694" stroke-miterlimit="10" stroke-linecap="round" stroke-linejoin="round"/>
<path d="M528.36 123.083C525.457 124.542 523.359 127.97 522.562 129.762" stroke="white" stroke-width="2.44694" stroke-miterlimit="10" stroke-linecap="round" stroke-linejoin="round"/>
<path d="M371.726 81.1382C369.03 82.2424 364.133 86.8912 362.131 90.4629" stroke="white" stroke-width="2.44694" stroke-miterlimit="10" stroke-linecap="round" stroke-linejoin="round"/>
<path d="M381.226 80.572C377.637 80.9946 373.697 85.1586 372.126 87.2236" stroke="white" stroke-width="2.44694" stroke-miterlimit="10" stroke-linecap="round" stroke-linejoin="round"/>
<path d="M367.723 79.2834C366.526 79.1744 364.461 79.9719 362.985 80.9329C360.457 82.5893 358.551 84.3206 356.214 87.5173" stroke="white" stroke-width="2.44694" stroke-miterlimit="10" stroke-linecap="round" stroke-linejoin="round"/>
</g>
</g>
<defs>
<clipPath id="clip0">
<rect width="537" height="138" fill="white"/>
</clipPath>
</defs>
</svg>
