<svg width="935" height="249" viewBox="0 0 935 249" fill="none" xmlns="http://www.w3.org/2000/svg">
<g clip-path="url(#clip0)">
<g opacity="0.2">
<path d="M126.259 3.6903C130.755 2.94733 135.867 2.75763 140.299 3.61126C158.997 7.19963 164.286 24.3986 165.969 32.097C166.405 34.1204 166.826 36.4915 168.686 37.4558C172.875 39.6531 176.612 31.9705 181.319 32.6344C186.317 33.33 193.579 41.1232 197.397 41.0758C199.047 41.06 200.26 39.5899 201.635 38.7046C205.355 36.3335 210.304 37.3926 214.494 38.8943C216.677 39.6689 218.893 40.6016 220.479 42.2614C222.064 43.9212 220.446 50.3234 220.187 51.3983C219.427 54.6073 224.102 56.2197 226.205 58.7806C228.679 61.8315 228.437 66.811 226.754 69.2612C224.296 72.8179 220.624 76.3115 217.518 77.7974C222.419 77.1335 228.016 78.651 230.556 81.117C233.095 83.5831 236.007 86.3336 239.533 85.812C242.8 85.3219 248.72 79.7259 251.955 77.4338C257.584 73.4344 263.812 69.2612 270.767 69.6406C277.706 70.02 284.289 77.7342 280.698 83.5515C292.862 83.3143 303.748 95.1702 302.163 106.963C310.331 103.438 319.098 99.8335 327.913 101.288C330.614 101.73 333.219 102.647 335.758 103.691C341.646 106.093 352.92 110.693 355.702 115.926C357.611 119.514 356.284 122.644 360.894 124.193C371.408 127.734 382.132 120.905 393.18 119.593C406.831 117.981 435.154 133.741 436.982 133.473C438.648 133.22 440.055 132.176 441.543 131.402C447.043 128.541 454.402 129.663 458.77 134.01C459.966 135.211 461.002 136.65 462.49 137.488C464.366 138.531 466.647 138.468 468.814 138.357C475.478 138.041 482.142 137.725 488.823 137.409C491.395 134.468 494.435 133.978 496.538 133.82C509.996 132.761 525.864 147.668 541.036 140.807C543.705 139.606 546.034 137.63 548.897 136.998C555.189 135.607 561.95 141.045 567.87 138.499C570.151 132.176 575.553 127.007 582.056 124.905C580.552 122.802 577.058 114.187 589.642 105.73C594.608 102.41 603.827 102.062 606.48 106.046C608.761 109.445 611.931 113.523 615.943 112.464C619.954 111.405 622.526 107.39 623.205 103.39C623.48 101.794 623.545 100.055 624.58 98.7744C625.551 97.573 627.152 97.0988 628.656 96.6719L645.688 91.8506C647.5 91.3289 649.376 90.823 651.237 91.1234C655.976 91.898 658.273 97.3517 662.527 99.5332C665.147 100.861 668.237 100.829 671.164 101.13C678.993 101.936 686.498 105.477 692.03 110.962C694.246 113.16 695.637 116.289 694.473 119.151C690.332 129.252 695.589 138.737 700.667 139.432C711.327 140.902 719.382 125.173 729.362 129.11C737.078 132.145 741.057 140.997 748.691 144.222C761.033 149.438 774.911 137.551 788.078 140.238C793.108 141.266 797.411 144.333 802.166 146.245C813.602 150.83 827.367 148.601 837.961 154.829C839.32 155.635 840.695 156.694 841.002 158.212C841.294 159.619 840.582 161.026 840.614 162.464C840.711 166.985 846.858 168.155 851.193 169.688C858.148 172.139 873.854 179.458 883.705 186.998C889.9 191.74 918.384 215.074 933 247.193" stroke="white" stroke-width="2.44694" stroke-miterlimit="10" stroke-linecap="round" stroke-linejoin="round"/>
<path d="M294.882 89.0987C290.078 86.8699 283.722 89.0671 280.357 90.8691C269.261 96.7969 259.734 109.411 254.267 119.196" stroke="white" stroke-width="2.44694" stroke-miterlimit="10" stroke-linecap="round" stroke-linejoin="round"/>
<path d="M300.884 97.5083C298.684 97.7928 294.042 99.1523 292.004 100.006C282.93 103.816 275.376 111.466 268.825 120.967C263.617 128.523 259.46 137.391 256.937 145.532" stroke="white" stroke-width="2.44694" stroke-miterlimit="10" stroke-linecap="round" stroke-linejoin="round"/>
<path d="M333.557 102.851C324.127 103.894 317.237 107.499 308.68 114.47C302.42 119.56 293.686 132 289.416 140.284" stroke="white" stroke-width="2.44694" stroke-miterlimit="10" stroke-linecap="round" stroke-linejoin="round"/>
<path d="M311.205 103.358C304.427 104.734 292.345 114.44 288.802 118.123C280.86 126.39 275.798 134.278 271.382 143.589" stroke="white" stroke-width="2.44694" stroke-miterlimit="10" stroke-linecap="round" stroke-linejoin="round"/>
<path d="M346.207 108.383C344.913 108.304 340.19 108.288 334.981 109.774C321.233 113.695 310.46 125.993 305.543 136.916" stroke="white" stroke-width="2.44694" stroke-miterlimit="10" stroke-linecap="round" stroke-linejoin="round"/>
<path d="M355.329 115.339C351.027 113.568 346.207 115.181 343.327 116.698C337.278 119.891 330.501 126.451 325.098 135.193" stroke="white" stroke-width="2.44694" stroke-miterlimit="10" stroke-linecap="round" stroke-linejoin="round"/>
<path d="M362.787 124.919C359.989 125.314 357.45 126.832 355.395 128.729C353.341 130.626 351.707 132.919 350.09 135.195" stroke="white" stroke-width="2.44694" stroke-miterlimit="10" stroke-linecap="round" stroke-linejoin="round"/>
<path d="M404.437 120.84C397.19 120.255 388.86 126.389 385.415 131.147" stroke="white" stroke-width="2.44694" stroke-miterlimit="10" stroke-linecap="round" stroke-linejoin="round"/>
<path d="M414.643 124.127C411.748 124.048 406.038 126.119 403.014 128.49C394.441 135.193 390.591 142.575 387.081 149.563" stroke="white" stroke-width="2.44694" stroke-miterlimit="10" stroke-linecap="round" stroke-linejoin="round"/>
<path d="M421.89 127.038C413.139 130.658 405.197 138.088 401.849 144.411" stroke="white" stroke-width="2.44694" stroke-miterlimit="10" stroke-linecap="round" stroke-linejoin="round"/>
<path d="M431.191 131.148C423.588 135.195 416.52 141.487 410.422 150.26C407.187 154.908 402.868 163.428 401.849 168.313" stroke="white" stroke-width="2.44694" stroke-miterlimit="10" stroke-linecap="round" stroke-linejoin="round"/>
<path d="M453.544 130.753C441.574 132.681 429.977 147.509 424.089 160.156" stroke="white" stroke-width="2.44694" stroke-miterlimit="10" stroke-linecap="round" stroke-linejoin="round"/>
<path d="M460.339 135.732C458.139 135.542 453.545 138.372 451.248 140.237C445.086 145.232 441.657 151.002 439.263 155.949" stroke="white" stroke-width="2.44694" stroke-miterlimit="10" stroke-linecap="round" stroke-linejoin="round"/>
<path d="M470.479 138.277C463.297 140.332 456.115 152.267 453.026 159.475" stroke="white" stroke-width="2.44694" stroke-miterlimit="10" stroke-linecap="round" stroke-linejoin="round"/>
<path d="M483.791 137.645C479.376 139.447 468.522 148.868 466.937 158.859" stroke="white" stroke-width="2.44694" stroke-miterlimit="10" stroke-linecap="round" stroke-linejoin="round"/>
<path d="M525.071 141.66C522.936 142.624 519.749 145.754 518.278 147.968C515.576 151.999 513.975 155.192 512.018 160.045" stroke="white" stroke-width="2.44694" stroke-miterlimit="10" stroke-linecap="round" stroke-linejoin="round"/>
<path d="M536.183 142.294C534.597 143.195 532.737 144.95 531.573 146.341C528.758 149.708 525.07 155.494 524.003 160.584" stroke="white" stroke-width="2.44694" stroke-miterlimit="10" stroke-linecap="round" stroke-linejoin="round"/>
<path d="M550.11 136.805C548.444 137.595 547.263 138.465 546.082 139.65C542.782 142.97 540.793 147.096 537.218 155.822" stroke="white" stroke-width="2.44694" stroke-miterlimit="10" stroke-linecap="round" stroke-linejoin="round"/>
<path d="M515.058 138.356C509.17 141.739 504.916 149.69 503.299 153.847" stroke="white" stroke-width="2.44694" stroke-miterlimit="10" stroke-linecap="round" stroke-linejoin="round"/>
<path d="M197.396 41.074C191.929 43.6349 181.997 54.4163 177.938 62.6998" stroke="white" stroke-width="2.44694" stroke-miterlimit="10" stroke-linecap="round" stroke-linejoin="round"/>
<path d="M80.1809 40.9062C72.2461 45.3217 57.8319 63.9103 51.9395 78.1925" stroke="white" stroke-width="2.44694" stroke-miterlimit="10" stroke-linecap="round" stroke-linejoin="round"/>
<path d="M65.7581 37.6647C58.7275 42.0968 46.4177 59.7684 41.6776 73.0766" stroke="white" stroke-width="2.44694" stroke-miterlimit="10" stroke-linecap="round" stroke-linejoin="round"/>
<path d="M50.9788 39.286C45.5509 42.7078 39.0919 51.8932 35.4323 62.1676" stroke="white" stroke-width="2.44694" stroke-miterlimit="10" stroke-linecap="round" stroke-linejoin="round"/>
<path d="M24.8777 39.2859C20.8968 41.7954 13.9269 51.8013 11.243 59.3365" stroke="white" stroke-width="2.44694" stroke-miterlimit="10" stroke-linecap="round" stroke-linejoin="round"/>
<path d="M13.226 39.5006C9.60936 41.7807 3.27707 50.8717 0.838724 57.718" stroke="white" stroke-width="2.44694" stroke-miterlimit="10" stroke-linecap="round" stroke-linejoin="round"/>
<path d="M216.661 39.762C209.382 40.7421 201.392 50.4009 198.206 55.1908" stroke="white" stroke-width="2.44694" stroke-miterlimit="10" stroke-linecap="round" stroke-linejoin="round"/>
<path d="M189.277 36.7739C186.85 36.521 182.661 38.3705 179.669 40.5993C174.541 44.4404 170.675 48.4555 165.936 55.869" stroke="white" stroke-width="2.44694" stroke-miterlimit="10" stroke-linecap="round" stroke-linejoin="round"/>
<path d="M724.71 136.811C721.477 137.728 718.675 139.979 716.191 142.793C711.908 147.658 710.287 152.679 708.849 158.988C707.99 162.747 707.96 166.986 708.507 170.834" stroke="white" stroke-width="2.44694" stroke-miterlimit="10" stroke-linecap="round" stroke-linejoin="round"/>
<path d="M734.457 141.565C730.332 144.047 728.52 146.766 726.66 149.959C724.8 153.152 723.587 156.662 722.487 160.171" stroke="white" stroke-width="2.44694" stroke-miterlimit="10" stroke-linecap="round" stroke-linejoin="round"/>
<path d="M750.972 144.996C746.394 144.696 741.768 148.806 739.164 151.952C736.236 155.461 734.619 159.887 733.551 164.297" stroke="white" stroke-width="2.44694" stroke-miterlimit="10" stroke-linecap="round" stroke-linejoin="round"/>
<path d="M763.685 144.363C762.197 144.332 755.985 147.651 752.88 153.643C750.551 158.132 748.205 163.649 747.671 169.719" stroke="white" stroke-width="2.44694" stroke-miterlimit="10" stroke-linecap="round" stroke-linejoin="round"/>
<path d="M841.195 164.66C831.765 166.477 822.545 172.199 817.693 178.285" stroke="white" stroke-width="2.44694" stroke-miterlimit="10" stroke-linecap="round" stroke-linejoin="round"/>
<path d="M848.83 168.912C842.214 170.983 835.324 174.935 829.856 179.141" stroke="white" stroke-width="2.44694" stroke-miterlimit="10" stroke-linecap="round" stroke-linejoin="round"/>
<path d="M861.044 173.827C859.443 173.638 856.952 173.764 854.801 174.507C850.385 176.025 846.842 178.239 843.041 180.911" stroke="white" stroke-width="2.44694" stroke-miterlimit="10" stroke-linecap="round" stroke-linejoin="round"/>
<path d="M870.327 178.54C864.65 178.493 857.888 181.733 853.343 185.037" stroke="white" stroke-width="2.44694" stroke-miterlimit="10" stroke-linecap="round" stroke-linejoin="round"/>
<path d="M878.803 183.565C874.193 183.945 866.105 186.664 862.611 189.604" stroke="white" stroke-width="2.44694" stroke-miterlimit="10" stroke-linecap="round" stroke-linejoin="round"/>
<path d="M882.07 190.506C877.574 191.359 873.304 193.415 869.875 196.387" stroke="white" stroke-width="2.44694" stroke-miterlimit="10" stroke-linecap="round" stroke-linejoin="round"/>
<path d="M885.629 196.403C882.96 196.988 880.405 197.984 878.059 199.359" stroke="white" stroke-width="2.44694" stroke-miterlimit="10" stroke-linecap="round" stroke-linejoin="round"/>
<path d="M890.369 203.12C888.541 203.579 886.794 204.306 885.209 205.286" stroke="white" stroke-width="2.44694" stroke-miterlimit="10" stroke-linecap="round" stroke-linejoin="round"/>
<path d="M892.114 209.426C890.626 209.663 889.187 210.264 887.974 211.134" stroke="white" stroke-width="2.44694" stroke-miterlimit="10" stroke-linecap="round" stroke-linejoin="round"/>
<path d="M894.736 215.656C893.555 215.861 892.455 216.446 891.646 217.299" stroke="white" stroke-width="2.44694" stroke-miterlimit="10" stroke-linecap="round" stroke-linejoin="round"/>
<path d="M650.152 91.0273C648.017 91.8494 646.108 93.0033 643.908 95.991C641.142 99.7533 639.509 103.026 637.665 108.005" stroke="white" stroke-width="2.44694" stroke-miterlimit="10" stroke-linecap="round" stroke-linejoin="round"/>
<path d="M659.549 97.3677C657.22 97.2571 653.16 99.7863 649.763 105.414C645.299 112.812 643.601 117.127 640.802 125.268" stroke="white" stroke-width="2.44694" stroke-miterlimit="10" stroke-linecap="round" stroke-linejoin="round"/>
<path d="M665.792 100.558C664.644 100.89 661.457 103.404 659.257 106.408C656.249 110.549 654.259 115.229 652.723 120.082" stroke="white" stroke-width="2.44694" stroke-miterlimit="10" stroke-linecap="round" stroke-linejoin="round"/>
<path d="M678.442 102.679C676.34 103.707 672.393 105.967 669.902 108.781C667.605 111.373 665.793 113.76 664.127 118.249" stroke="white" stroke-width="2.44694" stroke-miterlimit="10" stroke-linecap="round" stroke-linejoin="round"/>
<path d="M690.994 109.997C688.309 109.033 683.602 110.25 679.461 114.36C675.207 118.58 673.363 123.923 672.101 129.709" stroke="white" stroke-width="2.44694" stroke-miterlimit="10" stroke-linecap="round" stroke-linejoin="round"/>
<path d="M694.778 116.053C693.792 115.927 690.993 117.254 688.858 119.357C686.124 122.044 683.876 125.853 682.76 129.015" stroke="white" stroke-width="2.44694" stroke-miterlimit="10" stroke-linecap="round" stroke-linejoin="round"/>
<path d="M0.562256 5.83158C2.18708 6.20096 40.2719 20.0093 42.5124 19.1401C42.7142 19.0641 43.1886 18.0211 43.1987 17.7712C43.2693 16.0221 44.3189 14.3491 45.8024 13.6429C47.2859 12.9259 49.1429 13.2083 50.3943 14.3165C54.3807 11.2636 58.5285 8.29774 62.5149 5.24492C64.1094 4.01727 65.7544 2.77876 67.6517 2.26815C71.6381 1.1926 75.6547 3.55011 79.1769 5.83158C82.8605 8.21082 86.9982 11.3723 87.0789 15.9895C87.1293 18.4883 86.0495 21.4868 87.7349 23.2033C88.5826 24.0616 89.8341 24.2137 90.9845 24.3223C93.4066 24.5505 96.3333 24.5179 97.6251 22.3016C98.2104 21.3021 98.3416 19.9767 99.1388 19.1619C99.8352 18.4557 100.966 18.2058 101.339 17.2606C101.682 16.3915 101.188 15.4137 101.177 14.4577C101.157 12.6977 102.833 11.4266 104.437 11.0898C106.042 10.7639 107.717 11.0355 109.322 10.677C112.208 10.0577 114.368 7.5807 116.669 5.62516C118.98 3.66962 123.286 4.43167 127.002 3.62111" stroke="white" stroke-width="2.44694" stroke-miterlimit="10" stroke-linecap="round" stroke-linejoin="round"/>
<path d="M805.044 191.74C794.498 185.527 782.512 188.23 776.867 190.507C763.344 195.96 754.545 204.718 746.037 216.352C739.616 225.126 734.213 234.832 731.997 245.391" stroke="white" stroke-width="2.44694" stroke-miterlimit="10" stroke-linecap="round" stroke-linejoin="round"/>
<path d="M755.695 191.739C740.879 202.852 730.155 219.086 725.901 236.854" stroke="white" stroke-width="2.44694" stroke-miterlimit="10" stroke-linecap="round" stroke-linejoin="round"/>
<path d="M738.646 196.893C728.165 205.73 722.859 218.945 718.67 231.828" stroke="white" stroke-width="2.44694" stroke-miterlimit="10" stroke-linecap="round" stroke-linejoin="round"/>
<path d="M723.991 201.571C719.203 207.547 715.79 214.55 714.076 221.948" stroke="white" stroke-width="2.44694" stroke-miterlimit="10" stroke-linecap="round" stroke-linejoin="round"/>
<path d="M777.967 210.218C768.52 215.909 764.024 222.896 759.737 229.314C755.855 235.1 752.345 242.783 751.439 247.019" stroke="white" stroke-width="2.44694" stroke-miterlimit="10" stroke-linecap="round" stroke-linejoin="round"/>
<path d="M777.967 221.521C772.29 225.82 766.451 234.404 763.297 240.711" stroke="white" stroke-width="2.44694" stroke-miterlimit="10" stroke-linecap="round" stroke-linejoin="round"/>
<path d="M786.428 222.77C779.068 228.793 774.49 236.111 771.886 241.597" stroke="white" stroke-width="2.44694" stroke-miterlimit="10" stroke-linecap="round" stroke-linejoin="round"/>
<path d="M791.215 227.941C787.98 230.675 784.971 235.812 783.79 239.733" stroke="white" stroke-width="2.44694" stroke-miterlimit="10" stroke-linecap="round" stroke-linejoin="round"/>
<path d="M800.079 229.313C796.245 232.396 794.142 236.854 793.544 240.3" stroke="white" stroke-width="2.44694" stroke-miterlimit="10" stroke-linecap="round" stroke-linejoin="round"/>
<path d="M809.234 230.025C807.277 230.989 803.476 237.328 802.748 241.597" stroke="white" stroke-width="2.44694" stroke-miterlimit="10" stroke-linecap="round" stroke-linejoin="round"/>
<path d="M799.416 199.027C794.078 196.893 787.85 196.893 781.3 198.964C776.981 200.339 771.255 203.769 767.729 206.567C755.856 215.973 744.145 233.425 740.797 248" stroke="white" stroke-width="2.44694" stroke-miterlimit="10" stroke-linecap="round" stroke-linejoin="round"/>
</g>
</g>
<defs>
<clipPath id="clip0">
<rect width="935" height="249" fill="white"/>
</clipPath>
</defs>
</svg>
