<svg width="232" height="222" viewBox="0 0 232 222" fill="none" xmlns="http://www.w3.org/2000/svg">
<g opacity="0.2">
<path d="M70.2229 208.81C70.3388 208.732 70.4466 208.681 70.5462 208.657C70.6425 208.64 70.7487 208.658 70.865 208.712C70.9886 208.769 71.1053 208.899 71.2152 209.099C71.3179 209.297 71.4627 209.527 71.6497 209.79C71.8261 210.056 72.0638 210.334 72.3626 210.622C72.6543 210.907 73.0508 211.166 73.5523 211.399C74.0247 211.618 74.4729 211.747 74.8969 211.785C75.3176 211.831 75.702 211.802 76.0501 211.7C76.391 211.594 76.6922 211.421 76.9539 211.181C77.2121 210.949 77.4204 210.663 77.5787 210.322C77.7807 209.888 77.8437 209.477 77.7677 209.089C77.681 208.705 77.5103 208.331 77.2557 207.967C76.9939 207.598 76.6767 207.236 76.304 206.878C75.9208 206.524 75.5336 206.159 75.1426 205.784C74.7442 205.405 74.3705 205.012 74.0215 204.603C73.6618 204.198 73.3782 203.763 73.1708 203.297C72.9561 202.827 72.8461 202.323 72.8407 201.783C72.8281 201.24 72.9717 200.646 73.2714 200.002C73.5879 199.321 74.0023 198.734 74.5144 198.241C75.0231 197.755 75.6054 197.396 76.2615 197.163C76.9103 196.927 77.6206 196.834 78.3926 196.884C79.1573 196.931 79.954 197.146 80.7825 197.531C81.7928 198 82.6316 198.609 83.299 199.359C83.9558 200.113 84.4338 200.938 84.7329 201.834L83.6576 202.55C83.5625 202.603 83.4631 202.636 83.3596 202.65C83.2454 202.667 83.1375 202.652 83.0357 202.605C82.8831 202.534 82.7474 202.37 82.6286 202.112C82.5065 201.862 82.3455 201.572 82.1457 201.241C81.9386 200.907 81.6667 200.561 81.3299 200.202C80.9824 199.847 80.5071 199.53 79.9038 199.25C79.4023 199.017 78.9234 198.878 78.4669 198.834C78.0105 198.789 77.5905 198.828 77.2071 198.949C76.8131 199.074 76.4625 199.277 76.1555 199.557C75.8485 199.837 75.5957 200.191 75.397 200.619C75.1781 201.089 75.1086 201.524 75.1886 201.922C75.2579 202.324 75.4199 202.707 75.6745 203.072C75.929 203.437 76.2496 203.792 76.6363 204.139C77.0123 204.49 77.4028 204.847 77.8079 205.211C78.2023 205.579 78.5793 205.966 78.939 206.37C79.2915 206.772 79.5697 207.209 79.7737 207.682C79.9778 208.156 80.0811 208.675 80.0836 209.239C80.0755 209.808 79.9115 210.436 79.5915 211.124C79.3356 211.675 78.9827 212.158 78.5328 212.575C78.0757 212.988 77.551 213.299 76.9588 213.508C76.3666 213.718 75.7169 213.804 75.0098 213.766C74.2954 213.725 73.5494 213.524 72.7717 213.163C71.8996 212.759 71.1677 212.252 70.5761 211.642C69.9846 211.033 69.5411 210.343 69.2458 209.572L70.2229 208.81Z" fill="white"/>
<path d="M53.1917 194.68L58.2193 188.8C58.816 188.102 59.1159 187.424 59.1191 186.767C59.1223 186.109 58.7972 185.503 58.1438 184.947C57.6674 184.542 57.1226 184.273 56.5093 184.139C55.8959 184.005 55.2409 183.988 54.5443 184.087L48.7306 190.886L47.1001 189.5L54.9839 180.279L55.9549 181.105C56.187 181.302 56.2376 181.539 56.1067 181.816L55.3866 182.917C56.1684 182.817 56.9264 182.843 57.6607 182.996C58.3897 183.155 59.0779 183.509 59.7253 184.06C60.2321 184.491 60.6109 184.954 60.8617 185.45C61.1011 185.948 61.2225 186.459 61.2256 186.986C61.2288 187.513 61.1134 188.049 60.8793 188.594C60.6392 189.134 60.296 189.664 59.8498 190.186L54.8222 196.066L53.1917 194.68Z" fill="white"/>
<path d="M45.2615 170.188L35.1905 176.954L34.4756 175.899C34.3047 175.647 34.3194 175.406 34.5197 175.175L35.5189 174.301C34.7383 174.188 34.0168 173.963 33.3543 173.626C32.6874 173.282 32.1133 172.755 31.6322 172.045C31.2591 171.494 31.0236 170.948 30.9259 170.405C30.8171 169.86 30.8373 169.335 30.9865 168.829C31.1246 168.321 31.3794 167.836 31.7511 167.374C32.1227 166.912 32.5936 166.489 33.1636 166.106L39.5761 161.798L40.7765 163.57L34.3641 167.878C33.6019 168.39 33.1311 168.962 32.9519 169.594C32.7615 170.224 32.9091 170.897 33.3947 171.614C33.7499 172.138 34.2085 172.545 34.7706 172.833C35.3282 173.115 35.9528 173.304 36.6444 173.399L44.061 168.417L45.2615 170.188Z" fill="white"/>
<path d="M32.6299 148.789L21.1065 152.612L20.7006 151.405C20.6035 151.117 20.6826 150.888 20.9376 150.719L22.1353 150.144C21.4132 149.827 20.7781 149.417 20.23 148.916C19.6794 148.406 19.2675 147.746 18.9943 146.933C18.7824 146.303 18.7022 145.714 18.7537 145.165C18.795 144.611 18.9555 144.111 19.235 143.663C19.5044 143.211 19.8802 142.812 20.3625 142.467C20.8448 142.121 21.412 141.84 22.0642 141.623L29.4014 139.189L30.0831 141.216L22.7459 143.651C21.8738 143.94 21.2665 144.365 20.924 144.926C20.5714 145.482 20.533 146.17 20.8088 146.989C21.0105 147.589 21.3435 148.103 21.8078 148.532C22.2696 148.952 22.8211 149.301 23.4621 149.578L31.9482 146.762L32.6299 148.789Z" fill="white"/>
<path d="M29.6956 122.128C29.8596 122.191 29.9929 122.275 30.0954 122.382C30.1974 122.48 30.2552 122.641 30.2686 122.865L30.3635 124.446L25.4154 122.503L14.2889 128.161L14.1782 126.316C14.1672 126.132 14.2065 125.985 14.2961 125.876C14.3777 125.767 14.473 125.686 14.5819 125.631L22.029 121.95C22.2004 121.869 22.3724 121.799 22.5452 121.741C22.7176 121.675 22.8944 121.617 23.0756 121.566C22.8886 121.521 22.7056 121.475 22.5266 121.429C22.3475 121.383 22.164 121.33 21.976 121.268L14.1571 118.551C14.0265 118.51 13.9179 118.436 13.8313 118.329C13.7363 118.214 13.6847 118.088 13.6765 117.953L13.5745 116.251L29.6956 122.128Z" fill="white"/>
<path d="M29.476 87.1514L13.0174 80.6372L13.8072 78.6429L20.5784 81.3229C20.2199 80.6398 19.996 79.9325 19.9065 79.2012C19.8125 78.4595 19.9199 77.6987 20.2288 76.9188C20.4876 76.2652 20.8444 75.7234 21.2991 75.2933C21.7538 74.8633 22.3004 74.5599 22.9392 74.3831C23.5704 74.2034 24.2871 74.1562 25.089 74.2417C25.8836 74.3242 26.7501 74.5512 27.6887 74.9227C28.523 75.2529 29.2573 75.6724 29.8916 76.1812C30.5185 76.687 31.0125 77.2563 31.3737 77.889C31.7304 78.5113 31.9408 79.1874 32.005 79.9173C32.0647 80.6369 31.9446 81.3754 31.6445 82.133C31.3562 82.8609 30.9691 83.4251 30.483 83.8255C30 84.2185 29.4301 84.5042 28.7736 84.6825L29.7618 85.1897C30.0214 85.3611 30.0952 85.588 29.9835 85.8702L29.476 87.1514ZM21.5595 78.193C21.3036 78.8392 21.2275 79.4663 21.3313 80.0745C21.4381 80.6752 21.6825 81.2874 22.0645 81.9111L27.5395 84.0781C28.1723 83.9162 28.6746 83.6596 29.0464 83.3084C29.421 82.9498 29.7143 82.5031 29.9261 81.9684C30.3438 80.9137 30.2882 79.9552 29.7594 79.093C29.2307 78.2307 28.2698 77.5239 26.8768 76.9726C26.1394 76.6807 25.4797 76.497 24.8979 76.4213C24.319 76.3383 23.8134 76.3529 23.3811 76.4654C22.9414 76.5749 22.5727 76.7769 22.2751 77.0715C21.9775 77.3661 21.7389 77.7399 21.5595 78.193Z" fill="white"/>
<path d="M32.7388 53.7341C33.2747 53.0282 33.8757 52.4817 34.5421 52.0945C35.2132 51.7009 35.9159 51.4713 36.6501 51.4056C37.3892 51.3335 38.1486 51.4269 38.9283 51.6858C39.7064 51.9334 40.476 52.3447 41.2371 52.9197C42.0046 53.4996 42.6133 54.1295 43.0632 54.8096C43.5178 55.4833 43.8106 56.1848 43.9413 56.9139C44.0769 57.6368 44.0458 58.3738 43.848 59.1249C43.6485 59.8648 43.2809 60.5877 42.745 61.2935C42.2092 61.9994 41.6088 62.5515 40.9441 62.9499C40.2778 63.3371 39.5751 63.5667 38.836 63.6388C38.097 63.7109 37.3384 63.6231 36.5602 63.3754C35.7821 63.1278 35.0093 62.714 34.2418 62.1342C33.4807 61.5592 32.8752 60.9317 32.4253 60.2516C31.9691 59.5667 31.6756 58.8596 31.5448 58.1304C31.414 57.4013 31.4452 56.6643 31.6382 55.9195C31.836 55.1684 32.2029 54.4399 32.7388 53.7341ZM41.4115 60.2861C42.1357 59.3322 42.3566 58.3784 42.0742 57.4246C41.7855 56.466 41.0655 55.5519 39.9143 54.6821C38.7566 53.8075 37.6762 53.3615 36.673 53.3441C35.6697 53.3267 34.8061 53.7949 34.0819 54.7488C33.715 55.2321 33.4795 55.7146 33.3755 56.1963C33.2714 56.6781 33.2843 57.1581 33.4143 57.6366C33.549 58.1086 33.8008 58.579 34.1696 59.0477C34.5368 59.5052 35.0082 59.9514 35.5838 60.3863C36.1594 60.8212 36.7178 61.1529 37.2588 61.3815C37.8046 61.6038 38.3235 61.7156 38.8155 61.7171C39.306 61.7074 39.7695 61.5873 40.2062 61.3568C40.6428 61.1263 41.0446 60.7694 41.4115 60.2861Z" fill="white"/>
<path d="M51.7024 34.2433C52.4082 33.7072 53.1341 33.3421 53.8803 33.1478C54.6328 32.9487 55.3718 32.9159 56.0974 33.0493C56.8293 33.1779 57.5364 33.4712 58.2189 33.9293C58.9028 34.3761 59.5347 34.9783 60.1145 35.7357C60.6992 36.4995 61.1173 37.269 61.3689 38.0443C61.6268 38.8147 61.7212 39.5684 61.6519 40.3054C61.589 41.0377 61.3616 41.7388 60.9696 42.4089C60.5792 43.0679 60.031 43.6653 59.3253 44.2014C58.6195 44.7374 57.8928 45.1081 57.1451 45.3136C56.399 45.5079 55.66 45.5407 54.9281 45.4121C54.1962 45.2835 53.4883 44.9958 52.8043 44.5489C52.1204 44.1021 51.4861 43.4967 50.9014 42.7329C50.3216 41.9755 49.9059 41.2092 49.6543 40.4339C49.3979 39.6523 49.3043 38.893 49.3735 38.156C49.4428 37.4189 49.6702 36.7178 50.0558 36.0525C50.4478 35.3824 50.9966 34.7793 51.7024 34.2433ZM58.3094 42.8742C59.2631 42.1499 59.7316 41.2908 59.7149 40.2969C59.6933 39.2967 59.244 38.2238 58.3669 37.0781C57.485 35.926 56.5628 35.2072 55.6001 34.9217C54.6375 34.6362 53.6793 34.8556 52.7256 35.5799C52.2424 35.9469 51.8861 36.3484 51.6567 36.7843C51.4273 37.2202 51.3112 37.6859 51.3083 38.1813C51.3118 38.6718 51.4286 39.1921 51.6586 39.7421C51.8901 40.281 52.2251 40.8368 52.6636 41.4097C53.1021 41.9825 53.5516 42.4515 54.0119 42.8165C54.4787 43.1766 54.9491 43.4233 55.4231 43.5565C55.8986 43.6785 56.3777 43.6871 56.8604 43.5821C57.3432 43.4772 57.8261 43.2412 58.3094 42.8742Z" fill="white"/>
<path d="M71.261 16.368L75.2169 26.0067L75.7277 25.7995C75.8757 25.7394 75.9903 25.6713 76.0713 25.5952C76.1493 25.5117 76.2216 25.383 76.2884 25.2089L78.2767 19.9544C78.339 19.7908 78.4105 19.6494 78.4911 19.5302C78.5718 19.4111 78.7046 19.314 78.8897 19.2389L80.6885 18.5092L78.3581 24.6028C78.3062 24.7708 78.2482 24.9241 78.1841 25.0624C78.1274 25.1978 78.0514 25.3281 77.9559 25.4533C78.1257 25.4882 78.2867 25.5439 78.439 25.6204C78.5957 25.6866 78.7526 25.7742 78.9096 25.8834L85.5882 29.6584L83.8116 30.3791C83.6487 30.4452 83.4959 30.4726 83.3531 30.4613C83.2147 30.4397 83.0663 30.3831 82.9079 30.2918L77.3167 27.1779C77.1418 27.0673 76.9897 27.0123 76.8604 27.0129C76.728 27.0061 76.5508 27.0477 76.3288 27.1378L75.7735 27.363L77.9819 32.7437L75.9943 33.55L69.2733 17.1742L71.261 16.368Z" fill="white"/>
<path d="M122.406 10.0201C122.328 10.1364 122.248 10.2245 122.165 10.2845C122.083 10.3365 121.978 10.3593 121.85 10.3529C121.714 10.3462 121.557 10.2703 121.38 10.1254C121.21 9.98082 120.989 9.82171 120.717 9.64803C120.453 9.46675 120.128 9.29849 119.743 9.14322C119.366 8.98836 118.901 8.89724 118.35 8.86987C117.83 8.84409 117.367 8.89319 116.961 9.01717C116.555 9.13317 116.211 9.30427 115.928 9.53047C115.653 9.75708 115.44 10.0308 115.289 10.3516C115.139 10.6645 115.055 11.0087 115.037 11.3842C115.015 11.8636 115.113 12.2688 115.33 12.5999C115.555 12.9234 115.854 13.2065 116.228 13.4493C116.609 13.6925 117.039 13.91 117.519 14.102C118.007 14.2864 118.503 14.4792 119.006 14.6803C119.517 14.8819 120.012 15.1066 120.489 15.3545C120.974 15.5948 121.401 15.8923 121.769 16.2469C122.145 16.6019 122.438 17.0289 122.647 17.5278C122.864 18.027 122.957 18.6322 122.924 19.3433C122.889 20.0944 122.728 20.7951 122.442 21.4456C122.156 22.088 121.754 22.6407 121.236 23.1034C120.726 23.5666 120.105 23.9202 119.372 24.1641C118.648 24.4085 117.831 24.508 116.92 24.4628C115.809 24.4077 114.803 24.1576 113.902 23.7125C113.01 23.2598 112.256 22.6738 111.641 21.9545L112.363 20.8853C112.431 20.8005 112.51 20.7324 112.601 20.6808C112.7 20.6217 112.805 20.5949 112.917 20.6004C113.085 20.6088 113.272 20.7102 113.48 20.9046C113.687 21.0911 113.946 21.3002 114.256 21.5317C114.573 21.7637 114.956 21.9829 115.403 22.1893C115.858 22.3881 116.417 22.5039 117.081 22.5369C117.632 22.5642 118.127 22.5127 118.566 22.3823C119.004 22.2519 119.378 22.0583 119.686 21.8013C120.003 21.5367 120.25 21.2166 120.427 20.8411C120.605 20.4655 120.705 20.042 120.726 19.5706C120.75 19.0513 120.65 18.6218 120.426 18.2824C120.209 17.9353 119.915 17.6404 119.541 17.3976C119.168 17.1549 118.737 16.9453 118.249 16.7689C117.769 16.5849 117.273 16.4001 116.76 16.2145C116.257 16.0214 115.762 15.8046 115.277 15.5643C114.799 15.3244 114.376 15.0231 114.009 14.6605C113.641 14.2979 113.349 13.855 113.133 13.3317C112.925 12.8009 112.839 12.156 112.874 11.3969C112.902 10.7897 113.045 10.2082 113.303 9.65244C113.569 9.09707 113.936 8.61077 114.404 8.19354C114.872 7.77632 115.44 7.45213 116.107 7.221C116.783 6.99025 117.548 6.89611 118.403 6.93855C119.362 6.98615 120.23 7.18139 121.007 7.52427C121.784 7.86715 122.455 8.3409 123.02 8.94552L122.406 10.0201Z" fill="white"/>
<path d="M142.526 15.364L140.099 22.7159C139.811 23.5885 139.789 24.3303 140.034 24.9416C140.28 25.5528 140.809 25.9929 141.623 26.2619C142.216 26.458 142.821 26.5024 143.439 26.3951C144.056 26.2879 144.668 26.0568 145.275 25.7018L148.082 17.2004L150.113 17.8717L146.306 29.4003L145.096 29.0006C144.807 28.9051 144.671 28.7044 144.688 28.3985L144.938 27.1052C144.253 27.4931 143.542 27.7548 142.806 27.89C142.072 28.0177 141.302 27.9483 140.496 27.6819C139.865 27.4732 139.34 27.186 138.921 26.8203C138.512 26.4494 138.206 26.0203 138.004 25.5328C137.803 25.0454 137.707 24.5047 137.718 23.9107C137.736 23.3192 137.853 22.6972 138.068 22.0447L140.496 14.6928L142.526 15.364Z" fill="white"/>
<path d="M160.779 35.8634L167.542 25.7902L168.601 26.4986C168.855 26.6678 168.932 26.8974 168.834 27.1872L168.24 28.3746C169.004 28.1847 169.757 28.121 170.497 28.1835C171.243 28.2505 171.973 28.5223 172.686 28.999C173.239 29.3687 173.663 29.7867 173.958 30.253C174.265 30.7171 174.444 31.2117 174.497 31.7369C174.561 32.26 174.508 32.8058 174.339 33.3745C174.17 33.9432 173.894 34.5126 173.511 35.0827L169.205 41.4965L167.426 40.3071L171.732 33.8933C172.244 33.1309 172.463 32.4228 172.39 31.7691C172.329 31.1132 171.938 30.5446 171.218 30.0635C170.692 29.7116 170.114 29.5079 169.485 29.4524C168.863 29.4014 168.214 29.4622 167.538 29.6347L162.558 37.0529L160.779 35.8634Z" fill="white"/>
<path d="M179.502 50.8977L188.721 43.0127L189.553 43.9783C189.752 44.2091 189.765 44.4509 189.593 44.7036L188.702 45.6874C189.49 45.7094 190.233 45.8496 190.929 46.1081C191.632 46.3726 192.262 46.8298 192.822 47.4796C193.257 47.9837 193.554 48.4997 193.713 49.0276C193.884 49.5564 193.925 50.0807 193.835 50.6004C193.757 51.121 193.56 51.6324 193.244 52.1344C192.929 52.6365 192.51 53.1106 191.988 53.5569L186.118 58.5774L184.721 56.9558L190.591 51.9353C191.289 51.3385 191.69 50.7158 191.795 50.0669C191.911 49.419 191.687 48.7671 191.122 48.1112C190.709 47.6314 190.206 47.2805 189.615 47.0587C189.028 46.8429 188.386 46.7275 187.688 46.7125L180.899 52.5192L179.502 50.8977Z" fill="white"/>
<path d="M192.889 74.6121C192.713 74.6156 192.558 74.5873 192.423 74.5273C192.291 74.4745 192.177 74.347 192.08 74.1447L191.393 72.7143L196.706 72.6536L204.858 63.2227L205.659 64.8914C205.739 65.0576 205.758 65.2082 205.716 65.3432C205.682 65.4748 205.625 65.5862 205.545 65.6775L200.048 71.892C199.921 72.0324 199.788 72.1619 199.65 72.2806C199.516 72.4066 199.374 72.527 199.226 72.6419C199.416 72.6137 199.602 72.5872 199.785 72.5624C199.968 72.5376 200.158 72.5183 200.356 72.5046L208.618 72.0818C208.754 72.0703 208.882 72.098 209.003 72.1649C209.134 72.2356 209.229 72.3323 209.288 72.4552L210.027 73.9939L192.889 74.6121Z" fill="white"/>
<path d="M206.419 107.03L224.094 106.878L224.119 109.026L216.847 109.089C217.437 109.588 217.911 110.16 218.271 110.805C218.638 111.457 218.826 112.204 218.836 113.044C218.844 113.748 218.719 114.385 218.462 114.955C218.204 115.525 217.814 116.013 217.29 116.417C216.775 116.822 216.13 117.135 215.357 117.358C214.591 117.581 213.705 117.696 212.697 117.705C211.801 117.713 210.964 117.6 210.185 117.366C209.414 117.133 208.742 116.791 208.169 116.34C207.604 115.896 207.154 115.348 206.818 114.695C206.491 114.05 206.323 113.319 206.314 112.503C206.305 111.719 206.449 111.05 206.747 110.496C207.045 109.949 207.463 109.469 208.002 109.057L206.897 108.958C206.593 108.897 206.439 108.714 206.435 108.41L206.419 107.03ZM217.124 112.362C217.116 111.667 216.949 111.056 216.623 110.531C216.298 110.013 215.84 109.537 215.251 109.102L209.372 109.153C208.848 109.541 208.481 109.969 208.27 110.434C208.059 110.908 207.957 111.433 207.964 112.009C207.977 113.145 208.391 114.014 209.206 114.615C210.02 115.216 211.176 115.51 212.672 115.497C213.464 115.49 214.143 115.412 214.709 115.263C215.276 115.123 215.737 114.919 216.094 114.651C216.459 114.384 216.723 114.058 216.887 113.673C217.051 113.287 217.13 112.85 217.124 112.362Z" fill="white"/>
<path d="M216.415 138.423C216.186 139.28 215.837 140.014 215.367 140.625C214.895 141.243 214.333 141.721 213.679 142.059C213.023 142.405 212.286 142.604 211.467 142.658C210.655 142.722 209.788 142.631 208.868 142.384C207.939 142.136 207.139 141.781 206.466 141.319C205.792 140.866 205.256 140.325 204.86 139.698C204.462 139.078 204.212 138.383 204.112 137.611C204.017 136.85 204.083 136.04 204.312 135.183C204.541 134.326 204.887 133.587 205.351 132.967C205.821 132.356 206.384 131.878 207.04 131.533C207.695 131.187 208.43 130.982 209.242 130.919C210.055 130.855 210.926 130.947 211.854 131.196C212.775 131.442 213.571 131.796 214.244 132.258C214.924 132.721 215.462 133.266 215.858 133.894C216.255 134.521 216.504 135.216 216.607 135.98C216.708 136.752 216.644 137.566 216.415 138.423ZM205.925 135.615C205.616 136.773 205.772 137.741 206.393 138.52C207.022 139.3 208.032 139.877 209.425 140.25C210.825 140.625 211.992 140.631 212.926 140.269C213.86 139.907 214.481 139.146 214.79 137.988C214.947 137.401 214.982 136.865 214.897 136.379C214.811 135.892 214.618 135.452 214.317 135.057C214.014 134.67 213.604 134.328 213.086 134.033C212.574 133.746 211.97 133.51 211.274 133.324C210.577 133.137 209.936 133.04 209.35 133.032C208.761 133.032 208.239 133.124 207.784 133.308C207.334 133.502 206.951 133.788 206.635 134.167C206.318 134.545 206.082 135.028 205.925 135.615Z" fill="white"/>
<path d="M205.006 164.818C204.556 165.581 204.022 166.194 203.405 166.656C202.784 167.124 202.113 167.434 201.392 167.584C200.666 167.741 199.901 167.736 199.097 167.568C198.296 167.412 197.485 167.092 196.663 166.609C195.834 166.121 195.157 165.566 194.631 164.942C194.102 164.325 193.73 163.662 193.516 162.952C193.298 162.249 193.244 161.513 193.354 160.744C193.466 159.986 193.748 159.225 194.198 158.461C194.649 157.698 195.181 157.08 195.795 156.607C196.412 156.146 197.083 155.836 197.808 155.679C198.534 155.522 199.297 155.522 200.098 155.678C200.899 155.834 201.714 156.156 202.543 156.644C203.366 157.127 204.039 157.681 204.564 158.305C205.096 158.933 205.47 159.601 205.684 160.311C205.898 161.021 205.952 161.757 205.846 162.519C205.737 163.288 205.457 164.055 205.006 164.818ZM195.639 159.309C195.03 160.34 194.921 161.314 195.311 162.229C195.708 163.148 196.529 163.973 197.772 164.705C199.023 165.44 200.147 165.759 201.145 165.66C202.143 165.561 202.947 164.996 203.555 163.965C203.864 163.442 204.042 162.935 204.089 162.445C204.137 161.954 204.069 161.478 203.885 161.018C203.696 160.564 203.392 160.126 202.972 159.703C202.554 159.29 202.035 158.901 201.413 158.536C200.791 158.17 200.199 157.905 199.635 157.74C199.067 157.582 198.539 157.531 198.051 157.587C197.565 157.653 197.118 157.826 196.712 158.105C196.305 158.385 195.947 158.786 195.639 159.309Z" fill="white"/>
<path d="M195.251 188.244L187.949 180.803L187.555 181.188C187.44 181.299 187.36 181.406 187.314 181.507C187.273 181.613 187.255 181.76 187.259 181.946L187.404 187.565C187.408 187.74 187.395 187.898 187.366 188.039C187.336 188.18 187.25 188.32 187.107 188.459L185.718 189.814L185.572 183.288C185.557 183.113 185.553 182.949 185.56 182.797C185.561 182.65 185.582 182.501 185.623 182.349C185.453 182.38 185.283 182.389 185.113 182.376C184.943 182.374 184.765 182.352 184.578 182.31L176.972 181.329L178.344 179.991C178.469 179.869 178.6 179.786 178.737 179.742C178.873 179.71 179.032 179.707 179.213 179.732L185.563 180.509C185.767 180.546 185.929 180.54 186.048 180.49C186.173 180.447 186.321 180.341 186.493 180.174L186.921 179.756L182.845 175.602L184.38 174.106L196.786 186.748L195.251 188.244Z" fill="white"/>
</g>
<circle cx="116" cy="111" r="39" fill="#F2CB05"/>
</svg>
