<svg width="73" height="45" viewBox="0 0 73 45" fill="none" xmlns="http://www.w3.org/2000/svg">
<path d="M1.38306 33.0812L1.47155 33.566L1.56358 33.5487C2.1925 35.9471 3.64133 38.1512 5.74242 39.9061C7.84352 41.6609 10.511 42.8948 13.4362 43.465C16.3615 44.0351 19.4249 43.9182 22.272 43.1278C25.1192 42.3374 27.6337 40.9057 29.5246 38.9985C31.4156 37.0913 32.6056 34.7865 32.9571 32.3507C33.3086 29.915 32.8072 27.4478 31.5109 25.2348C30.2146 23.0217 28.1763 21.1532 25.6319 19.8454C23.0876 18.5376 20.1411 17.844 17.1335 17.8448C16.3442 17.8448 15.5868 17.9429 14.8329 18.0324C15.0771 17.3628 15.3284 16.6816 15.7319 16.0697C16.1354 15.1808 16.7654 14.4102 17.3919 13.6338C17.9157 12.7939 18.8395 12.2253 19.5191 11.5066C20.2305 10.8082 21.2003 10.3435 21.9684 9.76335C22.7223 9.15724 23.7098 8.85418 24.4955 8.42702C25.3167 8.04315 26.0316 7.61887 26.7962 7.41684L28.7039 6.7761L30.3816 6.20752L28.6685 0.611122L26.5555 1.02674C25.8794 1.16528 25.0548 1.32691 24.1168 1.52029C23.1576 1.6646 22.1347 2.06001 20.995 2.42079C19.873 2.83352 18.567 3.10771 17.3565 3.76865C16.1389 4.39785 14.7338 4.92315 13.495 5.76592C12.2951 6.63467 10.8475 7.38798 9.77859 8.49052C8.61058 9.52379 7.45673 10.609 6.56125 11.8443C5.52419 13.0219 4.81985 14.3149 4.07657 15.5935C3.40408 16.8721 2.86255 18.1796 2.42012 19.4495C1.58128 21.9952 1.20609 24.4138 1.06097 26.4832C0.940636 28.5556 1.01142 30.2786 1.16008 31.5255C1.20982 32.0462 1.2842 32.5651 1.38306 33.0812ZM40.3168 33.0812L40.4052 33.566L40.4973 33.5487C41.1262 35.9471 42.575 38.1512 44.6761 39.9061C46.7772 41.6609 49.4447 42.8948 52.3699 43.465C55.2952 44.0351 58.3586 43.9182 61.2057 43.1278C64.0529 42.3374 66.5674 40.9057 68.4583 38.9985C70.3493 37.0913 71.5393 34.7865 71.8908 32.3507C72.2423 29.915 71.7409 27.4478 70.4446 25.2348C69.1483 23.0217 67.11 21.1532 64.5656 19.8454C62.0213 18.5376 59.0748 17.844 56.0672 17.8448C55.2779 17.8448 54.5205 17.9429 53.7666 18.0324C54.0108 17.3628 54.2621 16.6816 54.6656 16.0697C55.0691 15.1808 55.6991 14.4102 56.3256 13.6338C56.8494 12.7939 57.7732 12.2253 58.4528 11.5066C59.1642 10.8082 60.134 10.3435 60.9021 9.76335C61.656 9.15724 62.6435 8.85418 63.4292 8.42702C64.2504 8.04315 64.9653 7.61887 65.7298 7.41684L67.6376 6.7761C68.703 6.4211 69.3117 6.21329 69.3117 6.21329L67.5987 0.616901L65.4856 1.03251C64.8096 1.17105 63.9849 1.33268 63.047 1.52606C62.0878 1.67037 61.0649 2.06578 59.9252 2.42656C58.8032 2.83929 57.4971 3.11348 56.2867 3.77443C55.0691 4.40363 53.6639 4.92892 52.4251 5.77169C51.2253 6.64045 49.7776 7.39375 48.7087 8.49629C47.5407 9.52956 46.3869 10.6148 45.4914 11.8501C44.4544 13.0277 43.75 14.3207 43.0067 15.5993C42.3342 16.8779 41.7927 18.1854 41.3503 19.4553C40.5114 22.0009 40.1363 24.4196 39.9911 26.489C39.8708 28.5613 39.9416 30.2844 40.0902 31.5313C40.1431 32.0499 40.2186 32.5669 40.3168 33.0812Z" fill="#A18FE2"/>
</svg>
