<svg width="88" height="88" viewBox="0 0 88 88" fill="none" xmlns="http://www.w3.org/2000/svg">
<path d="M50.6667 76.0002H16C13.7947 76.0002 12 74.2055 12 72.0002V37.3335C12 35.1282 13.7947 33.3335 16 33.3335H50.6667C52.872 33.3335 54.6667 35.1282 54.6667 37.3335V72.0002C54.6667 74.2055 52.872 76.0002 50.6667 76.0002ZM16 36.0002C15.264 36.0002 14.6667 36.6002 14.6667 37.3335V72.0002C14.6667 72.7335 15.264 73.3335 16 73.3335H50.6667C51.4027 73.3335 52 72.7335 52 72.0002V37.3335C52 36.6002 51.4027 36.0002 50.6667 36.0002H16Z" fill="#5C5C5C" stroke="#5C5C5C" stroke-width="0.5"/>
<path d="M72 28H16C13.7947 28 12 26.2053 12 24V16C12 13.7947 13.7947 12 16 12H72C74.2053 12 76 13.7947 76 16V24C76 26.2053 74.2053 28 72 28ZM16 14.6667C15.264 14.6667 14.6667 15.2667 14.6667 16V24C14.6667 24.7333 15.264 25.3333 16 25.3333H72C72.736 25.3333 73.3333 24.7333 73.3333 24V16C73.3333 15.2667 72.736 14.6667 72 14.6667H16Z" fill="#5C5C5C" stroke="#5C5C5C" stroke-width="0.5"/>
<path d="M68 75.3335C63.5893 75.3335 60 71.7442 60 67.3335C60 62.9228 63.5893 59.3335 68 59.3335C72.4107 59.3335 76 62.9228 76 67.3335C76 71.7442 72.4107 75.3335 68 75.3335ZM68 62.0002C65.0587 62.0002 62.6667 64.3922 62.6667 67.3335C62.6667 70.2748 65.0587 72.6668 68 72.6668C70.9413 72.6668 73.3333 70.2748 73.3333 67.3335C73.3333 64.3922 70.9413 62.0002 68 62.0002Z" fill="#5C5C5C" stroke="#5C5C5C" stroke-width="0.5"/>
<path d="M74.6667 46.6667H61.3333C60.5973 46.6667 60 46.0693 60 45.3333C60 44.5973 60.5973 44 61.3333 44H74.6667C75.4027 44 76 44.5973 76 45.3333C76 46.0693 75.4027 46.6667 74.6667 46.6667Z" fill="#5C5C5C" stroke="#5C5C5C" stroke-width="0.5"/>
<path d="M74.6667 54.6667H61.3333C60.5973 54.6667 60 54.0693 60 53.3333C60 52.5973 60.5973 52 61.3333 52H74.6667C75.4027 52 76 52.5973 76 53.3333C76 54.0693 75.4027 54.6667 74.6667 54.6667Z" fill="#5C5C5C" stroke="#5C5C5C" stroke-width="0.5"/>
<path d="M74.6667 38.6667H61.3333C60.5973 38.6667 60 38.0693 60 37.3333C60 36.5973 60.5973 36 61.3333 36H74.6667C75.4027 36 76 36.5973 76 37.3333C76 38.0693 75.4027 38.6667 74.6667 38.6667Z" fill="#5C5C5C" stroke="#5C5C5C" stroke-width="0.5"/>
<path d="M33.3334 52C31.128 52 29.3334 50.2053 29.3334 48C29.3334 45.7947 31.128 44 33.3334 44C35.5387 44 37.3334 45.7947 37.3334 48C37.3334 50.2053 35.5387 52 33.3334 52ZM33.3334 46.6667C32.5974 46.6667 32 47.2667 32 48C32 48.7333 32.5974 49.3333 33.3334 49.3333C34.0694 49.3333 34.6667 48.7333 34.6667 48C34.6667 47.2667 34.0694 46.6667 33.3334 46.6667Z" fill="#5C5C5C" stroke="#5C5C5C" stroke-width="0.5"/>
<path d="M40 62.6665C39.264 62.6665 38.6667 62.0692 38.6667 61.3332V59.9998C38.6667 58.5278 37.4694 57.3332 36 57.3332H30.6667C29.1974 57.3332 28 58.5278 28 59.9998V61.3332C28 62.0692 27.4027 62.6665 26.6667 62.6665C25.9307 62.6665 25.3334 62.0692 25.3334 61.3332V59.9998C25.3334 57.0585 27.7254 54.6665 30.6667 54.6665H36C38.9414 54.6665 41.3334 57.0585 41.3334 59.9998V61.3332C41.3334 62.0692 40.736 62.6665 40 62.6665Z" fill="#5C5C5C" stroke="#5C5C5C" stroke-width="0.5"/>
</svg>
