<svg width="88" height="88" viewBox="0 0 88 88" fill="none" xmlns="http://www.w3.org/2000/svg">
<path d="M84.6167 15H4.38333C3.61939 15 3 15.6194 3 16.3833V71.7167C3 72.4806 3.61939 73.1 4.38333 73.1H84.6167C85.3806 73.1 86 72.4806 86 71.7167V16.3833C86 15.6194 85.3806 15 84.6167 15ZM83.2333 70.3333H5.76667V17.7667H83.2333V70.3333Z" fill="#5C5C5C"/>
<path d="M65.25 67.5665C66.5867 67.5659 67.8991 67.2106 69.0542 66.5371C72.2511 68.394 76.3207 67.6841 78.6997 64.8539C81.0786 62.0237 81.0786 57.8927 78.6997 55.0625C76.3207 52.2323 72.2511 51.5224 69.0542 53.3793C66.2841 51.7703 62.8035 52.0689 60.3482 54.125C57.8923 56.1817 56.9878 59.5556 58.0854 62.5648C59.1824 65.5739 62.047 67.574 65.25 67.5665ZM71.3203 55.3935C71.8141 55.2172 72.3342 55.1233 72.8583 55.1165C75.5325 55.1165 77.7 57.2841 77.7 59.9582C77.7 62.6323 75.5325 64.7999 72.8583 64.7999C72.3342 64.7931 71.8141 64.6992 71.3203 64.5229C73.3683 61.8245 73.3683 58.0919 71.3203 55.3935ZM69.0542 56.999C70.4375 58.7295 70.4375 61.1868 69.0542 62.9174C67.6708 61.1868 67.6708 58.7295 69.0542 56.999V56.999ZM65.25 55.1165C65.7742 55.1233 66.2943 55.2172 66.788 55.3935C64.74 58.0919 64.74 61.8245 66.788 64.5229C66.2943 64.6992 65.7742 64.7931 65.25 64.7999C62.5759 64.7999 60.4083 62.6323 60.4083 59.9582C60.4083 57.2841 62.5759 55.1165 65.25 55.1165Z" fill="#5C5C5C"/>
<path d="M12.6834 39.8998H29.2834C30.0473 39.8998 30.6667 39.2804 30.6667 38.5165V24.6831C30.6667 23.9192 30.0473 23.2998 29.2834 23.2998H12.6834C11.9194 23.2998 11.3 23.9192 11.3 24.6831V38.5165C11.3 39.2804 11.9194 39.8998 12.6834 39.8998ZM25.1334 30.2165V26.0665H27.9V37.1331H25.1334V30.2165ZM19.6 26.0665H22.3667V28.8331H19.6V26.0665ZM19.6 31.5998H22.3667V37.1331H19.6V31.5998ZM14.0667 26.0665H16.8334V37.1331H14.0667V26.0665Z" fill="#5C5C5C"/>
<path d="M12.6834 53.7331H18.2167C18.9807 53.7331 19.6 53.1137 19.6 52.3498V46.8164C19.6 46.0525 18.9807 45.4331 18.2167 45.4331H12.6834C11.9194 45.4331 11.3 46.0525 11.3 46.8164V52.3498C11.3 53.1137 11.9194 53.7331 12.6834 53.7331ZM14.0667 48.1998H16.8334V50.9664H14.0667V48.1998Z" fill="#5C5C5C"/>
<path d="M40.35 53.7331H45.8833C46.6473 53.7331 47.2667 53.1137 47.2667 52.3498V46.8164C47.2667 46.0525 46.6473 45.4331 45.8833 45.4331H40.35C39.5861 45.4331 38.9667 46.0525 38.9667 46.8164V52.3498C38.9667 53.1137 39.5861 53.7331 40.35 53.7331ZM41.7333 48.1998H44.5V50.9664H41.7333V48.1998Z" fill="#5C5C5C"/>
<path d="M51.4167 53.7331H56.95C57.7139 53.7331 58.3333 53.1137 58.3333 52.3498V46.8164C58.3333 46.0525 57.7139 45.4331 56.95 45.4331H51.4167C50.6527 45.4331 50.0333 46.0525 50.0333 46.8164V52.3498C50.0333 53.1137 50.6527 53.7331 51.4167 53.7331ZM52.8 48.1998H55.5667V50.9664H52.8V48.1998Z" fill="#5C5C5C"/>
<path d="M22.3666 46.8164V52.3498C22.3666 53.1137 22.986 53.7331 23.7499 53.7331H34.8166C35.5805 53.7331 36.1999 53.1137 36.1999 52.3498V46.8164C36.1999 46.0525 35.5805 45.4331 34.8166 45.4331H23.7499C22.986 45.4331 22.3666 46.0525 22.3666 46.8164ZM25.1332 48.1998H33.4332V50.9664H25.1332V48.1998Z" fill="#5C5C5C"/>
<path d="M12.6834 64.8H25.1334C25.8973 64.8 26.5167 64.1806 26.5167 63.4167V57.8833C26.5167 57.1194 25.8973 56.5 25.1334 56.5H12.6834C11.9194 56.5 11.3 57.1194 11.3 57.8833V63.4167C11.3 64.1806 11.9194 64.8 12.6834 64.8ZM14.0667 59.2667H23.75V62.0333H14.0667V59.2667Z" fill="#5C5C5C"/>
<path d="M30.6667 56.5C29.9027 56.5 29.2833 57.1194 29.2833 57.8833V63.4167C29.2833 64.1806 29.9027 64.8 30.6667 64.8H36.2C36.9639 64.8 37.5833 64.1806 37.5833 63.4167V57.8833C37.5833 57.1194 36.9639 56.5 36.2 56.5H30.6667ZM34.8167 62.0333H32.05V59.2667H34.8167V62.0333Z" fill="#5C5C5C"/>
</svg>
