<svg width="88" height="88" viewBox="0 0 88 88" fill="none" xmlns="http://www.w3.org/2000/svg">
<path d="M73.1836 13H14.8164C13.8133 13 13 13.8133 13 14.8164V73.1836C13 74.1867 13.8133 75 14.8164 75H73.1836C74.1867 75 75 74.1867 75 73.1836V14.8164C75 13.8133 74.1867 13 73.1836 13ZM71.3672 71.3672H16.6328V16.6328H71.3672V71.3672Z" fill="#5C5C5C"/>
<path d="M52.8327 40.945C52.1233 40.2357 50.9731 40.2357 50.2639 40.9449L45.8164 45.3926V28.3158C45.8164 27.3127 45.0031 26.4995 44 26.4995C42.9968 26.4995 42.1836 27.3128 42.1836 28.3158V45.3926L37.736 40.945C37.0268 40.2358 35.8766 40.2358 35.1674 40.945C34.458 41.6543 34.458 42.8044 35.1674 43.5137L42.7154 51.0616C43.4234 51.7703 44.5794 51.7675 45.2847 51.0616L52.8327 43.5137C53.542 42.8044 53.542 41.6543 52.8327 40.945Z" fill="#5C5C5C"/>
<path d="M47.8703 57.8682H40.1297C39.1266 57.8682 38.3133 58.6814 38.3133 59.6845C38.3133 60.6875 39.1266 61.5007 40.1297 61.5007H47.8703C48.8734 61.5007 49.6867 60.6875 49.6867 59.6845C49.6867 58.6814 48.8734 57.8682 47.8703 57.8682Z" fill="#5C5C5C"/>
</svg>
