<svg width="44" height="44" viewBox="0 0 44 44" fill="none" xmlns="http://www.w3.org/2000/svg">
<path d="M28.875 28.875H35.75V35.75H28.875V28.875ZM23.375 23.375H28.875V28.875H23.375V23.375ZM35.75 35.75H41.25V41.25H35.75V35.75ZM37.125 23.375H41.25V27.5H37.125V23.375ZM23.375 37.125H27.5V41.25H23.375V37.125ZM28.875 8.25H35.75V15.125H28.875V8.25Z" fill="#5C5C5C"/>
<path d="M41.25 20.625H23.375V2.75H41.25V20.625ZM27.1562 16.8438H37.4688V6.53125H27.1562V16.8438ZM8.25 8.25H15.125V15.125H8.25V8.25Z" fill="#5C5C5C"/>
<path d="M20.625 20.625H2.75V2.75H20.625V20.625ZM6.53125 16.8438H16.8438V6.53125H6.53125V16.8438ZM8.25 28.875H15.125V35.75H8.25V28.875Z" fill="#5C5C5C"/>
<path d="M20.625 41.25H2.75V23.375H20.625V41.25ZM6.53125 37.4688H16.8438V27.1562H6.53125V37.4688Z" fill="#5C5C5C"/>
</svg>
