<svg width="88" height="88" viewBox="0 0 88 88" fill="none" xmlns="http://www.w3.org/2000/svg">
<path d="M77.3985 15.2031H26.3359C23.8803 15.2031 21.8828 17.2007 21.8828 19.6563V26.7598L8.38544 13.263C7.80618 12.6832 6.86627 12.6832 6.28644 13.263C5.7066 13.8423 5.7066 14.7822 6.28644 15.362L23.7708 32.8463L14.5328 42.0842L8.38544 35.9368C7.80618 35.3576 6.86627 35.3576 6.28644 35.9368C5.7066 36.5167 5.7066 37.4566 6.28644 38.0364L18.6253 50.3753L18.6236 51.7112C18.6184 55.1207 19.7908 58.468 21.8828 61.1382V70.7188C21.8828 73.1744 23.8803 75.1719 26.3359 75.1719H77.3985C79.8541 75.1719 81.8516 73.1744 81.8516 70.7188V36.8733C81.8516 36.0534 81.1871 35.3889 80.3672 35.3889C79.5473 35.3889 78.8828 36.0534 78.8828 36.8733V70.7188C78.8828 71.5369 78.2172 72.2032 77.3985 72.2032H46.4092C46.4713 72.1481 46.5322 72.0912 46.5919 72.0315C46.9722 71.6512 47.2651 71.2163 47.4721 70.7518C48.0594 71.0458 48.7112 71.2024 49.3873 71.2024C50.5319 71.2024 51.608 70.7565 52.4181 69.947C53.2275 69.1382 53.6734 68.0614 53.6734 66.9168C53.6734 66.2413 53.5168 65.5901 53.2234 65.0034C53.6937 64.7923 54.1268 64.4966 54.502 64.1214C55.3114 63.312 55.7573 62.2352 55.7573 61.0906C55.7573 59.9455 55.3114 58.8693 54.502 58.0598L49.3896 52.9474C50.9638 53.0622 52.5561 52.385 53.5482 51.0293L53.5969 50.9627C55.152 48.8364 54.7026 45.8317 52.5949 44.265C51.2653 43.277 49.4644 41.9329 47.2419 40.2694C44.1241 37.9373 40.2641 36.6535 36.3706 36.6535C36.3642 36.6535 36.3578 36.6535 36.3508 36.6535L31.7812 36.6582L24.8516 29.7286V19.6563C24.8516 18.8375 25.5172 18.1719 26.3359 18.1719H41.8326V33.309C41.8326 33.9097 42.1944 34.4507 42.7493 34.6803C43.3036 34.9105 43.942 34.7835 44.3665 34.3591L47.5921 31.1335L50.8177 34.3585C51.397 34.9384 52.3369 34.9384 52.9167 34.3585L56.1423 31.1335L59.3674 34.3585C59.6515 34.6427 60.0313 34.7934 60.4174 34.7934C60.6088 34.7934 60.8019 34.7563 60.9851 34.6803C61.54 34.4507 61.9018 33.9097 61.9018 33.309V18.1719H77.3985C78.2172 18.1719 78.8828 18.8375 78.8828 19.6563V24.9983C78.8828 25.8182 79.5473 26.4826 80.3672 26.4826C81.1871 26.4826 81.8516 25.8182 81.8516 24.9983V19.6563C81.8516 17.2007 79.8541 15.2031 77.3985 15.2031V15.2031ZM24.8516 70.7188V64.2629L29.7019 69.1132C29.7025 69.1138 29.703 69.1144 29.703 69.1144L32.7918 72.2032H26.3359C25.5172 72.2032 24.8516 71.5369 24.8516 70.7188ZM36.3543 39.6217H36.3706C39.6269 39.6217 42.8554 40.6961 45.4629 42.6467C47.6883 44.3114 49.4922 45.6578 50.8241 46.6475C51.6277 47.2453 51.7971 48.3946 51.201 49.2092L51.1523 49.2759C50.6061 50.0222 49.5693 50.2141 48.7923 49.7131L43.0961 46.041C42.355 45.5638 41.3786 45.721 40.8254 46.4075C40.2717 47.0934 40.3244 48.0809 40.9478 48.7042L52.403 60.1594C52.6517 60.4082 52.7886 60.7387 52.7886 61.0906C52.7886 61.4426 52.6517 61.7731 52.403 62.0218C52.1542 62.2706 51.8231 62.408 51.4712 62.408C51.172 62.408 50.8879 62.3077 50.6565 62.1245L44.9075 56.3754C44.868 56.336 44.8263 56.2995 44.7834 56.2653L44.196 55.6779C43.6162 55.0986 42.6763 55.098 42.0964 55.6779C41.5172 56.2571 41.5172 57.197 42.0964 57.7769L48.441 64.1214C48.5065 64.1869 48.5749 64.2496 48.6439 64.3105L50.3191 65.9856C50.5678 66.2343 50.7046 66.5648 50.7046 66.9168C50.7046 67.2688 50.5678 67.5993 50.3191 67.848C50.0703 68.0968 49.7392 68.2342 49.3873 68.2342C49.0359 68.2342 48.7048 68.0968 48.456 67.848L46.7803 66.1723C46.72 66.1039 46.658 66.036 46.5919 65.9699L40.9524 60.3305C40.9124 60.291 40.8707 60.2545 40.8277 60.2203L40.2404 59.6329C39.6611 59.0531 38.7212 59.0531 38.1414 59.6329C37.5615 60.2122 37.5615 61.1521 38.1414 61.7319L44.5949 68.1855C45.0026 68.7021 44.9695 69.4559 44.4929 69.9325C43.9791 70.4457 43.1436 70.4457 42.6299 69.9325L40.7558 68.0585C40.695 67.9889 40.6323 67.9211 40.5668 67.8556L36.9974 64.2855C36.9574 64.2461 36.9156 64.2096 36.8727 64.1753L36.2853 63.588C35.7061 63.0081 34.7662 63.0081 34.1863 63.588C33.6065 64.1678 33.6065 65.1077 34.1863 65.6876L38.5699 70.0711C38.7531 70.3025 38.8534 70.5866 38.8534 70.8858C38.8534 71.2377 38.7166 71.5688 38.4672 71.8176C38.2185 72.0663 37.888 72.2032 37.536 72.2032C37.1841 72.2032 36.8536 72.0663 36.6048 71.8176L28.8298 64.0426C28.8292 64.042 28.8287 64.0414 28.8287 64.0408L25.1786 60.3914C22.8952 58.1074 21.5877 54.9455 21.5923 51.7165L21.5958 49.5589L31.5272 39.6275L36.3543 39.6217ZM19.7021 47.2535L16.6318 44.1838L25.8698 34.9453L28.94 38.0155L19.7021 47.2535ZM58.9331 29.7257L57.1918 27.9844C56.612 27.4052 55.6721 27.4052 55.0928 27.9844L51.8672 31.21L48.6416 27.9844C48.3517 27.6945 47.9719 27.5495 47.5921 27.5495C47.2123 27.5495 46.8325 27.6945 46.5426 27.9844L44.8014 29.7257V18.1719H58.9331V29.7257Z" fill="#5C5C5C"/>
<path d="M72.3516 57.2344H62.8516C62.0317 57.2344 61.3672 57.8989 61.3672 58.7188C61.3672 59.5386 62.0317 60.2031 62.8516 60.2031H72.3516C73.1715 60.2031 73.8359 59.5386 73.8359 58.7188C73.8359 57.8989 73.1715 57.2344 72.3516 57.2344Z" fill="#5C5C5C"/>
<path d="M72.3515 63.3569H65.9194C65.0995 63.3569 64.4351 64.0214 64.4351 64.8413C64.4351 65.6606 65.0995 66.3257 65.9194 66.3257H72.3515C73.1714 66.3257 73.8359 65.6606 73.8359 64.8413C73.8359 64.0214 73.1714 63.3569 72.3515 63.3569Z" fill="#5C5C5C"/>
<path d="M59.9819 63.356C59.5905 63.356 59.209 63.5148 58.933 63.7908C58.6553 64.0668 58.4976 64.4501 58.4976 64.8403C58.4976 65.2311 58.6553 65.6138 58.933 65.8898C59.209 66.1658 59.5917 66.3247 59.9819 66.3247C60.3727 66.3247 60.7554 66.1658 61.0314 65.8898C61.308 65.6138 61.4663 65.2311 61.4663 64.8403C61.4663 64.4501 61.308 64.0668 61.0314 63.7908C60.7554 63.5148 60.3727 63.356 59.9819 63.356Z" fill="#5C5C5C"/>
<path d="M80.3672 29.4512C79.977 29.4512 79.5937 29.61 79.3177 29.886C79.0417 30.1626 78.8828 30.5453 78.8828 30.9355C78.8828 31.3264 79.0417 31.709 79.3177 31.985C79.5937 32.261 79.977 32.4199 80.3672 32.4199C80.7574 32.4199 81.1407 32.261 81.4167 31.985C81.6927 31.709 81.8516 31.3264 81.8516 30.9355C81.8516 30.5453 81.6927 30.1626 81.4167 29.886C81.1407 29.61 80.7574 29.4512 80.3672 29.4512Z" fill="#5C5C5C"/>
</svg>
