<svg width="48" height="48" viewBox="0 0 48 48" fill="none" xmlns="http://www.w3.org/2000/svg">
<path d="M7.36054 29.857C3.68877 27.1895 1.59998 23.346 1.59998 19.2002C1.59998 11.4796 8.92661 5.2002 17.9333 5.2002C25.2021 5.2002 31.4853 9.20796 33.5723 15.172C33.7421 15.6592 33.4865 16.1912 32.9993 16.361C32.5121 16.5308 31.9819 16.2732 31.8102 15.788C30.0144 10.6527 24.308 7.06683 17.9333 7.06683C9.9571 7.06683 3.4667 12.51 3.4667 19.2002C3.4667 22.956 5.50886 26.4428 9.06854 28.7688C9.46614 29.0282 9.6043 29.5434 9.39333 29.9672L8.48054 31.7946L11.1219 30.2844C11.3665 30.1444 11.6577 30.1258 11.9209 30.2228C13.1995 30.7156 14.5809 31.0498 16.0219 31.214C16.5333 31.2719 16.9011 31.7348 16.8433 32.2463C16.7854 32.7577 16.3411 33.1292 15.811 33.0676C14.3681 32.9052 12.9774 32.586 11.6708 32.1212L6.73159 34.9436C6.58599 35.0276 6.42735 35.0668 6.26862 35.0668C6.03526 35.0668 5.80382 34.9791 5.62646 34.8111C5.32782 34.5292 5.2475 34.0831 5.4323 33.7153L7.36054 29.857Z" fill="#5C5C5C"/>
<path d="M32.4 18.2654C40.1206 18.2654 46.4 23.2886 46.4 29.4654C46.4 32.7936 44.5202 35.9651 41.332 38.0819L42.6014 41.2534C42.7451 41.6136 42.6518 42.0243 42.3662 42.2875C42.1907 42.4499 41.9648 42.5339 41.7352 42.5339C41.5934 42.5339 41.4496 42.5022 41.3152 42.435L36.6878 40.1203C35.284 40.4825 33.843 40.6654 32.4 40.6654C24.6794 40.6654 18.4 35.6422 18.4 29.4654C18.4 23.2886 24.6794 18.2654 32.4 18.2654ZM32.4038 38.8006C33.7982 38.8006 35.1888 38.6083 36.5384 38.2294C36.7624 38.1678 37.0014 38.1883 37.2086 38.2928L39.9582 39.6666L39.3104 38.0501C39.1386 37.6207 39.3066 37.1317 39.7062 36.8983C42.775 35.1064 44.5352 32.3978 44.5352 29.4672C44.5352 24.3208 39.092 20.1338 32.4018 20.1338C25.7117 20.1338 20.2704 24.3208 20.2704 29.4672C20.2704 34.6136 25.7136 38.8006 32.4038 38.8006Z" fill="#5C5C5C"/>
<path d="M7.36054 29.857C3.68877 27.1895 1.59998 23.346 1.59998 19.2002C1.59998 11.4796 8.92661 5.2002 17.9333 5.2002C25.2021 5.2002 31.4853 9.20796 33.5723 15.172C33.7421 15.6592 33.4865 16.1912 32.9993 16.361C32.5121 16.5308 31.9819 16.2732 31.8102 15.788C30.0144 10.6527 24.308 7.06683 17.9333 7.06683C9.9571 7.06683 3.4667 12.51 3.4667 19.2002C3.4667 22.956 5.50886 26.4428 9.06854 28.7688C9.46614 29.0282 9.6043 29.5434 9.39333 29.9672L8.48054 31.7946L11.1219 30.2844C11.3665 30.1444 11.6577 30.1258 11.9209 30.2228C13.1995 30.7156 14.5809 31.0498 16.0219 31.214C16.5333 31.2719 16.9011 31.7348 16.8433 32.2463C16.7854 32.7577 16.3411 33.1292 15.811 33.0676C14.3681 32.9052 12.9774 32.586 11.6708 32.1212L6.73159 34.9436C6.58599 35.0276 6.42735 35.0668 6.26862 35.0668C6.03526 35.0668 5.80382 34.9791 5.62646 34.8111C5.32782 34.5292 5.2475 34.0831 5.4323 33.7153L7.36054 29.857Z" stroke="#5C5C5C" stroke-width="0.5"/>
<path d="M32.4 18.2654C40.1206 18.2654 46.4 23.2886 46.4 29.4654C46.4 32.7936 44.5202 35.9651 41.332 38.0819L42.6014 41.2534C42.7451 41.6136 42.6518 42.0243 42.3662 42.2875C42.1907 42.4499 41.9648 42.5339 41.7352 42.5339C41.5934 42.5339 41.4496 42.5022 41.3152 42.435L36.6878 40.1203C35.284 40.4825 33.843 40.6654 32.4 40.6654C24.6794 40.6654 18.4 35.6422 18.4 29.4654C18.4 23.2886 24.6794 18.2654 32.4 18.2654ZM32.4038 38.8006C33.7982 38.8006 35.1888 38.6083 36.5384 38.2294C36.7624 38.1678 37.0014 38.1883 37.2086 38.2928L39.9582 39.6666L39.3104 38.0501C39.1386 37.6207 39.3066 37.1317 39.7062 36.8983C42.775 35.1064 44.5352 32.3978 44.5352 29.4672C44.5352 24.3208 39.092 20.1338 32.4018 20.1338C25.7117 20.1338 20.2704 24.3208 20.2704 29.4672C20.2704 34.6136 25.7136 38.8006 32.4038 38.8006Z" stroke="#5C5C5C" stroke-width="0.5"/>
</svg>
