<svg width="48" height="48" viewBox="0 0 48 48" fill="none" xmlns="http://www.w3.org/2000/svg">
<path d="M30.4477 2.05834C30.2434 1.84309 29.9632 1.71387 29.6727 1.71387H12.2855C9.07705 1.71387 6.42871 4.35166 6.42871 7.55973V40.4392C6.42871 43.6476 9.07705 46.2854 12.2855 46.2854H35.8845C39.0929 46.2854 41.7413 43.6476 41.7413 40.4392V14.3316C41.7413 14.0517 41.612 13.7827 41.4291 13.578L30.4477 2.05834ZM30.7599 5.51431L38.1132 13.2335H33.3331C31.912 13.2335 30.7599 12.0923 30.7599 10.6712V5.51431ZM35.8845 44.1322H12.2855C10.2723 44.1322 8.58193 42.4635 8.58193 40.4392V7.55973C8.58193 5.54661 10.2615 3.86709 12.2855 3.86709H28.6067V10.6712C28.6067 13.2873 30.7171 15.3867 33.3331 15.3867H39.588V40.4392C39.588 42.4635 37.9085 44.1322 35.8845 44.1322Z" fill="#5C5C5C"/>
<path d="M32.9453 36.7038H15.2244C14.6324 36.7038 14.1478 37.188 14.1478 37.7804C14.1478 38.3725 14.6324 38.857 15.2244 38.857H32.9562C33.5482 38.857 34.0328 38.3725 34.0328 37.7804C34.0328 37.188 33.5482 36.7038 32.9453 36.7038Z" fill="#5C5C5C"/>
<path d="M23.2991 32.8383C23.5038 33.0536 23.7836 33.1828 24.0849 33.1828C24.3866 33.1828 24.6664 33.0536 24.8708 32.8383L31.1798 26.0665C31.5889 25.6356 31.5566 24.9467 31.1261 24.5485C30.6952 24.1394 30.0063 24.1714 29.6081 24.6022L25.1615 29.3715V17.6151C25.1615 17.0227 24.677 16.5385 24.0849 16.5385C23.4929 16.5385 23.0083 17.0227 23.0083 17.6151V29.3715L18.5727 24.6022C18.1636 24.1717 17.4852 24.1394 17.0547 24.5485C16.6241 24.9576 16.5918 25.636 17.0009 26.0665L23.2991 32.8383Z" fill="#5C5C5C"/>
</svg>
