<svg width="48" height="48" viewBox="0 0 48 48" fill="none" xmlns="http://www.w3.org/2000/svg">
<path d="M37.2222 20.2701V10.7778C37.2222 8.69433 35.528 7 33.4444 7H5.11109C3.02762 7 1.33337 8.69424 1.33337 10.7778V29.6667C1.33337 31.7501 3.02762 33.4445 5.11118 33.4445H26.2917C27.5291 37.7983 31.5325 41 36.2778 41C38.104 41 39.8997 40.5195 41.4732 39.6092C41.9242 39.3482 42.0792 38.7708 41.8172 38.3189C41.5562 37.867 40.9779 37.711 40.5269 37.9749C39.2412 38.7183 37.7719 39.1111 36.2778 39.1111C31.5905 39.1111 27.7778 35.2983 27.7778 30.6111C27.7778 25.924 31.5906 22.1111 36.2778 22.1111C40.9649 22.1111 44.7778 25.924 44.7778 30.6111V31.5556C44.7778 32.5969 43.9301 33.4445 42.8889 33.4445C41.8476 33.4445 41 32.5969 41 31.5556V27.7778C41 27.2558 40.5776 26.8333 40.0556 26.8333C39.8015 26.8333 39.5733 26.9361 39.4037 27.099C38.569 26.3551 37.4811 25.8889 36.2778 25.8889C33.6741 25.8889 31.5556 28.0074 31.5556 30.6111C31.5556 33.2147 33.6741 35.3333 36.2778 35.3333C37.6853 35.3333 38.9368 34.7019 39.8027 33.7217C40.4869 34.6936 41.6125 35.3333 42.889 35.3333C44.9725 35.3333 46.6667 33.6391 46.6667 31.5555V30.6111C46.6667 25.2014 42.5091 20.7495 37.2222 20.2701ZM5.11118 8.88886H33.4445C33.4838 8.88886 33.5168 8.90896 33.5555 8.91135L20.0544 19.9935C19.5739 20.296 18.8776 20.2333 18.5649 20.0415L5.0013 8.91117C5.03964 8.90887 5.07222 8.88886 5.11118 8.88886ZM35.3334 20.2701C30.0465 20.7495 25.8889 25.2014 25.8889 30.6111C25.8889 30.9299 25.9085 31.244 25.9367 31.5556H5.11118C4.06993 31.5556 3.22232 30.708 3.22232 29.6668V10.7778C3.22232 10.5103 3.28138 10.2577 3.38214 10.027L17.4499 21.5633C17.9996 21.9221 18.6314 22.1112 19.2779 22.1112C19.8996 22.1112 20.5073 21.936 21.0423 21.604C21.0958 21.5754 21.1465 21.5413 21.1945 21.5016L35.1735 10.0268C35.2743 10.2577 35.3335 10.5103 35.3335 10.7779V20.2701H35.3334ZM36.2778 33.4445C34.7154 33.4445 33.4445 32.1735 33.4445 30.6111C33.4445 29.0487 34.7154 27.7778 36.2778 27.7778C37.8403 27.7778 39.1112 29.0487 39.1112 30.6111C39.1112 32.1735 37.8403 33.4445 36.2778 33.4445Z" fill="#5C5C5C" stroke="#5C5C5C" stroke-width="0.3"/>
</svg>
