<svg width="48" height="48" viewBox="0 0 48 48" fill="none" xmlns="http://www.w3.org/2000/svg">
<path d="M24.0306 1.38477C13.0705 1.38477 4.15381 10.3015 4.15381 21.2616C4.15381 22.4762 4.15381 31.8721 4.15381 32.0392C4.15381 34.2312 5.93716 36.0146 8.12917 36.0146H9.68221C10.2292 37.5568 11.7021 38.6648 13.4297 38.6648C15.6217 38.6648 17.405 36.8815 17.405 34.6895V23.9118C17.405 21.7198 15.6217 19.9364 13.4297 19.9364C11.7021 19.9364 10.2292 21.0444 9.68221 22.5867H8.12917C7.66458 22.5867 7.21881 22.6675 6.80405 22.8146V21.2616C6.80405 11.7628 14.5319 4.03501 24.0306 4.03501C33.5293 4.03501 41.2572 11.7628 41.2572 21.2616V22.8146C40.8424 22.6675 40.3966 22.5867 39.9321 22.5867H38.379C37.832 21.0444 36.3591 19.9364 34.6316 19.9364C32.4396 19.9364 30.6562 21.7198 30.6562 23.9118V34.6895C30.6562 36.8815 32.4396 38.6648 34.6316 38.6648C35.0327 38.6648 35.42 38.6046 35.7854 38.4935C35.2897 40.1245 33.7722 41.3151 31.9813 41.3151H27.7781C27.231 39.7728 25.7581 38.6648 24.0306 38.6648C21.8386 38.6648 20.0553 40.4482 20.0553 42.6402C20.0553 44.8322 21.8386 46.6155 24.0306 46.6155C25.7581 46.6155 27.231 45.5076 27.7781 43.9653H31.9813C35.6347 43.9653 38.6069 40.993 38.6069 37.3397V36.0146H39.9321C42.1241 36.0146 43.9074 34.2312 43.9074 32.0392C43.9074 31.8745 43.9074 22.4752 43.9074 21.2616C43.9074 10.3015 34.9907 1.38477 24.0306 1.38477ZM12.1045 23.9118C12.1045 23.1811 12.699 22.5867 13.4297 22.5867C14.1603 22.5867 14.7548 23.1811 14.7548 23.9118V34.6895C14.7548 35.4201 14.1603 36.0146 13.4297 36.0146C12.699 36.0146 12.1045 35.4201 12.1045 34.6895V23.9118ZM8.12917 25.2369H9.45429V33.3643H8.12917C7.3985 33.3643 6.80405 32.7699 6.80405 32.0392V26.562C6.80405 25.8314 7.3985 25.2369 8.12917 25.2369ZM24.0306 43.9653C23.2999 43.9653 22.7055 43.3708 22.7055 42.6402C22.7055 41.9095 23.2999 41.3151 24.0306 41.3151C24.7613 41.3151 25.3557 41.9095 25.3557 42.6402C25.3557 43.3708 24.7613 43.9653 24.0306 43.9653ZM35.9567 34.6895C35.9567 35.4201 35.3622 36.0146 34.6316 36.0146C33.9009 36.0146 33.3065 35.4201 33.3065 34.6895V23.9118C33.3065 23.1811 33.9009 22.5867 34.6316 22.5867C35.3622 22.5867 35.9567 23.1811 35.9567 23.9118V34.6895ZM41.2572 32.0392C41.2572 32.7699 40.6627 33.3643 39.9321 33.3643H38.6069V25.2369H39.9321C40.6627 25.2369 41.2572 25.8314 41.2572 26.562V32.0392Z" fill="#5C5C5C"/>
</svg>
