<svg width="48" height="48" viewBox="0 0 48 48" fill="none" xmlns="http://www.w3.org/2000/svg">
<path d="M30.8177 26.1898L34.7656 26.9733C34.9043 29.1918 36.8152 30.8777 39.0337 30.7389C41.2522 30.6002 42.9381 28.6893 42.7994 26.4708C42.6607 24.2523 40.7498 22.5665 38.5313 22.7052C37.0931 22.7951 35.8127 23.6471 35.1743 24.939L31.0889 24.1283C31.0446 22.5808 30.4458 21.1008 29.4017 19.9577L34.9089 12.178C37.4591 13.284 40.423 12.1133 41.5289 9.56319C42.6349 7.01312 41.4642 4.04911 38.9141 2.94318C36.364 1.83725 33.4 3.00791 32.2941 5.55798C31.5005 7.38775 31.8622 9.51339 33.2163 10.9777L27.7744 18.6652C25.1708 17.2041 21.9054 17.7152 19.8729 19.9021L12.7418 14.364C13.6834 12.3453 12.8101 9.9457 10.7916 9.00411C8.77287 8.06251 6.37323 8.93574 5.43163 10.9543C4.49003 12.973 5.36326 15.3726 7.38184 16.3142C8.69142 16.9251 10.2278 16.7886 11.4093 15.9564L18.7149 21.6299C17.5414 24.1931 18.1628 27.2212 20.2512 29.1149L15.875 35.3039C13.2915 33.8636 10.0295 34.7902 8.58924 37.3737C7.14893 39.9572 8.07559 43.2191 10.6591 44.6594C13.2425 46.0997 16.5045 45.1731 17.9448 42.5896C19.0008 40.6954 18.8104 38.3514 17.4623 36.6526L21.9907 30.2478C23.5686 30.9478 25.3609 30.9872 26.968 30.3573L32.3815 38.3542C30.726 40.2397 30.9125 43.1101 32.7979 44.7655C34.6834 46.4209 37.5538 46.2344 39.2092 44.349C40.8646 42.4636 40.6781 39.5931 38.7927 37.9378C37.4963 36.7995 35.6671 36.4937 34.071 37.1486L28.7572 29.299C29.733 28.486 30.4494 27.4052 30.8177 26.1898ZM38.7806 24.7722C39.8569 24.7722 40.7294 25.6447 40.7294 26.721C40.7294 27.7972 39.8569 28.6697 38.7806 28.6697C37.7043 28.6697 36.8318 27.7972 36.8318 26.721C36.8328 25.645 37.7048 24.773 38.7806 24.7722ZM36.8979 4.62573C38.524 4.62583 39.8423 5.94413 39.8422 7.57024C39.8421 9.19635 38.5238 10.5146 36.8977 10.5145C35.2716 10.5144 33.9534 9.19624 33.9534 7.57013C33.9554 5.94465 35.2725 4.62749 36.8979 4.62573ZM9.09396 14.6168C8.01822 14.6155 7.14644 13.7437 7.1452 12.668C7.1452 11.5917 8.0177 10.7192 9.09396 10.7192C10.1702 10.7192 11.0427 11.5917 11.0427 12.668C11.0427 13.7443 10.1703 14.6168 9.09396 14.6168ZM13.2805 43.2358C11.4766 43.2357 10.0143 41.7734 10.0144 39.9695C10.0145 38.1656 11.4768 36.7033 13.2807 36.7034C15.0845 36.7035 16.5468 38.1658 16.5468 39.9696C16.5449 41.7727 15.0836 43.2339 13.2805 43.2358ZM35.7945 38.8838C37.1612 38.8854 38.2687 39.9929 38.2703 41.3596C38.2703 42.727 37.1618 43.8354 35.7945 43.8354C34.4271 43.8354 33.3187 42.727 33.3187 41.3596C33.3187 39.9922 34.4272 38.8838 35.7945 38.8838ZM24.6105 28.7283C22.1771 28.7256 20.2051 26.7536 20.2024 24.3202C20.2024 21.8857 22.176 19.9121 24.6105 19.9121C27.045 19.9121 29.0185 21.8857 29.0185 24.3202C29.0185 26.7547 27.045 28.7283 24.6105 28.7283Z" fill="#5C5C5C"/>
</svg>
