<svg width="48" height="48" viewBox="0 0 48 48" fill="none" xmlns="http://www.w3.org/2000/svg">
<path d="M13.4933 22.1689C12.3804 22.8924 11.8451 24.2392 12.1576 25.5293L12.159 25.5361C12.4766 26.8276 13.5749 27.7774 14.8982 27.905L15.1469 27.9289C15.5268 28.4424 16.0703 28.8113 16.6879 28.9745L19.2999 35.2622C19.4371 35.5937 19.7949 35.7758 20.1434 35.692L24.2072 34.7198C24.4154 34.6699 24.5911 34.5313 24.688 34.3406C24.7849 34.1496 24.7935 33.9258 24.7108 33.7283L22.2956 27.9485L22.9342 27.792L33.801 29.3277C34.0409 29.3615 34.2822 29.2742 34.4443 29.0946C34.6068 28.915 34.6699 28.6666 34.6122 28.4314L33.4953 23.8703C35.2433 23.3265 36.2661 21.5164 35.8306 19.7384C35.3955 17.9604 33.6517 16.8281 31.8506 17.1535L30.795 12.843C30.7372 12.6082 30.5665 12.4168 30.3395 12.3327C30.1125 12.2486 29.8584 12.2828 29.6617 12.4235L20.7336 18.8061L15.8579 20C15.1373 20.1742 14.5161 20.6297 14.1334 21.2648C14.0044 21.4779 13.9039 21.7071 13.8355 21.9466L13.4933 22.1689ZM13.5778 25.1936C13.5778 25.1918 13.5771 25.1897 13.5764 25.1882C13.4534 24.6832 13.5724 24.1497 13.8985 23.7449L14.529 26.3198C14.0543 26.1124 13.7029 25.6961 13.5778 25.1936ZM23.0333 33.4999L20.4086 34.1278L18.2532 28.9385L20.8605 28.2999L23.0333 33.4999ZM34.4126 20.0855C34.6553 21.0809 34.11 22.0991 33.1471 22.4487L32.1987 18.5758C33.2137 18.4411 34.1678 19.0915 34.4126 20.0855ZM29.6335 14.2376L32.9379 27.7311L23.4888 26.3964L21.8704 19.7879L29.6335 14.2376ZM15.3818 22.0218C15.5646 21.7185 15.8611 21.5011 16.205 21.4177L20.5084 20.3642L22.0144 26.5147L17.7111 27.5686C17.6021 27.5946 17.4902 27.607 17.3779 27.6049C17.3063 27.5871 17.2328 27.5803 17.1594 27.5849C16.6402 27.4919 16.2243 27.102 16.0981 26.5896L15.2264 23.031C15.1416 22.6875 15.1972 22.324 15.3818 22.0218Z" fill="#5C5C5C"/>
<path d="M43.2391 20.946C42.9536 20.6612 42.4914 20.6619 42.2067 20.9474C41.9223 21.2329 41.9226 21.6951 42.2085 21.9799L43.5032 23.27H39.3414C38.9383 23.27 38.6115 23.5968 38.6115 23.9999C38.6115 24.4029 38.9383 24.7297 39.3414 24.7297H43.5032L42.2088 26.0199C41.9233 26.3043 41.9226 26.7665 42.2074 27.0523C42.4921 27.3378 42.9544 27.3385 43.2398 27.0537L45.7851 24.5166C45.9227 24.3798 46 24.1937 46 23.9999C46 23.8056 45.9227 23.6196 45.7851 23.4827L43.2391 20.946Z" fill="#5C5C5C"/>
<path d="M4.4961 24.7297H8.65792C9.06099 24.7297 9.38779 24.4029 9.38779 23.9999C9.38779 23.5968 9.06099 23.27 8.65792 23.27H4.4961L5.79048 21.9799C6.07629 21.6951 6.07701 21.2332 5.79226 20.9474C5.50787 20.6619 5.04564 20.6612 4.76018 20.946L2.21454 23.4827C2.07733 23.6196 2 23.8056 2 23.9999C2 24.1937 2.07733 24.3798 2.21454 24.5166L4.76018 27.0537C5.04564 27.3381 5.50787 27.3374 5.79226 27.052C6.07701 26.7665 6.07629 26.3043 5.79048 26.0199L4.4961 24.7297Z" fill="#5C5C5C"/>
<path d="M23.9998 38.6117C23.5968 38.6117 23.2699 38.9385 23.2699 39.3416V43.5035L21.9798 42.2091C21.6951 41.9236 21.2329 41.9229 20.9474 42.2077C20.6619 42.4924 20.6612 42.9547 20.946 43.2401L23.4827 45.7855C23.6196 45.923 23.8056 46 23.9998 46C24.1937 46 24.3797 45.923 24.5166 45.7855L27.0537 43.2401C27.3384 42.9547 27.3377 42.4924 27.0522 42.2077C26.7668 41.9229 26.3045 41.9236 26.0198 42.2091L24.7297 43.5035V39.3416C24.7297 38.9385 24.4029 38.6117 23.9998 38.6117Z" fill="#5C5C5C"/>
<path d="M21.9798 5.79053L23.2699 4.49613V8.65801C23.2699 9.06109 23.5967 9.38789 23.9998 9.38789C24.4029 9.38789 24.7297 9.06109 24.7297 8.65801V4.49613L26.0198 5.79053C26.2033 5.97727 26.4727 6.05105 26.7261 5.98405C26.9792 5.9174 27.177 5.71996 27.2447 5.46729C27.3124 5.21425 27.2393 4.94447 27.0536 4.76021L24.5166 2.21454C24.3797 2.07734 24.1937 2 23.9998 2C23.8056 2 23.6196 2.07734 23.4827 2.21454L20.946 4.76021C20.7599 4.94447 20.6869 5.21425 20.7546 5.46729C20.8223 5.71996 21.0201 5.9174 21.2735 5.98405C21.5265 6.05105 21.7959 5.97727 21.9798 5.79053Z" fill="#5C5C5C"/>
<path d="M35.4461 38.3242C35.2536 38.3217 35.0683 38.3966 34.9315 38.5317C34.7943 38.6664 34.7169 38.8506 34.7162 39.0431C34.7151 39.4465 35.0412 39.7744 35.4446 39.7758L39.0384 39.784H39.0398C39.4447 39.7776 39.7697 39.4476 39.7697 39.0427L39.7636 35.4261C39.7647 35.0191 39.4404 34.6855 39.0338 34.6748H39.0323C38.6254 34.6852 38.3014 35.0194 38.3039 35.4268L38.3068 37.265L35.3641 34.327C35.0779 34.0419 34.615 34.0429 34.3299 34.3291C34.0448 34.6153 34.0458 35.0783 34.3317 35.3634L37.2747 38.3164L35.4471 38.3239L35.4461 38.3242Z" fill="#5C5C5C"/>
<path d="M8.96584 13.3256H8.96691C9.37425 13.3149 9.69784 12.9806 9.69571 12.5733L9.6925 10.7354L12.6355 13.6731C12.922 13.9557 13.3832 13.9536 13.6672 13.6685C13.9513 13.383 13.9516 12.9218 13.6676 12.6364L10.7253 9.683L12.5521 9.67623H12.5535C12.7456 9.67837 12.9309 9.60353 13.0681 9.46881C13.205 9.33374 13.2827 9.14949 13.2834 8.9574C13.2841 8.55397 12.958 8.22574 12.5546 8.22431L8.96085 8.21647H8.95942C8.55457 8.22253 8.22955 8.55254 8.22955 8.95776L8.23597 12.5744C8.2349 12.9814 8.55885 13.3149 8.96584 13.3256Z" fill="#5C5C5C"/>
<path d="M13.6676 34.3322C13.3825 34.047 12.9203 34.047 12.6355 34.3322L9.69252 37.2748L9.69572 35.4263C9.69786 35.0189 9.37427 34.6846 8.96692 34.6743H8.96585C8.55922 34.6839 8.23491 35.0171 8.23598 35.4238L8.22957 39.0283C8.22921 39.2257 8.30583 39.4157 8.4434 39.5575C8.57918 39.6976 8.7645 39.7788 8.95944 39.7834H8.96086L12.5546 39.7706C12.8151 39.7731 13.0568 39.6355 13.1875 39.4107C13.3183 39.1854 13.3183 38.9074 13.1872 38.6822C13.0557 38.4573 12.8137 38.3205 12.5535 38.3237H12.5521L10.7246 38.3169L13.6676 35.3692C13.9527 35.082 13.9527 34.619 13.6676 34.3322Z" fill="#5C5C5C"/>
<path d="M34.8481 13.8816C35.0416 13.8816 35.2273 13.8046 35.3641 13.6678L38.3068 10.7254L38.3039 12.5737C38.3018 12.981 38.6254 13.3149 39.0324 13.3256H39.0338C39.4404 13.3157 39.7644 12.9824 39.7636 12.5758L39.7697 8.97166C39.7701 8.77386 39.6934 8.58426 39.5559 8.44242C39.4205 8.302 39.2348 8.22075 39.0398 8.21647H39.0384L35.4447 8.2293C35.1842 8.22645 34.9425 8.36402 34.8117 8.58925C34.6809 8.81413 34.6809 9.09247 34.8124 9.31735C34.9436 9.54223 35.1856 9.67908 35.4461 9.67623H35.4472L37.2747 9.68265L34.3317 12.6307C34.1232 12.8402 34.0612 13.1546 34.1738 13.4276C34.2864 13.7009 34.5523 13.8798 34.8481 13.8816Z" fill="#5C5C5C"/>
<path d="M13.4933 22.1689C12.3804 22.8924 11.8451 24.2392 12.1576 25.5293L12.159 25.5361C12.4766 26.8276 13.5749 27.7774 14.8982 27.905L15.1469 27.9289C15.5268 28.4424 16.0703 28.8113 16.6879 28.9745L19.2999 35.2622C19.4371 35.5937 19.7949 35.7758 20.1434 35.692L24.2072 34.7198C24.4154 34.6699 24.5911 34.5313 24.688 34.3406C24.7849 34.1496 24.7935 33.9258 24.7108 33.7283L22.2956 27.9485L22.9342 27.792L33.801 29.3277C34.0409 29.3615 34.2822 29.2742 34.4443 29.0946C34.6068 28.915 34.6699 28.6666 34.6122 28.4314L33.4953 23.8703C35.2433 23.3265 36.2661 21.5164 35.8306 19.7384C35.3955 17.9604 33.6517 16.8281 31.8506 17.1535L30.795 12.843C30.7372 12.6082 30.5665 12.4168 30.3395 12.3327C30.1125 12.2486 29.8584 12.2828 29.6617 12.4235L20.7336 18.8061L15.8579 20C15.1373 20.1742 14.5161 20.6297 14.1334 21.2648C14.0044 21.4779 13.9039 21.7071 13.8355 21.9466L13.4933 22.1689ZM13.5778 25.1936C13.5778 25.1918 13.5771 25.1897 13.5764 25.1882C13.4534 24.6832 13.5724 24.1497 13.8985 23.7449L14.529 26.3198C14.0543 26.1124 13.7029 25.6961 13.5778 25.1936ZM23.0333 33.4999L20.4086 34.1278L18.2532 28.9385L20.8605 28.2999L23.0333 33.4999ZM34.4126 20.0855C34.6553 21.0809 34.11 22.0991 33.1471 22.4487L32.1987 18.5758C33.2137 18.4411 34.1678 19.0915 34.4126 20.0855ZM29.6335 14.2376L32.9379 27.7311L23.4888 26.3964L21.8704 19.7879L29.6335 14.2376ZM15.3818 22.0218C15.5646 21.7185 15.8611 21.5011 16.205 21.4177L20.5084 20.3642L22.0144 26.5147L17.7111 27.5686C17.6021 27.5946 17.4902 27.607 17.3779 27.6049C17.3063 27.5871 17.2328 27.5803 17.1594 27.5849C16.6402 27.4919 16.2243 27.102 16.0981 26.5896L15.2264 23.031C15.1416 22.6875 15.1972 22.324 15.3818 22.0218Z" stroke="#5C5C5C" stroke-width="0.3"/>
<path d="M43.2391 20.946C42.9536 20.6612 42.4914 20.6619 42.2067 20.9474C41.9223 21.2329 41.9226 21.6951 42.2085 21.9799L43.5032 23.27H39.3414C38.9383 23.27 38.6115 23.5968 38.6115 23.9999C38.6115 24.4029 38.9383 24.7297 39.3414 24.7297H43.5032L42.2088 26.0199C41.9233 26.3043 41.9226 26.7665 42.2074 27.0523C42.4921 27.3378 42.9544 27.3385 43.2398 27.0537L45.7851 24.5166C45.9227 24.3798 46 24.1937 46 23.9999C46 23.8056 45.9227 23.6196 45.7851 23.4827L43.2391 20.946Z" stroke="#5C5C5C" stroke-width="0.3"/>
<path d="M4.4961 24.7297H8.65792C9.06099 24.7297 9.38779 24.4029 9.38779 23.9999C9.38779 23.5968 9.06099 23.27 8.65792 23.27H4.4961L5.79048 21.9799C6.07629 21.6951 6.07701 21.2332 5.79226 20.9474C5.50787 20.6619 5.04564 20.6612 4.76018 20.946L2.21454 23.4827C2.07733 23.6196 2 23.8056 2 23.9999C2 24.1937 2.07733 24.3798 2.21454 24.5166L4.76018 27.0537C5.04564 27.3381 5.50787 27.3374 5.79226 27.052C6.07701 26.7665 6.07629 26.3043 5.79048 26.0199L4.4961 24.7297Z" stroke="#5C5C5C" stroke-width="0.3"/>
<path d="M23.9998 38.6117C23.5968 38.6117 23.2699 38.9385 23.2699 39.3416V43.5035L21.9798 42.2091C21.6951 41.9236 21.2329 41.9229 20.9474 42.2077C20.6619 42.4924 20.6612 42.9547 20.946 43.2401L23.4827 45.7855C23.6196 45.923 23.8056 46 23.9998 46C24.1937 46 24.3797 45.923 24.5166 45.7855L27.0537 43.2401C27.3384 42.9547 27.3377 42.4924 27.0522 42.2077C26.7668 41.9229 26.3045 41.9236 26.0198 42.2091L24.7297 43.5035V39.3416C24.7297 38.9385 24.4029 38.6117 23.9998 38.6117Z" stroke="#5C5C5C" stroke-width="0.3"/>
<path d="M21.9798 5.79053L23.2699 4.49613V8.65801C23.2699 9.06109 23.5967 9.38789 23.9998 9.38789C24.4029 9.38789 24.7297 9.06109 24.7297 8.65801V4.49613L26.0198 5.79053C26.2033 5.97727 26.4727 6.05105 26.7261 5.98405C26.9792 5.9174 27.177 5.71996 27.2447 5.46729C27.3124 5.21425 27.2393 4.94447 27.0536 4.76021L24.5166 2.21454C24.3797 2.07734 24.1937 2 23.9998 2C23.8056 2 23.6196 2.07734 23.4827 2.21454L20.946 4.76021C20.7599 4.94447 20.6869 5.21425 20.7546 5.46729C20.8223 5.71996 21.0201 5.9174 21.2735 5.98405C21.5265 6.05105 21.7959 5.97727 21.9798 5.79053Z" stroke="#5C5C5C" stroke-width="0.3"/>
<path d="M35.4461 38.3242C35.2536 38.3217 35.0683 38.3966 34.9315 38.5317C34.7943 38.6664 34.7169 38.8506 34.7162 39.0431C34.7151 39.4465 35.0412 39.7744 35.4446 39.7758L39.0384 39.784H39.0398C39.4447 39.7776 39.7697 39.4476 39.7697 39.0427L39.7636 35.4261C39.7647 35.0191 39.4404 34.6855 39.0338 34.6748H39.0323C38.6254 34.6852 38.3014 35.0194 38.3039 35.4268L38.3068 37.265L35.3641 34.327C35.0779 34.0419 34.615 34.0429 34.3299 34.3291C34.0448 34.6153 34.0458 35.0783 34.3317 35.3634L37.2747 38.3164L35.4471 38.3239L35.4461 38.3242Z" stroke="#5C5C5C" stroke-width="0.3"/>
<path d="M8.96584 13.3256H8.96691C9.37425 13.3149 9.69784 12.9806 9.69571 12.5733L9.6925 10.7354L12.6355 13.6731C12.922 13.9557 13.3832 13.9536 13.6672 13.6685C13.9513 13.383 13.9516 12.9218 13.6676 12.6364L10.7253 9.683L12.5521 9.67623H12.5535C12.7456 9.67837 12.9309 9.60353 13.0681 9.46881C13.205 9.33374 13.2827 9.14949 13.2834 8.9574C13.2841 8.55397 12.958 8.22574 12.5546 8.22431L8.96085 8.21647H8.95942C8.55457 8.22253 8.22955 8.55254 8.22955 8.95776L8.23597 12.5744C8.2349 12.9814 8.55885 13.3149 8.96584 13.3256Z" stroke="#5C5C5C" stroke-width="0.3"/>
<path d="M13.6676 34.3322C13.3825 34.047 12.9203 34.047 12.6355 34.3322L9.69252 37.2748L9.69572 35.4263C9.69786 35.0189 9.37427 34.6846 8.96692 34.6743H8.96585C8.55922 34.6839 8.23491 35.0171 8.23598 35.4238L8.22957 39.0283C8.22921 39.2257 8.30583 39.4157 8.4434 39.5575C8.57918 39.6976 8.7645 39.7788 8.95944 39.7834H8.96086L12.5546 39.7706C12.8151 39.7731 13.0568 39.6355 13.1875 39.4107C13.3183 39.1854 13.3183 38.9074 13.1872 38.6822C13.0557 38.4573 12.8137 38.3205 12.5535 38.3237H12.5521L10.7246 38.3169L13.6676 35.3692C13.9527 35.082 13.9527 34.619 13.6676 34.3322Z" stroke="#5C5C5C" stroke-width="0.3"/>
<path d="M34.8481 13.8816C35.0416 13.8816 35.2273 13.8046 35.3641 13.6678L38.3068 10.7254L38.3039 12.5737C38.3018 12.981 38.6254 13.3149 39.0324 13.3256H39.0338C39.4404 13.3157 39.7644 12.9824 39.7636 12.5758L39.7697 8.97166C39.7701 8.77386 39.6934 8.58426 39.5559 8.44242C39.4205 8.302 39.2348 8.22075 39.0398 8.21647H39.0384L35.4447 8.2293C35.1842 8.22645 34.9425 8.36402 34.8117 8.58925C34.6809 8.81413 34.6809 9.09247 34.8124 9.31735C34.9436 9.54223 35.1856 9.67908 35.4461 9.67623H35.4472L37.2747 9.68265L34.3317 12.6307C34.1232 12.8402 34.0612 13.1546 34.1738 13.4276C34.2864 13.7009 34.5523 13.8798 34.8481 13.8816Z" stroke="#5C5C5C" stroke-width="0.3"/>
</svg>
