<svg width="542" height="239" viewBox="0 0 542 239" fill="none" xmlns="http://www.w3.org/2000/svg">
<g clip-path="url(#clip0)">
<g opacity="0.2">
<path d="M180 46.5693C180 46.5693 174.125 50.2321 167.59 51.301C161.067 52.3699 154.604 56.1629 152.304 62.197C145.439 58.7489 136.734 59.0478 130.14 62.9671C129.397 60.7258 126.578 59.9673 124.172 59.7489C117.566 59.1397 110.831 59.9443 104.58 62.1051C103.117 62.6108 101.619 63.197 100.062 63.0705C97.4082 62.8522 95.2732 60.6109 92.6193 60.3695C86.2026 59.7949 82.145 70.7253 76.1884 68.3117C75.2919 67.9439 74.5253 67.2887 73.5698 67.0933C70.2082 66.3922 68.8635 71.1736 69.0876 74.5183C59.0026 80.9202 43.5154 78.1388 32.7581 83.4259C28.9836 85.2763 3.44953 104.04 0.429932 106.948" stroke="white" stroke-width="2.8346" stroke-miterlimit="10" stroke-linecap="round" stroke-linejoin="round"/>
<path d="M33.9244 82.8848C32.1551 83.5399 30.0083 86.8731 29.3006 88.5856C28.3097 90.9533 21.927 98.9376 21.927 98.9376C21.927 98.9376 -0.209357 126.46 -0.114994 129" stroke="white" stroke-width="2.8346" stroke-miterlimit="10" stroke-linecap="round" stroke-linejoin="round"/>
<path d="M45.4962 80.0693C43.4084 80.4371 41.3914 82.46 40.436 84.4599C39.4569 86.4943 38.8672 88.7126 38.6785 90.9538" stroke="white" stroke-width="2.8346" stroke-miterlimit="10" stroke-linecap="round" stroke-linejoin="round"/>
<path d="M108.153 61.0244C103.907 63.553 101.1 67.277 98.7643 71.5527C96.4289 75.8283 94.8837 80.4718 93.3621 85.0808" stroke="white" stroke-width="2.8346" stroke-miterlimit="10" stroke-linecap="round" stroke-linejoin="round"/>
<path d="M117.918 59.5879C115.016 60.4844 112.822 63.1394 111.147 65.3347C105.509 72.7367 101.629 81.403 99.8711 90.46" stroke="white" stroke-width="2.8346" stroke-miterlimit="10" stroke-linecap="round" stroke-linejoin="round"/>
<path d="M126.861 60.2539C124.242 60.3688 122.013 63.1273 120.55 65.2537C117.118 70.2419 113.567 78.7932 112.47 83.6551" stroke="white" stroke-width="2.8346" stroke-miterlimit="10" stroke-linecap="round" stroke-linejoin="round"/>
<path d="M133.713 61.2646C132.333 61.8968 130.387 64.1266 128.807 66.5632C126.176 70.6205 124.82 74.402 124.195 78.6432" stroke="white" stroke-width="2.8346" stroke-miterlimit="10" stroke-linecap="round" stroke-linejoin="round"/>
<path d="M145.355 60.0457C143.279 59.9193 140.212 61.9192 139.186 63.6892C137.146 67.2063 136.119 71.275 136.273 75.3093" stroke="white" stroke-width="2.8346" stroke-miterlimit="10" stroke-linecap="round" stroke-linejoin="round"/>
</g>
<path opacity="0.2" d="M0.705869 15.9046C1.56533 15.8723 2.66591 15.5501 3.35405 15.0404C5.58 13.417 6.1469 9.70129 8.79837 9.02752C10.4586 8.60563 12.409 9.62477 13.8442 8.65415C14.6862 8.08409 15.0245 7.0095 15.5319 6.11522C16.651 4.12472 18.8117 2.89005 21.0281 2.48628C23.2445 2.08251 25.6108 2.19875 27.6826 3.04354C30.7178 4.27071 34.4414 7.90605 34.918 7.96564C38.0488 8.31281 40.5378 5.74029 44.6158 6.18158C47.5886 6.50512 49.8929 7.20049 50.7991 9.57458C56.4437 8.31561 62.7645 9.56896 67.4109 12.9964C70.3684 15.1787 70.9671 21.5641 70.9671 21.5641C70.9671 21.5641 76.3452 22.3447 77.6522 22.4484C78.5133 22.5113 87.871 27.0323 88.5868 27.1693C89.2445 27.3051 95.3179 27.1862 97.5582 27.8553C99.7985 28.5244 104.806 37.074 105.819 37.2897C114.439 39.1067 120.434 30.525 129.231 31.2075C131.618 31.3876 133.911 32.3888 136.304 32.2856C140.195 32.1155 143.616 29.0881 147.5 29.1536C153.508 29.2692 156.901 36.3531 162.459 38.6451C164.721 39.5799 167.236 39.6583 169.661 39.9775C186.615 42.2069 200.678 57.9852 201.174 75.3191C201.32 80.6183 201.728 87.8386 206.893 88.5831C211.774 89.2879 215.314 82.6695 220.255 82.8064C226.787 82.9802 230.962 88.9351 236.554 92.3138C237.118 92.654 237.716 93.0017 238.371 92.9946C239.167 92.9837 244.168 88.508 246.323 87.2483C250.306 84.9284 257.05 80.6425 263.955 84.8618C265.165 85.5961 266.259 91.5472 266.409 92.3755C267.14 96.4895 273.441 103.206 281.306 104.498C288.056 105.61 294.759 103.035 302.989 105.18C317.556 108.973 316.048 117.02 316.048 117.02C316.048 117.02 326.749 113.243 333.464 123.469C338.222 130.705 332.474 138.512 343.666 148.095C345.852 146.391 348.963 145.951 351.53 146.931C353.194 147.565 354.797 148.779 356.555 148.439C357.435 148.268 367.166 142.601 372.354 141.857C375.88 141.344 381.442 142.237 384.158 144.045C387.808 146.466 390.567 151.106 391.612 154.152C392.345 156.262 392.172 158.916 394.013 160.159C395.955 161.473 398.538 160.689 400.888 160.671C404.748 160.636 408.339 162.854 410.87 165.783C413.403 168.7 416.475 171.916 416.68 175.829C416.821 178.589 416.356 181.142 417.398 182.052C418.439 182.962 419.764 183.449 421.007 184.036C427.709 187.202 435.694 196.515 439.936 202.639C443.146 199.208 447.247 197.449 452.559 198.214C454.513 198.499 459.704 200.613 462.109 202.814C465.365 205.787 474.847 214.06 479.826 213.624C484.804 213.188 495.817 205.484 502.127 207.399C503.742 207.893 507.133 210.22 507.484 210.168C507.983 210.078 508.349 209.651 508.702 209.279C511.23 206.585 550.294 252.268 553.514 253.963" stroke="white" stroke-width="2.8346" stroke-miterlimit="10" stroke-linecap="round" stroke-linejoin="round"/>
</g>
<defs>
<clipPath id="clip0">
<rect width="542" height="239" fill="white"/>
</clipPath>
</defs>
</svg>
