<svg width="415" height="267" viewBox="0 0 415 267" fill="none" xmlns="http://www.w3.org/2000/svg">
<g clip-path="url(#clip0)">
<mask id="mask0" mask-type="alpha" maskUnits="userSpaceOnUse" x="-1" y="-31" width="417" height="355">
<path d="M415.099 322.886L0.100259 323.006L0.0463421 136.414L-0.00176555 -30.074L414.997 -30.1939L415.099 322.886Z" fill="#C4C4C4"/>
</mask>
<g mask="url(#mask0)">
<g opacity="0.2">
<path d="M-182.912 195.107C-178.243 195.975 -172.916 196.317 -168.264 195.611C-148.639 192.647 -142.571 175.878 -140.571 168.351C-140.05 166.373 -139.536 164.051 -137.564 163.159C-133.123 161.123 -129.469 168.799 -124.536 168.289C-119.298 167.756 -111.472 160.305 -107.49 160.468C-105.769 160.534 -104.55 162.018 -103.143 162.931C-99.3371 165.378 -94.1386 164.486 -89.7193 163.135C-87.4161 162.439 -85.074 161.588 -83.3671 160.002C-81.6601 158.417 -83.1439 152.065 -83.3797 151C-84.0707 147.818 -79.1415 146.372 -76.8657 143.916C-74.1861 140.988 -74.2807 136.079 -75.958 133.616C-78.4101 130.04 -82.1302 126.489 -85.3235 124.932C-80.2305 125.735 -74.3422 124.411 -71.6137 122.061C-68.8853 119.71 -65.7595 117.091 -62.0967 117.712C-58.7029 118.294 -52.7038 123.982 -49.4012 126.337C-43.655 130.445 -37.2899 134.742 -30.0201 134.58C-22.7673 134.417 -15.652 127.024 -19.2136 121.188C-6.5287 121.791 5.20808 110.452 3.92978 98.7952C12.341 102.513 21.3741 106.328 30.6191 105.164C33.4519 104.811 36.1985 103.987 38.8816 103.037C45.1019 100.851 57.0127 96.6656 60.0824 91.5995C62.1884 88.1253 60.9041 85.0039 65.7637 83.6191C76.8474 80.4531 87.8201 87.5012 99.3062 89.1285C113.5 91.1306 143.556 76.4774 145.455 76.7975C147.185 77.0971 148.62 78.1669 150.148 78.9746C155.796 81.9582 163.511 81.0771 168.207 76.9306C169.494 75.7844 170.62 74.3999 172.2 73.6204C174.191 72.6504 176.569 72.7819 178.827 72.9567C185.771 73.4705 192.714 73.9843 199.675 74.4985C202.265 77.471 205.422 78.0458 207.611 78.2653C221.62 79.7169 238.653 65.5254 254.266 72.7399C257.013 74.0036 259.38 76.0195 262.348 76.7289C268.869 78.2895 276.097 73.1421 282.194 75.8273C284.372 82.1209 289.845 87.3735 296.563 89.6407C294.926 91.6645 291.006 100.039 303.868 108.746C308.943 112.165 318.553 112.788 321.448 108.947C323.936 105.671 327.374 101.752 331.526 102.917C335.678 104.081 338.234 108.112 338.815 112.069C339.051 113.649 339.064 115.363 340.103 116.655C341.077 117.867 342.733 118.383 344.289 118.848L361.908 124.112C363.782 124.681 365.724 125.236 367.674 124.996C372.644 124.378 375.215 119.079 379.724 117.061C382.5 115.834 385.723 115.959 388.787 115.752C396.982 115.197 404.926 111.939 410.874 106.708C413.256 104.612 414.807 101.573 413.683 98.7214C409.684 88.6523 415.472 79.4757 420.794 78.9454C431.963 77.8222 439.867 93.5499 450.407 89.9786C458.554 87.2255 462.989 78.6324 471.058 75.6901C484.102 70.9301 498.205 83.0536 512.03 80.8084C517.311 79.9499 521.899 77.0619 526.922 75.3236C539.001 71.1585 553.293 73.7709 564.547 67.962C565.99 67.2097 567.459 66.209 567.828 64.7245C568.176 63.3484 567.479 61.9419 567.558 60.5269C567.804 56.0795 574.255 55.1148 578.827 53.7371C586.163 51.5366 602.785 44.8094 613.304 37.6864C619.919 33.2064 625.705 27.7522 631.913 22.7932" stroke="white" stroke-width="2.44694" stroke-miterlimit="10" stroke-linecap="round" stroke-linejoin="round"/>
<path d="M67.7617 82.9611C64.8543 82.487 62.2528 80.9161 60.1697 78.9863C58.0866 77.0566 56.4549 74.7507 54.8396 72.4608" stroke="white" stroke-width="2.44694" stroke-miterlimit="10" stroke-linecap="round" stroke-linejoin="round"/>
<path d="M344.81 48.9771C337.21 45.2513 331.411 37.0299 329.239 29.4905C326.048 18.4636 328.242 6.51893 333.658 2.56478" stroke="white" stroke-width="2.44694" stroke-miterlimit="10" stroke-linecap="round" stroke-linejoin="round"/>
<path d="M364.269 51.709C358.666 48.9135 352.6 45.2947 349.032 41.733C343.467 36.1975 341.34 32.4909 338.972 25.2728C337.957 22.1905 337.829 17.7945 338.265 16.3276" stroke="white" stroke-width="2.44694" stroke-miterlimit="10" stroke-linecap="round" stroke-linejoin="round"/>
<path d="M380.514 55.0479C375.352 53.2465 370.191 49.327 365.341 44.6689C360.851 40.3639 358.981 37.0853 356.413 32.3847C355.106 29.9636 354.242 25.3437 354.38 22.6531" stroke="white" stroke-width="2.44694" stroke-miterlimit="10" stroke-linecap="round" stroke-linejoin="round"/>
<path d="M390.183 53.2913C383.864 50.1791 378.877 46.1088 375.576 41.6048C372.276 37.1009 370.342 31.5932 371.024 26.1928" stroke="white" stroke-width="2.44694" stroke-miterlimit="10" stroke-linecap="round" stroke-linejoin="round"/>
<path d="M402.382 50.6526C395.488 47.5392 386.832 38.3624 387.02 32.5427" stroke="white" stroke-width="2.44694" stroke-miterlimit="10" stroke-linecap="round" stroke-linejoin="round"/>
<path d="M415.095 49.3117C410.094 47.2503 404.232 41.488 402.215 35.4483" stroke="white" stroke-width="2.44694" stroke-miterlimit="10" stroke-linecap="round" stroke-linejoin="round"/>
<path d="M366.54 125.058C364.339 124.184 362.384 122.99 360.183 119.982C357.417 116.195 355.817 112.924 354.051 107.967" stroke="white" stroke-width="2.44694" stroke-miterlimit="10" stroke-linecap="round" stroke-linejoin="round"/>
<path d="M376.547 119.103C374.113 119.142 369.958 116.529 366.592 110.886C362.17 103.468 360.535 99.1679 357.875 91.0691" stroke="white" stroke-width="2.44694" stroke-miterlimit="10" stroke-linecap="round" stroke-linejoin="round"/>
<path d="M383.165 116.15C381.977 115.788 378.732 113.217 376.533 110.194C373.525 106.026 371.598 101.359 370.149 96.5356" stroke="white" stroke-width="2.44694" stroke-miterlimit="10" stroke-linecap="round" stroke-linejoin="round"/>
<path d="M396.432 114.448C394.27 113.372 390.224 111.027 387.715 108.182C385.401 105.56 383.586 103.155 381.991 98.6854" stroke="white" stroke-width="2.44694" stroke-miterlimit="10" stroke-linecap="round" stroke-linejoin="round"/>
<path d="M409.761 107.625C406.929 108.493 402.056 107.151 397.866 102.98C393.562 98.6958 391.808 93.3803 390.676 87.6467" stroke="white" stroke-width="2.44694" stroke-miterlimit="10" stroke-linecap="round" stroke-linejoin="round"/>
<path d="M413.905 101.782C412.872 101.876 409.994 100.484 407.833 98.3498C405.066 95.6214 402.841 91.8029 401.778 88.6569" stroke="white" stroke-width="2.44694" stroke-miterlimit="10" stroke-linecap="round" stroke-linejoin="round"/>
<path d="M0.897377 110.015C6.45768 117.778 18.07 119.159 28.1287 118.954C32.5241 118.864 37.1926 118.688 40.9783 120.73C44.7641 122.772 46.8407 128.034 43.8066 130.952C51.2625 131.823 60.0082 133.558 62.9952 139.922C63.7535 141.548 65.9427 146.985 72.6061 150.419C78.1895 153.292 85.4209 154.312 91.1162 151.643C96.812 148.959 99.096 140.506 93.8146 137.175C95.4656 132.098 103.906 132.313 109.064 131.622C112.797 131.124 116.822 134.107 120.582 134.356C124.898 134.622 149.08 122.929 154.938 136.634C142.233 141.871 145.146 153.155 149.887 155.427C149.261 157.028 148.566 164.406 147.08 166.98C145.595 169.553 143.961 173.041 146.279 175.04C147.199 175.83 148.508 176.102 149.622 176.664C154.425 179.124 154.009 186.215 158.51 189.134C163.077 192.086 169.109 188.944 174.352 187.197C178.451 185.821 183.127 185.396 187.147 187.008C191.149 188.62 190.702 190.959 193.373 196.629C196.045 202.298 223.154 201.966 225.212 193.693C226.184 189.781 225.515 186.942 223.888 185.555L245.242 176.692C248.171 181.201 253.355 184.404 258.911 185.501C261.278 185.975 269.898 186.382 270.282 188.604C270.638 190.64 264.159 190.903 261.361 193.843C258.336 196.994 259.365 202.258 262.44 205.384C265.516 208.496 270.184 209.878 274.734 210.259C279.518 210.663 285.903 211.223 286.708 215.592C287.009 217.236 286.294 218.976 286.885 220.55C288.738 225.433 297.374 221.152 302.295 223.616C304.074 224.509 305.183 226.239 306.838 227.315C311.522 230.302 317.645 226.944 322.627 224.41C327.608 221.877 335.736 221.288 337.228 226.347C332.771 226.263 330.761 233.011 334.615 235.055C335.827 235.698 337.292 235.849 338.54 236.431C341.72 237.894 342.798 241.632 342.743 244.902C342.688 248.171 341.887 251.512 342.747 254.683C344.166 259.927 349.95 263.381 355.752 264.189C361.555 264.997 367.425 263.704 373.11 262.405C374.897 262.005 376.839 261.501 377.897 260.115C379.538 257.951 378.198 254.999 378.199 252.351C378.217 246.589 386.691 242.631 391.751 246.018C396.323 252.988 406.122 256.622 414.654 254.519C423.169 252.415 429.685 244.755 429.847 236.614C427.565 232.996 425.3 229.379 423.019 225.761C422.505 224.937 421.962 223.971 422.278 223.061C422.671 221.889 424.205 221.466 425.514 221.224C428.308 223.626 430.857 226.301 433.651 228.703C436.84 231.444 440.078 234.217 444.009 235.967C450.087 238.683 464.384 236.467 464.261 236.09C466.07 239.694 467.319 242.331 471.843 245.064C474.693 246.782 478.141 246.727 480.876 246.277C483.61 245.827 487.091 244.776 490.798 246.13C491.132 246.249 491.876 247.766 491.882 248.124C491.919 250.633 493.597 253.08 496.045 254.164C498.493 255.263 501.611 254.949 503.756 253.423C510.281 257.99 517.081 262.44 523.606 267.007C526.216 268.843 528.909 270.697 532.059 271.52C538.676 273.255 545.503 270.074 551.499 266.978C557.77 263.75 564.837 259.423 565.186 252.814C565.386 249.237 563.719 244.89 566.617 242.513C568.075 241.325 570.175 241.168 572.104 241.069C576.165 240.86 581.059 241.049 583.116 244.287C584.049 245.747 584.207 247.652 585.502 248.857C586.634 249.903 588.513 250.316 589.094 251.688C589.627 252.949 588.755 254.326 588.694 255.694C588.578 258.214 591.321 260.117 593.989 260.677C596.658 261.222 599.472 260.915 602.139 261.506C606.938 262.534 610.435 266.187 614.192 269.1C617.967 272.013 623.238 273.569 627.676 271.627" stroke="white" stroke-width="2.44694" stroke-miterlimit="10" stroke-linecap="round" stroke-linejoin="round"/>
<path d="M223.853 185.554C214.483 181.714 203.872 170.798 199.537 162.23" stroke="white" stroke-width="2.44694" stroke-miterlimit="10" stroke-linecap="round" stroke-linejoin="round"/>
<path d="M227.81 177.119C217.279 171.548 209.399 161.864 206.541 150.987" stroke="white" stroke-width="2.44694" stroke-miterlimit="10" stroke-linecap="round" stroke-linejoin="round"/>
<path d="M237.518 174.677C233.928 173.903 230.997 171.559 228.475 169.071C220.289 161.029 214.829 150.684 213.036 139.792" stroke="white" stroke-width="2.44694" stroke-miterlimit="10" stroke-linecap="round" stroke-linejoin="round"/>
<path d="M239.936 168.874C233.403 164.011 228.606 157.205 226.415 149.743" stroke="white" stroke-width="2.44694" stroke-miterlimit="10" stroke-linecap="round" stroke-linejoin="round"/>
<path d="M243.131 162.005C239.66 158.571 237.146 154.308 235.891 149.755" stroke="white" stroke-width="2.44694" stroke-miterlimit="10" stroke-linecap="round" stroke-linejoin="round"/>
<path d="M247.15 157.387C245.675 155.46 244.648 153.266 244.149 150.946" stroke="white" stroke-width="2.44694" stroke-miterlimit="10" stroke-linecap="round" stroke-linejoin="round"/>
<path d="M253.382 155.342C252.349 154.377 250.697 151.153 250.77 148.881" stroke="white" stroke-width="2.44694" stroke-miterlimit="10" stroke-linecap="round" stroke-linejoin="round"/>
<path d="M260.89 154.611C259.299 153.132 257.57 149.655 257.674 146.449" stroke="white" stroke-width="2.44694" stroke-miterlimit="10" stroke-linecap="round" stroke-linejoin="round"/>
<path d="M274.402 160.986C270.737 157.842 268.236 153.672 266.689 149.282C265.141 144.891 264.497 140.278 264.173 135.674" stroke="white" stroke-width="2.44694" stroke-miterlimit="10" stroke-linecap="round" stroke-linejoin="round"/>
<path d="M277.412 153.61C274.83 149.859 273.332 145.501 273.087 141.071" stroke="white" stroke-width="2.44694" stroke-miterlimit="10" stroke-linecap="round" stroke-linejoin="round"/>
<path d="M283.903 150.89C282.11 148.346 281.247 145.268 281.463 142.237" stroke="white" stroke-width="2.44694" stroke-miterlimit="10" stroke-linecap="round" stroke-linejoin="round"/>
<path d="M292.49 149.129C291.342 147.538 290.796 145.592 290.959 143.697" stroke="white" stroke-width="2.44694" stroke-miterlimit="10" stroke-linecap="round" stroke-linejoin="round"/>
</g>
</g>
</g>
<defs>
<clipPath id="clip0">
<rect width="414.998" height="264.997" fill="white" transform="translate(415.082 265.964) rotate(179.983)"/>
</clipPath>
</defs>
</svg>
