<svg width="364" height="154" viewBox="0 0 364 154" fill="none" xmlns="http://www.w3.org/2000/svg">
<g opacity="0.2">
<path d="M18.8811 105.298C16.194 104.212 13.1835 105.201 11.3854 106.131C7.60717 108.089 3.37436 112.112 0.000244141 117.472" stroke="white" stroke-width="2.44694" stroke-miterlimit="10" stroke-linecap="round" stroke-linejoin="round"/>
<path d="M23.5386 111.173C21.7909 111.415 20.2049 112.346 18.9219 113.509C17.639 114.672 16.6186 116.077 15.6084 117.473" stroke="white" stroke-width="2.44694" stroke-miterlimit="10" stroke-linecap="round" stroke-linejoin="round"/>
<path d="M49.5513 108.671C45.0255 108.313 39.8229 112.074 37.6711 114.991" stroke="white" stroke-width="2.44694" stroke-miterlimit="10" stroke-linecap="round" stroke-linejoin="round"/>
<path d="M55.9255 110.687C54.1172 110.639 50.5512 111.909 48.6621 113.363C43.3079 117.473 40.9036 121.999 38.7114 126.284" stroke="white" stroke-width="2.44694" stroke-miterlimit="10" stroke-linecap="round" stroke-linejoin="round"/>
<path d="M60.4519 112.472C54.9866 114.691 50.0264 119.247 47.9353 123.125" stroke="white" stroke-width="2.44694" stroke-miterlimit="10" stroke-linecap="round" stroke-linejoin="round"/>
<path d="M66.2606 114.992C61.5126 117.473 57.0979 121.331 53.2894 126.711C51.269 129.561 48.5717 134.785 47.9353 137.781" stroke="white" stroke-width="2.44694" stroke-miterlimit="10" stroke-linecap="round" stroke-linejoin="round"/>
<path d="M80.2212 114.75C72.7456 115.932 65.5024 125.024 61.8252 132.779" stroke="white" stroke-width="2.44694" stroke-miterlimit="10" stroke-linecap="round" stroke-linejoin="round"/>
<path d="M84.4646 117.802C83.0907 117.686 80.2217 119.421 78.7872 120.565C74.9383 123.628 72.7966 127.166 71.3015 130.2" stroke="white" stroke-width="2.44694" stroke-miterlimit="10" stroke-linecap="round" stroke-linejoin="round"/>
<path d="M90.7981 119.363C86.3128 120.623 81.8275 127.941 79.8979 132.362" stroke="white" stroke-width="2.44694" stroke-miterlimit="10" stroke-linecap="round" stroke-linejoin="round"/>
<path d="M99.1119 118.975C96.354 120.08 89.5755 125.857 88.5854 131.983" stroke="white" stroke-width="2.44694" stroke-miterlimit="10" stroke-linecap="round" stroke-linejoin="round"/>
<path d="M124.894 121.437C123.56 122.028 121.57 123.947 120.651 125.304C118.964 127.776 117.964 129.734 116.741 132.71" stroke="white" stroke-width="2.44694" stroke-miterlimit="10" stroke-linecap="round" stroke-linejoin="round"/>
<path d="M131.833 121.825C130.843 122.377 129.681 123.453 128.954 124.306C127.196 126.371 124.893 129.918 124.226 133.04" stroke="white" stroke-width="2.44694" stroke-miterlimit="10" stroke-linecap="round" stroke-linejoin="round"/>
<path d="M140.531 118.461C139.491 118.946 138.753 119.479 138.016 120.206C135.955 122.241 134.712 124.771 132.48 130.122" stroke="white" stroke-width="2.44694" stroke-miterlimit="10" stroke-linecap="round" stroke-linejoin="round"/>
<path d="M118.64 119.412C114.962 121.486 112.306 126.361 111.295 128.911" stroke="white" stroke-width="2.44694" stroke-miterlimit="10" stroke-linecap="round" stroke-linejoin="round"/>
<path d="M215.762 135.482C211.923 137.305 208.862 139.748 206.801 142.491C204.74 145.234 203.477 148.627 203.781 152" stroke="white" stroke-width="2.44694" stroke-miterlimit="10" stroke-linecap="round" stroke-linejoin="round"/>
<path d="M223.005 137.344C218.823 139.157 213.469 144.711 213.469 148.337" stroke="white" stroke-width="2.44694" stroke-miterlimit="10" stroke-linecap="round" stroke-linejoin="round"/>
<path d="M203.013 90.3901C201.68 90.8942 200.487 91.6018 199.114 93.4338C197.386 95.7407 196.366 97.7471 195.214 100.8" stroke="white" stroke-width="2.44694" stroke-miterlimit="10" stroke-linecap="round" stroke-linejoin="round"/>
<path d="M208.881 94.277C207.427 94.2092 204.891 95.7601 202.769 99.2109C199.981 103.747 198.921 106.394 197.173 111.386" stroke="white" stroke-width="2.44694" stroke-miterlimit="10" stroke-linecap="round" stroke-linejoin="round"/>
<path d="M212.781 96.2349C212.064 96.4384 210.074 97.9797 208.7 99.8214C206.821 102.361 205.579 105.23 204.619 108.206" stroke="white" stroke-width="2.44694" stroke-miterlimit="10" stroke-linecap="round" stroke-linejoin="round"/>
<path d="M220.682 97.5342C219.369 98.1642 216.904 99.5503 215.348 101.276C213.913 102.865 212.782 104.329 211.741 107.082" stroke="white" stroke-width="2.44694" stroke-miterlimit="10" stroke-linecap="round" stroke-linejoin="round"/>
<path d="M228.52 102.022C226.844 101.43 223.904 102.177 221.318 104.697C218.661 107.285 217.509 110.561 216.721 114.109" stroke="white" stroke-width="2.44694" stroke-miterlimit="10" stroke-linecap="round" stroke-linejoin="round"/>
<path d="M230.885 105.734C230.268 105.657 228.521 106.471 227.187 107.76C225.48 109.408 224.076 111.744 223.379 113.683" stroke="white" stroke-width="2.44694" stroke-miterlimit="10" stroke-linecap="round" stroke-linejoin="round"/>
<path d="M22.1544 124.656C18.3257 126.032 15.2648 128.814 12.7695 131.848" stroke="white" stroke-width="2.44694" stroke-miterlimit="10" stroke-linecap="round" stroke-linejoin="round"/>
<path d="M31.9028 127.05C27.9226 127.602 24.7404 130.307 22.2957 133.196" stroke="white" stroke-width="2.44694" stroke-miterlimit="10" stroke-linecap="round" stroke-linejoin="round"/>
<path d="M37.621 130.704C34.3176 130.879 31.4486 132.701 29.2463 134.969" stroke="white" stroke-width="2.44694" stroke-miterlimit="10" stroke-linecap="round" stroke-linejoin="round"/>
<path d="M41.7326 135.647C39.0252 135.056 36.5401 136.432 34.8228 138.351" stroke="white" stroke-width="2.44694" stroke-miterlimit="10" stroke-linecap="round" stroke-linejoin="round"/>
<path d="M9.95095 125.295C6.64755 126.284 3.54615 129.269 2.26318 132.022" stroke="white" stroke-width="2.44694" stroke-miterlimit="10" stroke-linecap="round" stroke-linejoin="round"/>
<path d="M0.535889 88.0538C3.16244 88.1895 5.95065 88.3834 8.25393 87.1814C10.5572 85.9794 11.9008 82.7419 10.143 80.8711C14.6183 80.464 19.8814 79.5431 21.7908 75.6367C22.2757 74.6383 23.69 71.2941 27.7409 69.2779C31.1352 67.5913 35.4791 67.0872 38.833 68.8514C42.187 70.6253 43.3891 75.9275 40.1665 77.9049C41.0555 81.094 46.1066 81.1134 49.1776 81.6368C51.4001 82.0149 53.8651 80.2313 56.1178 80.1441C58.704 80.0568 72.9378 87.7727 76.7059 79.3492C69.2101 75.8597 71.17 68.8902 74.0491 67.5622C73.7056 66.5541 73.4329 61.9498 72.5944 60.3213C71.7559 58.6929 70.8467 56.4925 72.2711 55.2905C72.8369 54.8156 73.6248 54.6702 74.3017 54.3406C77.2212 52.8963 77.1101 48.4762 79.8578 46.7411C82.646 44.9866 86.1918 47.0512 89.2932 48.2338C91.7177 49.1644 94.5059 49.5133 96.9405 48.5828C99.365 47.6522 99.1428 46.1885 100.85 42.7087C102.557 39.2288 118.761 39.9267 119.832 45.1126C120.337 47.565 119.882 49.3195 118.882 50.1531L131.48 56.0563C133.318 53.3034 136.48 51.4035 139.824 50.8219C141.248 50.5699 146.411 50.473 146.683 49.0965C146.936 47.8364 143.067 47.5553 141.451 45.6748C139.703 43.6586 140.42 40.4017 142.319 38.5115C144.218 36.631 147.037 35.8555 149.765 35.7004C152.634 35.5356 156.462 35.303 157.028 32.5986C157.24 31.5808 156.846 30.4854 157.23 29.5161C158.432 26.5112 163.514 29.3319 166.504 27.8876C167.585 27.3642 168.282 26.3076 169.292 25.6679C172.151 23.894 175.747 26.0944 178.677 27.7616C181.606 29.4289 186.456 29.9426 187.446 26.8214C184.779 26.7923 183.708 22.5564 186.051 21.3544C186.789 20.9763 187.668 20.9085 188.425 20.5692C190.355 19.7162 191.072 17.4092 191.103 15.3736C191.133 13.3381 190.719 11.2443 191.294 9.28626C192.244 6.04871 195.77 4.00342 199.255 3.606C202.74 3.20858 206.225 4.11975 209.6 5.03091C210.66 5.31202 211.812 5.66097 212.418 6.54306C213.357 7.91951 212.499 9.73215 212.448 11.38C212.347 14.9665 217.338 17.5837 220.429 15.5675C223.298 11.3122 229.228 9.2281 234.289 10.6918C239.34 12.1555 243.088 17.0409 243.027 22.1105C241.593 24.3205 240.169 26.5306 238.734 28.7407C238.411 29.2447 238.067 29.836 238.239 30.4079C238.451 31.1446 239.36 31.4354 240.138 31.6099C241.856 30.1656 243.432 28.5468 245.149 27.1025C247.109 25.4546 249.099 23.7874 251.483 22.7696C255.17 21.1896 263.676 22.8278 263.595 23.0604C264.747 20.8503 265.545 19.2316 268.303 17.6128C270.041 16.595 272.101 16.6919 273.728 17.0215C275.354 17.3511 277.415 18.0684 279.658 17.2929C279.86 17.225 280.335 16.2945 280.345 16.0715C280.415 14.5109 281.466 13.0182 282.951 12.3881C284.436 11.7484 286.295 12.0004 287.548 12.9891C291.538 10.2653 295.69 7.61902 299.68 4.89521C301.276 3.79987 302.923 2.69483 304.822 2.23925C308.812 1.27962 312.833 3.38305 316.359 5.41864C320.046 7.54147 324.188 10.3622 324.269 14.4819C324.319 16.7113 323.238 19.3866 324.925 20.9182C325.774 21.684 327.027 21.8197 328.178 21.9166C330.603 22.1202 333.532 22.0911 334.825 20.1136C335.411 19.2219 335.543 18.0393 336.341 17.3123C337.038 16.6822 338.169 16.4593 338.543 15.616C338.887 14.8405 338.392 13.9681 338.381 13.1151C338.361 11.5448 340.038 10.4107 341.644 10.1102C343.251 9.81939 344.928 10.0617 346.534 9.74184C349.423 9.18933 351.585 6.97926 353.888 5.23447C356.202 3.48968 359.384 2.61729 362 3.90649" stroke="white" stroke-width="2.44694" stroke-miterlimit="10" stroke-linecap="round" stroke-linejoin="round"/>
<path d="M265.656 36.3403C262.868 39.7524 260.747 43.5135 259.373 47.4393" stroke="white" stroke-width="2.44694" stroke-miterlimit="10" stroke-linecap="round" stroke-linejoin="round"/>
<path d="M279.527 34.896C276.829 37.9591 274.546 41.2547 272.738 44.7055" stroke="white" stroke-width="2.44694" stroke-miterlimit="10" stroke-linecap="round" stroke-linejoin="round"/>
<path d="M293.084 35.2148C289.78 38.5399 287.053 42.2429 285.032 46.169" stroke="white" stroke-width="2.44694" stroke-miterlimit="10" stroke-linecap="round" stroke-linejoin="round"/>
<path d="M300.318 41.3804C298.63 43.4643 297.387 45.7615 296.64 48.1653" stroke="white" stroke-width="2.44694" stroke-miterlimit="10" stroke-linecap="round" stroke-linejoin="round"/>
<path d="M306.944 47.584C305.772 49.6874 304.883 51.8878 304.317 54.1463" stroke="white" stroke-width="2.44694" stroke-miterlimit="10" stroke-linecap="round" stroke-linejoin="round"/>
<path d="M314.986 25.4448C313.025 28.9439 311.782 32.8113 311.348 36.7659" stroke="white" stroke-width="2.44694" stroke-miterlimit="10" stroke-linecap="round" stroke-linejoin="round"/>
<path d="M327.956 36.1646C326.794 37.9478 325.986 39.9346 325.572 41.9892" stroke="white" stroke-width="2.44694" stroke-miterlimit="10" stroke-linecap="round" stroke-linejoin="round"/>
<path d="M335.887 38.5112C335.22 39.9068 334.876 41.6997 334.604 43.2987" stroke="white" stroke-width="2.44694" stroke-miterlimit="10" stroke-linecap="round" stroke-linejoin="round"/>
<path d="M118.862 50.1523C113.185 52.3722 106.628 58.9736 103.87 64.2275" stroke="white" stroke-width="2.44694" stroke-miterlimit="10" stroke-linecap="round" stroke-linejoin="round"/>
<path d="M121.064 55.4741C114.66 58.7505 109.76 64.6344 107.841 71.3519" stroke="white" stroke-width="2.44694" stroke-miterlimit="10" stroke-linecap="round" stroke-linejoin="round"/>
<path d="M126.823 57.1714C124.661 57.5882 122.863 58.9937 121.307 60.4962C116.256 65.3525 112.791 71.6919 111.508 78.4384" stroke="white" stroke-width="2.44694" stroke-miterlimit="10" stroke-linecap="round" stroke-linejoin="round"/>
<path d="M128.156 60.8247C124.156 63.7327 121.155 67.8814 119.7 72.4858" stroke="white" stroke-width="2.44694" stroke-miterlimit="10" stroke-linecap="round" stroke-linejoin="round"/>
<path d="M129.934 65.1582C127.792 67.2327 126.206 69.8403 125.368 72.6515" stroke="white" stroke-width="2.44694" stroke-miterlimit="10" stroke-linecap="round" stroke-linejoin="round"/>
<path d="M132.248 68.1055C131.329 69.2779 130.672 70.6247 130.328 72.0587" stroke="white" stroke-width="2.44694" stroke-miterlimit="10" stroke-linecap="round" stroke-linejoin="round"/>
<path d="M135.936 69.4897C135.299 70.0713 134.248 72.0487 134.248 73.4639" stroke="white" stroke-width="2.44694" stroke-miterlimit="10" stroke-linecap="round" stroke-linejoin="round"/>
<path d="M140.41 70.0825C139.43 70.9741 138.329 73.106 138.329 75.1024" stroke="white" stroke-width="2.44694" stroke-miterlimit="10" stroke-linecap="round" stroke-linejoin="round"/>
<path d="M148.613 66.3599C146.36 68.2501 144.784 70.7995 143.774 73.504C142.764 76.2084 142.289 79.068 142.006 81.9276" stroke="white" stroke-width="2.44694" stroke-miterlimit="10" stroke-linecap="round" stroke-linejoin="round"/>
<path d="M150.27 71.0044C148.653 73.2918 147.673 75.9767 147.441 78.7293" stroke="white" stroke-width="2.44694" stroke-miterlimit="10" stroke-linecap="round" stroke-linejoin="round"/>
<path d="M154.098 72.8159C152.977 74.3667 152.401 76.2664 152.471 78.1565" stroke="white" stroke-width="2.44694" stroke-miterlimit="10" stroke-linecap="round" stroke-linejoin="round"/>
<path d="M159.2 74.0659C158.482 75.035 158.119 76.2366 158.179 77.4188" stroke="white" stroke-width="2.44694" stroke-miterlimit="10" stroke-linecap="round" stroke-linejoin="round"/>
<path d="M82.3325 67.707C79.7969 69.5391 78.1907 72.4956 78.0593 75.5394" stroke="white" stroke-width="2.44694" stroke-miterlimit="10" stroke-linecap="round" stroke-linejoin="round"/>
<path d="M87.2528 69.0835C83.8585 72.5633 81.6057 77.0609 80.9087 81.7815" stroke="white" stroke-width="2.44694" stroke-miterlimit="10" stroke-linecap="round" stroke-linejoin="round"/>
<path d="M89.8898 73.0586C87.7476 75.7726 86.4643 79.107 86.2622 82.5092" stroke="white" stroke-width="2.44694" stroke-miterlimit="10" stroke-linecap="round" stroke-linejoin="round"/>
<path d="M93.2136 77.1191C91.9202 79.0968 91.0916 81.3555 90.8289 83.6725" stroke="white" stroke-width="2.44694" stroke-miterlimit="10" stroke-linecap="round" stroke-linejoin="round"/>
<path d="M95.8394 80.6382C95.2634 81.9755 94.8795 83.3904 94.7178 84.8344" stroke="white" stroke-width="2.44694" stroke-miterlimit="10" stroke-linecap="round" stroke-linejoin="round"/>
</g>
</svg>
