<svg width="265" height="137" viewBox="0 0 265 137" fill="none" xmlns="http://www.w3.org/2000/svg">
<g opacity="0.2">
<path d="M74.5201 79.9671C71.6505 78.6244 67.8341 80.1207 65.8118 81.319C59.1421 85.2614 53.3872 93.4318 50.0752 99.7395" stroke="white" stroke-width="2.44694" stroke-miterlimit="10" stroke-linecap="round" stroke-linejoin="round"/>
<path d="M78.0844 85.2219C76.7655 85.4371 73.9793 86.3738 72.7552 86.9484C67.3047 89.5123 62.7507 94.4955 58.7906 100.639C55.642 105.526 53.1184 111.23 51.5762 116.447" stroke="white" stroke-width="2.44694" stroke-miterlimit="10" stroke-linecap="round" stroke-linejoin="round"/>
<path d="M97.6376 88.1114C91.9844 88.9215 87.8429 91.3208 82.6906 95.8872C78.9215 99.2216 73.6421 107.269 71.0529 112.603" stroke="white" stroke-width="2.44694" stroke-miterlimit="10" stroke-linecap="round" stroke-linejoin="round"/>
<path d="M84.2442 88.7819C80.1789 89.7619 72.9039 96.1223 70.7679 98.5197C65.979 103.901 62.9164 108.996 60.236 114.986" stroke="white" stroke-width="2.44694" stroke-miterlimit="10" stroke-linecap="round" stroke-linejoin="round"/>
<path d="M105.195 91.4325C104.42 91.4023 101.59 91.4658 98.4646 92.4917C90.2133 95.1987 83.7136 103.187 80.7268 110.211" stroke="white" stroke-width="2.44694" stroke-miterlimit="10" stroke-linecap="round" stroke-linejoin="round"/>
<path d="M110.633 95.7141C108.062 94.6551 105.169 95.7554 103.438 96.7653C99.8021 98.8901 95.7173 103.168 92.448 108.811" stroke="white" stroke-width="2.44694" stroke-miterlimit="10" stroke-linecap="round" stroke-linejoin="round"/>
<path d="M115.065 101.691C113.387 101.985 111.86 102.99 110.623 104.228C109.385 105.466 108.397 106.949 107.42 108.422" stroke="white" stroke-width="2.44694" stroke-miterlimit="10" stroke-linecap="round" stroke-linejoin="round"/>
<path d="M128.453 121.597C125.284 121.861 122.521 123.821 120.394 126.227" stroke="white" stroke-width="2.44694" stroke-miterlimit="10" stroke-linecap="round" stroke-linejoin="round"/>
<path d="M101.945 116.676C98.7704 117.783 95.7772 120.957 94.5298 123.844" stroke="white" stroke-width="2.44694" stroke-miterlimit="10" stroke-linecap="round" stroke-linejoin="round"/>
<path d="M92.1938 117.573C88.4562 118.846 85.027 123.67 84.6888 125.146" stroke="white" stroke-width="2.44694" stroke-miterlimit="10" stroke-linecap="round" stroke-linejoin="round"/>
<path d="M81.5583 120.272C79.0856 122.275 77.8432 124.287 76.5979 126.802" stroke="white" stroke-width="2.44694" stroke-miterlimit="10" stroke-linecap="round" stroke-linejoin="round"/>
<path d="M3.66119 70.797C4.97147 69.7717 6.05823 68.2392 7.504 67.5908C10.6814 66.1647 14.5202 69.3993 17.4339 67.2075C18.2293 62.6895 20.714 58.732 23.9568 56.8011C23.048 55.4677 20.7088 49.8045 26.7159 43.0502C29.0874 40.397 33.8467 39.4699 35.4662 42.011C36.8569 44.1778 38.7505 46.7455 40.7656 45.7179C42.7807 44.6903 43.8684 41.7375 43.9758 38.9368C44.0205 37.8185 43.9476 36.618 44.4059 35.6603C44.8355 34.7618 45.6369 34.3162 46.3907 33.9105L54.9269 29.3242C55.8343 28.8303 56.7762 28.3425 57.7591 28.4102C60.264 28.5891 61.789 32.1677 64.1284 33.3502C65.5684 34.0677 67.1683 33.8154 68.7048 33.8035C72.8135 33.7736 76.922 35.6483 80.1263 39.0072C81.4099 40.3526 82.3228 42.401 81.8942 44.4553C80.3658 51.7099 83.6725 57.8394 86.3486 57.9386C91.9657 58.154 95.1791 46.7377 100.595 48.6994C104.781 50.2106 107.387 56.0006 111.543 57.6482C118.262 60.3142 124.73 51.1046 131.721 51.9698C134.393 52.301 136.812 54.0886 139.394 55.0489C145.605 57.3476 152.606 54.7878 158.481 58.2798C159.235 58.7327 160.012 59.3584 160.265 60.3789C160.502 61.3246 160.219 62.3451 160.324 63.3318C160.651 66.4332 163.91 66.7789 166.251 67.5097C170.008 68.6754 178.6 72.5359 184.169 76.9856C187.672 79.7841 221.496 101.522 263.404 100.465" stroke="white" stroke-width="2.44694" stroke-miterlimit="10" stroke-linecap="round" stroke-linejoin="round"/>
</g>
</svg>
