<svg width="1090" height="275" viewBox="0 0 1090 275" fill="none" xmlns="http://www.w3.org/2000/svg">
<g opacity="0.2">
<path d="M347.804 3.86301C351.915 3.04454 356.587 2.83556 360.639 3.77594C377.731 7.72899 382.566 26.6758 384.104 35.1566C384.503 37.3856 384.888 39.9978 386.588 41.06C390.418 43.4806 393.834 35.0173 398.136 35.7487C402.705 36.5149 409.344 45.1002 412.834 45.0479C414.342 45.0305 415.451 43.411 416.708 42.4358C420.109 39.8236 424.633 40.9904 428.463 42.6447C430.459 43.498 432.484 44.5255 433.934 46.354C435.383 48.1825 433.904 55.2353 433.667 56.4195C432.972 59.9546 437.246 61.7309 439.168 64.552C441.43 67.913 441.208 73.3985 439.671 76.0977C437.423 80.0159 434.067 83.8645 431.228 85.5014C435.708 84.77 440.824 86.4418 443.145 89.1584C445.467 91.8751 448.128 94.9052 451.352 94.3305C454.338 93.7907 459.75 87.626 462.707 85.1009C467.853 80.6951 473.546 76.0977 479.904 76.5156C486.247 76.9336 492.265 85.4318 488.982 91.8403C500.102 91.579 510.053 104.64 508.604 117.631C516.071 113.748 524.085 109.777 532.143 111.379C534.612 111.867 536.993 112.877 539.314 114.026C544.697 116.673 555.003 121.741 557.546 127.505C559.291 131.458 558.078 134.906 562.292 136.613C571.903 140.513 581.706 132.99 591.805 131.545C604.285 129.769 630.175 147.131 631.846 146.835C633.369 146.556 634.655 145.407 636.016 144.553C641.043 141.401 647.771 142.638 651.763 147.427C652.857 148.75 653.804 150.335 655.164 151.258C656.879 152.407 658.964 152.338 660.945 152.216C667.037 151.867 673.129 151.519 679.236 151.171C681.587 147.932 684.366 147.392 686.289 147.218C698.591 146.051 713.096 162.473 726.965 154.915C729.405 153.591 731.534 151.415 734.152 150.718C739.903 149.186 746.084 155.176 751.496 152.372C753.58 145.407 758.519 139.712 764.463 137.396C763.088 135.08 759.894 125.589 771.398 116.273C775.937 112.616 784.365 112.232 786.79 116.621C788.875 120.365 791.773 124.858 795.44 123.691C799.107 122.524 801.458 118.101 802.079 113.695C802.33 111.936 802.39 110.021 803.336 108.61C804.223 107.287 805.687 106.764 807.062 106.294L822.632 100.983C824.288 100.408 826.003 99.8508 827.703 100.182C832.036 101.035 834.135 107.043 838.024 109.446C840.42 110.909 843.244 110.874 845.92 111.205C853.076 112.093 859.937 115.994 864.994 122.037C867.02 124.457 868.291 127.905 867.227 131.057C863.442 142.185 868.247 152.634 872.89 153.4C882.634 155.019 889.997 137.692 899.121 142.028C906.174 145.372 909.811 155.124 916.79 158.676C928.072 164.423 940.758 151.328 952.794 154.288C957.393 155.42 961.326 158.798 965.673 160.906C976.127 165.956 988.71 163.5 998.395 170.362C999.637 171.25 1000.89 172.416 1001.17 174.088C1001.44 175.638 1000.79 177.188 1000.82 178.773C1000.91 183.753 1006.53 185.042 1010.49 186.731C1016.85 189.43 1031.21 197.493 1040.21 205.8C1045.87 211.024 1061.51 223.394 1089 232.365" stroke="white" stroke-width="2.44694" stroke-miterlimit="10" stroke-linecap="round" stroke-linejoin="round"/>
<path d="M501.949 97.9498C497.557 95.4945 491.746 97.915 488.671 99.9002C478.527 106.43 469.818 120.327 464.821 131.106" stroke="white" stroke-width="2.44694" stroke-miterlimit="10" stroke-linecap="round" stroke-linejoin="round"/>
<path d="M507.435 107.214C505.424 107.527 501.18 109.025 499.317 109.965C491.022 114.162 484.117 122.59 478.129 133.056C473.368 141.38 469.568 151.149 467.261 160.118" stroke="white" stroke-width="2.44694" stroke-miterlimit="10" stroke-linecap="round" stroke-linejoin="round"/>
<path d="M537.302 113.101C528.682 114.25 522.383 118.22 514.561 125.9C508.839 131.507 500.854 145.212 496.951 154.337" stroke="white" stroke-width="2.44694" stroke-miterlimit="10" stroke-linecap="round" stroke-linejoin="round"/>
<path d="M516.869 113.659C510.674 115.174 499.629 125.867 496.39 129.924C489.13 139.032 484.502 147.721 480.466 157.978" stroke="white" stroke-width="2.44694" stroke-miterlimit="10" stroke-linecap="round" stroke-linejoin="round"/>
<path d="M548.866 119.195C547.683 119.108 543.365 119.091 538.604 120.728C526.036 125.047 516.188 138.595 511.693 150.628" stroke="white" stroke-width="2.44694" stroke-miterlimit="10" stroke-linecap="round" stroke-linejoin="round"/>
<path d="M557.205 126.858C553.272 124.907 548.865 126.683 546.234 128.355C540.704 131.873 534.508 139.099 529.57 148.729" stroke="white" stroke-width="2.44694" stroke-miterlimit="10" stroke-linecap="round" stroke-linejoin="round"/>
<path d="M564.024 137.411C561.465 137.847 559.144 139.518 557.266 141.608C555.388 143.698 553.894 146.224 552.416 148.732" stroke="white" stroke-width="2.44694" stroke-miterlimit="10" stroke-linecap="round" stroke-linejoin="round"/>
<path d="M602.095 132.917C595.471 132.272 587.856 139.03 584.706 144.272" stroke="white" stroke-width="2.44694" stroke-miterlimit="10" stroke-linecap="round" stroke-linejoin="round"/>
<path d="M611.425 136.539C608.779 136.451 603.559 138.733 600.794 141.345C592.957 148.729 589.438 156.862 586.23 164.559" stroke="white" stroke-width="2.44694" stroke-miterlimit="10" stroke-linecap="round" stroke-linejoin="round"/>
<path d="M618.049 139.745C610.05 143.733 602.79 151.918 599.729 158.883" stroke="white" stroke-width="2.44694" stroke-miterlimit="10" stroke-linecap="round" stroke-linejoin="round"/>
<path d="M626.551 144.273C619.602 148.732 613.14 155.662 607.566 165.327C604.609 170.447 600.661 179.834 599.729 185.215" stroke="white" stroke-width="2.44694" stroke-miterlimit="10" stroke-linecap="round" stroke-linejoin="round"/>
<path d="M646.985 143.837C636.043 145.962 625.442 162.296 620.06 176.228" stroke="white" stroke-width="2.44694" stroke-miterlimit="10" stroke-linecap="round" stroke-linejoin="round"/>
<path d="M653.197 149.322C651.186 149.114 646.987 152.231 644.887 154.285C639.253 159.788 636.119 166.144 633.93 171.595" stroke="white" stroke-width="2.44694" stroke-miterlimit="10" stroke-linecap="round" stroke-linejoin="round"/>
<path d="M662.467 152.127C655.902 154.391 649.337 167.539 646.512 175.48" stroke="white" stroke-width="2.44694" stroke-miterlimit="10" stroke-linecap="round" stroke-linejoin="round"/>
<path d="M674.635 151.431C670.599 153.416 660.677 163.794 659.228 174.8" stroke="white" stroke-width="2.44694" stroke-miterlimit="10" stroke-linecap="round" stroke-linejoin="round"/>
<path d="M712.371 155.854C710.419 156.916 707.506 160.364 706.16 162.802C703.691 167.243 702.227 170.76 700.438 176.107" stroke="white" stroke-width="2.44694" stroke-miterlimit="10" stroke-linecap="round" stroke-linejoin="round"/>
<path d="M722.53 156.552C721.08 157.544 719.38 159.477 718.315 161.01C715.742 164.719 712.371 171.093 711.395 176.701" stroke="white" stroke-width="2.44694" stroke-miterlimit="10" stroke-linecap="round" stroke-linejoin="round"/>
<path d="M735.261 150.505C733.738 151.376 732.659 152.333 731.579 153.639C728.562 157.296 726.744 161.842 723.476 171.454" stroke="white" stroke-width="2.44694" stroke-miterlimit="10" stroke-linecap="round" stroke-linejoin="round"/>
<path d="M703.218 152.213C697.836 155.939 693.947 164.699 692.468 169.279" stroke="white" stroke-width="2.44694" stroke-miterlimit="10" stroke-linecap="round" stroke-linejoin="round"/>
<path d="M412.832 45.0449C407.835 47.8661 398.756 59.7431 395.045 68.8686" stroke="white" stroke-width="2.44694" stroke-miterlimit="10" stroke-linecap="round" stroke-linejoin="round"/>
<path d="M305.683 44.8604C298.429 49.7246 285.253 70.2023 279.866 85.9359" stroke="white" stroke-width="2.44694" stroke-miterlimit="10" stroke-linecap="round" stroke-linejoin="round"/>
<path d="M292.499 41.2889C286.072 46.1715 274.819 65.639 270.486 80.2997" stroke="white" stroke-width="2.44694" stroke-miterlimit="10" stroke-linecap="round" stroke-linejoin="round"/>
<path d="M278.989 43.0746C274.027 46.8441 265.339 61.8737 261.994 73.1921" stroke="white" stroke-width="2.44694" stroke-miterlimit="10" stroke-linecap="round" stroke-linejoin="round"/>
<path d="M266.256 44.8626C262.175 47.9631 255.03 60.3252 252.278 69.6348" stroke="white" stroke-width="2.44694" stroke-miterlimit="10" stroke-linecap="round" stroke-linejoin="round"/>
<path d="M255.128 43.0755C251.489 45.84 245.118 56.8627 242.664 65.1637" stroke="white" stroke-width="2.44694" stroke-miterlimit="10" stroke-linecap="round" stroke-linejoin="round"/>
<path d="M244.478 43.3124C241.172 45.8243 235.383 55.8392 233.154 63.3813" stroke="white" stroke-width="2.44694" stroke-miterlimit="10" stroke-linecap="round" stroke-linejoin="round"/>
<path d="M430.444 43.5996C423.79 44.6793 416.486 55.3198 413.573 60.5965" stroke="white" stroke-width="2.44694" stroke-miterlimit="10" stroke-linecap="round" stroke-linejoin="round"/>
<path d="M405.41 40.3078C403.192 40.0292 399.363 42.0666 396.627 44.5219C391.94 48.7534 388.406 53.1765 384.074 61.3435" stroke="white" stroke-width="2.44694" stroke-miterlimit="10" stroke-linecap="round" stroke-linejoin="round"/>
<path d="M845.371 181.088C839.753 184.362 835.272 188.75 832.256 193.678C829.24 198.607 827.391 204.702 827.835 210.762" stroke="white" stroke-width="2.44694" stroke-miterlimit="10" stroke-linecap="round" stroke-linejoin="round"/>
<path d="M855.973 184.43C849.851 187.686 842.015 197.664 842.015 204.177" stroke="white" stroke-width="2.44694" stroke-miterlimit="10" stroke-linecap="round" stroke-linejoin="round"/>
<path d="M867.064 186.347C862.627 188.489 857.334 194.74 855.396 201.427" stroke="white" stroke-width="2.44694" stroke-miterlimit="10" stroke-linecap="round" stroke-linejoin="round"/>
<path d="M877.297 189.897C874.871 190.751 872.106 192.632 869.267 196.08C866.753 199.128 865.91 201.27 864.949 204.596" stroke="white" stroke-width="2.44694" stroke-miterlimit="10" stroke-linecap="round" stroke-linejoin="round"/>
<path d="M881.317 199.527C878.049 201.774 874.219 206.807 872.504 211.875" stroke="white" stroke-width="2.44694" stroke-miterlimit="10" stroke-linecap="round" stroke-linejoin="round"/>
<path d="M895.276 153.868C892.245 154.617 889.48 156.863 886.951 159.754C882.589 164.752 880.638 170.133 878.73 176.942C877.592 180.999 877.163 185.649 877.296 189.915" stroke="white" stroke-width="2.44694" stroke-miterlimit="10" stroke-linecap="round" stroke-linejoin="round"/>
<path d="M903.778 155.749C900.007 158.483 898.351 161.479 896.65 164.996C894.95 168.514 893.841 172.38 892.835 176.247" stroke="white" stroke-width="2.44694" stroke-miterlimit="10" stroke-linecap="round" stroke-linejoin="round"/>
<path d="M918.874 159.529C914.689 159.198 910.46 163.726 908.08 167.191C905.404 171.057 903.925 175.933 902.949 180.791" stroke="white" stroke-width="2.44694" stroke-miterlimit="10" stroke-linecap="round" stroke-linejoin="round"/>
<path d="M930.496 158.831C929.135 158.796 923.458 162.454 920.619 169.054C918.489 173.999 916.345 180.077 915.857 186.764" stroke="white" stroke-width="2.44694" stroke-miterlimit="10" stroke-linecap="round" stroke-linejoin="round"/>
<path d="M1001.35 181.19C992.731 183.193 984.303 189.496 979.867 196.2" stroke="white" stroke-width="2.44694" stroke-miterlimit="10" stroke-linecap="round" stroke-linejoin="round"/>
<path d="M1008.33 185.875C1002.28 188.156 995.983 192.51 990.985 197.143" stroke="white" stroke-width="2.44694" stroke-miterlimit="10" stroke-linecap="round" stroke-linejoin="round"/>
<path d="M1019.5 191.29C1018.03 191.081 1015.75 191.22 1013.79 192.039C1009.75 193.711 1006.51 196.149 1003.04 199.093" stroke="white" stroke-width="2.44694" stroke-miterlimit="10" stroke-linecap="round" stroke-linejoin="round"/>
<path d="M1027.98 196.481C1022.79 196.429 1016.61 199.999 1012.46 203.638" stroke="white" stroke-width="2.44694" stroke-miterlimit="10" stroke-linecap="round" stroke-linejoin="round"/>
<path d="M1035.73 202.017C1031.51 202.435 1024.12 205.43 1020.93 208.669" stroke="white" stroke-width="2.44694" stroke-miterlimit="10" stroke-linecap="round" stroke-linejoin="round"/>
<path d="M1038.72 209.663C1034.61 210.604 1030.7 212.868 1027.57 216.142" stroke="white" stroke-width="2.44694" stroke-miterlimit="10" stroke-linecap="round" stroke-linejoin="round"/>
<path d="M1041.97 216.159C1039.53 216.804 1037.19 217.901 1035.05 219.417" stroke="white" stroke-width="2.44694" stroke-miterlimit="10" stroke-linecap="round" stroke-linejoin="round"/>
<path d="M1046.3 223.56C1044.63 224.065 1043.03 224.865 1041.58 225.945" stroke="white" stroke-width="2.44694" stroke-miterlimit="10" stroke-linecap="round" stroke-linejoin="round"/>
<path d="M1047.9 230.506C1046.54 230.767 1045.22 231.429 1044.11 232.388" stroke="white" stroke-width="2.44694" stroke-miterlimit="10" stroke-linecap="round" stroke-linejoin="round"/>
<path d="M1050.29 237.369C1049.21 237.596 1048.21 238.24 1047.47 239.18" stroke="white" stroke-width="2.44694" stroke-miterlimit="10" stroke-linecap="round" stroke-linejoin="round"/>
<path d="M826.713 100.075C824.761 100.981 823.016 102.252 821.005 105.543C818.476 109.688 816.983 113.293 815.297 118.778" stroke="white" stroke-width="2.44694" stroke-miterlimit="10" stroke-linecap="round" stroke-linejoin="round"/>
<path d="M835.301 107.059C833.172 106.938 829.461 109.724 826.356 115.923C822.275 124.073 820.722 128.827 818.164 137.795" stroke="white" stroke-width="2.44694" stroke-miterlimit="10" stroke-linecap="round" stroke-linejoin="round"/>
<path d="M841.01 110.575C839.96 110.941 837.047 113.71 835.036 117.019C832.285 121.582 830.466 126.737 829.062 132.083" stroke="white" stroke-width="2.44694" stroke-miterlimit="10" stroke-linecap="round" stroke-linejoin="round"/>
<path d="M852.573 112.911C850.651 114.043 847.043 116.533 844.766 119.633C842.666 122.489 841.01 125.118 839.487 130.064" stroke="white" stroke-width="2.44694" stroke-miterlimit="10" stroke-linecap="round" stroke-linejoin="round"/>
<path d="M864.046 120.973C861.591 119.911 857.288 121.252 853.503 125.779C849.614 130.429 847.929 136.314 846.775 142.688" stroke="white" stroke-width="2.44694" stroke-miterlimit="10" stroke-linecap="round" stroke-linejoin="round"/>
<path d="M867.508 127.644C866.606 127.505 864.047 128.967 862.095 131.283C859.596 134.244 857.541 138.44 856.521 141.923" stroke="white" stroke-width="2.44694" stroke-miterlimit="10" stroke-linecap="round" stroke-linejoin="round"/>
<path d="M561.996 161.634C556.392 164.106 551.912 169.104 548.26 174.554" stroke="white" stroke-width="2.44694" stroke-miterlimit="10" stroke-linecap="round" stroke-linejoin="round"/>
<path d="M576.264 165.937C570.438 166.929 565.781 171.788 562.202 176.977" stroke="white" stroke-width="2.44694" stroke-miterlimit="10" stroke-linecap="round" stroke-linejoin="round"/>
<path d="M584.634 172.5C579.798 172.813 575.599 176.087 572.375 180.162" stroke="white" stroke-width="2.44694" stroke-miterlimit="10" stroke-linecap="round" stroke-linejoin="round"/>
<path d="M590.651 181.382C586.688 180.319 583.05 182.792 580.536 186.24" stroke="white" stroke-width="2.44694" stroke-miterlimit="10" stroke-linecap="round" stroke-linejoin="round"/>
<path d="M544.135 162.783C539.299 164.559 534.759 169.922 532.881 174.868" stroke="white" stroke-width="2.44694" stroke-miterlimit="10" stroke-linecap="round" stroke-linejoin="round"/>
<path d="M529.261 163.898C523.568 165.936 518.378 174.138 517.875 176.681" stroke="white" stroke-width="2.44694" stroke-miterlimit="10" stroke-linecap="round" stroke-linejoin="round"/>
<path d="M513.054 168.095C509.298 171.456 507.42 174.886 505.542 179.187" stroke="white" stroke-width="2.44694" stroke-miterlimit="10" stroke-linecap="round" stroke-linejoin="round"/>
<path d="M2 148.441C5.17356 142.6 10.8598 107.867 16.3489 108.25C18.7476 108.418 21.2938 108.657 23.3972 107.173C25.5006 105.689 26.7276 101.691 25.1224 99.3816C29.2093 98.8789 34.0157 97.7419 35.7593 92.9187C36.2021 91.686 37.4937 87.557 41.1931 85.0676C44.2929 82.9851 48.2598 82.3628 51.3227 84.541C54.3855 86.7312 55.4834 93.2778 52.5404 95.7193C53.3523 99.6568 63.1441 95.7193 63.1441 95.7193L66.541 92.9187C66.541 92.9187 82.9199 76.0196 82.1542 74.0089C81.3885 71.9983 80.5582 69.2815 81.859 67.7974C82.3756 67.211 83.0952 67.0315 83.7133 66.6246C86.3795 64.8413 86.278 59.3838 88.7873 57.2415C91.3335 55.0752 94.5717 57.6245 97.4039 59.0846C99.618 60.2335 102.164 60.6644 104.388 59.5154C106.602 58.3665 106.399 56.5593 107.958 52.2627C109.517 47.9661 124.315 48.8278 125.292 55.2308C125.754 58.2588 125.339 60.425 124.425 61.4543L135.929 68.7429C137.608 65.344 140.496 62.9982 143.55 62.2801C144.85 61.9689 149.565 61.8492 149.814 60.1498C150.044 58.5939 146.511 58.2468 145.035 55.925C143.439 53.4356 144.094 49.4143 145.828 47.0805C147.563 44.7586 150.137 43.8012 152.628 43.6097C155.248 43.4062 158.744 43.119 159.261 39.7799C159.454 38.5232 159.095 37.1708 159.445 35.974C160.543 32.2638 165.183 35.7466 167.914 33.9633C168.901 33.317 169.538 32.0125 170.46 31.2226C173.071 29.0324 176.355 31.7492 179.031 33.8077C181.706 35.8663 186.134 36.5006 187.039 32.6468C184.603 32.6109 183.625 27.3808 185.765 25.8967C186.439 25.43 187.241 25.3462 187.933 24.9273C189.695 23.8741 190.35 21.0257 190.378 18.5123C190.406 15.999 190.028 13.4139 190.553 10.9963C191.421 6.99891 194.64 4.47361 197.823 3.98292C201.006 3.49222 204.189 4.61723 207.27 5.74225C208.239 6.08933 209.29 6.52018 209.844 7.60929C210.702 9.30877 209.918 11.5468 209.872 13.5814C209.779 18.0097 214.337 21.2411 217.16 18.7517C219.78 13.4977 225.195 10.9245 229.817 12.7317C234.43 14.5389 237.852 20.5709 237.797 26.8302C236.487 29.559 235.186 32.2877 233.876 35.0165C233.581 35.6388 233.267 36.3689 233.424 37.075C233.618 37.9846 234.448 38.3437 235.159 38.5591C236.727 36.7758 238.166 34.7771 239.734 32.9939C241.524 30.9593 243.342 28.9007 245.519 27.6441C248.886 25.6933 256.654 27.7159 256.58 28.0031C257.632 25.2744 258.361 23.2757 260.879 21.277C262.466 20.0203 264.348 20.14 265.833 20.5469C267.319 20.9539 269.201 21.8395 271.249 20.882C271.433 20.7983 271.867 19.6493 271.876 19.374C271.94 17.4472 272.9 15.6041 274.256 14.8261C275.612 14.0362 277.31 14.3474 278.454 15.5681C282.098 12.2051 285.889 8.93776 289.533 5.57469C290.991 4.22228 292.495 2.85791 294.229 2.2954C297.873 1.11055 301.545 3.70765 304.765 6.22097C308.132 8.84201 311.914 12.3248 311.988 17.4113C312.034 20.1639 311.047 23.4672 312.588 25.3581C313.363 26.3036 314.507 26.4712 315.559 26.5909C317.773 26.8422 320.448 26.8063 321.629 24.3648C322.164 23.2637 322.284 21.8036 323.013 20.906C323.649 20.128 324.682 19.8528 325.024 18.8115C325.337 17.8541 324.885 16.7769 324.876 15.7237C324.858 13.7849 326.389 12.3846 327.856 12.0136C329.323 11.6545 330.854 11.9538 332.321 11.5588C334.96 10.8766 336.934 8.14786 339.037 5.99358C341.15 3.8393 345.087 4.6788 348.483 3.78586" stroke="white" stroke-width="2.44694" stroke-miterlimit="10" stroke-linecap="round" stroke-linejoin="round"/>
<path d="M968.304 211.022C958.663 204.178 947.706 207.156 942.546 209.664C930.185 215.672 922.141 225.319 914.364 238.136C908.494 247.801 903.555 258.493 901.529 270.126" stroke="white" stroke-width="2.44694" stroke-miterlimit="10" stroke-linecap="round" stroke-linejoin="round"/>
<path d="M923.192 211.021C909.648 223.264 899.845 241.148 895.956 260.722" stroke="white" stroke-width="2.44694" stroke-miterlimit="10" stroke-linecap="round" stroke-linejoin="round"/>
<path d="M907.607 216.7C898.025 226.435 893.175 240.993 889.346 255.186" stroke="white" stroke-width="2.44694" stroke-miterlimit="10" stroke-linecap="round" stroke-linejoin="round"/>
<path d="M894.211 221.854C889.834 228.436 886.714 236.151 885.146 244.301" stroke="white" stroke-width="2.44694" stroke-miterlimit="10" stroke-linecap="round" stroke-linejoin="round"/>
<path d="M881.76 227.358C879.852 232.077 878.551 237.127 877.944 242.299" stroke="white" stroke-width="2.44694" stroke-miterlimit="10" stroke-linecap="round" stroke-linejoin="round"/>
<path d="M873.673 228.627C871.676 232.336 871.04 239.023 871.972 243.289" stroke="white" stroke-width="2.44694" stroke-miterlimit="10" stroke-linecap="round" stroke-linejoin="round"/>
<path d="M865.791 230.63C864.74 232.737 864.223 241.375 865.14 243.587" stroke="white" stroke-width="2.44694" stroke-miterlimit="10" stroke-linecap="round" stroke-linejoin="round"/>
<path d="M943.55 231.379C934.915 237.648 930.804 245.346 926.886 252.416C923.337 258.79 920.129 267.253 919.301 271.92" stroke="white" stroke-width="2.44694" stroke-miterlimit="10" stroke-linecap="round" stroke-linejoin="round"/>
<path d="M943.552 243.83C938.362 248.567 933.024 258.022 930.141 264.971" stroke="white" stroke-width="2.44694" stroke-miterlimit="10" stroke-linecap="round" stroke-linejoin="round"/>
<path d="M951.285 245.206C944.557 251.841 940.373 259.903 937.992 265.946" stroke="white" stroke-width="2.44694" stroke-miterlimit="10" stroke-linecap="round" stroke-linejoin="round"/>
<path d="M955.662 250.902C952.704 253.915 949.954 259.574 948.874 263.893" stroke="white" stroke-width="2.44694" stroke-miterlimit="10" stroke-linecap="round" stroke-linejoin="round"/>
<path d="M963.765 252.414C960.26 255.81 958.338 260.721 957.791 264.518" stroke="white" stroke-width="2.44694" stroke-miterlimit="10" stroke-linecap="round" stroke-linejoin="round"/>
<path d="M972.134 253.199C970.345 254.262 966.87 261.245 966.204 265.947" stroke="white" stroke-width="2.44694" stroke-miterlimit="10" stroke-linecap="round" stroke-linejoin="round"/>
<path d="M963.158 219.05C958.279 216.699 952.586 216.699 946.598 218.981C942.65 220.496 937.416 224.275 934.192 227.357C923.339 237.719 912.634 256.944 909.573 273" stroke="white" stroke-width="2.44694" stroke-miterlimit="10" stroke-linecap="round" stroke-linejoin="round"/>
</g>
</svg>
