<svg width="573" height="171" viewBox="0 0 573 171" fill="none" xmlns="http://www.w3.org/2000/svg">
<g opacity="0.2">
<path d="M0 2C14.0993 4.43637 20.6673 16.6367 21.9357 21.8637C22.2651 23.2375 22.5822 24.8474 23.9849 25.5021C27.1438 26.994 29.9612 21.7778 33.5104 22.2286C37.2792 22.7008 42.7555 27.9921 45.6339 27.9599C46.878 27.9492 47.7927 26.951 48.8294 26.35C51.6347 24.7401 55.3668 25.4592 58.5257 26.4788C60.1723 27.0047 61.8432 27.638 63.0385 28.7649C64.2338 29.8919 63.0141 34.2387 62.819 34.9685C62.2457 37.1473 65.7706 38.2421 67.3562 39.9808C69.2223 42.0523 69.0393 45.4331 67.7708 47.0967C65.9169 49.5116 63.1483 51.8836 60.8065 52.8925C64.5021 52.4417 68.7222 53.4721 70.6371 55.1464C72.552 56.8208 74.7473 58.6883 77.4062 58.3341C79.8699 58.0014 84.3339 54.2019 86.7732 52.6456C91.0177 49.9302 95.7134 47.0967 100.958 47.3543C106.19 47.6119 111.154 52.8496 108.447 56.7993C117.619 56.6383 125.827 64.688 124.632 72.6947C130.791 70.3013 137.402 67.8542 144.049 68.8416C146.086 69.1421 148.049 69.7646 149.964 70.473C154.404 72.1044 162.905 75.2277 165.003 78.7803C166.442 81.2167 165.442 83.3418 168.918 84.3936C176.846 86.7978 184.932 82.1612 193.262 81.2703C203.556 80.1756 224.913 90.8763 226.291 90.6938C227.547 90.5221 228.608 89.8137 229.73 89.2878C233.877 87.3452 239.427 88.1072 242.72 91.0588C243.622 91.8745 244.403 92.8512 245.525 93.42C246.94 94.1284 248.66 94.0854 250.294 94.0103C255.319 93.7956 260.344 93.581 265.381 93.3663C267.32 91.37 269.613 91.0373 271.199 90.93C281.347 90.2108 293.311 100.332 304.752 95.6739C306.764 94.8582 308.521 93.5166 310.68 93.0873C315.424 92.1428 320.522 95.8349 324.986 94.1069C326.706 89.8137 330.78 86.3041 335.683 84.8766C334.548 83.4491 331.914 77.5997 341.403 71.8576C345.147 69.6037 352.099 69.3675 354.1 72.0722C355.819 74.3798 358.21 77.1489 361.235 76.4298C364.259 75.7107 366.199 72.9845 366.711 70.2691C366.918 69.1851 366.967 68.0044 367.748 67.1351C368.48 66.3194 369.687 65.9974 370.821 65.7076L383.664 62.4341C385.03 62.0799 386.445 61.7364 387.848 61.9404C391.421 62.4663 393.153 66.1691 396.361 67.6503C398.337 68.5518 400.667 68.5304 402.874 68.7343C408.777 69.2817 414.437 71.6858 418.608 75.4102C420.279 76.902 421.328 79.0272 420.449 80.9698C417.327 87.8281 421.291 94.2679 425.121 94.7401C433.158 95.7383 439.232 85.0591 446.758 87.7315C452.575 89.7923 455.576 95.8027 461.333 97.9922C470.639 101.534 481.104 93.4629 491.032 95.2875C517.954 95.6739 567.414 167.701 571 169" stroke="white" stroke-width="2.44694" stroke-miterlimit="10" stroke-linecap="round" stroke-linejoin="round"/>
<path d="M119.142 60.5658C115.519 59.0524 110.726 60.5443 108.189 61.7679C99.8222 65.7929 92.6383 74.3581 88.5159 81.002" stroke="white" stroke-width="2.44694" stroke-miterlimit="10" stroke-linecap="round" stroke-linejoin="round"/>
<path d="M123.668 66.2749C122.009 66.4681 118.508 67.3912 116.972 67.9707C110.129 70.5574 104.433 75.7523 99.4938 82.2029C95.5665 87.3334 92.432 93.3547 90.5293 98.8823" stroke="white" stroke-width="2.44694" stroke-miterlimit="10" stroke-linecap="round" stroke-linejoin="round"/>
<path d="M148.305 69.9033C141.194 70.6117 135.999 73.059 129.547 77.7924C124.826 81.2486 118.24 89.6959 115.02 95.3202" stroke="white" stroke-width="2.44694" stroke-miterlimit="10" stroke-linecap="round" stroke-linejoin="round"/>
<path d="M131.45 70.2466C126.339 71.1803 117.228 77.7701 114.557 80.2708C108.569 85.8839 104.751 91.2395 101.421 97.5609" stroke="white" stroke-width="2.44694" stroke-miterlimit="10" stroke-linecap="round" stroke-linejoin="round"/>
<path d="M157.843 73.6599C156.867 73.6062 153.305 73.5955 149.378 74.6044C139.011 77.2662 130.888 85.6165 127.18 93.033" stroke="white" stroke-width="2.44694" stroke-miterlimit="10" stroke-linecap="round" stroke-linejoin="round"/>
<path d="M164.721 78.3816C161.477 77.1795 157.842 78.2743 155.671 79.3047C151.11 81.4728 145.999 85.9272 141.926 91.8628" stroke="white" stroke-width="2.44694" stroke-miterlimit="10" stroke-linecap="round" stroke-linejoin="round"/>
<path d="M170.345 84.8857C168.235 85.1541 166.32 86.1845 164.771 87.4726C163.222 88.7606 161.99 90.317 160.77 91.8627" stroke="white" stroke-width="2.44694" stroke-miterlimit="10" stroke-linecap="round" stroke-linejoin="round"/>
<path d="M201.751 82.1172C196.286 81.7201 190.005 85.8849 187.407 89.1159" stroke="white" stroke-width="2.44694" stroke-miterlimit="10" stroke-linecap="round" stroke-linejoin="round"/>
<path d="M209.446 84.3501C207.263 84.2965 202.958 85.7024 200.677 87.3124C194.213 91.863 191.31 96.8752 188.663 101.619" stroke="white" stroke-width="2.44694" stroke-miterlimit="10" stroke-linecap="round" stroke-linejoin="round"/>
<path d="M214.911 86.3257C208.312 88.7835 202.324 93.8279 199.799 98.121" stroke="white" stroke-width="2.44694" stroke-miterlimit="10" stroke-linecap="round" stroke-linejoin="round"/>
<path d="M221.924 89.1162C216.191 91.8638 210.861 96.1354 206.263 102.092C203.824 105.247 200.567 111.032 199.799 114.349" stroke="white" stroke-width="2.44694" stroke-miterlimit="10" stroke-linecap="round" stroke-linejoin="round"/>
<path d="M238.78 88.8477C229.754 90.157 221.009 100.224 216.569 108.81" stroke="white" stroke-width="2.44694" stroke-miterlimit="10" stroke-linecap="round" stroke-linejoin="round"/>
<path d="M243.903 92.2269C242.244 92.0981 238.78 94.0193 237.048 95.2858C232.401 98.6774 229.816 102.595 228.01 105.954" stroke="white" stroke-width="2.44694" stroke-miterlimit="10" stroke-linecap="round" stroke-linejoin="round"/>
<path d="M251.55 93.9551C246.134 95.3504 240.719 103.454 238.389 108.348" stroke="white" stroke-width="2.44694" stroke-miterlimit="10" stroke-linecap="round" stroke-linejoin="round"/>
<path d="M261.587 93.5259C258.257 94.7495 250.073 101.147 248.878 107.93" stroke="white" stroke-width="2.44694" stroke-miterlimit="10" stroke-linecap="round" stroke-linejoin="round"/>
<path d="M292.713 96.2524C291.103 96.9072 288.701 99.0323 287.591 100.535C285.554 103.272 284.346 105.44 282.871 108.735" stroke="white" stroke-width="2.44694" stroke-miterlimit="10" stroke-linecap="round" stroke-linejoin="round"/>
<path d="M301.093 96.6826C299.897 97.2944 298.495 98.4858 297.616 99.4303C295.494 101.716 292.713 105.645 291.908 109.101" stroke="white" stroke-width="2.44694" stroke-miterlimit="10" stroke-linecap="round" stroke-linejoin="round"/>
<path d="M311.594 92.9585C310.338 93.4951 309.447 94.0854 308.557 94.8904C306.069 97.1443 304.569 99.9456 301.873 105.87" stroke="white" stroke-width="2.44694" stroke-miterlimit="10" stroke-linecap="round" stroke-linejoin="round"/>
<path d="M285.164 94.0103C280.724 96.3072 277.517 101.706 276.297 104.529" stroke="white" stroke-width="2.44694" stroke-miterlimit="10" stroke-linecap="round" stroke-linejoin="round"/>
<path d="M45.6333 27.9585C41.5108 29.6973 34.0221 37.0173 30.9607 42.6415" stroke="white" stroke-width="2.44694" stroke-miterlimit="10" stroke-linecap="round" stroke-linejoin="round"/>
<path d="M60.16 27.0684C54.6715 27.7338 48.6464 34.2915 46.2437 37.5435" stroke="white" stroke-width="2.44694" stroke-miterlimit="10" stroke-linecap="round" stroke-linejoin="round"/>
<path d="M39.5112 25.0397C37.6817 24.868 34.5227 26.1237 32.2663 27.637C28.4 30.2451 25.485 32.9712 21.9114 38.0049" stroke="white" stroke-width="2.44694" stroke-miterlimit="10" stroke-linecap="round" stroke-linejoin="round"/>
<path d="M450.599 96.1885C447.489 97.8735 446.123 99.7196 444.72 101.888C443.318 104.056 442.403 106.438 441.574 108.821" stroke="white" stroke-width="2.44694" stroke-miterlimit="10" stroke-linecap="round" stroke-linejoin="round"/>
<path d="M463.052 98.5179C459.6 98.314 456.112 101.104 454.148 103.24C451.941 105.623 450.721 108.628 449.916 111.622" stroke="white" stroke-width="2.44694" stroke-miterlimit="10" stroke-linecap="round" stroke-linejoin="round"/>
<path d="M472.638 98.088C471.516 98.0666 466.833 100.32 464.491 104.388C462.735 107.436 460.966 111.182 460.563 115.304" stroke="white" stroke-width="2.44694" stroke-miterlimit="10" stroke-linecap="round" stroke-linejoin="round"/>
<path d="M387.03 61.8755C385.42 62.4336 383.981 63.2171 382.322 65.2457C380.237 67.8001 379.005 70.0219 377.615 73.4028" stroke="white" stroke-width="2.44694" stroke-miterlimit="10" stroke-linecap="round" stroke-linejoin="round"/>
<path d="M394.115 66.1791C392.359 66.104 389.298 67.8212 386.737 71.6422C383.37 76.6652 382.09 79.5953 379.979 85.1227" stroke="white" stroke-width="2.44694" stroke-miterlimit="10" stroke-linecap="round" stroke-linejoin="round"/>
<path d="M398.824 68.3462C397.958 68.5716 395.555 70.2781 393.896 72.3174C391.628 75.1294 390.127 78.3063 388.969 81.6013" stroke="white" stroke-width="2.44694" stroke-miterlimit="10" stroke-linecap="round" stroke-linejoin="round"/>
<path d="M408.362 69.7861C406.777 70.4838 403.801 72.0186 401.923 73.9291C400.191 75.6894 398.825 77.3101 397.568 80.3583" stroke="white" stroke-width="2.44694" stroke-miterlimit="10" stroke-linecap="round" stroke-linejoin="round"/>
<path d="M417.826 74.7541C415.801 74.0994 412.252 74.9258 409.13 77.7164C405.922 80.5822 404.532 84.21 403.58 88.1383" stroke="white" stroke-width="2.44694" stroke-miterlimit="10" stroke-linecap="round" stroke-linejoin="round"/>
<path d="M420.681 78.864C419.937 78.7782 417.827 79.6798 416.217 81.1074C414.155 82.9322 412.46 85.519 411.618 87.6658" stroke="white" stroke-width="2.44694" stroke-miterlimit="10" stroke-linecap="round" stroke-linejoin="round"/>
</g>
</svg>
