<svg width="721" height="470" viewBox="0 0 721 470" fill="none" xmlns="http://www.w3.org/2000/svg">
<g opacity="0.2">
<path d="M1.99988 367C4.82497 365.798 18.8942 356.838 21.9248 356.205C28.5851 354.814 35.742 360.254 42.0086 357.708C44.4227 351.382 50.1414 346.21 57.0244 344.107C55.432 342.003 51.7337 333.384 65.0544 324.923C70.3108 321.602 80.0703 321.254 82.8783 325.239C85.2924 328.64 88.6483 332.72 92.8945 331.66C97.1407 330.601 99.8631 326.584 100.582 322.582C100.873 320.985 100.942 319.245 102.038 317.964C103.065 316.762 104.76 316.288 106.352 315.861L124.382 311.037C126.299 310.515 128.285 310.009 130.254 310.31C135.271 311.085 137.702 316.541 142.205 318.723C144.979 320.052 148.249 320.02 151.348 320.321C159.635 321.127 167.58 324.67 173.435 330.158C175.781 332.356 177.254 335.487 176.021 338.35C171.638 348.456 177.202 357.945 182.578 358.641C193.862 360.112 202.388 344.376 212.952 348.314C221.119 351.35 225.331 360.207 233.413 363.433C246.477 368.652 261.167 356.759 275.104 359.448C280.429 360.476 284.984 363.544 290.017 365.457C302.122 370.044 316.693 367.814 327.908 374.045C329.346 374.852 330.802 375.911 331.127 377.429C331.435 378.837 330.682 380.245 330.716 381.684C330.819 386.207 337.325 387.377 341.913 388.911C349.276 391.363 365.901 398.685 376.328 406.229C396.389 420.743 419.641 462.831 423.544 467.999" stroke="white" stroke-width="2.44694" stroke-miterlimit="10" stroke-linecap="round" stroke-linejoin="round"/>
<path d="M23.2084 356.016C21.4449 356.806 20.1949 357.676 18.945 358.862C15.4522 362.184 13.3462 366.311 9.56232 375.042" stroke="white" stroke-width="2.44694" stroke-miterlimit="10" stroke-linecap="round" stroke-linejoin="round"/>
<path d="M150.714 383.787C144.208 386.76 139.02 390.745 135.527 395.221C132.035 399.697 129.894 405.232 130.408 410.736" stroke="white" stroke-width="2.44694" stroke-miterlimit="10" stroke-linecap="round" stroke-linejoin="round"/>
<path d="M162.99 386.824C155.902 389.781 146.827 398.844 146.827 404.759" stroke="white" stroke-width="2.44694" stroke-miterlimit="10" stroke-linecap="round" stroke-linejoin="round"/>
<path d="M175.831 388.564C170.695 390.509 164.565 396.187 162.322 402.259" stroke="white" stroke-width="2.44694" stroke-miterlimit="10" stroke-linecap="round" stroke-linejoin="round"/>
<path d="M187.681 391.791C184.873 392.566 181.671 394.274 178.383 397.405C175.473 400.173 174.497 402.118 173.384 405.138" stroke="white" stroke-width="2.44694" stroke-miterlimit="10" stroke-linecap="round" stroke-linejoin="round"/>
<path d="M192.337 400.536C188.553 402.576 184.118 407.146 182.132 411.748" stroke="white" stroke-width="2.44694" stroke-miterlimit="10" stroke-linecap="round" stroke-linejoin="round"/>
<path d="M208.501 359.069C204.991 359.749 201.789 361.789 198.861 364.414C193.811 368.953 191.55 373.84 189.342 380.024C188.023 383.708 187.527 387.931 187.681 391.805" stroke="white" stroke-width="2.44694" stroke-miterlimit="10" stroke-linecap="round" stroke-linejoin="round"/>
<path d="M218.347 360.777C213.98 363.26 212.063 365.98 210.094 369.174C208.125 372.369 206.841 375.88 205.676 379.391" stroke="white" stroke-width="2.44694" stroke-miterlimit="10" stroke-linecap="round" stroke-linejoin="round"/>
<path d="M235.828 364.208C230.982 363.907 226.085 368.019 223.329 371.167C220.23 374.678 218.517 379.106 217.387 383.518" stroke="white" stroke-width="2.44694" stroke-miterlimit="10" stroke-linecap="round" stroke-linejoin="round"/>
<path d="M249.285 363.575C247.71 363.544 241.135 366.865 237.847 372.859C235.382 377.351 232.899 382.87 232.334 388.943" stroke="white" stroke-width="2.44694" stroke-miterlimit="10" stroke-linecap="round" stroke-linejoin="round"/>
<path d="M331.333 383.883C321.351 385.702 311.591 391.427 306.455 397.516" stroke="white" stroke-width="2.44694" stroke-miterlimit="10" stroke-linecap="round" stroke-linejoin="round"/>
<path d="M339.415 388.136C332.412 390.208 325.118 394.162 319.331 398.369" stroke="white" stroke-width="2.44694" stroke-miterlimit="10" stroke-linecap="round" stroke-linejoin="round"/>
<path d="M352.343 393.055C350.648 392.866 348.011 392.992 345.734 393.735C341.059 395.254 337.31 397.467 333.286 400.14" stroke="white" stroke-width="2.44694" stroke-miterlimit="10" stroke-linecap="round" stroke-linejoin="round"/>
<path d="M362.169 397.768C356.159 397.72 349.002 400.962 344.191 404.267" stroke="white" stroke-width="2.44694" stroke-miterlimit="10" stroke-linecap="round" stroke-linejoin="round"/>
<path d="M371.141 402.797C366.262 403.177 357.701 405.897 354.003 408.839" stroke="white" stroke-width="2.44694" stroke-miterlimit="10" stroke-linecap="round" stroke-linejoin="round"/>
<path d="M374.6 409.74C369.84 410.594 365.32 412.649 361.69 415.621" stroke="white" stroke-width="2.44694" stroke-miterlimit="10" stroke-linecap="round" stroke-linejoin="round"/>
<path d="M378.367 415.639C375.542 416.224 372.837 417.22 370.354 418.595" stroke="white" stroke-width="2.44694" stroke-miterlimit="10" stroke-linecap="round" stroke-linejoin="round"/>
<path d="M383.383 422.362C381.449 422.82 379.599 423.547 377.922 424.526" stroke="white" stroke-width="2.44694" stroke-miterlimit="10" stroke-linecap="round" stroke-linejoin="round"/>
<path d="M385.232 428.671C383.657 428.908 382.133 429.508 380.849 430.378" stroke="white" stroke-width="2.44694" stroke-miterlimit="10" stroke-linecap="round" stroke-linejoin="round"/>
<path d="M388.006 434.903C386.756 435.108 385.592 435.694 384.736 436.549" stroke="white" stroke-width="2.44694" stroke-miterlimit="10" stroke-linecap="round" stroke-linejoin="round"/>
<path d="M129.107 310.214C126.847 311.037 124.827 312.191 122.498 315.18C119.57 318.944 117.841 322.218 115.889 327.2" stroke="white" stroke-width="2.44694" stroke-miterlimit="10" stroke-linecap="round" stroke-linejoin="round"/>
<path d="M139.053 316.557C136.588 316.446 132.29 318.976 128.695 324.607C123.969 332.008 122.171 336.326 119.209 344.471" stroke="white" stroke-width="2.44694" stroke-miterlimit="10" stroke-linecap="round" stroke-linejoin="round"/>
<path d="M145.663 319.751C144.447 320.083 141.074 322.598 138.746 325.602C135.561 329.746 133.455 334.428 131.828 339.283" stroke="white" stroke-width="2.44694" stroke-miterlimit="10" stroke-linecap="round" stroke-linejoin="round"/>
<path d="M159.053 321.871C156.827 322.899 152.649 325.161 150.012 327.976C147.581 330.569 145.663 332.957 143.9 337.449" stroke="white" stroke-width="2.44694" stroke-miterlimit="10" stroke-linecap="round" stroke-linejoin="round"/>
<path d="M172.339 329.193C169.496 328.228 164.514 329.446 160.131 333.558C155.628 337.781 153.676 343.126 152.34 348.915" stroke="white" stroke-width="2.44694" stroke-miterlimit="10" stroke-linecap="round" stroke-linejoin="round"/>
<path d="M176.346 335.25C175.301 335.123 172.339 336.452 170.079 338.555C167.185 341.244 164.805 345.055 163.624 348.218" stroke="white" stroke-width="2.44694" stroke-miterlimit="10" stroke-linecap="round" stroke-linejoin="round"/>
<path d="M1.99988 269C5.1257 264.525 17.9231 246.294 23.608 245.349C26.0297 244.939 34.806 244.782 35.2697 242.544C35.6991 240.496 29.1212 240.04 26.3732 236.983C23.4019 233.706 24.6213 228.413 27.8502 225.341C31.0791 222.284 35.8708 221.024 40.508 220.772C45.3857 220.504 51.895 220.126 52.8568 215.731C53.2174 214.077 52.5476 212.296 53.2003 210.721C55.2441 205.837 63.883 210.422 68.9668 208.074C70.8045 207.223 71.9896 205.506 73.7071 204.466C78.5675 201.583 84.6817 205.16 89.6624 207.869C94.6431 210.579 102.887 211.414 104.57 206.341C100.036 206.294 98.2156 199.409 102.2 197.456C103.454 196.841 104.948 196.731 106.236 196.18C109.517 194.793 110.736 191.044 110.788 187.735C110.839 184.427 110.135 181.024 111.114 177.842C112.728 172.58 118.722 169.256 124.648 168.61C130.573 167.964 136.498 169.445 142.235 170.926C144.038 171.382 145.996 171.95 147.027 173.383C148.624 175.62 147.164 178.566 147.078 181.245C146.906 187.074 155.391 191.327 160.646 188.05C165.524 181.134 175.606 177.747 184.21 180.126C192.798 182.505 199.169 190.445 199.066 198.685C196.627 202.277 194.206 205.869 191.767 209.46C191.217 210.28 190.633 211.241 190.925 212.17C191.286 213.368 192.832 213.84 194.154 214.124C197.074 211.776 199.753 209.145 202.673 206.798C206.005 204.12 209.388 201.41 213.442 199.756C219.71 197.188 234.172 199.85 234.034 200.229C235.992 196.637 237.349 194.006 242.038 191.375C244.992 189.72 248.496 189.878 251.261 190.414C254.026 190.949 257.529 192.115 261.342 190.855C261.686 190.744 262.493 189.232 262.51 188.87C262.63 186.333 264.417 183.907 266.941 182.883C269.466 181.843 272.626 182.253 274.756 183.86C281.54 179.433 288.599 175.132 295.383 170.705C298.097 168.925 300.896 167.129 304.125 166.388C310.909 164.829 317.745 168.247 323.739 171.556C330.007 175.006 337.049 179.59 337.186 186.286C337.272 189.909 335.435 194.258 338.303 196.747C339.746 197.991 341.875 198.212 343.833 198.37C347.955 198.7 352.936 198.653 355.134 195.439C356.13 193.99 356.354 192.068 357.71 190.886C358.896 189.862 360.819 189.5 361.455 188.129C362.038 186.869 361.197 185.451 361.18 184.065C361.145 181.512 363.996 179.669 366.727 179.181C369.458 178.708 372.309 179.102 375.04 178.582C379.952 177.684 389.715 168.953 407.28 170.705C453.315 175.297 710.552 465.166 715 467.261" stroke="white" stroke-width="2.44694" stroke-miterlimit="10" stroke-linecap="round" stroke-linejoin="round"/>
<path d="M217.987 213.124C210.162 218.485 206.652 226.535 203.45 234.206" stroke="white" stroke-width="2.44694" stroke-miterlimit="10" stroke-linecap="round" stroke-linejoin="round"/>
<path d="M233.328 211.337C221.856 222.202 213.963 235.282 210.556 249.026" stroke="white" stroke-width="2.44694" stroke-miterlimit="10" stroke-linecap="round" stroke-linejoin="round"/>
<path d="M235.28 222.028C230.554 227.595 226.959 233.732 224.63 240.137" stroke="white" stroke-width="2.44694" stroke-miterlimit="10" stroke-linecap="round" stroke-linejoin="round"/>
<path d="M248.412 219.688C244.389 224.432 240.793 229.382 237.677 234.506" stroke="white" stroke-width="2.44694" stroke-miterlimit="10" stroke-linecap="round" stroke-linejoin="round"/>
<path d="M258.788 219.672C254.217 224.67 250.347 230.047 247.282 235.677" stroke="white" stroke-width="2.44694" stroke-miterlimit="10" stroke-linecap="round" stroke-linejoin="round"/>
<path d="M275.978 212.476C266.236 222.866 256.237 233.715 253.172 246.32" stroke="white" stroke-width="2.44694" stroke-miterlimit="10" stroke-linecap="round" stroke-linejoin="round"/>
<path d="M281.766 220.193C276.167 225.618 271.544 231.66 268.12 238.065" stroke="white" stroke-width="2.44694" stroke-miterlimit="10" stroke-linecap="round" stroke-linejoin="round"/>
<path d="M288.22 224.574C282.998 229.192 279.009 234.617 276.56 240.421" stroke="white" stroke-width="2.44694" stroke-miterlimit="10" stroke-linecap="round" stroke-linejoin="round"/>
<path d="M294.025 230.252C291.166 233.653 289.06 237.401 287.793 241.323" stroke="white" stroke-width="2.44694" stroke-miterlimit="10" stroke-linecap="round" stroke-linejoin="round"/>
<path d="M300.634 234.127C297.963 236.974 296.079 240.264 295.137 243.696" stroke="white" stroke-width="2.44694" stroke-miterlimit="10" stroke-linecap="round" stroke-linejoin="round"/>
<path d="M305.257 240.374C303.271 243.806 301.764 247.396 300.805 251.081" stroke="white" stroke-width="2.44694" stroke-miterlimit="10" stroke-linecap="round" stroke-linejoin="round"/>
<path d="M315.735 194.303C308.304 203.065 303.852 213.962 303.15 225.064" stroke="white" stroke-width="2.44694" stroke-miterlimit="10" stroke-linecap="round" stroke-linejoin="round"/>
<path d="M318.886 204.252C315.564 209.961 313.458 216.271 312.722 222.723" stroke="white" stroke-width="2.44694" stroke-miterlimit="10" stroke-linecap="round" stroke-linejoin="round"/>
<path d="M326.419 212.222C322.892 217.932 320.581 224.258 319.639 230.774" stroke="white" stroke-width="2.44694" stroke-miterlimit="10" stroke-linecap="round" stroke-linejoin="round"/>
<path d="M334.415 218.391C331.042 221.791 329.124 226.393 329.176 231.012" stroke="white" stroke-width="2.44694" stroke-miterlimit="10" stroke-linecap="round" stroke-linejoin="round"/>
<path d="M340.869 221.742C338.9 224.652 337.53 227.893 336.828 231.246" stroke="white" stroke-width="2.44694" stroke-miterlimit="10" stroke-linecap="round" stroke-linejoin="round"/>
<path d="M347.616 223.751C345.972 226.266 344.431 230.125 344.226 233.051" stroke="white" stroke-width="2.44694" stroke-miterlimit="10" stroke-linecap="round" stroke-linejoin="round"/>
<path d="M354.311 225.57C353.181 227.847 352.599 230.773 352.136 233.382" stroke="white" stroke-width="2.44694" stroke-miterlimit="10" stroke-linecap="round" stroke-linejoin="round"/>
<path d="M362.118 226.963C360.885 228.797 360.303 230.995 360.457 233.145" stroke="white" stroke-width="2.44694" stroke-miterlimit="10" stroke-linecap="round" stroke-linejoin="round"/>
<path d="M9.98034 266C7.17305 269.322 3.5978 274.498 2.49872 279" stroke="white" stroke-width="2.44694" stroke-miterlimit="10" stroke-linecap="round" stroke-linejoin="round"/>
<path d="M10.7396 274C9.18149 275.912 8.06853 278.11 7.48639 280.449" stroke="white" stroke-width="2.44694" stroke-miterlimit="10" stroke-linecap="round" stroke-linejoin="round"/>
<path d="M15.4187 276.115C14.34 277.064 12.5594 280.29 12.5594 282.599" stroke="white" stroke-width="2.44694" stroke-miterlimit="10" stroke-linecap="round" stroke-linejoin="round"/>
<path d="M23.0025 277.082C21.3417 278.536 19.4755 282.015 19.4755 285.272" stroke="white" stroke-width="2.44694" stroke-miterlimit="10" stroke-linecap="round" stroke-linejoin="round"/>
<path d="M36.9056 271.007C33.0874 274.091 30.4164 278.251 28.7042 282.663C26.992 287.076 26.1873 291.742 25.7079 296.407" stroke="white" stroke-width="2.44694" stroke-miterlimit="10" stroke-linecap="round" stroke-linejoin="round"/>
<path d="M39.7131 278.586C36.9737 282.318 35.3129 286.699 34.9191 291.19" stroke="white" stroke-width="2.44694" stroke-miterlimit="10" stroke-linecap="round" stroke-linejoin="round"/>
<path d="M46.2029 281.542C44.3024 284.072 43.3263 287.172 43.4462 290.256" stroke="white" stroke-width="2.44694" stroke-miterlimit="10" stroke-linecap="round" stroke-linejoin="round"/>
<path d="M54.8485 283.581C53.6328 285.162 53.0164 287.123 53.1191 289.052" stroke="white" stroke-width="2.44694" stroke-miterlimit="10" stroke-linecap="round" stroke-linejoin="round"/>
<path d="M293.066 410.973C281.903 404.758 269.216 407.462 263.24 409.74C248.926 415.196 239.612 423.958 230.606 435.598C223.808 444.375 218.09 454.086 215.744 464.65" stroke="white" stroke-width="2.44694" stroke-miterlimit="10" stroke-linecap="round" stroke-linejoin="round"/>
<path d="M240.827 410.974C225.143 422.092 213.792 438.335 209.289 456.111" stroke="white" stroke-width="2.44694" stroke-miterlimit="10" stroke-linecap="round" stroke-linejoin="round"/>
<path d="M222.78 416.129C211.685 424.97 206.069 438.192 201.635 451.082" stroke="white" stroke-width="2.44694" stroke-miterlimit="10" stroke-linecap="round" stroke-linejoin="round"/>
<path d="M207.267 420.811C202.199 426.79 198.586 433.796 196.771 441.198" stroke="white" stroke-width="2.44694" stroke-miterlimit="10" stroke-linecap="round" stroke-linejoin="round"/>
<path d="M192.85 425.808C190.641 430.094 189.135 434.681 188.433 439.378" stroke="white" stroke-width="2.44694" stroke-miterlimit="10" stroke-linecap="round" stroke-linejoin="round"/>
<path d="M183.486 426.964C181.174 430.332 180.438 436.405 181.516 440.28" stroke="white" stroke-width="2.44694" stroke-miterlimit="10" stroke-linecap="round" stroke-linejoin="round"/>
<path d="M174.359 428.783C173.143 430.696 172.544 438.54 173.605 440.548" stroke="white" stroke-width="2.44694" stroke-miterlimit="10" stroke-linecap="round" stroke-linejoin="round"/>
<path d="M264.404 429.463C254.405 435.156 249.645 442.146 245.108 448.567C240.999 454.356 237.283 462.042 236.324 466.28" stroke="white" stroke-width="2.44694" stroke-miterlimit="10" stroke-linecap="round" stroke-linejoin="round"/>
<path d="M264.404 440.771C258.394 445.072 252.213 453.659 248.874 459.969" stroke="white" stroke-width="2.44694" stroke-miterlimit="10" stroke-linecap="round" stroke-linejoin="round"/>
<path d="M273.359 442.019C265.568 448.045 260.723 455.367 257.966 460.855" stroke="white" stroke-width="2.44694" stroke-miterlimit="10" stroke-linecap="round" stroke-linejoin="round"/>
<path d="M278.427 447.191C275.002 449.927 271.818 455.067 270.568 458.989" stroke="white" stroke-width="2.44694" stroke-miterlimit="10" stroke-linecap="round" stroke-linejoin="round"/>
<path d="M287.809 448.567C283.751 451.651 281.525 456.111 280.892 459.558" stroke="white" stroke-width="2.44694" stroke-miterlimit="10" stroke-linecap="round" stroke-linejoin="round"/>
<path d="M297.5 449.279C295.428 450.243 291.405 456.585 290.634 460.856" stroke="white" stroke-width="2.44694" stroke-miterlimit="10" stroke-linecap="round" stroke-linejoin="round"/>
<path d="M287.107 418.265C281.457 416.13 274.865 416.13 267.931 418.202C263.359 419.578 257.298 423.01 253.566 425.809C240.998 435.219 228.602 452.679 225.058 467.261" stroke="white" stroke-width="2.44694" stroke-miterlimit="10" stroke-linecap="round" stroke-linejoin="round"/>
<path d="M593.184 189.476C587.972 217.71 561.043 236.333 533.042 231.081C505.041 225.829 486.559 198.688 491.771 170.454C496.983 142.22 523.913 123.597 551.914 128.849C579.915 134.101 598.396 161.242 593.184 189.476Z" fill="white" stroke="white"/>
<path d="M463.383 165.13L409.813 155.082" stroke="white" stroke-width="2.8346" stroke-miterlimit="10" stroke-linecap="round"/>
<path d="M528.06 253.389L524.928 266.329" stroke="white" stroke-width="2.8346" stroke-miterlimit="10" stroke-linecap="round"/>
<path d="M621.569 194.801L675.148 204.85" stroke="white" stroke-width="2.8346" stroke-miterlimit="10" stroke-linecap="round"/>
<path d="M553.87 118.244L563.84 64.2363" stroke="white" stroke-width="2.8346" stroke-miterlimit="10" stroke-linecap="round"/>
<path d="M480.488 173.906L426.241 168.602" stroke="white" stroke-width="2.8346" stroke-miterlimit="10" stroke-linecap="round"/>
<path d="M536.466 242.46L532.415 273.338" stroke="white" stroke-width="2.8346" stroke-miterlimit="10" stroke-linecap="round"/>
<path d="M604.476 186.026L658.723 191.331" stroke="white" stroke-width="2.8346" stroke-miterlimit="10" stroke-linecap="round"/>
<path d="M550.25 99.2511L557.263 26.3491" stroke="white" stroke-width="2.8346" stroke-miterlimit="10" stroke-linecap="round"/>
<path d="M462.016 179.2L427.585 179.201" stroke="white" stroke-width="2.8346" stroke-miterlimit="10" stroke-linecap="round"/>
<path d="M541.89 242.752L540.438 281.424" stroke="white" stroke-width="2.8346" stroke-miterlimit="10" stroke-linecap="round"/>
<path d="M604.762 180.564L695.584 181.426" stroke="white" stroke-width="2.8346" stroke-miterlimit="10" stroke-linecap="round"/>
<path d="M543.067 117.188L543.406 80.5444" stroke="white" stroke-width="2.8346" stroke-miterlimit="10" stroke-linecap="round"/>
<path d="M480.382 184.848L444.134 187.7" stroke="white" stroke-width="2.8346" stroke-miterlimit="10" stroke-linecap="round"/>
<path d="M547.318 242.563L550.6 291.667" stroke="white" stroke-width="2.8346" stroke-miterlimit="10" stroke-linecap="round"/>
<path d="M604.578 175.083L640.816 172.238" stroke="white" stroke-width="2.8346" stroke-miterlimit="10" stroke-linecap="round"/>
<path d="M537.631 117.374L536.225 99.1026L531.986 44.3184" fill="white"/>
<path d="M537.631 117.374L536.225 99.1026L531.986 44.3184" stroke="white" stroke-width="2.8346" stroke-miterlimit="10" stroke-linecap="round"/>
<path d="M463.102 193.295L448.979 195.704" stroke="white" stroke-width="2.8346" stroke-miterlimit="10" stroke-linecap="round"/>
<path d="M555.7 259.984L560.762 301.912" stroke="white" stroke-width="2.8346" stroke-miterlimit="10" stroke-linecap="round"/>
<path d="M621.86 166.637L675.623 157.602" stroke="white" stroke-width="2.8346" stroke-miterlimit="10" stroke-linecap="round"/>
<path d="M529.252 99.9536L520.291 45.7524" stroke="white" stroke-width="2.8346" stroke-miterlimit="10" stroke-linecap="round"/>
<path d="M482.162 195.646L455.932 202.172" stroke="white" stroke-width="2.8346" stroke-miterlimit="10" stroke-linecap="round"/>
<path d="M558.034 240.761L567.11 276.251" stroke="white" stroke-width="2.8346" stroke-miterlimit="10" stroke-linecap="round"/>
<path d="M602.789 164.292L655.798 150.509" stroke="white" stroke-width="2.8346" stroke-miterlimit="10" stroke-linecap="round"/>
<path d="M517.81 83.5418L504.253 30.5151" stroke="white" stroke-width="2.8346" stroke-miterlimit="10" stroke-linecap="round"/>
<path d="M469.106 205.829L463.42 207.926" stroke="white" stroke-width="2.8346" stroke-miterlimit="10" stroke-linecap="round"/>
<path d="M569.3 256.495L587.438 308.248" stroke="white" stroke-width="2.8346" stroke-miterlimit="10" stroke-linecap="round"/>
<path d="M618.344 152.943L686.848 128.552" stroke="white" stroke-width="2.8346" stroke-miterlimit="10" stroke-linecap="round"/>
<path d="M521.735 120.765L497.726 52.29" stroke="white" stroke-width="2.8346" stroke-miterlimit="10" stroke-linecap="round"/>
<path d="M485.782 205.958L468.768 213.494" stroke="white" stroke-width="2.8346" stroke-miterlimit="10" stroke-linecap="round"/>
<path d="M568.27 237.122L590.832 287.126" stroke="white" stroke-width="2.8346" stroke-miterlimit="10" stroke-linecap="round"/>
<path d="M599.178 153.972L632.755 138.572" stroke="white" stroke-width="2.8346" stroke-miterlimit="10" stroke-linecap="round"/>
<path d="M509.168 106.144L493.99 72.5166" stroke="white" stroke-width="2.8346" stroke-miterlimit="10" stroke-linecap="round"/>
<path d="M488.246 210.844L474.652 217.807" stroke="white" stroke-width="2.8346" stroke-miterlimit="10" stroke-linecap="round"/>
<path d="M582.047 250.581L617.782 314.35" stroke="white" stroke-width="2.8346" stroke-miterlimit="10" stroke-linecap="round"/>
<path d="M612.522 140.085L659.978 113.066" stroke="white" stroke-width="2.8346" stroke-miterlimit="10" stroke-linecap="round"/>
<path d="M511.841 125.3L476.108 61.5225" stroke="white" stroke-width="2.8346" stroke-miterlimit="10" stroke-linecap="round"/>
<path d="M491.126 215.493L480 222.659" stroke="white" stroke-width="2.8346" stroke-miterlimit="10" stroke-linecap="round"/>
<path d="M577.721 231.736L598.276 261.931" stroke="white" stroke-width="2.8346" stroke-miterlimit="10" stroke-linecap="round"/>
<path d="M593.836 144.439L608.817 134.084L638.682 113.425" fill="white"/>
<path d="M593.836 144.439L608.817 134.084L638.682 113.425" stroke="white" stroke-width="2.8346" stroke-miterlimit="10" stroke-linecap="round"/>
<path d="M496.958 113.102L455.846 52.7129" stroke="white" stroke-width="2.8346" stroke-miterlimit="10" stroke-linecap="round"/>
<path d="M593.732 242.728L628.242 284.99" stroke="white" stroke-width="2.8346" stroke-miterlimit="10" stroke-linecap="round"/>
<path d="M604.599 128.431L660.7 81.8792" stroke="white" stroke-width="2.8346" stroke-miterlimit="10" stroke-linecap="round"/>
<path d="M502.896 131.489L468.264 89.082" stroke="white" stroke-width="2.8346" stroke-miterlimit="10" stroke-linecap="round"/>
<path d="M498.021 223.945L489.093 231.824" stroke="white" stroke-width="2.8346" stroke-miterlimit="10" stroke-linecap="round"/>
<path d="M586.108 224.776L624.277 263.992" stroke="white" stroke-width="2.8346" stroke-miterlimit="10" stroke-linecap="round"/>
<path d="M586.941 135.994L612.872 110.34" stroke="white" stroke-width="2.8346" stroke-miterlimit="10" stroke-linecap="round"/>
<path d="M485.936 121.885L447.956 82.8701" stroke="white" stroke-width="2.8346" stroke-miterlimit="10" stroke-linecap="round"/>
<path d="M617.511 244.654L658.839 280.284" stroke="white" stroke-width="2.8346" stroke-miterlimit="10" stroke-linecap="round"/>
<path d="M582.967 132.251L630.128 76.6698" stroke="white" stroke-width="2.8346" stroke-miterlimit="10" stroke-linecap="round"/>
<path d="M495.15 139.155L453.715 103.444" stroke="white" stroke-width="2.8346" stroke-miterlimit="10" stroke-linecap="round"/>
<path d="M506.275 231.053L498.72 239.911" stroke="white" stroke-width="2.8346" stroke-miterlimit="10" stroke-linecap="round"/>
<path d="M593.158 216.465L637.526 248.408" stroke="white" stroke-width="2.8346" stroke-miterlimit="10" stroke-linecap="round"/>
<path d="M578.689 128.877L610.378 84.1539" stroke="white" stroke-width="2.8346" stroke-miterlimit="10" stroke-linecap="round"/>
<path d="M477.005 132.822L417.896 90.2554" stroke="white" stroke-width="2.8346" stroke-miterlimit="10" stroke-linecap="round"/>
<path d="M611.791 221.185L658.731 249.108" stroke="white" stroke-width="2.8346" stroke-miterlimit="10" stroke-linecap="round"/>
<path d="M583.369 110.104L620.281 47.0414" stroke="white" stroke-width="2.8346" stroke-miterlimit="10" stroke-linecap="round"/>
<path d="M473.242 138.787L426.268 110.857" stroke="white" stroke-width="2.8346" stroke-miterlimit="10" stroke-linecap="round"/>
<path d="M515.617 236.622L508.347 249.077" stroke="white" stroke-width="2.8346" stroke-miterlimit="10" stroke-linecap="round"/>
<path d="M598.679 207.038L631.475 222.84" stroke="white" stroke-width="2.8346" stroke-miterlimit="10" stroke-linecap="round"/>
<path d="M569.333 123.321L585.012 90.2543" stroke="white" stroke-width="2.8346" stroke-miterlimit="10" stroke-linecap="round"/>
<path d="M486.282 152.894L437.087 129.199" stroke="white" stroke-width="2.8346" stroke-miterlimit="10" stroke-linecap="round"/>
<path d="M617.823 208.426L685.857 234.125" stroke="white" stroke-width="2.8346" stroke-miterlimit="10" stroke-linecap="round"/>
<path d="M570.712 104.016L583.911 68.4997" stroke="white" stroke-width="2.8346" stroke-miterlimit="10" stroke-linecap="round"/>
<path d="M467.129 151.505L399.102 125.815" stroke="white" stroke-width="2.8346" stroke-miterlimit="10" stroke-linecap="round"/>
<path d="M525.794 240.457L516.905 258.242" stroke="white" stroke-width="2.8346" stroke-miterlimit="10" stroke-linecap="round"/>
<path d="M602.486 196.789L654.995 211.508" stroke="white" stroke-width="2.8346" stroke-miterlimit="10" stroke-linecap="round"/>
<path d="M564.037 101.835L578.773 48.4075" stroke="white" stroke-width="2.8346" stroke-miterlimit="10" stroke-linecap="round"/>
<path d="M482.474 163.141L447.462 153.331" stroke="white" stroke-width="2.8346" stroke-miterlimit="10" stroke-linecap="round"/>
<path d="M430.198 174.001C429.84 176.102 429.517 178.003 428.999 180.501C426.494 178.97 423.788 177.221 421.651 175.815C420.497 175.056 419.51 174.398 418.811 173.93C418.462 173.696 418.185 173.51 417.995 173.382L417.778 173.235L417.722 173.197L417.708 173.188L417.705 173.185L417.704 173.185L417.703 173.184L417.424 173.598L417.703 173.184L417.657 173.153L417.605 173.132L417.604 173.132L417.604 173.132L417.6 173.131L417.588 173.126L417.54 173.107L417.353 173.035C417.191 172.972 416.955 172.881 416.661 172.768C416.071 172.544 415.247 172.233 414.305 171.888C412.428 171.2 410.073 170.375 408.185 169.83C407.267 169.525 406.486 169.675 405.979 169.772L405.954 169.777C405.758 169.815 405.644 169.833 405.573 169.839C405.554 169.715 405.552 169.477 405.607 169.047C405.668 168.57 405.79 167.914 405.984 167.016C406.348 165.337 406.952 162.859 407.84 159.21L408.028 158.441L408.031 158.427L408.034 158.413C420.409 91.3742 486.577 43.9937 553.014 56.4552C555.308 56.8854 557.576 57.3801 559.817 57.9343C499.283 55.1618 444.44 97.7273 433.031 159.506C431.66 165.738 430.986 169.418 430.469 172.414C430.374 172.963 430.285 173.488 430.198 174.001Z" fill="white" stroke="white"/>
</g>
</svg>
